<svg xmlns="http://www.w3.org/2000/svg" xmlns:xlink="http://www.w3.org/1999/xlink" width="100" zoomAndPan="magnify" viewBox="0 0 75 74.999997" height="100" preserveAspectRatio="xMidYMid meet" version="1.0"><defs><g/><clipPath id="0c2099dd50"><path d="M 2.8125 0 L 72 0 L 72 75 L 2.8125 75 Z M 2.8125 0 " clip-rule="nonzero"/></clipPath></defs><path fill="#ffffff" d="M 57.621094 43.347656 C 62.242188 39.722656 64.933594 34.28125 64.933594 28.375 C 64.933594 23.109375 62.710938 18.019531 58.910156 14.453125 C 55.105469 10.886719 50.136719 9.128906 44.871094 9.480469 C 35.570312 10.125 28.140625 17.730469 27.496094 27.089844 C 27.144531 33.40625 29.835938 39.488281 34.808594 43.347656 C 36.738281 44.871094 37.851562 46.976562 37.851562 49.082031 L 37.851562 52.648438 C 37.851562 53.703125 38.378906 54.757812 39.136719 55.457031 L 39.136719 65.636719 C 39.136719 66.6875 39.839844 67.625 40.835938 67.976562 L 41.183594 68.09375 C 42.355469 68.503906 43.992188 69.027344 46.097656 69.027344 C 48.261719 69.027344 50.019531 68.445312 51.1875 68.09375 L 51.421875 68.035156 C 51.714844 67.917969 51.949219 67.800781 52.183594 67.625 C 52.765625 67.449219 53.175781 66.863281 53.058594 66.28125 C 53.117188 66.105469 53.117188 65.929688 53.117188 65.695312 L 53.117188 55.632812 C 53.9375 54.988281 54.40625 53.820312 54.40625 52.765625 L 54.40625 49.375 C 54.523438 47.152344 55.691406 44.871094 57.621094 43.347656 Z M 44.285156 37.265625 C 44.8125 37.324219 45.28125 37.324219 45.746094 37.324219 C 46.214844 37.324219 46.742188 37.324219 47.269531 37.265625 C 46.625 44.226562 47.269531 52.242188 47.386719 53.878906 L 44.519531 53.878906 C 44.578125 52.300781 45.046875 44.285156 44.285156 37.265625 Z M 40.777344 33.992188 C 38.144531 32.703125 37.207031 31.183594 36.855469 30.070312 C 36.679688 29.542969 36.855469 29.019531 37.265625 28.667969 C 37.558594 28.433594 37.851562 28.316406 38.203125 28.316406 C 38.320312 28.316406 38.496094 28.316406 38.613281 28.375 C 38.902344 28.492188 39.136719 28.609375 39.371094 28.84375 C 40.367188 29.777344 41.066406 31.824219 41.476562 34.339844 C 41.242188 34.222656 41.007812 34.105469 40.777344 33.992188 Z M 50.019531 34.222656 C 50.425781 31.652344 51.070312 29.660156 52.007812 28.785156 C 52.242188 28.550781 52.476562 28.433594 52.765625 28.316406 C 52.882812 28.257812 53.058594 28.257812 53.175781 28.257812 C 53.527344 28.257812 53.820312 28.375 54.113281 28.609375 C 54.523438 28.960938 54.699219 29.542969 54.523438 30.011719 C 54.230469 31.125 53.292969 32.703125 50.601562 33.933594 C 50.425781 34.046875 50.195312 34.164062 50.019531 34.222656 Z M 50.894531 56.21875 L 50.894531 58.910156 C 50.542969 58.734375 50.136719 58.558594 49.726562 58.441406 C 48.496094 58.148438 47.09375 57.914062 45.6875 57.738281 C 44.578125 57.5625 43.464844 57.445312 42.53125 57.210938 C 42.179688 57.152344 41.828125 57.039062 41.652344 56.921875 C 41.59375 56.863281 41.535156 56.804688 41.535156 56.804688 C 41.535156 56.6875 41.535156 56.570312 41.535156 56.453125 L 41.535156 56.21875 Z M 50.894531 63.296875 C 50.542969 63.121094 50.195312 63.003906 49.785156 62.886719 C 48.554688 62.59375 47.09375 62.359375 45.6875 62.183594 C 44.519531 62.007812 43.464844 61.890625 42.53125 61.660156 C 42.179688 61.601562 41.828125 61.484375 41.652344 61.367188 C 41.59375 61.308594 41.535156 61.25 41.535156 61.25 C 41.535156 61.132812 41.535156 61.015625 41.535156 60.898438 L 41.535156 59.4375 C 41.710938 59.492188 41.886719 59.550781 42.0625 59.550781 C 43.058594 59.785156 44.226562 59.960938 45.398438 60.078125 C 46.742188 60.253906 48.085938 60.488281 49.199219 60.722656 C 50.308594 61.015625 50.894531 61.890625 50.894531 63.296875 Z M 42.003906 65.929688 L 41.59375 65.8125 C 41.535156 65.8125 41.535156 65.753906 41.535156 65.695312 L 41.535156 63.824219 C 41.710938 63.882812 41.886719 63.941406 42.0625 63.941406 C 43.117188 64.171875 44.285156 64.347656 45.398438 64.464844 C 46.742188 64.640625 48.085938 64.875 49.257812 65.109375 C 49.785156 65.226562 50.195312 65.519531 50.484375 65.871094 C 49.375 66.222656 47.96875 66.6875 46.214844 66.6875 C 44.460938 66.746094 43.117188 66.28125 42.003906 65.929688 Z M 52.183594 49.316406 L 52.183594 52.707031 C 52.183594 53.292969 51.773438 53.820312 51.539062 53.820312 L 49.726562 53.820312 C 49.726562 53.761719 49.726562 53.761719 49.726562 53.703125 C 49.316406 48.90625 49.140625 42.121094 49.667969 36.738281 C 50.308594 36.5625 50.953125 36.332031 51.597656 36.039062 C 55.046875 34.398438 56.277344 32.175781 56.746094 30.65625 C 57.15625 29.3125 56.746094 27.847656 55.691406 26.914062 C 54.699219 25.976562 53.234375 25.625 51.949219 26.09375 C 51.539062 26.210938 50.953125 26.503906 50.367188 27.089844 C 48.90625 28.492188 48.027344 31.417969 47.503906 34.808594 C 46.917969 34.867188 46.273438 34.925781 45.628906 34.925781 C 45.046875 34.925781 44.460938 34.867188 43.875 34.808594 C 43.347656 31.417969 42.414062 28.492188 40.953125 27.089844 C 40.367188 26.503906 39.78125 26.269531 39.371094 26.09375 C 38.085938 25.625 36.679688 25.917969 35.628906 26.914062 C 34.574219 27.90625 34.164062 29.3125 34.574219 30.65625 C 35.042969 32.234375 36.273438 34.398438 39.722656 36.039062 C 40.425781 36.386719 41.125 36.621094 41.828125 36.796875 C 42.53125 42.707031 42.355469 50.136719 42.121094 53.761719 C 42.121094 53.761719 42.121094 53.820312 42.121094 53.820312 L 40.953125 53.820312 C 40.71875 53.820312 40.25 53.175781 40.25 52.648438 L 40.25 49.082031 C 40.25 46.273438 38.785156 43.40625 36.273438 41.476562 C 31.882812 38.144531 29.484375 32.820312 29.894531 27.261719 C 30.421875 19.015625 36.914062 12.347656 45.046875 11.820312 C 49.609375 11.527344 53.9375 13.050781 57.269531 16.148438 C 60.605469 19.308594 62.535156 23.753906 62.535156 28.375 C 62.535156 33.582031 60.195312 38.378906 56.160156 41.535156 C 53.703125 43.464844 52.183594 46.390625 52.183594 49.316406 Z M 52.183594 49.316406 " fill-opacity="1" fill-rule="nonzero"/><g clip-path="url(#0c2099dd50)"><path fill="#ffffff" d="M 53.9375 2.636719 C 53.175781 2.34375 52.417969 2.050781 51.65625 1.757812 C 48.085938 0.589844 44.167969 0.00390625 40.074219 0.00390625 C 40.074219 0.00390625 40.074219 0.00390625 40.015625 0.00390625 C 37.910156 0.00390625 35.746094 0.179688 33.699219 0.53125 C 28.960938 1.351562 17.320312 4.566406 11.410156 17.554688 C 9.597656 21.53125 9.128906 25.449219 9.949219 29.953125 C 10.242188 31.535156 9.128906 33.40625 8.078125 35.277344 C 7.902344 35.570312 7.785156 35.804688 7.609375 36.097656 C 6.964844 37.207031 6.207031 38.203125 5.503906 39.136719 C 4.566406 40.308594 3.75 41.417969 3.164062 42.707031 C 2.8125 43.582031 2.871094 44.519531 3.339844 45.222656 C 3.925781 46.097656 4.800781 46.449219 5.445312 46.625 C 5.5625 46.683594 5.621094 46.683594 5.738281 46.742188 L 6.03125 46.859375 C 6.554688 47.035156 7.082031 47.210938 7.375 47.503906 C 7.609375 47.738281 7.082031 48.964844 6.789062 49.609375 C 6.148438 51.070312 5.269531 53.058594 6.90625 54.347656 C 7.257812 54.640625 7.667969 54.757812 8.136719 54.816406 C 7.785156 55.222656 7.492188 55.75 7.550781 56.335938 C 7.609375 57.796875 9.070312 58.089844 9.773438 58.207031 C 9.832031 58.207031 9.890625 58.207031 9.949219 58.265625 C 9.949219 58.734375 9.890625 59.550781 9.773438 60.195312 C 9.597656 61.773438 9.304688 63.765625 9.832031 65.519531 C 10.125 66.570312 10.828125 67.566406 11.820312 68.328125 C 12.933594 69.144531 14.394531 69.554688 15.972656 69.4375 C 21.296875 68.96875 26.796875 67.097656 32 64.058594 C 32.46875 67.214844 32.410156 71.308594 30.714844 72.949219 C 30.246094 73.414062 30.246094 74.117188 30.65625 74.585938 C 30.890625 74.820312 31.183594 74.9375 31.476562 74.9375 C 31.765625 74.9375 32.058594 74.820312 32.292969 74.585938 C 35.394531 71.660156 34.515625 65.050781 34.105469 62.652344 C 34.75 62.242188 35.277344 61.773438 35.746094 61.367188 C 36.214844 60.898438 36.273438 60.195312 35.804688 59.726562 C 35.335938 59.261719 34.632812 59.203125 34.164062 59.667969 C 33.523438 60.3125 32.644531 60.957031 31.535156 61.601562 L 31.300781 61.71875 C 26.269531 64.757812 20.886719 66.628906 15.738281 67.097656 C 14.804688 67.15625 13.867188 66.980469 13.222656 66.453125 C 12.640625 66.046875 12.230469 65.460938 12.113281 64.875 C 11.761719 63.53125 11.9375 61.890625 12.113281 60.429688 C 12.289062 59.027344 12.40625 57.914062 12.054688 57.039062 C 11.703125 56.21875 10.886719 56.042969 10.300781 55.925781 C 10.359375 55.867188 10.417969 55.808594 10.417969 55.808594 C 11 55.222656 11.644531 54.582031 11.46875 53.703125 C 11.234375 52.589844 10.066406 52.589844 9.246094 52.589844 C 9.011719 52.589844 8.546875 52.589844 8.3125 52.53125 C 8.253906 52.242188 8.71875 51.128906 8.953125 50.601562 C 9.597656 49.140625 10.476562 47.210938 9.011719 45.863281 C 8.371094 45.222656 7.550781 44.929688 6.847656 44.695312 L 6.613281 44.578125 C 6.496094 44.519531 6.378906 44.519531 6.265625 44.460938 C 5.796875 44.285156 5.503906 44.226562 5.386719 43.992188 C 5.269531 43.933594 5.269531 43.816406 5.328125 43.640625 C 5.738281 42.648438 6.496094 41.710938 7.316406 40.601562 C 8.078125 39.664062 8.894531 38.554688 9.65625 37.265625 C 9.832031 37.03125 9.949219 36.738281 10.125 36.445312 C 11.351562 34.339844 12.699219 31.941406 12.230469 29.542969 C 11.46875 25.507812 11.878906 22.117188 13.515625 18.546875 C 18.898438 6.613281 29.660156 3.632812 34.046875 2.871094 C 35.980469 2.578125 37.96875 2.402344 39.957031 2.402344 C 39.957031 2.402344 39.957031 2.402344 40.015625 2.402344 C 43.875 2.402344 47.5625 2.929688 50.894531 4.039062 C 51.597656 4.273438 52.300781 4.507812 53 4.800781 C 62.007812 8.546875 68.792969 17.84375 69.496094 27.378906 C 69.847656 32.292969 68.679688 37.148438 66.105469 41.007812 C 65.578125 41.769531 65.167969 42.53125 64.699219 43.234375 C 64.113281 44.167969 63.589844 45.046875 62.945312 45.980469 C 57.386719 53.820312 53.878906 65.636719 58.5 74.351562 C 58.734375 74.761719 59.144531 74.996094 59.550781 74.996094 C 59.726562 74.996094 59.902344 74.9375 60.078125 74.878906 C 60.664062 74.585938 60.839844 73.882812 60.546875 73.300781 C 56.394531 65.460938 59.726562 54.640625 64.875 47.386719 C 65.578125 46.390625 66.164062 45.457031 66.6875 44.519531 C 67.097656 43.816406 67.566406 43.117188 68.035156 42.355469 C 70.902344 38.085938 72.1875 32.703125 71.777344 27.261719 C 71.074219 16.792969 63.707031 6.730469 53.9375 2.636719 Z M 53.9375 2.636719 " fill-opacity="1" fill-rule="nonzero"/></g><g fill="#000000" fill-opacity="1"><g transform="translate(57.80751, 42.255773)"><g><path d="M 0.1875 0 L 0.1875 -1.359375 L 0.34375 -1.359375 L 0.34375 0 Z M 0.1875 0 "/></g></g></g></svg>