<svg xmlns="http://www.w3.org/2000/svg" xmlns:xlink="http://www.w3.org/1999/xlink" width="150" zoomAndPan="magnify" viewBox="0 0 112.5 112.499997" height="150" preserveAspectRatio="xMidYMid meet" version="1.0"><defs><clipPath id="a21f53c124"><path d="M 0 0 L 112.003906 0 L 112.003906 112.003906 L 0 112.003906 Z M 0 0 " clip-rule="nonzero"/></clipPath><clipPath id="06e708fdd3"><path d="M 56 0 C 25.074219 0 0 25.074219 0 56 C 0 86.929688 25.074219 112.003906 56 112.003906 C 86.929688 112.003906 112.003906 86.929688 112.003906 56 C 112.003906 25.074219 86.929688 0 56 0 Z M 56 0 " clip-rule="nonzero"/></clipPath><clipPath id="3ae274bdc2"><path d="M 21.929688 47 L 89.878906 47 L 89.878906 89.878906 L 21.929688 89.878906 Z M 21.929688 47 " clip-rule="nonzero"/></clipPath><clipPath id="371f31252b"><path d="M 24 21.929688 L 51 21.929688 L 51 34 L 24 34 Z M 24 21.929688 " clip-rule="nonzero"/></clipPath><clipPath id="3762213371"><path d="M 62 21.929688 L 86 21.929688 L 86 45 L 62 45 Z M 62 21.929688 " clip-rule="nonzero"/></clipPath></defs><g clip-path="url(#a21f53c124)"><g clip-path="url(#06e708fdd3)"><path fill="#bbaa91" d="M 0 0 L 112.003906 0 L 112.003906 112.003906 L 0 112.003906 Z M 0 0 " fill-opacity="1" fill-rule="nonzero"/></g></g><g clip-path="url(#3ae274bdc2)"><path fill="#000000" d="M 79.6875 73.792969 C 80.625 73.316406 81.484375 72.726562 82.273438 72.03125 C 83.058594 71.335938 83.75 70.550781 84.339844 69.679688 C 84.925781 68.808594 85.398438 67.878906 85.753906 66.886719 C 86.109375 65.898438 86.332031 64.878906 86.429688 63.832031 L 86.480469 63.832031 C 86.632812 63.832031 86.777344 63.804688 86.914062 63.746094 C 87.054688 63.6875 87.175781 63.605469 87.28125 63.5 C 87.390625 63.394531 87.472656 63.273438 87.527344 63.132812 C 87.585938 62.996094 87.613281 62.851562 87.613281 62.699219 L 87.613281 58.171875 C 87.613281 58.019531 87.585938 57.875 87.527344 57.738281 C 87.472656 57.597656 87.390625 57.476562 87.28125 57.371094 C 87.175781 57.261719 87.054688 57.179688 86.914062 57.125 C 86.777344 57.066406 86.632812 57.039062 86.480469 57.039062 L 79.6875 57.039062 L 79.6875 54.773438 L 77.421875 54.773438 L 77.421875 57.039062 L 75.15625 57.039062 L 75.15625 50.242188 L 76.289062 50.242188 L 76.289062 51.375 L 78.554688 51.375 L 78.554688 49.109375 C 78.554688 48.960938 78.527344 48.816406 78.46875 48.675781 C 78.410156 48.539062 78.328125 48.417969 78.222656 48.308594 C 78.117188 48.203125 77.996094 48.121094 77.855469 48.0625 C 77.71875 48.007812 77.574219 47.976562 77.421875 47.976562 L 74.023438 47.976562 C 73.875 47.976562 73.730469 48.007812 73.589844 48.0625 C 73.453125 48.121094 73.332031 48.203125 73.222656 48.308594 C 73.117188 48.417969 73.035156 48.539062 72.980469 48.675781 C 72.921875 48.816406 72.890625 48.960938 72.890625 49.109375 L 72.890625 57.039062 L 70.628906 57.039062 L 70.628906 54.773438 L 68.363281 54.773438 L 68.363281 57.039062 L 61.566406 57.039062 C 61.417969 57.039062 61.273438 57.066406 61.132812 57.125 C 60.996094 57.179688 60.875 57.261719 60.765625 57.371094 C 60.660156 57.476562 60.578125 57.597656 60.523438 57.738281 C 60.464844 57.875 60.433594 58.019531 60.433594 58.171875 L 60.433594 62.699219 C 60.433594 62.851562 60.464844 62.996094 60.523438 63.132812 C 60.578125 63.273438 60.660156 63.394531 60.765625 63.5 C 60.875 63.605469 60.996094 63.6875 61.132812 63.746094 C 61.273438 63.804688 61.417969 63.832031 61.566406 63.832031 L 61.621094 63.832031 C 61.71875 64.878906 61.941406 65.898438 62.296875 66.886719 C 62.652344 67.878906 63.121094 68.808594 63.710938 69.679688 C 64.300781 70.550781 64.988281 71.335938 65.777344 72.03125 C 66.566406 72.726562 67.425781 73.316406 68.363281 73.792969 L 68.363281 87.613281 L 21.929688 87.613281 L 21.929688 89.878906 L 89.878906 89.878906 L 89.878906 87.613281 L 79.6875 87.613281 Z M 62.699219 59.304688 L 85.351562 59.304688 L 85.351562 61.566406 L 62.699219 61.566406 Z M 63.894531 63.832031 L 84.15625 63.832031 C 84.085938 64.449219 83.960938 65.058594 83.78125 65.652344 C 83.601562 66.25 83.371094 66.820312 83.085938 67.375 C 82.800781 67.925781 82.46875 68.449219 82.089844 68.941406 C 81.707031 69.433594 81.285156 69.886719 80.824219 70.300781 C 80.359375 70.714844 79.863281 71.085938 79.332031 71.410156 C 78.800781 71.734375 78.246094 72.007812 77.664062 72.226562 C 77.082031 72.449219 76.488281 72.617188 75.875 72.730469 C 75.261719 72.84375 74.648438 72.898438 74.023438 72.898438 C 73.402344 72.898438 72.785156 72.84375 72.175781 72.730469 C 71.5625 72.617188 70.96875 72.449219 70.386719 72.226562 C 69.804688 72.007812 69.25 71.734375 68.71875 71.410156 C 68.1875 71.085938 67.691406 70.714844 67.226562 70.300781 C 66.765625 69.886719 66.34375 69.433594 65.960938 68.941406 C 65.582031 68.449219 65.25 67.925781 64.964844 67.375 C 64.679688 66.820312 64.445312 66.25 64.265625 65.652344 C 64.085938 65.058594 63.964844 64.449219 63.894531 63.832031 Z M 70.628906 87.613281 L 70.628906 74.6875 C 72.890625 75.328125 75.15625 75.328125 77.421875 74.6875 L 77.421875 87.613281 Z M 70.628906 87.613281 " fill-opacity="1" fill-rule="nonzero"/></g><g clip-path="url(#371f31252b)"><path fill="#000000" d="M 42.316406 33.257812 L 50.242188 33.257812 L 50.242188 30.992188 L 43.449219 30.992188 L 43.449219 25.328125 C 43.449219 25.179688 43.417969 25.035156 43.363281 24.894531 C 43.304688 24.757812 43.222656 24.632812 43.117188 24.527344 C 43.011719 24.421875 42.886719 24.339844 42.75 24.28125 C 42.609375 24.226562 42.464844 24.195312 42.316406 24.195312 L 41.183594 24.195312 L 41.183594 21.929688 L 38.917969 21.929688 L 38.917969 24.195312 L 37.785156 24.195312 C 37.636719 24.195312 37.492188 24.226562 37.351562 24.28125 C 37.214844 24.339844 37.089844 24.421875 36.984375 24.527344 C 36.878906 24.632812 36.796875 24.757812 36.738281 24.894531 C 36.683594 25.035156 36.652344 25.179688 36.652344 25.328125 L 36.652344 30.992188 L 33.257812 30.992188 L 33.257812 26.460938 L 30.992188 26.460938 L 30.992188 30.992188 L 24.195312 30.992188 L 24.195312 33.257812 Z M 38.917969 26.460938 L 41.183594 26.460938 L 41.183594 30.992188 L 38.917969 30.992188 Z M 38.917969 26.460938 " fill-opacity="1" fill-rule="nonzero"/></g><path fill="#000000" d="M 40.050781 35.519531 L 30.992188 35.519531 C 30.839844 35.519531 30.695312 35.550781 30.558594 35.605469 C 30.417969 35.664062 30.296875 35.746094 30.191406 35.851562 C 30.085938 35.957031 30.003906 36.082031 29.945312 36.21875 C 29.886719 36.359375 29.859375 36.503906 29.859375 36.652344 L 29.859375 43.449219 L 27.59375 43.449219 L 27.59375 45.714844 L 46.847656 45.714844 L 46.847656 43.449219 L 41.183594 43.449219 L 41.183594 36.652344 C 41.183594 36.503906 41.15625 36.359375 41.097656 36.21875 C 41.039062 36.082031 40.957031 35.957031 40.851562 35.851562 C 40.746094 35.746094 40.625 35.664062 40.484375 35.605469 C 40.34375 35.550781 40.199219 35.519531 40.050781 35.519531 Z M 32.125 43.449219 L 32.125 37.785156 L 38.917969 37.785156 L 38.917969 43.449219 Z M 32.125 43.449219 " fill-opacity="1" fill-rule="nonzero"/><path fill="#000000" d="M 38.972656 58.777344 L 38.125 59.628906 C 37.898438 59.851562 37.785156 60.121094 37.785156 60.433594 L 37.785156 62.699219 C 37.785156 62.851562 37.816406 62.996094 37.871094 63.132812 C 37.929688 63.273438 38.011719 63.394531 38.117188 63.5 C 38.222656 63.605469 38.347656 63.6875 38.484375 63.746094 C 38.625 63.804688 38.769531 63.832031 38.917969 63.832031 L 54.773438 63.832031 C 54.921875 63.832031 55.066406 63.804688 55.207031 63.746094 C 55.34375 63.6875 55.46875 63.605469 55.574219 63.5 C 55.679688 63.394531 55.761719 63.273438 55.820312 63.132812 C 55.875 62.996094 55.90625 62.851562 55.90625 62.699219 L 55.90625 60.433594 C 55.90625 60.121094 55.796875 59.855469 55.574219 59.632812 L 54.726562 58.785156 C 54.167969 58.226562 53.527344 57.796875 52.796875 57.492188 C 52.066406 57.191406 51.308594 57.042969 50.519531 57.042969 L 43.175781 57.042969 C 42.386719 57.039062 41.628906 57.191406 40.902344 57.492188 C 40.171875 57.792969 39.53125 58.222656 38.972656 58.777344 Z M 53.117188 60.382812 L 53.640625 60.902344 L 53.640625 61.566406 L 40.050781 61.566406 L 40.050781 60.902344 L 40.574219 60.382812 C 41.292969 59.660156 42.160156 59.300781 43.175781 59.304688 L 50.515625 59.304688 C 51.53125 59.300781 52.398438 59.660156 53.117188 60.382812 Z M 53.117188 60.382812 " fill-opacity="1" fill-rule="nonzero"/><path fill="#000000" d="M 42.882812 83.085938 L 50.808594 83.085938 C 51.183594 83.085938 51.546875 83.011719 51.894531 82.871094 C 52.238281 82.726562 52.546875 82.519531 52.8125 82.253906 C 53.078125 81.988281 53.28125 81.683594 53.425781 81.335938 C 53.570312 80.988281 53.640625 80.628906 53.640625 80.253906 L 53.640625 76.609375 C 54.371094 75.785156 54.929688 74.855469 55.320312 73.828125 C 55.710938 72.796875 55.90625 71.730469 55.90625 70.628906 L 55.90625 67.230469 C 55.90625 67.078125 55.875 66.933594 55.820312 66.796875 C 55.761719 66.65625 55.679688 66.535156 55.574219 66.429688 C 55.46875 66.324219 55.34375 66.242188 55.207031 66.183594 C 55.066406 66.125 54.921875 66.097656 54.773438 66.097656 L 38.917969 66.097656 C 38.769531 66.097656 38.625 66.125 38.484375 66.183594 C 38.347656 66.242188 38.222656 66.324219 38.117188 66.429688 C 38.011719 66.535156 37.929688 66.65625 37.871094 66.796875 C 37.816406 66.933594 37.785156 67.078125 37.785156 67.230469 L 37.785156 70.628906 C 37.785156 71.730469 37.980469 72.796875 38.371094 73.828125 C 38.761719 74.855469 39.320312 75.785156 40.050781 76.609375 L 40.050781 80.253906 C 40.050781 80.628906 40.121094 80.988281 40.265625 81.335938 C 40.410156 81.683594 40.613281 81.988281 40.878906 82.253906 C 41.144531 82.519531 41.453125 82.726562 41.796875 82.871094 C 42.144531 83.011719 42.507812 83.085938 42.882812 83.085938 Z M 50.808594 80.820312 L 42.882812 80.820312 C 42.726562 80.820312 42.59375 80.765625 42.480469 80.652344 C 42.371094 80.542969 42.316406 80.410156 42.316406 80.253906 L 42.316406 78.46875 C 43.003906 78.867188 43.730469 79.171875 44.5 79.378906 C 45.269531 79.582031 46.050781 79.6875 46.847656 79.6875 C 47.640625 79.6875 48.421875 79.582031 49.191406 79.378906 C 49.960938 79.171875 50.6875 78.867188 51.375 78.46875 L 51.375 80.253906 C 51.375 80.410156 51.320312 80.542969 51.210938 80.652344 C 51.097656 80.765625 50.964844 80.820312 50.808594 80.820312 Z M 40.050781 68.363281 L 53.640625 68.363281 L 53.640625 70.628906 C 53.640625 71.074219 53.597656 71.515625 53.511719 71.953125 C 53.421875 72.390625 53.292969 72.816406 53.125 73.226562 C 52.953125 73.640625 52.742188 74.03125 52.496094 74.402344 C 52.246094 74.773438 51.964844 75.117188 51.652344 75.433594 C 51.335938 75.746094 50.992188 76.03125 50.621094 76.277344 C 50.25 76.523438 49.859375 76.734375 49.445312 76.90625 C 49.035156 77.074219 48.609375 77.203125 48.171875 77.292969 C 47.734375 77.378906 47.292969 77.421875 46.847656 77.421875 C 46.398438 77.421875 45.957031 77.378906 45.519531 77.292969 C 45.082031 77.203125 44.65625 77.074219 44.246094 76.90625 C 43.832031 76.734375 43.441406 76.523438 43.070312 76.277344 C 42.699219 76.03125 42.355469 75.746094 42.042969 75.433594 C 41.726562 75.117188 41.445312 74.773438 41.195312 74.402344 C 40.949219 74.03125 40.738281 73.640625 40.566406 73.226562 C 40.398438 72.816406 40.269531 72.390625 40.179688 71.953125 C 40.09375 71.515625 40.050781 71.074219 40.050781 70.628906 Z M 40.050781 68.363281 " fill-opacity="1" fill-rule="nonzero"/><path fill="#000000" d="M 24.796875 71.625 C 25.195312 71.839844 25.582031 71.820312 25.957031 71.570312 L 28.726562 69.722656 L 31.496094 71.570312 C 31.683594 71.695312 31.894531 71.761719 32.125 71.761719 C 32.273438 71.761719 32.417969 71.730469 32.558594 71.671875 C 32.695312 71.617188 32.816406 71.535156 32.925781 71.429688 C 33.03125 71.320312 33.113281 71.199219 33.171875 71.0625 C 33.226562 70.921875 33.257812 70.777344 33.257812 70.628906 L 33.257812 59.304688 C 33.257812 59.152344 33.226562 59.007812 33.171875 58.871094 C 33.113281 58.730469 33.03125 58.609375 32.925781 58.503906 C 32.816406 58.394531 32.695312 58.3125 32.558594 58.257812 C 32.417969 58.199219 32.273438 58.171875 32.125 58.171875 L 25.328125 58.171875 C 25.179688 58.171875 25.035156 58.199219 24.894531 58.257812 C 24.757812 58.3125 24.632812 58.394531 24.527344 58.503906 C 24.421875 58.609375 24.339844 58.730469 24.28125 58.871094 C 24.226562 59.007812 24.195312 59.152344 24.195312 59.304688 L 24.195312 70.628906 C 24.195312 71.078125 24.394531 71.414062 24.796875 71.625 Z M 30.992188 68.511719 L 29.355469 67.417969 C 29.164062 67.292969 28.953125 67.230469 28.726562 67.230469 C 28.496094 67.230469 28.289062 67.292969 28.097656 67.417969 L 26.460938 68.511719 L 26.460938 64.964844 L 30.992188 64.964844 Z M 26.460938 60.433594 L 30.992188 60.433594 L 30.992188 62.699219 L 26.460938 62.699219 Z M 26.460938 60.433594 " fill-opacity="1" fill-rule="nonzero"/><g clip-path="url(#3762213371)"><path fill="#000000" d="M 74.023438 44.582031 C 74.769531 44.582031 75.503906 44.507812 76.234375 44.363281 C 76.964844 44.21875 77.671875 44.003906 78.359375 43.71875 C 79.046875 43.433594 79.699219 43.085938 80.316406 42.671875 C 80.933594 42.257812 81.507812 41.789062 82.03125 41.265625 C 82.558594 40.738281 83.027344 40.167969 83.441406 39.546875 C 83.855469 38.929688 84.203125 38.277344 84.488281 37.589844 C 84.773438 36.902344 84.988281 36.195312 85.132812 35.464844 C 85.277344 34.734375 85.351562 34 85.351562 33.257812 C 85.351562 32.511719 85.277344 31.777344 85.132812 31.046875 C 84.988281 30.316406 84.773438 29.609375 84.488281 28.921875 C 84.203125 28.234375 83.855469 27.582031 83.441406 26.964844 C 83.027344 26.347656 82.558594 25.773438 82.03125 25.25 C 81.507812 24.722656 80.933594 24.253906 80.316406 23.839844 C 79.699219 23.425781 79.046875 23.078125 78.359375 22.792969 C 77.671875 22.507812 76.964844 22.292969 76.234375 22.148438 C 75.503906 22.003906 74.769531 21.929688 74.023438 21.929688 C 73.28125 21.929688 72.542969 22.003906 71.816406 22.148438 C 71.085938 22.292969 70.378906 22.507812 69.691406 22.792969 C 69.003906 23.078125 68.351562 23.425781 67.734375 23.839844 C 67.113281 24.253906 66.542969 24.722656 66.015625 25.25 C 65.492188 25.773438 65.023438 26.347656 64.609375 26.964844 C 64.195312 27.582031 63.847656 28.234375 63.5625 28.921875 C 63.277344 29.609375 63.0625 30.316406 62.917969 31.046875 C 62.773438 31.777344 62.699219 32.511719 62.699219 33.257812 C 62.699219 34 62.773438 34.734375 62.921875 35.464844 C 63.066406 36.195312 63.28125 36.902344 63.566406 37.589844 C 63.851562 38.273438 64.199219 38.925781 64.613281 39.542969 C 65.027344 40.164062 65.496094 40.734375 66.019531 41.261719 C 66.546875 41.785156 67.117188 42.253906 67.734375 42.667969 C 68.355469 43.082031 69.007812 43.429688 69.691406 43.714844 C 70.378906 44 71.085938 44.214844 71.816406 44.359375 C 72.546875 44.507812 73.28125 44.578125 74.023438 44.582031 Z M 74.023438 24.195312 C 74.621094 24.195312 75.207031 24.253906 75.792969 24.371094 C 76.375 24.488281 76.941406 24.660156 77.492188 24.886719 C 78.042969 25.113281 78.5625 25.394531 79.058594 25.722656 C 79.554688 26.054688 80.011719 26.429688 80.429688 26.851562 C 80.851562 27.269531 81.226562 27.726562 81.558594 28.222656 C 81.886719 28.71875 82.167969 29.238281 82.394531 29.789062 C 82.621094 30.339844 82.792969 30.90625 82.910156 31.488281 C 83.027344 32.070312 83.085938 32.660156 83.085938 33.257812 C 83.085938 33.851562 83.027344 34.441406 82.910156 35.023438 C 82.792969 35.605469 82.621094 36.171875 82.394531 36.722656 C 82.167969 37.273438 81.886719 37.792969 81.558594 38.289062 C 81.226562 38.785156 80.851562 39.242188 80.429688 39.664062 C 80.011719 40.082031 79.554688 40.457031 79.058594 40.789062 C 78.5625 41.121094 78.042969 41.398438 77.492188 41.625 C 76.941406 41.855469 76.375 42.027344 75.792969 42.140625 C 75.207031 42.257812 74.621094 42.316406 74.023438 42.316406 C 73.429688 42.316406 72.839844 42.257812 72.257812 42.140625 C 71.675781 42.027344 71.109375 41.855469 70.558594 41.625 C 70.007812 41.398438 69.484375 41.121094 68.992188 40.789062 C 68.496094 40.457031 68.039062 40.082031 67.617188 39.664062 C 67.199219 39.242188 66.824219 38.785156 66.492188 38.289062 C 66.160156 37.792969 65.882812 37.273438 65.65625 36.722656 C 65.425781 36.171875 65.253906 35.605469 65.140625 35.023438 C 65.023438 34.441406 64.964844 33.851562 64.964844 33.257812 C 64.964844 32.660156 65.023438 32.074219 65.140625 31.488281 C 65.257812 30.90625 65.429688 30.339844 65.65625 29.789062 C 65.886719 29.242188 66.164062 28.71875 66.496094 28.226562 C 66.824219 27.730469 67.199219 27.273438 67.621094 26.851562 C 68.042969 26.433594 68.5 26.058594 68.992188 25.726562 C 69.488281 25.394531 70.011719 25.117188 70.558594 24.890625 C 71.109375 24.660156 71.675781 24.488281 72.257812 24.371094 C 72.839844 24.253906 73.429688 24.195312 74.023438 24.195312 Z M 74.023438 24.195312 " fill-opacity="1" fill-rule="nonzero"/></g></svg>