<svg xmlns="http://www.w3.org/2000/svg" xmlns:xlink="http://www.w3.org/1999/xlink" width="150" zoomAndPan="magnify" viewBox="0 0 112.5 112.499997" height="150" preserveAspectRatio="xMidYMid meet" version="1.0"><defs><clipPath id="40cd7ca733"><path d="M 0 0 L 112.003906 0 L 112.003906 112.003906 L 0 112.003906 Z M 0 0 " clip-rule="nonzero"/></clipPath><clipPath id="b3767b1b49"><path d="M 56 0 C 25.074219 0 0 25.074219 0 56 C 0 86.929688 25.074219 112.003906 56 112.003906 C 86.929688 112.003906 112.003906 86.929688 112.003906 56 C 112.003906 25.074219 86.929688 0 56 0 Z M 56 0 " clip-rule="nonzero"/></clipPath><clipPath id="51551c2940"><path d="M 17.335938 59 L 94.992188 59 L 94.992188 87.980469 L 17.335938 87.980469 Z M 17.335938 59 " clip-rule="nonzero"/></clipPath><clipPath id="7d694d18d9"><path d="M 68 26 L 94.992188 26 L 94.992188 62 L 68 62 Z M 68 26 " clip-rule="nonzero"/></clipPath><clipPath id="07721869c9"><path d="M 43 59 L 46 59 L 46 87.980469 L 43 87.980469 Z M 43 59 " clip-rule="nonzero"/></clipPath><clipPath id="f7c1390c57"><path d="M 68 59 L 71 59 L 71 87.980469 L 68 87.980469 Z M 68 59 " clip-rule="nonzero"/></clipPath><clipPath id="9a2efdac4a"><path d="M 17.335938 68 L 46 68 L 46 70 L 17.335938 70 Z M 17.335938 68 " clip-rule="nonzero"/></clipPath><clipPath id="b3dc661f8d"><path d="M 30 68 L 32 68 L 32 87.980469 L 30 87.980469 Z M 30 68 " clip-rule="nonzero"/></clipPath><clipPath id="648b764f98"><path d="M 68 42 L 94.992188 42 L 94.992188 45 L 68 45 Z M 68 42 " clip-rule="nonzero"/></clipPath><clipPath id="37bac2104f"><path d="M 41 23.765625 L 66 23.765625 L 66 46 L 41 46 Z M 41 23.765625 " clip-rule="nonzero"/></clipPath></defs><g clip-path="url(#40cd7ca733)"><g clip-path="url(#b3767b1b49)"><path fill="#bbaa91" d="M 0 0 L 112.003906 0 L 112.003906 112.003906 L 0 112.003906 Z M 0 0 " fill-opacity="1" fill-rule="nonzero"/></g></g><g clip-path="url(#51551c2940)"><path fill="#000000" d="M 69.148438 61.535156 C 69.648438 61.535156 70.058594 61.132812 70.058594 60.632812 C 70.058594 60.136719 69.648438 59.730469 69.148438 59.730469 L 18.246094 59.730469 C 17.746094 59.730469 17.335938 60.136719 17.335938 60.632812 L 17.335938 87.066406 C 17.335938 87.566406 17.746094 87.96875 18.246094 87.96875 L 94.082031 87.96875 C 94.585938 87.96875 94.992188 87.566406 94.992188 87.066406 L 94.992188 60.632812 C 94.992188 60.136719 94.585938 59.730469 94.082031 59.730469 C 93.578125 59.730469 93.171875 60.136719 93.171875 60.632812 L 93.171875 86.164062 L 19.15625 86.164062 L 19.15625 61.535156 Z M 69.148438 61.535156 " fill-opacity="1" fill-rule="nonzero"/></g><g clip-path="url(#7d694d18d9)"><path fill="#000000" d="M 93.171875 60.621094 L 93.171875 27.941406 L 70.058594 27.941406 L 70.058594 60.632812 C 70.058594 61.132812 69.648438 61.535156 69.148438 61.535156 C 68.644531 61.535156 68.238281 61.132812 68.238281 60.632812 L 68.238281 27.039062 C 68.238281 26.542969 68.644531 26.136719 69.148438 26.136719 L 94.082031 26.136719 C 94.585938 26.136719 94.992188 26.542969 94.992188 27.039062 L 94.992188 60.632812 C 94.992188 61.820312 93.171875 61.820312 93.171875 60.632812 L 93.171875 60.621094 L 93.171875 60.632812 C 94.769531 59.050781 93.179688 59.914062 93.171875 60.621094 Z M 93.171875 60.621094 " fill-opacity="1" fill-rule="nonzero"/></g><g clip-path="url(#07721869c9)"><path fill="#000000" d="M 45.296875 60.632812 C 45.296875 60.136719 44.886719 59.730469 44.386719 59.730469 C 43.882812 59.730469 43.476562 60.136719 43.476562 60.632812 L 43.476562 87.066406 C 43.476562 87.566406 43.882812 87.96875 44.386719 87.96875 C 44.886719 87.96875 45.296875 87.566406 45.296875 87.066406 Z M 45.296875 60.632812 " fill-opacity="1" fill-rule="nonzero"/></g><g clip-path="url(#f7c1390c57)"><path fill="#000000" d="M 70.058594 60.632812 C 70.058594 60.136719 69.648438 59.730469 69.148438 59.730469 C 68.644531 59.730469 68.238281 60.136719 68.238281 60.632812 L 68.238281 87.066406 C 68.238281 87.566406 68.644531 87.96875 69.148438 87.96875 C 69.648438 87.96875 70.058594 87.566406 70.058594 87.066406 Z M 70.058594 60.632812 " fill-opacity="1" fill-rule="nonzero"/></g><path fill="#000000" d="M 48.667969 84.0625 L 64.734375 84.0625 C 64.863281 84.0625 64.980469 84.011719 65.066406 83.925781 C 65.152344 83.839844 65.207031 83.722656 65.207031 83.597656 L 65.207031 72.972656 C 65.207031 72.847656 65.152344 72.730469 65.066406 72.644531 C 64.980469 72.558594 64.863281 72.503906 64.734375 72.503906 L 48.667969 72.503906 C 48.539062 72.503906 48.421875 72.558594 48.335938 72.644531 C 48.25 72.730469 48.195312 72.847656 48.195312 72.972656 L 48.195312 83.597656 C 48.195312 83.722656 48.25 83.839844 48.335938 83.925781 C 48.421875 84.011719 48.539062 84.0625 48.667969 84.0625 Z M 64.734375 85.867188 L 48.667969 85.867188 C 48.035156 85.867188 47.464844 85.613281 47.050781 85.203125 C 46.632812 84.789062 46.375 84.222656 46.375 83.597656 L 46.375 72.972656 C 46.375 72.347656 46.632812 71.777344 47.050781 71.367188 C 47.464844 70.957031 48.035156 70.699219 48.667969 70.699219 L 64.734375 70.699219 C 65.367188 70.699219 65.941406 70.957031 66.355469 71.367188 C 66.769531 71.777344 67.027344 72.347656 67.027344 72.972656 L 67.027344 83.597656 C 67.027344 84.222656 66.769531 84.789062 66.355469 85.203125 C 65.941406 85.613281 65.367188 85.867188 64.734375 85.867188 Z M 64.734375 85.867188 " fill-opacity="1" fill-rule="nonzero"/><path fill="#000000" d="M 50.070312 62.292969 C 50.714844 62.292969 51.304688 62.554688 51.730469 62.976562 L 51.734375 62.976562 C 51.757812 62.996094 51.777344 63.019531 51.796875 63.042969 C 52.1875 63.460938 52.425781 64.019531 52.425781 64.628906 C 52.425781 65.273438 52.160156 65.859375 51.734375 66.28125 C 51.308594 66.703125 50.71875 66.964844 50.070312 66.964844 C 49.421875 66.964844 48.832031 66.703125 48.40625 66.28125 L 49.046875 65.644531 L 48.402344 66.28125 C 48.382812 66.261719 48.363281 66.242188 48.34375 66.21875 C 47.953125 65.800781 47.710938 65.242188 47.710938 64.628906 C 47.710938 63.984375 47.976562 63.398438 48.402344 62.976562 C 48.828125 62.554688 49.417969 62.292969 50.070312 62.292969 Z M 51.09375 63.613281 L 50.449219 64.25 C 50.355469 64.15625 50.21875 64.097656 50.070312 64.097656 C 49.921875 64.097656 49.785156 64.15625 49.6875 64.253906 C 49.59375 64.347656 49.53125 64.480469 49.53125 64.628906 C 49.53125 64.761719 49.582031 64.886719 49.660156 64.976562 L 49.6875 65.003906 L 49.6875 65.007812 C 49.785156 65.101562 49.917969 65.160156 50.070312 65.160156 C 50.21875 65.160156 50.351562 65.101562 50.449219 65.003906 C 50.546875 64.910156 50.605469 64.777344 50.605469 64.628906 C 50.605469 64.496094 50.558594 64.371094 50.480469 64.28125 L 50.449219 64.253906 Z M 51.09375 63.613281 " fill-opacity="1" fill-rule="nonzero"/><path fill="#000000" d="M 62.484375 62.632812 C 63.039062 62.632812 63.542969 62.855469 63.910156 63.214844 C 64.273438 63.578125 64.5 64.078125 64.5 64.628906 C 64.5 65.179688 64.273438 65.679688 63.910156 66.042969 C 63.542969 66.402344 63.039062 66.625 62.484375 66.625 C 61.929688 66.625 61.425781 66.402344 61.058594 66.042969 C 60.695312 65.679688 60.46875 65.179688 60.46875 64.628906 C 60.46875 64.078125 60.695312 63.578125 61.058594 63.214844 C 61.425781 62.855469 61.929688 62.632812 62.484375 62.632812 Z M 62.621094 64.492188 C 62.585938 64.457031 62.539062 64.4375 62.484375 64.4375 C 62.429688 64.4375 62.382812 64.457031 62.347656 64.492188 C 62.3125 64.527344 62.289062 64.574219 62.289062 64.628906 C 62.289062 64.683594 62.3125 64.730469 62.347656 64.765625 C 62.382812 64.800781 62.429688 64.820312 62.484375 64.820312 C 62.539062 64.820312 62.585938 64.800781 62.621094 64.765625 C 62.65625 64.730469 62.679688 64.683594 62.679688 64.628906 C 62.679688 64.574219 62.65625 64.527344 62.621094 64.492188 Z M 62.621094 64.492188 " fill-opacity="1" fill-rule="nonzero"/><path fill="#000000" d="M 44.386719 67.230469 C 43.882812 67.230469 43.476562 67.632812 43.476562 68.132812 C 43.476562 68.628906 43.882812 69.035156 44.386719 69.035156 L 69.148438 69.035156 C 69.648438 69.035156 70.058594 68.628906 70.058594 68.132812 C 70.058594 67.632812 69.648438 67.230469 69.148438 67.230469 Z M 44.386719 67.230469 " fill-opacity="1" fill-rule="nonzero"/><path fill="#000000" d="M 54.730469 61.855469 L 57.761719 61.855469 C 58.265625 61.855469 58.671875 62.261719 58.671875 62.757812 L 58.671875 65.765625 C 58.671875 66.265625 58.265625 66.667969 57.761719 66.667969 L 54.730469 66.667969 C 54.226562 66.667969 53.820312 66.265625 53.820312 65.765625 L 53.820312 62.757812 C 53.820312 62.261719 54.226562 61.855469 54.730469 61.855469 Z M 56.851562 63.660156 L 55.640625 63.660156 L 55.640625 64.863281 L 56.851562 64.863281 Z M 56.851562 63.660156 " fill-opacity="1" fill-rule="nonzero"/><g clip-path="url(#9a2efdac4a)"><path fill="#000000" d="M 18.246094 68.167969 C 17.746094 68.167969 17.335938 68.574219 17.335938 69.070312 C 17.335938 69.570312 17.746094 69.976562 18.246094 69.976562 L 44.386719 69.976562 C 44.886719 69.976562 45.296875 69.570312 45.296875 69.070312 C 45.296875 68.574219 44.886719 68.167969 44.386719 68.167969 Z M 18.246094 68.167969 " fill-opacity="1" fill-rule="nonzero"/></g><g clip-path="url(#b3dc661f8d)"><path fill="#000000" d="M 30.101562 87.066406 C 30.101562 87.566406 30.511719 87.96875 31.011719 87.96875 C 31.515625 87.96875 31.921875 87.566406 31.921875 87.066406 L 31.921875 69.070312 C 31.921875 68.574219 31.515625 68.167969 31.011719 68.167969 C 30.511719 68.167969 30.101562 68.574219 30.101562 69.070312 Z M 30.101562 87.066406 " fill-opacity="1" fill-rule="nonzero"/></g><path fill="#000000" d="M 26.785156 51.738281 C 26.785156 52.238281 27.195312 52.640625 27.695312 52.640625 C 28.199219 52.640625 28.605469 52.238281 28.605469 51.738281 C 28.605469 50.324219 29.367188 49.425781 30.339844 49.039062 C 30.734375 48.878906 31.167969 48.800781 31.597656 48.800781 L 31.597656 48.804688 C 32.03125 48.804688 32.460938 48.882812 32.851562 49.039062 C 33.824219 49.425781 34.585938 50.324219 34.585938 51.738281 L 34.585938 60.695312 C 34.585938 61.195312 34.992188 61.597656 35.496094 61.597656 C 35.996094 61.597656 36.40625 61.195312 36.40625 60.695312 L 36.40625 51.738281 C 36.40625 49.46875 35.144531 48.011719 33.527344 47.367188 C 32.914062 47.121094 32.253906 47 31.597656 47 L 31.597656 47.003906 C 30.933594 47.003906 30.273438 47.125 29.664062 47.367188 C 28.046875 48.011719 26.785156 49.46875 26.785156 51.738281 Z M 26.785156 51.738281 " fill-opacity="1" fill-rule="nonzero"/><path fill="#000000" d="M 28.492188 51.304688 L 30.570312 54.335938 L 30.574219 54.335938 C 30.679688 54.488281 30.730469 54.667969 30.730469 54.839844 L 30.730469 55.921875 C 30.730469 56.417969 30.324219 56.824219 29.820312 56.824219 L 25.570312 56.824219 C 25.066406 56.824219 24.660156 56.417969 24.660156 55.921875 L 24.660156 54.808594 C 24.660156 54.585938 24.742188 54.378906 24.875 54.222656 L 26.949219 51.230469 L 27.695312 51.738281 L 26.945312 51.226562 C 27.230469 50.816406 27.796875 50.714844 28.210938 50.996094 C 28.332031 51.078125 28.425781 51.183594 28.492188 51.304688 Z M 28.847656 55.019531 L 27.691406 53.332031 L 26.523438 55.019531 Z M 28.847656 55.019531 " fill-opacity="1" fill-rule="nonzero"/><g clip-path="url(#648b764f98)"><path fill="#000000" d="M 69.148438 42.933594 C 68.644531 42.933594 68.238281 43.339844 68.238281 43.835938 C 68.238281 44.335938 68.644531 44.738281 69.148438 44.738281 L 94.082031 44.738281 C 94.585938 44.738281 94.992188 44.335938 94.992188 43.835938 C 94.992188 43.339844 94.585938 42.933594 94.082031 42.933594 Z M 69.148438 42.933594 " fill-opacity="1" fill-rule="nonzero"/></g><path fill="#000000" d="M 71.613281 61.929688 C 71.109375 61.929688 70.703125 62.332031 70.703125 62.832031 C 70.703125 63.328125 71.109375 63.734375 71.613281 63.734375 C 72.628906 63.734375 73.429688 62.585938 73.894531 60.738281 C 74.273438 59.242188 74.507812 57.195312 74.507812 54.957031 C 74.507812 53.648438 74.519531 52.796875 74.535156 51.898438 C 74.554688 50.523438 74.578125 49.058594 74.566406 47.117188 C 74.5625 46.621094 74.15625 46.21875 73.65625 46.21875 C 73.15625 46.222656 72.75 46.625 72.753906 47.125 C 72.765625 49.046875 72.742188 50.503906 72.722656 51.875 C 72.703125 53.015625 72.6875 54.109375 72.6875 54.957031 C 72.6875 57.054688 72.472656 58.941406 72.132812 60.300781 C 71.878906 61.304688 71.683594 61.929688 71.613281 61.929688 Z M 72.671875 41.695312 C 72.6875 42.191406 73.109375 42.582031 73.609375 42.5625 C 74.109375 42.546875 74.5 42.128906 74.484375 41.632812 C 74.394531 39.382812 74.222656 37.359375 73.902344 35.886719 C 73.5 34.015625 72.785156 32.867188 71.613281 32.867188 C 71.109375 32.867188 70.703125 33.273438 70.703125 33.769531 C 70.703125 34.269531 71.109375 34.671875 71.613281 34.671875 C 71.734375 34.671875 71.914062 35.277344 72.125 36.257812 C 72.425781 37.636719 72.585938 39.554688 72.671875 41.695312 Z M 72.671875 41.695312 " fill-opacity="1" fill-rule="nonzero"/><path fill="#000000" d="M 34.792969 75.132812 C 34.792969 74.636719 34.386719 74.230469 33.882812 74.230469 C 33.382812 74.230469 32.972656 74.636719 32.972656 75.132812 L 32.972656 79.644531 C 32.972656 80.144531 33.382812 80.546875 33.882812 80.546875 C 34.386719 80.546875 34.792969 80.144531 34.792969 79.644531 Z M 34.792969 75.132812 " fill-opacity="1" fill-rule="nonzero"/><path fill="#000000" d="M 29.105469 75.132812 C 29.105469 74.636719 28.699219 74.230469 28.195312 74.230469 C 27.695312 74.230469 27.285156 74.636719 27.285156 75.132812 L 27.285156 79.644531 C 27.285156 80.144531 27.695312 80.546875 28.195312 80.546875 C 28.699219 80.546875 29.105469 80.144531 29.105469 79.644531 Z M 29.105469 75.132812 " fill-opacity="1" fill-rule="nonzero"/><path fill="#000000" d="M 26.492188 63.890625 C 25.988281 63.890625 25.582031 64.292969 25.582031 64.792969 C 25.582031 65.292969 25.988281 65.695312 26.492188 65.695312 L 37.296875 65.695312 C 37.800781 65.695312 38.207031 65.292969 38.207031 64.792969 C 38.207031 64.292969 37.800781 63.890625 37.296875 63.890625 Z M 26.492188 63.890625 " fill-opacity="1" fill-rule="nonzero"/><g clip-path="url(#37bac2104f)"><path fill="#000000" d="M 58.265625 24.667969 C 58.265625 24.171875 57.859375 23.765625 57.355469 23.765625 C 56.855469 23.765625 56.445312 24.171875 56.445312 24.667969 L 56.445312 33.503906 C 56.445312 33.753906 56.550781 33.980469 56.714844 34.144531 L 64.125 41.492188 L 64.125 44.070312 L 43.761719 44.070312 L 43.761719 41.492188 L 51.175781 34.144531 C 51.339844 33.980469 51.441406 33.753906 51.441406 33.503906 L 51.441406 24.667969 C 51.441406 24.171875 51.035156 23.765625 50.53125 23.765625 C 50.027344 23.765625 49.621094 24.171875 49.621094 24.667969 L 49.621094 33.132812 L 42.210938 40.480469 C 42.03125 40.65625 41.945312 40.886719 41.945312 41.121094 L 41.941406 41.121094 L 41.941406 44.972656 C 41.941406 45.472656 42.351562 45.875 42.851562 45.875 L 65.035156 45.875 C 65.539062 45.875 65.945312 45.472656 65.945312 44.972656 L 65.945312 41.121094 C 65.945312 40.886719 65.855469 40.65625 65.679688 40.480469 L 58.265625 33.132812 Z M 58.265625 24.667969 " fill-opacity="1" fill-rule="nonzero"/></g><path fill="#000000" d="M 42.851562 40.21875 C 42.351562 40.21875 41.945312 40.621094 41.945312 41.121094 C 41.945312 41.617188 42.351562 42.023438 42.851562 42.023438 L 65.035156 42.023438 C 65.539062 42.023438 65.945312 41.617188 65.945312 41.121094 C 65.945312 40.621094 65.539062 40.21875 65.035156 40.21875 Z M 42.851562 40.21875 " fill-opacity="1" fill-rule="nonzero"/></svg>