<svg xmlns="http://www.w3.org/2000/svg" xmlns:xlink="http://www.w3.org/1999/xlink" width="150" zoomAndPan="magnify" viewBox="0 0 112.5 112.499997" height="150" preserveAspectRatio="xMidYMid meet" version="1.0"><defs><clipPath id="d602177239"><path d="M 0 0 L 112.003906 0 L 112.003906 112.003906 L 0 112.003906 Z M 0 0 " clip-rule="nonzero"/></clipPath><clipPath id="ec8ab53f28"><path d="M 56 0 C 25.074219 0 0 25.074219 0 56 C 0 86.929688 25.074219 112.003906 56 112.003906 C 86.929688 112.003906 112.003906 86.929688 112.003906 56 C 112.003906 25.074219 86.929688 0 56 0 Z M 56 0 " clip-rule="nonzero"/></clipPath><clipPath id="9e90d6b702"><path d="M 23.367188 23.367188 L 48 23.367188 L 48 88.328125 L 23.367188 88.328125 Z M 23.367188 23.367188 " clip-rule="nonzero"/></clipPath><clipPath id="06f02eb572"><path d="M 45 68 L 88.328125 68 L 88.328125 88.328125 L 45 88.328125 Z M 45 68 " clip-rule="nonzero"/></clipPath><clipPath id="6c01730aed"><path d="M 45 23.367188 L 88.328125 23.367188 L 88.328125 30 L 45 30 Z M 45 23.367188 " clip-rule="nonzero"/></clipPath></defs><g clip-path="url(#d602177239)"><g clip-path="url(#ec8ab53f28)"><path fill="#bbaa91" d="M 0 0 L 112.003906 0 L 112.003906 112.003906 L 0 112.003906 Z M 0 0 " fill-opacity="1" fill-rule="nonzero"/></g></g><path fill="#000000" d="M 53.683594 34.195312 C 53.085938 34.195312 52.601562 33.710938 52.601562 33.113281 L 52.601562 28.78125 C 52.601562 28.183594 53.085938 27.699219 53.683594 27.699219 C 54.28125 27.699219 54.765625 28.183594 54.765625 28.78125 L 54.765625 33.113281 C 54.765625 33.710938 54.28125 34.195312 53.683594 34.195312 Z M 53.683594 34.195312 " fill-opacity="1" fill-rule="nonzero"/><path fill="#000000" d="M 84 34.195312 C 83.402344 34.195312 82.917969 33.710938 82.917969 33.113281 L 82.917969 28.78125 C 82.917969 28.183594 83.402344 27.699219 84 27.699219 C 84.597656 27.699219 85.082031 28.183594 85.082031 28.78125 L 85.082031 33.113281 C 85.082031 33.710938 84.597656 34.195312 84 34.195312 Z M 84 34.195312 " fill-opacity="1" fill-rule="nonzero"/><g clip-path="url(#9e90d6b702)"><path fill="#000000" d="M 46.105469 88.328125 L 24.453125 88.328125 C 23.855469 88.328125 23.367188 87.84375 23.367188 87.246094 L 23.367188 24.453125 C 23.367188 23.855469 23.855469 23.367188 24.453125 23.367188 L 46.105469 23.367188 C 46.703125 23.367188 47.1875 23.855469 47.1875 24.453125 L 47.1875 87.246094 C 47.1875 87.84375 46.703125 88.328125 46.105469 88.328125 Z M 25.535156 86.164062 L 45.023438 86.164062 L 45.023438 25.535156 L 25.535156 25.535156 Z M 25.535156 86.164062 " fill-opacity="1" fill-rule="nonzero"/></g><g clip-path="url(#06f02eb572)"><path fill="#000000" d="M 87.246094 88.328125 L 46.105469 88.328125 C 45.507812 88.328125 45.023438 87.84375 45.023438 87.246094 L 45.023438 69.925781 C 45.023438 69.328125 45.507812 68.839844 46.105469 68.839844 L 87.246094 68.839844 C 87.84375 68.839844 88.328125 69.328125 88.328125 69.925781 L 88.328125 87.246094 C 88.328125 87.84375 87.84375 88.328125 87.246094 88.328125 Z M 47.1875 86.164062 L 86.164062 86.164062 L 86.164062 71.007812 L 47.1875 71.007812 Z M 47.1875 86.164062 " fill-opacity="1" fill-rule="nonzero"/></g><g clip-path="url(#6c01730aed)"><path fill="#000000" d="M 87.246094 29.863281 L 46.105469 29.863281 C 45.507812 29.863281 45.023438 29.378906 45.023438 28.78125 L 45.023438 24.453125 C 45.023438 23.855469 45.507812 23.367188 46.105469 23.367188 L 87.246094 23.367188 C 87.84375 23.367188 88.328125 23.855469 88.328125 24.453125 L 88.328125 28.78125 C 88.328125 29.378906 87.84375 29.863281 87.246094 29.863281 Z M 47.1875 27.699219 L 86.164062 27.699219 L 86.164062 25.535156 L 47.1875 25.535156 Z M 47.1875 27.699219 " fill-opacity="1" fill-rule="nonzero"/></g><path fill="#000000" d="M 40.691406 56.933594 L 37.445312 56.933594 C 36.847656 56.933594 36.359375 56.445312 36.359375 55.847656 C 36.359375 55.25 36.847656 54.765625 37.445312 54.765625 L 40.691406 54.765625 C 41.289062 54.765625 41.773438 55.25 41.773438 55.847656 C 41.773438 56.445312 41.289062 56.933594 40.691406 56.933594 Z M 40.691406 56.933594 " fill-opacity="1" fill-rule="nonzero"/><path fill="#000000" d="M 37.445312 60.179688 C 36.847656 60.179688 36.359375 59.695312 36.359375 59.097656 L 36.359375 55.847656 C 36.359375 55.25 36.847656 54.765625 37.445312 54.765625 C 38.042969 54.765625 38.527344 55.25 38.527344 55.847656 L 38.527344 59.097656 C 38.527344 59.695312 38.042969 60.179688 37.445312 60.179688 Z M 37.445312 60.179688 " fill-opacity="1" fill-rule="nonzero"/><path fill="#000000" d="M 69.925781 78.585938 L 63.429688 78.585938 C 62.832031 78.585938 62.34375 78.101562 62.34375 77.503906 C 62.34375 76.90625 62.832031 76.421875 63.429688 76.421875 L 69.925781 76.421875 C 70.523438 76.421875 71.007812 76.90625 71.007812 77.503906 C 71.007812 78.101562 70.523438 78.585938 69.925781 78.585938 Z M 69.925781 78.585938 " fill-opacity="1" fill-rule="nonzero"/><path fill="#000000" d="M 66.675781 80.75 C 66.078125 80.75 65.59375 80.265625 65.59375 79.667969 L 65.59375 77.503906 C 65.59375 76.90625 66.078125 76.421875 66.675781 76.421875 C 67.273438 76.421875 67.757812 76.90625 67.757812 77.503906 L 67.757812 79.667969 C 67.757812 80.265625 67.273438 80.75 66.675781 80.75 Z M 66.675781 80.75 " fill-opacity="1" fill-rule="nonzero"/><path fill="#000000" d="M 60.179688 36.359375 C 59.582031 36.359375 59.097656 35.875 59.097656 35.277344 L 59.097656 28.78125 C 59.097656 28.183594 59.582031 27.699219 60.179688 27.699219 C 60.777344 27.699219 61.261719 28.183594 61.261719 28.78125 L 61.261719 35.277344 C 61.261719 35.875 60.777344 36.359375 60.179688 36.359375 Z M 60.179688 36.359375 " fill-opacity="1" fill-rule="nonzero"/><path fill="#000000" d="M 65.59375 58.015625 L 54.765625 58.015625 C 54.167969 58.015625 53.683594 57.53125 53.683594 56.933594 L 53.683594 47.1875 L 51.519531 47.1875 C 50.921875 47.1875 50.4375 46.703125 50.4375 46.105469 L 50.4375 43.941406 C 50.4375 40.703125 54.351562 38.527344 60.179688 38.527344 C 66.007812 38.527344 69.925781 40.703125 69.925781 43.941406 L 69.925781 46.105469 C 69.925781 46.703125 69.4375 47.1875 68.839844 47.1875 L 66.675781 47.1875 L 66.675781 56.933594 C 66.675781 57.53125 66.191406 58.015625 65.59375 58.015625 Z M 55.847656 55.847656 L 64.511719 55.847656 L 64.511719 46.105469 C 64.511719 45.507812 64.996094 45.023438 65.59375 45.023438 L 67.757812 45.023438 L 67.757812 43.941406 C 67.757812 42.367188 65.101562 40.691406 60.179688 40.691406 C 55.257812 40.691406 52.601562 42.367188 52.601562 43.941406 L 52.601562 45.023438 L 54.765625 45.023438 C 55.363281 45.023438 55.847656 45.507812 55.847656 46.105469 Z M 55.847656 55.847656 " fill-opacity="1" fill-rule="nonzero"/><path fill="#000000" d="M 73.171875 58.015625 L 65.59375 58.015625 C 64.996094 58.015625 64.511719 57.53125 64.511719 56.933594 L 64.511719 46.105469 C 64.511719 45.507812 64.996094 45.023438 65.59375 45.023438 L 67.757812 45.023438 L 67.757812 43.941406 C 67.757812 42.71875 66.179688 41.582031 63.738281 41.046875 C 63.242188 40.9375 62.886719 40.496094 62.886719 39.988281 C 62.886719 39.480469 63.242188 39.039062 63.738281 38.929688 C 64.960938 38.664062 66.316406 38.527344 67.757812 38.527344 C 73.585938 38.527344 77.503906 40.703125 77.503906 43.941406 L 77.503906 46.105469 C 77.503906 46.703125 77.019531 47.1875 76.421875 47.1875 L 74.253906 47.1875 L 74.253906 56.933594 C 74.253906 57.53125 73.769531 58.015625 73.171875 58.015625 Z M 66.675781 55.847656 L 72.089844 55.847656 L 72.089844 46.105469 C 72.089844 45.507812 72.574219 45.023438 73.171875 45.023438 L 75.335938 45.023438 L 75.335938 43.941406 C 75.335938 42.414062 72.851562 40.800781 68.226562 40.695312 C 69.324219 41.582031 69.925781 42.695312 69.925781 43.941406 L 69.925781 46.105469 C 69.925781 46.703125 69.4375 47.1875 68.839844 47.1875 L 66.675781 47.1875 Z M 66.675781 55.847656 " fill-opacity="1" fill-rule="nonzero"/><path fill="#000000" d="M 80.75 58.015625 L 73.171875 58.015625 C 72.574219 58.015625 72.089844 57.53125 72.089844 56.933594 L 72.089844 46.105469 C 72.089844 45.507812 72.574219 45.023438 73.171875 45.023438 L 75.335938 45.023438 L 75.335938 43.941406 C 75.335938 42.71875 73.757812 41.582031 71.316406 41.046875 C 70.820312 40.9375 70.464844 40.496094 70.464844 39.988281 C 70.464844 39.480469 70.820312 39.039062 71.316406 38.929688 C 72.542969 38.664062 73.894531 38.527344 75.335938 38.527344 C 81.164062 38.527344 85.082031 40.703125 85.082031 43.941406 L 85.082031 46.105469 C 85.082031 46.703125 84.597656 47.1875 84 47.1875 L 81.832031 47.1875 L 81.832031 56.933594 C 81.832031 57.53125 81.347656 58.015625 80.75 58.015625 Z M 74.253906 55.847656 L 79.667969 55.847656 L 79.667969 46.105469 C 79.667969 45.507812 80.152344 45.023438 80.75 45.023438 L 82.917969 45.023438 L 82.917969 43.941406 C 82.917969 42.414062 80.429688 40.800781 75.804688 40.695312 C 76.902344 41.582031 77.503906 42.695312 77.503906 43.941406 L 77.503906 46.105469 C 77.503906 46.703125 77.019531 47.1875 76.421875 47.1875 L 74.253906 47.1875 Z M 74.253906 55.847656 " fill-opacity="1" fill-rule="nonzero"/><path fill="#000000" d="M 60.179688 40.691406 C 59.582031 40.691406 59.097656 40.207031 59.097656 39.609375 C 59.097656 39.011719 59.582031 38.527344 60.179688 38.527344 C 60.777344 38.527344 61.261719 38.039062 61.261719 37.445312 C 61.261719 36.847656 60.777344 36.359375 60.179688 36.359375 C 59.582031 36.359375 59.097656 35.875 59.097656 35.277344 C 59.097656 34.679688 59.582031 34.195312 60.179688 34.195312 C 61.972656 34.195312 63.429688 35.652344 63.429688 37.445312 C 63.429688 39.234375 61.972656 40.691406 60.179688 40.691406 Z M 60.179688 40.691406 " fill-opacity="1" fill-rule="nonzero"/><path fill="#000000" d="M 68.839844 36.359375 C 68.242188 36.359375 67.757812 35.875 67.757812 35.277344 L 67.757812 28.78125 C 67.757812 28.183594 68.242188 27.699219 68.839844 27.699219 C 69.4375 27.699219 69.925781 28.183594 69.925781 28.78125 L 69.925781 35.277344 C 69.925781 35.875 69.4375 36.359375 68.839844 36.359375 Z M 68.839844 36.359375 " fill-opacity="1" fill-rule="nonzero"/><path fill="#000000" d="M 68.839844 40.691406 C 68.242188 40.691406 67.757812 40.207031 67.757812 39.609375 C 67.757812 39.011719 68.242188 38.527344 68.839844 38.527344 C 69.4375 38.527344 69.925781 38.039062 69.925781 37.445312 C 69.925781 36.847656 69.4375 36.359375 68.839844 36.359375 C 68.242188 36.359375 67.757812 35.875 67.757812 35.277344 C 67.757812 34.679688 68.242188 34.195312 68.839844 34.195312 C 70.632812 34.195312 72.089844 35.652344 72.089844 37.445312 C 72.089844 39.234375 70.632812 40.691406 68.839844 40.691406 Z M 68.839844 40.691406 " fill-opacity="1" fill-rule="nonzero"/><path fill="#000000" d="M 77.503906 36.359375 C 76.90625 36.359375 76.421875 35.875 76.421875 35.277344 L 76.421875 28.78125 C 76.421875 28.183594 76.90625 27.699219 77.503906 27.699219 C 78.101562 27.699219 78.585938 28.183594 78.585938 28.78125 L 78.585938 35.277344 C 78.585938 35.875 78.101562 36.359375 77.503906 36.359375 Z M 77.503906 36.359375 " fill-opacity="1" fill-rule="nonzero"/><path fill="#000000" d="M 77.503906 40.691406 C 76.90625 40.691406 76.421875 40.207031 76.421875 39.609375 C 76.421875 39.011719 76.90625 38.527344 77.503906 38.527344 C 78.101562 38.527344 78.585938 38.039062 78.585938 37.445312 C 78.585938 36.847656 78.101562 36.359375 77.503906 36.359375 C 76.90625 36.359375 76.421875 35.875 76.421875 35.277344 C 76.421875 34.679688 76.90625 34.195312 77.503906 34.195312 C 79.292969 34.195312 80.75 35.652344 80.75 37.445312 C 80.75 39.234375 79.292969 40.691406 77.503906 40.691406 Z M 77.503906 40.691406 " fill-opacity="1" fill-rule="nonzero"/><path fill="#000000" d="M 85.082031 71.007812 L 46.105469 71.007812 C 45.507812 71.007812 45.023438 70.523438 45.023438 69.925781 L 45.023438 65.59375 C 45.023438 64.996094 45.507812 64.511719 46.105469 64.511719 L 85.082031 64.511719 C 85.679688 64.511719 86.164062 64.996094 86.164062 65.59375 L 86.164062 69.925781 C 86.164062 70.523438 85.679688 71.007812 85.082031 71.007812 Z M 47.1875 68.839844 L 84 68.839844 L 84 66.675781 L 47.1875 66.675781 Z M 47.1875 68.839844 " fill-opacity="1" fill-rule="nonzero"/><path fill="#000000" d="M 82.917969 84 L 50.4375 84 C 49.839844 84 49.351562 83.515625 49.351562 82.917969 L 49.351562 74.253906 C 49.351562 73.65625 49.839844 73.171875 50.4375 73.171875 L 82.917969 73.171875 C 83.515625 73.171875 84 73.65625 84 74.253906 L 84 82.917969 C 84 83.515625 83.515625 84 82.917969 84 Z M 51.519531 81.832031 L 81.832031 81.832031 L 81.832031 75.335938 L 51.519531 75.335938 Z M 51.519531 81.832031 " fill-opacity="1" fill-rule="nonzero"/></svg>