<svg xmlns="http://www.w3.org/2000/svg" xmlns:xlink="http://www.w3.org/1999/xlink" width="150" zoomAndPan="magnify" viewBox="0 0 112.5 112.499997" height="150" preserveAspectRatio="xMidYMid meet" version="1.0"><defs><clipPath id="096a15fddb"><path d="M 0 0 L 112.003906 0 L 112.003906 112.003906 L 0 112.003906 Z M 0 0 " clip-rule="nonzero"/></clipPath><clipPath id="6b5317b82e"><path d="M 56 0 C 25.074219 0 0 25.074219 0 56 C 0 86.929688 25.074219 112.003906 56 112.003906 C 86.929688 112.003906 112.003906 86.929688 112.003906 56 C 112.003906 25.074219 86.929688 0 56 0 Z M 56 0 " clip-rule="nonzero"/></clipPath><clipPath id="266bc12d48"><path d="M 17.566406 23.765625 L 94.476562 23.765625 L 94.476562 87.980469 L 17.566406 87.980469 Z M 17.566406 23.765625 " clip-rule="nonzero"/></clipPath></defs><g clip-path="url(#096a15fddb)"><g clip-path="url(#6b5317b82e)"><path fill="#bbaa91" d="M 0 0 L 112.003906 0 L 112.003906 112.003906 L 0 112.003906 Z M 0 0 " fill-opacity="1" fill-rule="nonzero"/></g></g><g clip-path="url(#266bc12d48)"><path fill="#000000" d="M 93.566406 49.570312 L 74.335938 49.570312 C 74.589844 47.710938 72.976562 45.925781 71.078125 45.96875 C 71.078125 45.96875 55.417969 45.96875 55.417969 45.96875 C 53.925781 45.96875 52.617188 46.976562 52.238281 48.429688 L 51.953125 49.570312 L 42.140625 49.570312 L 42.140625 45.476562 L 51.921875 45.476562 C 53.699219 45.476562 55.164062 44.035156 55.164062 42.265625 L 55.164062 26.976562 C 55.164062 25.207031 53.714844 23.765625 51.921875 23.765625 L 25.136719 23.765625 C 23.359375 23.765625 21.914062 25.207031 21.914062 26.976562 L 21.914062 42.25 C 21.914062 44.019531 23.359375 45.460938 25.136719 45.460938 L 34.933594 45.460938 L 34.933594 49.570312 L 18.476562 49.570312 C 17.980469 49.570312 17.585938 49.960938 17.585938 50.457031 L 17.585938 87.09375 C 17.585938 87.589844 17.980469 87.980469 18.476562 87.980469 L 41.839844 87.980469 C 42.335938 87.980469 42.726562 87.589844 42.726562 87.09375 L 42.726562 73.335938 L 51.953125 73.335938 L 51.953125 82.21875 L 49.34375 82.21875 C 46.648438 82.21875 44.460938 84.394531 44.460938 87.078125 C 44.460938 87.574219 44.851562 87.964844 45.351562 87.964844 C 45.847656 87.964844 46.238281 87.574219 46.238281 87.078125 C 46.238281 85.371094 47.640625 83.988281 49.34375 83.988281 L 51.953125 83.988281 L 51.953125 87.078125 C 51.953125 87.574219 52.34375 87.964844 52.839844 87.964844 C 53.339844 87.964844 53.730469 87.574219 53.730469 87.078125 L 53.730469 83.988281 L 56.339844 83.988281 C 58.058594 83.988281 59.441406 85.382812 59.441406 87.078125 C 59.441406 87.574219 59.835938 87.964844 60.332031 87.964844 C 60.828125 87.964844 61.222656 87.574219 61.222656 87.078125 C 61.222656 84.394531 59.035156 82.21875 56.339844 82.21875 L 53.730469 82.21875 L 53.730469 73.335938 L 65.742188 73.335938 C 67.25 73.335938 68.5625 72.332031 68.925781 70.875 L 72.722656 56.039062 L 87.929688 56.039062 L 87.929688 87.078125 C 87.929688 87.574219 88.324219 87.964844 88.820312 87.964844 L 93.550781 87.964844 C 94.050781 87.964844 94.441406 87.574219 94.441406 87.078125 L 94.441406 50.457031 C 94.457031 49.960938 94.066406 49.570312 93.566406 49.570312 Z M 23.691406 26.976562 C 23.691406 26.179688 24.339844 25.535156 25.136719 25.535156 L 51.921875 25.535156 C 52.722656 25.535156 53.382812 26.179688 53.382812 26.976562 L 53.382812 39.128906 L 23.691406 39.128906 Z M 25.136719 43.691406 C 24.339844 43.691406 23.691406 43.042969 23.691406 42.25 L 23.691406 40.898438 L 53.382812 40.898438 L 53.382812 42.25 C 53.382812 43.042969 52.734375 43.691406 51.921875 43.691406 Z M 40.363281 45.460938 L 40.363281 49.570312 L 36.714844 49.570312 L 36.714844 45.476562 L 40.363281 45.476562 Z M 19.367188 51.339844 L 35.160156 51.339844 C 35.328125 51.519531 35.554688 51.65625 35.824219 51.65625 L 41.25 51.65625 C 41.523438 51.65625 41.75 51.535156 41.914062 51.339844 L 51.5 51.339844 L 50.746094 54.28125 L 19.367188 54.28125 Z M 43.148438 57.359375 C 43.015625 57.359375 42.878906 57.386719 42.726562 57.386719 L 42.726562 56.050781 L 50.292969 56.050781 L 49.960938 57.359375 Z M 49.511719 59.128906 L 47.746094 66 L 42.726562 66 L 42.726562 59.15625 C 42.863281 59.144531 43 59.128906 43.148438 59.128906 Z M 19.367188 56.050781 L 40.949219 56.050781 L 40.949219 57.761719 C 39.019531 58.511719 37.511719 60.207031 37.105469 62.355469 L 36.097656 67.589844 C 35.402344 68.296875 34.921875 69.242188 34.710938 70.246094 L 19.367188 70.246094 Z M 40.949219 59.726562 L 40.949219 66 C 40.074219 65.984375 38.976562 65.953125 38.160156 66.285156 L 38.855469 62.699219 C 39.09375 61.410156 39.878906 60.34375 40.949219 59.726562 Z M 40.949219 86.210938 L 19.367188 86.210938 L 19.367188 72.015625 L 34.257812 72.015625 C 34 72.617188 34.363281 73.351562 35.054688 73.335938 C 35.054688 73.335938 40.949219 73.335938 40.949219 73.335938 Z M 72.542969 49.617188 C 71.816406 52.4375 67.988281 67.335938 67.191406 70.457031 C 67.023438 71.117188 66.421875 71.582031 65.730469 71.582031 L 36.1875 71.582031 C 36.214844 71.519531 36.472656 70.441406 36.503906 70.335938 C 36.894531 68.835938 38.25 67.785156 39.820312 67.785156 L 48.410156 67.785156 C 48.816406 67.785156 49.164062 67.515625 49.269531 67.125 L 53.941406 48.894531 C 54.109375 48.234375 54.710938 47.753906 55.402344 47.753906 L 71.09375 47.753906 C 72.042969 47.710938 72.8125 48.699219 72.542969 49.617188 Z M 92.679688 86.210938 L 89.722656 86.210938 L 89.722656 56.050781 L 92.679688 56.050781 Z M 92.679688 54.28125 L 73.191406 54.28125 L 73.941406 51.339844 L 92.691406 51.339844 L 92.691406 54.28125 Z M 92.679688 54.28125 " fill-opacity="1" fill-rule="nonzero"/></g></svg>