<svg xmlns="http://www.w3.org/2000/svg" xmlns:xlink="http://www.w3.org/1999/xlink" width="150" zoomAndPan="magnify" viewBox="0 0 112.5 112.499997" height="150" preserveAspectRatio="xMidYMid meet" version="1.0"><defs><clipPath id="20d3099e39"><path d="M 0 0 L 112.003906 0 L 112.003906 112.003906 L 0 112.003906 Z M 0 0 " clip-rule="nonzero"/></clipPath><clipPath id="4899152143"><path d="M 56 0 C 25.074219 0 0 25.074219 0 56 C 0 86.929688 25.074219 112.003906 56 112.003906 C 86.929688 112.003906 112.003906 86.929688 112.003906 56 C 112.003906 25.074219 86.929688 0 56 0 Z M 56 0 " clip-rule="nonzero"/></clipPath><clipPath id="518ba291e8"><path d="M 22 23.765625 L 89.882812 23.765625 L 89.882812 87.980469 L 22 87.980469 Z M 22 23.765625 " clip-rule="nonzero"/></clipPath></defs><g clip-path="url(#20d3099e39)"><g clip-path="url(#4899152143)"><path fill="#bbaa91" d="M 0 0 L 112.003906 0 L 112.003906 112.003906 L 0 112.003906 Z M 0 0 " fill-opacity="1" fill-rule="nonzero"/></g></g><g clip-path="url(#518ba291e8)"><path fill="#000000" d="M 47.804688 41.820312 L 55.285156 41.820312 C 55.695312 41.820312 56.027344 41.488281 56.027344 41.078125 C 56.027344 38.863281 54.40625 37.03125 52.28125 36.675781 L 52.28125 24.84375 C 52.28125 24.433594 51.949219 24.101562 51.539062 24.101562 C 51.125 24.101562 50.792969 24.433594 50.792969 24.84375 L 50.792969 36.675781 C 48.667969 37.03125 47.050781 38.863281 47.050781 41.078125 C 47.0625 41.488281 47.394531 41.820312 47.804688 41.820312 Z M 51.539062 38.09375 C 52.933594 38.09375 54.101562 39.046875 54.433594 40.335938 L 48.628906 40.335938 C 48.976562 39.046875 50.144531 38.09375 51.539062 38.09375 Z M 89.761719 87.019531 L 87.476562 77.445312 C 87.929688 77.046875 88.207031 76.460938 88.207031 75.839844 L 88.207031 52.3125 C 88.207031 51.304688 87.625 50.441406 86.695312 50.058594 C 85.765625 49.671875 84.742188 49.871094 84.023438 50.574219 C 81.765625 52.828125 80.679688 56.050781 81.101562 59.222656 L 82.695312 70.945312 C 82.695312 70.945312 82.695312 71.023438 82.695312 71.023438 C 82.75 71.675781 82.191406 72.273438 81.542969 72.257812 C 81.542969 72.257812 75.324219 72.257812 75.324219 72.257812 L 74.050781 66.953125 L 79.363281 66.953125 C 79.773438 66.953125 80.105469 66.621094 80.105469 66.210938 L 80.105469 62.074219 C 80.105469 61.660156 79.773438 61.328125 79.363281 61.328125 L 73.878906 61.328125 C 75.101562 60.253906 75.871094 58.691406 75.871094 56.941406 C 75.871094 56.527344 75.539062 56.199219 75.125 56.199219 L 62.335938 56.199219 C 61.925781 56.199219 61.59375 56.527344 61.59375 56.941406 C 61.59375 58.691406 62.363281 60.253906 63.585938 61.328125 L 50.117188 61.328125 C 51.339844 60.253906 52.109375 58.691406 52.109375 56.941406 C 52.109375 56.527344 51.777344 56.199219 51.367188 56.199219 L 38.574219 56.199219 C 38.164062 56.199219 37.832031 56.527344 37.832031 56.941406 C 37.832031 58.691406 38.601562 60.253906 39.824219 61.328125 L 32.453125 61.328125 C 32.042969 61.328125 31.710938 61.660156 31.710938 62.074219 L 31.710938 66.210938 C 31.710938 66.621094 32.042969 66.953125 32.453125 66.953125 L 37.765625 66.953125 L 36.492188 72.257812 L 30.289062 72.257812 C 29.597656 72.273438 29.039062 71.621094 29.132812 70.945312 C 29.132812 70.945312 30.726562 59.222656 30.726562 59.222656 C 31.152344 56.066406 30.0625 52.828125 27.804688 50.574219 C 26.371094 49.035156 23.542969 50.203125 23.632812 52.3125 C 23.632812 52.3125 23.632812 75.839844 23.632812 75.839844 C 23.632812 76.460938 23.898438 77.046875 24.351562 77.445312 L 22.054688 87.019531 C 21.933594 87.472656 22.304688 87.949219 22.785156 87.933594 L 25.269531 87.933594 C 25.574219 87.933594 25.851562 87.75 25.957031 87.457031 L 29.664062 77.976562 L 35.136719 77.976562 L 32.972656 87.007812 C 32.917969 87.230469 32.972656 87.457031 33.117188 87.644531 C 33.261719 87.816406 33.476562 87.921875 33.703125 87.921875 L 36.914062 87.921875 C 37.222656 87.921875 37.5 87.734375 37.605469 87.445312 L 38.894531 84.128906 L 40.183594 87.445312 C 40.289062 87.734375 40.566406 87.921875 40.875 87.921875 L 43.355469 87.921875 C 43.582031 87.921875 43.796875 87.816406 43.941406 87.644531 C 44.085938 87.472656 44.140625 87.230469 44.085938 87.007812 L 41.921875 77.976562 L 42.640625 77.976562 C 44.113281 77.800781 43.078125 75.363281 42.613281 74.59375 L 45.589844 66.953125 L 66.226562 66.953125 L 69.203125 74.59375 C 68.738281 75.335938 67.6875 77.816406 69.175781 77.976562 C 69.175781 77.976562 69.894531 77.976562 69.894531 77.976562 L 67.730469 87.019531 C 67.675781 87.246094 67.730469 87.472656 67.875 87.65625 C 68.019531 87.828125 68.234375 87.933594 68.460938 87.933594 L 70.941406 87.933594 C 71.25 87.933594 71.527344 87.75 71.632812 87.457031 L 72.921875 84.140625 L 74.210938 87.457031 C 74.316406 87.75 74.59375 87.933594 74.902344 87.933594 L 78.113281 87.933594 C 78.339844 87.933594 78.554688 87.828125 78.699219 87.65625 C 78.84375 87.484375 78.898438 87.246094 78.84375 87.019531 L 76.679688 77.988281 L 82.152344 77.988281 L 85.859375 87.472656 C 85.964844 87.761719 86.242188 87.949219 86.546875 87.949219 L 89.03125 87.949219 C 89.496094 87.949219 89.882812 87.472656 89.761719 87.019531 Z M 63.132812 57.695312 L 74.304688 57.695312 C 73.945312 59.765625 72.136719 61.34375 69.972656 61.34375 L 67.476562 61.34375 C 65.296875 61.34375 63.492188 59.765625 63.132812 57.695312 Z M 39.386719 57.695312 L 50.554688 57.695312 C 50.195312 59.765625 48.390625 61.34375 46.226562 61.34375 L 43.730469 61.34375 C 41.550781 61.34375 39.746094 59.765625 39.386719 57.695312 Z M 24.75 86.449219 L 23.726562 86.449219 L 25.746094 77.988281 L 28.058594 77.988281 Z M 25.773438 76.503906 C 25.679688 76.503906 25.585938 76.476562 25.492188 76.4375 C 25.253906 76.332031 25.109375 76.089844 25.109375 75.839844 L 25.109375 52.3125 C 25.160156 51.34375 26.199219 51.089844 26.742188 51.621094 C 28.679688 53.558594 29.609375 56.316406 29.253906 59.023438 L 27.660156 70.734375 C 27.550781 71.527344 27.804688 72.339844 28.347656 72.921875 C 28.839844 73.453125 29.558594 73.757812 30.273438 73.757812 L 36.132812 73.757812 L 35.46875 76.503906 Z M 42.425781 86.449219 L 41.390625 86.449219 L 39.691406 82.097656 C 39.8125 81.78125 40.59375 79.777344 40.742188 79.421875 Z M 36.398438 86.449219 L 34.632812 86.449219 C 35.960938 80.933594 37.992188 72.429688 39.292969 66.953125 L 43.996094 66.953125 C 41.671875 72.921875 38.707031 80.519531 36.398438 86.449219 Z M 33.195312 65.480469 L 33.195312 62.828125 L 78.621094 62.828125 L 78.621094 65.480469 Z M 70.4375 86.449219 L 69.402344 86.449219 L 71.089844 79.421875 L 72.125 82.097656 Z M 77.183594 86.449219 L 75.417969 86.449219 C 73.347656 81.117188 69.90625 72.3125 67.820312 66.953125 L 72.511719 66.953125 L 73.996094 73.160156 C 74.582031 75.628906 76.5625 83.863281 77.183594 86.449219 Z M 76.335938 76.503906 L 75.671875 73.757812 L 81.542969 73.757812 C 83.109375 73.808594 84.421875 72.257812 84.171875 70.746094 C 84.171875 70.746094 82.578125 59.023438 82.578125 59.023438 C 82.21875 56.316406 83.148438 53.558594 85.074219 51.636719 C 85.5 51.222656 85.976562 51.371094 86.125 51.4375 C 86.257812 51.488281 86.722656 51.726562 86.722656 52.324219 L 86.722656 75.851562 C 86.734375 76.210938 86.402344 76.515625 86.058594 76.515625 L 76.335938 76.515625 Z M 87.066406 86.449219 L 83.757812 77.988281 L 86.070312 77.988281 L 88.089844 86.449219 Z M 56.917969 46.210938 L 64.394531 46.210938 C 64.804688 46.210938 65.136719 45.878906 65.136719 45.46875 C 65.136719 43.253906 63.519531 41.421875 61.394531 41.066406 L 61.394531 24.539062 C 61.394531 24.128906 61.0625 23.796875 60.648438 23.796875 C 60.238281 23.796875 59.90625 24.128906 59.90625 24.539062 L 59.90625 41.066406 C 57.792969 41.421875 56.160156 43.253906 56.160156 45.46875 C 56.171875 45.878906 56.503906 46.210938 56.917969 46.210938 Z M 60.664062 42.484375 C 62.058594 42.484375 63.226562 43.4375 63.558594 44.726562 L 57.753906 44.726562 C 58.085938 43.4375 59.269531 42.484375 60.664062 42.484375 Z M 60.664062 42.484375 " fill-opacity="1" fill-rule="nonzero"/></g></svg>