<svg xmlns="http://www.w3.org/2000/svg" xmlns:xlink="http://www.w3.org/1999/xlink" width="150" zoomAndPan="magnify" viewBox="0 0 112.5 112.499997" height="150" preserveAspectRatio="xMidYMid meet" version="1.0"><defs><clipPath id="63040f3658"><path d="M 0 0 L 112.003906 0 L 112.003906 112.003906 L 0 112.003906 Z M 0 0 " clip-rule="nonzero"/></clipPath><clipPath id="b4e8b2d46b"><path d="M 56 0 C 25.074219 0 0 25.074219 0 56 C 0 86.929688 25.074219 112.003906 56 112.003906 C 86.929688 112.003906 112.003906 86.929688 112.003906 56 C 112.003906 25.074219 86.929688 0 56 0 Z M 56 0 " clip-rule="nonzero"/></clipPath><clipPath id="6cd1460e42"><path d="M 21.929688 48 L 89.878906 48 L 89.878906 89.878906 L 21.929688 89.878906 Z M 21.929688 48 " clip-rule="nonzero"/></clipPath><clipPath id="aa0062b492"><path d="M 76 32 L 89.878906 32 L 89.878906 43 L 76 43 Z M 76 32 " clip-rule="nonzero"/></clipPath><clipPath id="d651a6c527"><path d="M 21.929688 32 L 36 32 L 36 43 L 21.929688 43 Z M 21.929688 32 " clip-rule="nonzero"/></clipPath><clipPath id="b7299f55f4"><path d="M 47 21.929688 L 64 21.929688 L 64 38 L 47 38 Z M 47 21.929688 " clip-rule="nonzero"/></clipPath></defs><g clip-path="url(#63040f3658)"><g clip-path="url(#b4e8b2d46b)"><path fill="#bbaa91" d="M 0 0 L 112.003906 0 L 112.003906 112.003906 L 0 112.003906 Z M 0 0 " fill-opacity="1" fill-rule="nonzero"/></g></g><g clip-path="url(#6cd1460e42)"><path fill="#000000" d="M 88.816406 67.585938 L 86.695312 67.585938 L 86.695312 65.460938 C 86.695312 64.292969 85.738281 63.335938 84.570312 63.335938 L 82.976562 63.335938 L 82.976562 59.089844 C 82.976562 59.089844 86.695312 59.089844 86.695312 59.089844 C 87.382812 59.089844 87.914062 58.402344 87.703125 57.761719 L 85.738281 50.277344 C 85.472656 49.21875 84.464844 48.472656 83.402344 48.472656 L 80.589844 48.472656 C 79.527344 48.472656 78.519531 49.269531 78.199219 50.277344 C 78.199219 50.277344 76.078125 57.761719 76.078125 57.761719 C 75.863281 58.453125 76.394531 59.089844 77.085938 59.089844 L 80.800781 59.089844 L 80.800781 63.335938 L 79.210938 63.335938 C 78.042969 63.335938 77.085938 64.292969 77.085938 65.460938 L 77.085938 67.585938 L 34.671875 67.585938 L 34.671875 65.460938 C 34.671875 64.292969 33.714844 63.335938 32.546875 63.335938 L 30.957031 63.335938 L 30.957031 59.089844 C 30.957031 59.089844 34.671875 59.089844 34.671875 59.089844 C 35.363281 59.089844 35.894531 58.402344 35.679688 57.761719 L 33.714844 50.277344 C 33.449219 49.21875 32.441406 48.472656 31.378906 48.472656 L 28.566406 48.472656 C 27.503906 48.472656 26.496094 49.269531 26.179688 50.277344 C 26.179688 50.277344 24.054688 57.761719 24.054688 57.761719 C 23.894531 58.402344 24.425781 59.089844 25.117188 59.089844 L 28.832031 59.089844 L 28.832031 63.335938 L 27.238281 63.335938 C 26.070312 63.335938 25.117188 64.292969 25.117188 65.460938 L 25.117188 67.585938 L 22.992188 67.585938 C 22.410156 67.585938 21.929688 68.0625 21.929688 68.644531 L 21.929688 72.890625 C 21.929688 73.476562 22.410156 73.953125 22.992188 73.953125 L 24.054688 73.953125 L 24.054688 84.570312 C 24.054688 85.953125 24.957031 87.117188 26.179688 87.542969 L 26.179688 88.816406 C 26.179688 89.402344 26.65625 89.878906 27.238281 89.878906 C 27.824219 89.878906 28.300781 89.402344 28.300781 88.816406 L 28.300781 87.757812 L 83.507812 87.757812 L 83.507812 88.816406 C 83.507812 89.402344 83.988281 89.878906 84.570312 89.878906 C 85.15625 89.878906 85.632812 89.402344 85.632812 88.816406 L 85.632812 87.542969 C 86.855469 87.117188 87.757812 85.953125 87.757812 84.570312 L 87.757812 73.953125 L 88.816406 73.953125 C 89.402344 73.953125 89.878906 73.476562 89.878906 72.890625 L 89.878906 68.644531 C 89.878906 68.0625 89.402344 67.585938 88.816406 67.585938 Z M 80.269531 50.863281 C 80.324219 50.757812 80.484375 50.597656 80.589844 50.597656 L 83.402344 50.597656 C 83.507812 50.597656 83.667969 50.757812 83.722656 50.808594 L 85.367188 56.96875 L 78.574219 56.96875 Z M 79.261719 65.460938 L 84.570312 65.460938 L 84.570312 67.585938 L 79.261719 67.585938 Z M 28.25 50.863281 C 28.300781 50.757812 28.460938 50.597656 28.566406 50.597656 L 31.378906 50.597656 C 31.488281 50.597656 31.644531 50.757812 31.699219 50.808594 L 33.292969 56.96875 L 26.496094 56.96875 Z M 27.238281 65.460938 L 32.546875 65.460938 L 32.546875 67.585938 L 27.238281 67.585938 Z M 85.632812 84.570312 C 85.632812 85.15625 85.15625 85.632812 84.570312 85.632812 L 27.238281 85.632812 C 26.65625 85.632812 26.179688 85.15625 26.179688 84.570312 L 26.179688 73.953125 L 85.632812 73.953125 Z M 87.757812 71.832031 L 24.054688 71.832031 L 24.054688 69.707031 L 87.757812 69.707031 Z M 87.757812 71.832031 " fill-opacity="1" fill-rule="nonzero"/></g><path fill="#000000" d="M 52.71875 81.386719 L 59.089844 81.386719 C 59.675781 81.386719 60.152344 80.910156 60.152344 80.324219 C 60.152344 79.742188 59.675781 79.261719 59.089844 79.261719 L 52.71875 79.261719 C 52.136719 79.261719 51.660156 79.742188 51.660156 80.324219 C 51.660156 80.910156 52.136719 81.386719 52.71875 81.386719 Z M 52.71875 81.386719 " fill-opacity="1" fill-rule="nonzero"/><path fill="#000000" d="M 64.398438 80.324219 C 64.398438 80.464844 64.371094 80.601562 64.316406 80.730469 C 64.265625 80.859375 64.1875 80.976562 64.089844 81.074219 C 63.988281 81.175781 63.875 81.25 63.742188 81.304688 C 63.613281 81.359375 63.476562 81.386719 63.335938 81.386719 C 63.195312 81.386719 63.0625 81.359375 62.929688 81.304688 C 62.800781 81.25 62.6875 81.175781 62.585938 81.074219 C 62.488281 80.976562 62.410156 80.859375 62.355469 80.730469 C 62.300781 80.601562 62.277344 80.464844 62.277344 80.324219 C 62.277344 80.183594 62.300781 80.046875 62.355469 79.917969 C 62.410156 79.789062 62.488281 79.671875 62.585938 79.574219 C 62.6875 79.472656 62.800781 79.398438 62.929688 79.34375 C 63.0625 79.289062 63.195312 79.261719 63.335938 79.261719 C 63.476562 79.261719 63.613281 79.289062 63.742188 79.34375 C 63.875 79.398438 63.988281 79.472656 64.089844 79.574219 C 64.1875 79.671875 64.265625 79.789062 64.316406 79.917969 C 64.371094 80.046875 64.398438 80.183594 64.398438 80.324219 Z M 64.398438 80.324219 " fill-opacity="1" fill-rule="nonzero"/><path fill="#000000" d="M 49.535156 80.324219 C 49.535156 80.464844 49.507812 80.601562 49.453125 80.730469 C 49.402344 80.859375 49.324219 80.976562 49.222656 81.074219 C 49.125 81.175781 49.011719 81.25 48.878906 81.304688 C 48.75 81.359375 48.613281 81.386719 48.472656 81.386719 C 48.332031 81.386719 48.199219 81.359375 48.066406 81.304688 C 47.9375 81.25 47.824219 81.175781 47.722656 81.074219 C 47.625 80.976562 47.546875 80.859375 47.492188 80.730469 C 47.4375 80.601562 47.410156 80.464844 47.410156 80.324219 C 47.410156 80.183594 47.4375 80.046875 47.492188 79.917969 C 47.546875 79.789062 47.625 79.671875 47.722656 79.574219 C 47.824219 79.472656 47.9375 79.398438 48.066406 79.34375 C 48.199219 79.289062 48.332031 79.261719 48.472656 79.261719 C 48.613281 79.261719 48.75 79.289062 48.878906 79.34375 C 49.011719 79.398438 49.125 79.472656 49.222656 79.574219 C 49.324219 79.671875 49.402344 79.789062 49.453125 79.917969 C 49.507812 80.046875 49.535156 80.183594 49.535156 80.324219 Z M 49.535156 80.324219 " fill-opacity="1" fill-rule="nonzero"/><path fill="#000000" d="M 42.15625 63.335938 L 45.925781 63.335938 L 45.605469 63.601562 C 45.183594 64.027344 45.183594 64.664062 45.554688 65.089844 C 45.980469 65.515625 46.617188 65.515625 47.039062 65.140625 L 49.003906 63.335938 L 62.804688 63.335938 L 64.71875 65.140625 C 65.140625 65.566406 65.832031 65.515625 66.203125 65.089844 C 66.628906 64.664062 66.574219 63.972656 66.152344 63.601562 L 65.886719 63.335938 L 69.65625 63.335938 C 70.820312 63.335938 71.832031 62.382812 71.832031 61.160156 L 71.832031 46.402344 C 71.832031 45.234375 70.875 44.226562 69.65625 44.226562 L 42.15625 44.226562 C 40.988281 44.226562 39.980469 45.183594 39.980469 46.402344 L 39.980469 61.214844 C 39.980469 62.382812 40.9375 63.335938 42.15625 63.335938 Z M 42.15625 46.351562 L 69.707031 46.402344 L 69.707031 61.214844 C 69.707031 61.214844 69.707031 61.265625 69.65625 61.265625 L 42.105469 61.160156 Z M 42.15625 46.351562 " fill-opacity="1" fill-rule="nonzero"/><path fill="#000000" d="M 73.953125 81.386719 L 76.078125 81.386719 C 76.660156 81.386719 77.140625 80.910156 77.140625 80.324219 C 77.140625 79.742188 76.660156 79.261719 76.078125 79.261719 L 73.953125 79.261719 C 73.371094 79.261719 72.890625 79.742188 72.890625 80.324219 C 72.890625 80.910156 73.371094 81.386719 73.953125 81.386719 Z M 73.953125 81.386719 " fill-opacity="1" fill-rule="nonzero"/><path fill="#000000" d="M 35.679688 81.386719 L 37.804688 81.386719 C 38.386719 81.386719 38.867188 80.910156 38.867188 80.324219 C 38.867188 79.742188 38.386719 79.261719 37.804688 79.261719 L 35.679688 79.261719 C 35.097656 79.261719 34.617188 79.742188 34.617188 80.324219 C 34.617188 80.910156 35.097656 81.386719 35.679688 81.386719 Z M 35.679688 81.386719 " fill-opacity="1" fill-rule="nonzero"/><g clip-path="url(#aa0062b492)"><path fill="#000000" d="M 88.816406 32.546875 L 77.140625 32.546875 C 76.554688 32.546875 76.078125 33.027344 76.078125 33.609375 L 76.078125 41.042969 C 76.078125 41.625 76.554688 42.105469 77.140625 42.105469 L 88.816406 42.105469 C 89.402344 42.105469 89.878906 41.625 89.878906 41.042969 L 89.878906 33.609375 C 89.878906 33.027344 89.402344 32.546875 88.816406 32.546875 Z M 87.757812 39.980469 L 78.199219 39.980469 L 78.199219 34.671875 L 87.757812 34.671875 Z M 87.757812 39.980469 " fill-opacity="1" fill-rule="nonzero"/></g><g clip-path="url(#d651a6c527)"><path fill="#000000" d="M 22.992188 42.105469 L 34.671875 42.105469 C 35.253906 42.105469 35.734375 41.625 35.734375 41.042969 L 35.734375 33.609375 C 35.734375 33.027344 35.253906 32.546875 34.671875 32.546875 L 22.992188 32.546875 C 22.410156 32.546875 21.929688 33.027344 21.929688 33.609375 L 21.929688 41.042969 C 21.929688 41.625 22.410156 42.105469 22.992188 42.105469 Z M 24.054688 34.671875 L 33.609375 34.671875 L 33.609375 39.980469 L 24.054688 39.980469 Z M 24.054688 34.671875 " fill-opacity="1" fill-rule="nonzero"/></g><g clip-path="url(#b7299f55f4)"><path fill="#000000" d="M 49.003906 34.140625 L 52.71875 34.140625 C 52.71875 35.894531 54.152344 37.324219 55.90625 37.324219 C 57.65625 37.324219 59.089844 35.894531 59.089844 34.140625 C 59.089844 34.140625 62.804688 34.140625 62.804688 34.140625 C 63.496094 34.140625 63.867188 33.558594 63.867188 32.921875 C 63.816406 28.671875 60.789062 25.222656 56.96875 24.691406 L 56.96875 22.992188 C 56.96875 22.410156 56.488281 21.929688 55.90625 21.929688 C 55.320312 21.929688 54.84375 22.410156 54.84375 22.992188 L 54.84375 24.691406 C 50.96875 25.222656 47.941406 28.78125 47.941406 33.078125 C 47.941406 33.664062 48.421875 34.140625 49.003906 34.140625 Z M 55.90625 35.203125 C 55.320312 35.203125 54.84375 34.726562 54.84375 34.140625 L 56.96875 34.140625 C 56.96875 34.726562 56.488281 35.203125 55.90625 35.203125 Z M 55.90625 26.710938 C 58.773438 26.710938 61.214844 28.992188 61.636719 32.015625 L 50.171875 32.015625 C 50.597656 28.992188 53.039062 26.710938 55.90625 26.710938 Z M 55.90625 26.710938 " fill-opacity="1" fill-rule="nonzero"/></g><path fill="#000000" d="M 54.898438 39.554688 L 54.898438 40.511719 C 54.898438 41.09375 55.375 41.574219 55.957031 41.574219 C 56.542969 41.574219 57.019531 41.09375 57.019531 40.511719 L 57.019531 39.554688 C 57.019531 38.972656 56.542969 38.492188 55.957031 38.492188 C 55.375 38.492188 54.898438 38.972656 54.898438 39.554688 Z M 54.898438 39.554688 " fill-opacity="1" fill-rule="nonzero"/><path fill="#000000" d="M 51.5 38.492188 L 50.703125 38.867188 C 50.171875 39.128906 49.90625 39.714844 50.171875 40.246094 C 50.382812 40.777344 51.074219 40.988281 51.550781 40.777344 L 52.347656 40.40625 C 52.878906 40.140625 53.144531 39.554688 52.878906 39.023438 C 52.667969 38.492188 52.03125 38.226562 51.5 38.492188 Z M 51.5 38.492188 " fill-opacity="1" fill-rule="nonzero"/><path fill="#000000" d="M 60.3125 38.492188 C 59.78125 38.226562 59.144531 38.492188 58.929688 39.023438 C 58.664062 39.554688 58.929688 40.191406 59.460938 40.40625 L 60.257812 40.777344 C 60.789062 40.988281 61.425781 40.777344 61.636719 40.246094 C 61.902344 39.714844 61.636719 39.078125 61.109375 38.867188 Z M 60.3125 38.492188 " fill-opacity="1" fill-rule="nonzero"/></svg>