<svg xmlns="http://www.w3.org/2000/svg" xmlns:xlink="http://www.w3.org/1999/xlink" width="200" zoomAndPan="magnify" viewBox="0 0 150 37.5" height="50" preserveAspectRatio="xMidYMid meet" version="1.0"><defs><g/><clipPath id="a5c9f5b553"><path d="M 0.988281 0.371094 L 37.253906 0.371094 L 37.253906 36.636719 L 0.988281 36.636719 Z M 0.988281 0.371094 " clip-rule="nonzero"/></clipPath></defs><g fill="#000000" fill-opacity="1"><g transform="translate(38.84027, 19.687496)"><g><path d="M 4.078125 0.15625 C 3.359375 0.15625 2.660156 0.0546875 1.984375 -0.140625 C 1.316406 -0.335938 0.773438 -0.59375 0.359375 -0.90625 L 1.078125 -2.484375 C 1.472656 -2.203125 1.9375 -1.972656 2.46875 -1.796875 C 3.007812 -1.617188 3.550781 -1.53125 4.09375 -1.53125 C 4.6875 -1.53125 5.125 -1.617188 5.40625 -1.796875 C 5.695312 -1.984375 5.84375 -2.222656 5.84375 -2.515625 C 5.84375 -2.734375 5.757812 -2.910156 5.59375 -3.046875 C 5.425781 -3.191406 5.207031 -3.304688 4.9375 -3.390625 C 4.675781 -3.484375 4.320312 -3.582031 3.875 -3.6875 C 3.175781 -3.851562 2.601562 -4.019531 2.15625 -4.1875 C 1.71875 -4.351562 1.335938 -4.617188 1.015625 -4.984375 C 0.703125 -5.347656 0.546875 -5.832031 0.546875 -6.4375 C 0.546875 -6.96875 0.6875 -7.445312 0.96875 -7.875 C 1.257812 -8.300781 1.691406 -8.640625 2.265625 -8.890625 C 2.847656 -9.148438 3.554688 -9.28125 4.390625 -9.28125 C 4.972656 -9.28125 5.539062 -9.207031 6.09375 -9.0625 C 6.65625 -8.925781 7.144531 -8.726562 7.5625 -8.46875 L 6.90625 -6.875 C 6.0625 -7.34375 5.21875 -7.578125 4.375 -7.578125 C 3.789062 -7.578125 3.351562 -7.484375 3.0625 -7.296875 C 2.78125 -7.109375 2.640625 -6.859375 2.640625 -6.546875 C 2.640625 -6.234375 2.800781 -6 3.125 -5.84375 C 3.457031 -5.6875 3.957031 -5.535156 4.625 -5.390625 C 5.320312 -5.222656 5.890625 -5.054688 6.328125 -4.890625 C 6.773438 -4.734375 7.15625 -4.472656 7.46875 -4.109375 C 7.789062 -3.753906 7.953125 -3.273438 7.953125 -2.671875 C 7.953125 -2.148438 7.804688 -1.671875 7.515625 -1.234375 C 7.222656 -0.804688 6.785156 -0.46875 6.203125 -0.21875 C 5.617188 0.03125 4.910156 0.15625 4.078125 0.15625 Z M 4.078125 0.15625 "/></g></g></g><g fill="#000000" fill-opacity="1"><g transform="translate(47.148161, 19.687496)"><g><path d="M 3.765625 -7.109375 C 4.847656 -7.109375 5.679688 -6.847656 6.265625 -6.328125 C 6.847656 -5.816406 7.140625 -5.039062 7.140625 -4 L 7.140625 0 L 5.234375 0 L 5.234375 -0.875 C 4.859375 -0.21875 4.144531 0.109375 3.09375 0.109375 C 2.5625 0.109375 2.097656 0.0195312 1.703125 -0.15625 C 1.304688 -0.34375 1.003906 -0.597656 0.796875 -0.921875 C 0.585938 -1.242188 0.484375 -1.609375 0.484375 -2.015625 C 0.484375 -2.671875 0.726562 -3.1875 1.21875 -3.5625 C 1.707031 -3.9375 2.46875 -4.125 3.5 -4.125 L 5.109375 -4.125 C 5.109375 -4.5625 4.972656 -4.898438 4.703125 -5.140625 C 4.429688 -5.378906 4.03125 -5.5 3.5 -5.5 C 3.125 -5.5 2.753906 -5.4375 2.390625 -5.3125 C 2.023438 -5.195312 1.71875 -5.039062 1.46875 -4.84375 L 0.75 -6.265625 C 1.125 -6.535156 1.578125 -6.742188 2.109375 -6.890625 C 2.648438 -7.035156 3.203125 -7.109375 3.765625 -7.109375 Z M 3.609375 -1.265625 C 3.953125 -1.265625 4.257812 -1.34375 4.53125 -1.5 C 4.800781 -1.664062 4.992188 -1.90625 5.109375 -2.21875 L 5.109375 -2.9375 L 3.71875 -2.9375 C 2.882812 -2.9375 2.46875 -2.660156 2.46875 -2.109375 C 2.46875 -1.847656 2.566406 -1.640625 2.765625 -1.484375 C 2.972656 -1.335938 3.253906 -1.265625 3.609375 -1.265625 Z M 3.609375 -1.265625 "/></g></g></g><g fill="#000000" fill-opacity="1"><g transform="translate(55.182591, 19.687496)"><g><path d="M 5.203125 -7.109375 C 6.066406 -7.109375 6.765625 -6.847656 7.296875 -6.328125 C 7.835938 -5.804688 8.109375 -5.035156 8.109375 -4.015625 L 8.109375 0 L 6.078125 0 L 6.078125 -3.703125 C 6.078125 -4.253906 5.953125 -4.664062 5.703125 -4.9375 C 5.460938 -5.21875 5.113281 -5.359375 4.65625 -5.359375 C 4.144531 -5.359375 3.734375 -5.195312 3.421875 -4.875 C 3.117188 -4.5625 2.96875 -4.09375 2.96875 -3.46875 L 2.96875 0 L 0.9375 0 L 0.9375 -7.015625 L 2.875 -7.015625 L 2.875 -6.1875 C 3.144531 -6.488281 3.476562 -6.71875 3.875 -6.875 C 4.28125 -7.03125 4.722656 -7.109375 5.203125 -7.109375 Z M 5.203125 -7.109375 "/></g></g></g><g fill="#000000" fill-opacity="1"><g transform="translate(64.180639, 19.687496)"><g><path d="M 5.453125 -0.34375 C 5.253906 -0.195312 5.007812 -0.0820312 4.71875 0 C 4.425781 0.0703125 4.125 0.109375 3.8125 0.109375 C 2.96875 0.109375 2.316406 -0.101562 1.859375 -0.53125 C 1.410156 -0.957031 1.1875 -1.582031 1.1875 -2.40625 L 1.1875 -5.296875 L 0.109375 -5.296875 L 0.109375 -6.859375 L 1.1875 -6.859375 L 1.1875 -8.5625 L 3.21875 -8.5625 L 3.21875 -6.859375 L 4.96875 -6.859375 L 4.96875 -5.296875 L 3.21875 -5.296875 L 3.21875 -2.4375 C 3.21875 -2.144531 3.289062 -1.914062 3.4375 -1.75 C 3.59375 -1.59375 3.8125 -1.515625 4.09375 -1.515625 C 4.414062 -1.515625 4.6875 -1.597656 4.90625 -1.765625 Z M 5.453125 -0.34375 "/></g></g></g><g fill="#000000" fill-opacity="1"><g transform="translate(69.845114, 19.687496)"><g><path d="M 3.765625 -7.109375 C 4.847656 -7.109375 5.679688 -6.847656 6.265625 -6.328125 C 6.847656 -5.816406 7.140625 -5.039062 7.140625 -4 L 7.140625 0 L 5.234375 0 L 5.234375 -0.875 C 4.859375 -0.21875 4.144531 0.109375 3.09375 0.109375 C 2.5625 0.109375 2.097656 0.0195312 1.703125 -0.15625 C 1.304688 -0.34375 1.003906 -0.597656 0.796875 -0.921875 C 0.585938 -1.242188 0.484375 -1.609375 0.484375 -2.015625 C 0.484375 -2.671875 0.726562 -3.1875 1.21875 -3.5625 C 1.707031 -3.9375 2.46875 -4.125 3.5 -4.125 L 5.109375 -4.125 C 5.109375 -4.5625 4.972656 -4.898438 4.703125 -5.140625 C 4.429688 -5.378906 4.03125 -5.5 3.5 -5.5 C 3.125 -5.5 2.753906 -5.4375 2.390625 -5.3125 C 2.023438 -5.195312 1.71875 -5.039062 1.46875 -4.84375 L 0.75 -6.265625 C 1.125 -6.535156 1.578125 -6.742188 2.109375 -6.890625 C 2.648438 -7.035156 3.203125 -7.109375 3.765625 -7.109375 Z M 3.609375 -1.265625 C 3.953125 -1.265625 4.257812 -1.34375 4.53125 -1.5 C 4.800781 -1.664062 4.992188 -1.90625 5.109375 -2.21875 L 5.109375 -2.9375 L 3.71875 -2.9375 C 2.882812 -2.9375 2.46875 -2.660156 2.46875 -2.109375 C 2.46875 -1.847656 2.566406 -1.640625 2.765625 -1.484375 C 2.972656 -1.335938 3.253906 -1.265625 3.609375 -1.265625 Z M 3.609375 -1.265625 "/></g></g></g><g fill="#000000" fill-opacity="1"><g transform="translate(77.879544, 19.687496)"><g><path d="M 5.203125 -7.109375 C 6.066406 -7.109375 6.765625 -6.847656 7.296875 -6.328125 C 7.835938 -5.804688 8.109375 -5.035156 8.109375 -4.015625 L 8.109375 0 L 6.078125 0 L 6.078125 -3.703125 C 6.078125 -4.253906 5.953125 -4.664062 5.703125 -4.9375 C 5.460938 -5.21875 5.113281 -5.359375 4.65625 -5.359375 C 4.144531 -5.359375 3.734375 -5.195312 3.421875 -4.875 C 3.117188 -4.5625 2.96875 -4.09375 2.96875 -3.46875 L 2.96875 0 L 0.9375 0 L 0.9375 -7.015625 L 2.875 -7.015625 L 2.875 -6.1875 C 3.144531 -6.488281 3.476562 -6.71875 3.875 -6.875 C 4.28125 -7.03125 4.722656 -7.109375 5.203125 -7.109375 Z M 5.203125 -7.109375 "/></g></g></g><g fill="#000000" fill-opacity="1"><g transform="translate(86.877593, 19.687496)"><g><path d="M 3.765625 -7.109375 C 4.847656 -7.109375 5.679688 -6.847656 6.265625 -6.328125 C 6.847656 -5.816406 7.140625 -5.039062 7.140625 -4 L 7.140625 0 L 5.234375 0 L 5.234375 -0.875 C 4.859375 -0.21875 4.144531 0.109375 3.09375 0.109375 C 2.5625 0.109375 2.097656 0.0195312 1.703125 -0.15625 C 1.304688 -0.34375 1.003906 -0.597656 0.796875 -0.921875 C 0.585938 -1.242188 0.484375 -1.609375 0.484375 -2.015625 C 0.484375 -2.671875 0.726562 -3.1875 1.21875 -3.5625 C 1.707031 -3.9375 2.46875 -4.125 3.5 -4.125 L 5.109375 -4.125 C 5.109375 -4.5625 4.972656 -4.898438 4.703125 -5.140625 C 4.429688 -5.378906 4.03125 -5.5 3.5 -5.5 C 3.125 -5.5 2.753906 -5.4375 2.390625 -5.3125 C 2.023438 -5.195312 1.71875 -5.039062 1.46875 -4.84375 L 0.75 -6.265625 C 1.125 -6.535156 1.578125 -6.742188 2.109375 -6.890625 C 2.648438 -7.035156 3.203125 -7.109375 3.765625 -7.109375 Z M 3.609375 -1.265625 C 3.953125 -1.265625 4.257812 -1.34375 4.53125 -1.5 C 4.800781 -1.664062 4.992188 -1.90625 5.109375 -2.21875 L 5.109375 -2.9375 L 3.71875 -2.9375 C 2.882812 -2.9375 2.46875 -2.660156 2.46875 -2.109375 C 2.46875 -1.847656 2.566406 -1.640625 2.765625 -1.484375 C 2.972656 -1.335938 3.253906 -1.265625 3.609375 -1.265625 Z M 3.609375 -1.265625 "/></g></g></g><g clip-path="url(#a5c9f5b553)"><path fill="#000000" d="M 4.570312 29.320312 C 2.320312 26.300781 0.988281 22.554688 0.988281 18.503906 C 0.988281 8.496094 9.113281 0.371094 19.121094 0.371094 C 29.128906 0.371094 37.253906 8.496094 37.253906 18.503906 C 37.253906 22.554688 35.921875 26.300781 33.671875 29.320312 L 37.035156 29.320312 C 37.15625 29.320312 37.253906 29.417969 37.253906 29.539062 C 37.253906 29.660156 37.15625 29.757812 37.035156 29.757812 L 33.335938 29.757812 C 30.011719 33.945312 24.878906 36.636719 19.121094 36.636719 C 13.363281 36.636719 8.226562 33.945312 4.90625 29.757812 L 1.203125 29.757812 C 1.085938 29.757812 0.988281 29.660156 0.988281 29.539062 C 0.988281 29.417969 1.085938 29.320312 1.203125 29.320312 Z M 33.125 29.320312 C 35.4375 26.328125 36.816406 22.574219 36.816406 18.503906 C 36.816406 9.421875 29.964844 1.929688 21.152344 0.921875 L 21.152344 5.359375 L 23.015625 7.085938 C 23.082031 7.148438 23.101562 7.242188 23.070312 7.324219 C 23.035156 7.410156 22.957031 7.464844 22.867188 7.464844 L 19 7.464844 C 18.910156 7.464844 18.828125 7.410156 18.796875 7.324219 C 18.765625 7.242188 18.785156 7.148438 18.851562 7.085938 L 20.714844 5.359375 L 20.714844 0.878906 C 20.191406 0.832031 19.65625 0.804688 19.121094 0.804688 C 18.355469 0.804688 17.605469 0.855469 16.867188 0.949219 C 16.875 3.128906 16.875 5.3125 16.867188 7.5 C 17.183594 7.546875 17.476562 7.691406 17.703125 7.921875 C 17.984375 8.199219 18.140625 8.578125 18.140625 8.976562 L 18.140625 11.082031 C 18.140625 11.203125 18.042969 11.300781 17.921875 11.300781 L 15.375 11.300781 C 15.253906 11.300781 15.15625 11.203125 15.15625 11.082031 L 15.15625 8.976562 C 15.15625 8.578125 15.3125 8.199219 15.59375 7.921875 C 15.820312 7.691406 16.117188 7.546875 16.429688 7.5 C 16.4375 5.332031 16.4375 3.167969 16.429688 1.007812 C 14.230469 1.34375 12.164062 2.085938 10.308594 3.15625 L 10.308594 29.320312 L 12.550781 29.320312 L 13.019531 27.871094 L 12.039062 27.871094 C 11.921875 27.871094 11.824219 27.777344 11.824219 27.65625 L 11.824219 21.433594 C 11.824219 21.3125 11.921875 21.214844 12.039062 21.214844 L 13.421875 21.214844 L 13.128906 18.648438 C 13.125 18.585938 13.144531 18.523438 13.183594 18.480469 C 13.226562 18.433594 13.285156 18.40625 13.347656 18.40625 L 13.75 18.40625 C 13.53125 18.25 13.359375 18.070312 13.230469 17.859375 C 12.957031 17.417969 12.886719 16.84375 13.074219 16.117188 C 13.105469 16.003906 13.222656 15.933594 13.335938 15.960938 C 13.578125 16.019531 13.789062 16.089844 13.972656 16.179688 C 14.09375 15.929688 14.277344 15.675781 14.527344 15.421875 C 14.609375 15.339844 14.746094 15.335938 14.832031 15.417969 C 15.101562 15.675781 15.300781 15.933594 15.433594 16.1875 C 15.621094 16.097656 15.839844 16.019531 16.089844 15.960938 C 16.203125 15.933594 16.320312 16.003906 16.351562 16.117188 C 16.539062 16.84375 16.46875 17.417969 16.195312 17.859375 C 16.066406 18.066406 15.894531 18.25 15.679688 18.402344 L 16.015625 18.402344 C 16.078125 18.402344 16.140625 18.429688 16.179688 18.476562 C 16.222656 18.527344 16.242188 18.589844 16.230469 18.652344 L 15.859375 21.214844 L 21.910156 21.214844 C 22.03125 21.214844 22.128906 21.3125 22.128906 21.433594 L 22.128906 27.65625 C 22.128906 27.777344 22.03125 27.871094 21.910156 27.871094 L 20.933594 27.871094 L 21.402344 29.320312 L 23.601562 29.320312 L 24.710938 25.882812 L 23.761719 25.882812 C 23.640625 25.882812 23.542969 25.785156 23.542969 25.664062 C 23.542969 25.542969 23.640625 25.445312 23.761719 25.445312 L 25.003906 25.445312 C 25.007812 25.445312 25.011719 25.445312 25.015625 25.445312 L 27.835938 25.445312 C 27.839844 25.445312 27.84375 25.445312 27.847656 25.445312 L 28.871094 25.445312 L 28.871094 20.683594 C 28.871094 20.5625 28.96875 20.464844 29.089844 20.464844 C 29.210938 20.464844 29.308594 20.5625 29.308594 20.683594 L 29.308594 25.664062 C 29.308594 25.785156 29.210938 25.882812 29.089844 25.882812 L 28.140625 25.882812 L 29.25 29.320312 L 31.488281 29.320312 L 31.488281 18.382812 L 29.734375 18.382812 C 29.667969 18.382812 29.605469 18.355469 29.5625 18.304688 C 29.523438 18.253906 29.507812 18.1875 29.519531 18.125 L 30.121094 14.964844 C 30.140625 14.863281 30.230469 14.789062 30.335938 14.789062 L 33.203125 14.789062 C 33.3125 14.789062 33.402344 14.867188 33.417969 14.972656 L 33.890625 18.128906 C 33.902344 18.191406 33.882812 18.257812 33.839844 18.304688 C 33.800781 18.351562 33.738281 18.378906 33.675781 18.378906 L 31.921875 18.382812 L 31.921875 29.320312 Z M 25.601562 11.832031 L 25.601562 16.699219 C 25.601562 16.820312 25.503906 16.917969 25.386719 16.917969 L 21.441406 16.917969 C 21.320312 16.917969 21.222656 16.820312 21.222656 16.699219 L 21.222656 11.832031 C 21.222656 11.710938 21.320312 11.613281 21.441406 11.613281 L 25.386719 11.613281 C 25.503906 11.613281 25.601562 11.710938 25.601562 11.832031 Z M 25.167969 12.050781 L 21.660156 12.050781 L 21.660156 16.480469 L 25.167969 16.480469 Z M 24.515625 12.863281 L 24.515625 15.664062 C 24.515625 15.785156 24.417969 15.882812 24.296875 15.882812 L 22.527344 15.882812 C 22.40625 15.882812 22.308594 15.785156 22.308594 15.664062 L 22.308594 12.863281 C 22.308594 12.746094 22.40625 12.648438 22.527344 12.648438 L 24.296875 12.648438 C 24.417969 12.648438 24.515625 12.746094 24.515625 12.863281 Z M 24.082031 13.082031 L 22.746094 13.082031 L 22.746094 15.449219 L 24.082031 15.449219 Z M 6.910156 5.699219 C 6.546875 6.042969 6.199219 6.40625 5.863281 6.78125 L 5.863281 29.320312 L 6.910156 29.320312 Z M 5.429688 7.292969 C 5.058594 7.746094 4.710938 8.21875 4.382812 8.703125 L 4.382812 28.300781 C 4.617188 28.648438 4.859375 28.988281 5.117188 29.320312 L 5.429688 29.320312 Z M 9.871094 3.414062 C 9.515625 3.636719 9.167969 3.867188 8.828125 4.109375 L 8.828125 29.320312 L 9.871094 29.320312 Z M 8.390625 4.433594 C 8.03125 4.707031 7.683594 4.996094 7.347656 5.296875 L 7.347656 29.320312 L 8.390625 29.320312 Z M 3.949219 9.394531 C 3.558594 10.039062 3.210938 10.714844 2.902344 11.410156 L 2.902344 25.597656 C 3.210938 26.292969 3.558594 26.96875 3.949219 27.613281 Z M 2.46875 12.503906 C 1.792969 14.378906 1.421875 16.398438 1.421875 18.503906 C 1.421875 20.609375 1.792969 22.628906 2.46875 24.503906 Z M 5.464844 29.757812 C 8.710938 33.691406 13.625 36.199219 19.121094 36.199219 C 24.613281 36.199219 29.527344 33.691406 32.773438 29.757812 L 29.09375 29.757812 C 29.09375 29.757812 29.089844 29.757812 29.085938 29.757812 L 23.765625 29.757812 C 23.761719 29.757812 23.757812 29.757812 23.757812 29.757812 L 21.246094 29.757812 C 21.242188 29.757812 21.242188 29.757812 21.238281 29.757812 L 12.714844 29.757812 C 12.710938 29.757812 12.707031 29.757812 12.707031 29.757812 Z M 16.648438 7.917969 C 16.367188 7.917969 16.097656 8.03125 15.902344 8.226562 C 15.703125 8.425781 15.589844 8.695312 15.589844 8.976562 L 15.589844 10.867188 C 15.589844 10.867188 17.707031 10.867188 17.707031 10.867188 L 17.707031 8.976562 C 17.707031 8.695312 17.59375 8.425781 17.394531 8.226562 C 17.199219 8.03125 16.929688 7.917969 16.648438 7.917969 Z M 13.863281 21.210938 L 15.417969 21.210938 L 15.765625 18.839844 L 13.589844 18.839844 Z M 22.308594 7.027344 L 20.933594 5.753906 L 19.554688 7.027344 Z M 15.058594 16.414062 C 14.972656 16.242188 14.851562 16.066406 14.6875 15.890625 C 14.539062 16.0625 14.429688 16.234375 14.351562 16.402344 C 14.496094 16.507812 14.613281 16.628906 14.710938 16.757812 C 14.804688 16.632812 14.921875 16.515625 15.058594 16.414062 Z M 15.152344 18.214844 C 15.445312 18.0625 15.675781 17.875 15.824219 17.632812 C 16.015625 17.320312 16.070312 16.925781 15.976562 16.441406 C 15.832031 16.488281 15.703125 16.539062 15.589844 16.597656 C 15.625 16.746094 15.640625 16.894531 15.636719 17.042969 C 15.621094 17.441406 15.457031 17.835938 15.152344 18.214844 Z M 13.476562 27.871094 L 13.007812 29.320312 L 20.941406 29.320312 L 20.476562 27.871094 Z M 31.714844 17.945312 L 33.421875 17.945312 L 33.015625 15.226562 L 30.515625 15.226562 C 30.515625 15.226562 29.996094 17.949219 29.996094 17.949219 L 31.691406 17.945312 C 31.695312 17.945312 31.699219 17.945312 31.703125 17.945312 C 31.707031 17.945312 31.710938 17.945312 31.714844 17.945312 Z M 14.476562 17.203125 C 14.472656 17.191406 14.464844 17.179688 14.460938 17.167969 C 14.402344 17.058594 14.324219 16.957031 14.226562 16.867188 C 14.226562 16.910156 14.222656 16.953125 14.226562 17 C 14.230469 17.207031 14.289062 17.414062 14.390625 17.621094 C 14.402344 17.472656 14.433594 17.335938 14.476562 17.203125 Z M 15.035156 17.609375 C 15.136719 17.421875 15.191406 17.226562 15.199219 17.027344 C 15.203125 16.972656 15.199219 16.921875 15.195312 16.867188 C 15.101562 16.960938 15.023438 17.058594 14.964844 17.167969 C 14.960938 17.179688 14.953125 17.191406 14.949219 17.203125 C 14.992188 17.332031 15.019531 17.46875 15.035156 17.609375 Z M 13.828125 16.59375 C 13.714844 16.535156 13.589844 16.484375 13.449219 16.441406 C 13.355469 16.925781 13.410156 17.320312 13.601562 17.632812 C 13.742188 17.863281 13.957031 18.046875 14.230469 18.191406 C 13.953125 17.800781 13.800781 17.40625 13.789062 17.011719 C 13.785156 16.871094 13.796875 16.734375 13.828125 16.59375 Z M 25.167969 25.882812 L 24.058594 29.320312 L 28.792969 29.320312 L 27.683594 25.882812 Z M 12.257812 24.761719 L 12.257812 27.4375 L 20.632812 27.4375 C 20.632812 27.4375 20.636719 27.4375 20.640625 27.4375 L 21.695312 27.4375 L 21.695312 24.761719 Z M 17.082031 25.878906 C 17.203125 25.878906 17.300781 25.976562 17.300781 26.101562 C 17.300781 26.222656 17.203125 26.320312 17.082031 26.320312 L 16.871094 26.320312 C 16.75 26.320312 16.652344 26.222656 16.652344 26.101562 C 16.652344 25.976562 16.75 25.878906 16.871094 25.878906 Z M 21.695312 24.328125 L 21.695312 21.652344 L 12.257812 21.652344 L 12.257812 24.328125 Z M 17.082031 22.769531 C 17.203125 22.769531 17.300781 22.867188 17.300781 22.988281 C 17.300781 23.109375 17.203125 23.210938 17.082031 23.210938 L 16.871094 23.210938 C 16.75 23.210938 16.652344 23.109375 16.652344 22.988281 C 16.652344 22.867188 16.75 22.769531 16.871094 22.769531 Z M 17.082031 22.769531 " fill-opacity="1" fill-rule="evenodd"/></g><g fill="#000000" fill-opacity="1"><g transform="translate(98.179307, 19.870695)"><g><path d="M 4.5625 -3.796875 L 4.5625 0 L 4.171875 0 L 4.171875 -3.03125 L 2.6875 -0.484375 L 2.5 -0.484375 L 1 -3.015625 L 1 0 L 0.625 0 L 0.625 -3.796875 L 0.953125 -3.796875 L 2.59375 -0.984375 L 4.234375 -3.796875 Z M 4.5625 -3.796875 "/></g></g></g><g fill="#000000" fill-opacity="1"><g transform="translate(103.362749, 19.870695)"><g><path d="M 1.703125 0.03125 C 1.429688 0.03125 1.179688 -0.03125 0.953125 -0.15625 C 0.734375 -0.28125 0.5625 -0.453125 0.4375 -0.671875 C 0.3125 -0.898438 0.25 -1.148438 0.25 -1.421875 C 0.25 -1.703125 0.3125 -1.953125 0.4375 -2.171875 C 0.5625 -2.390625 0.734375 -2.5625 0.953125 -2.6875 C 1.179688 -2.8125 1.429688 -2.875 1.703125 -2.875 C 1.972656 -2.875 2.21875 -2.8125 2.4375 -2.6875 C 2.664062 -2.5625 2.84375 -2.390625 2.96875 -2.171875 C 3.09375 -1.953125 3.15625 -1.703125 3.15625 -1.421875 C 3.15625 -1.148438 3.09375 -0.898438 2.96875 -0.671875 C 2.84375 -0.453125 2.664062 -0.28125 2.4375 -0.15625 C 2.21875 -0.03125 1.972656 0.03125 1.703125 0.03125 Z M 1.703125 -0.3125 C 1.898438 -0.3125 2.078125 -0.359375 2.234375 -0.453125 C 2.398438 -0.546875 2.53125 -0.675781 2.625 -0.84375 C 2.71875 -1.007812 2.765625 -1.203125 2.765625 -1.421875 C 2.765625 -1.640625 2.71875 -1.832031 2.625 -2 C 2.53125 -2.175781 2.398438 -2.304688 2.234375 -2.390625 C 2.078125 -2.484375 1.898438 -2.53125 1.703125 -2.53125 C 1.503906 -2.53125 1.320312 -2.484375 1.15625 -2.390625 C 1 -2.304688 0.875 -2.175781 0.78125 -2 C 0.6875 -1.832031 0.640625 -1.640625 0.640625 -1.421875 C 0.640625 -1.203125 0.6875 -1.007812 0.78125 -0.84375 C 0.875 -0.675781 1 -0.546875 1.15625 -0.453125 C 1.320312 -0.359375 1.503906 -0.3125 1.703125 -0.3125 Z M 2.09375 -3.96875 L 2.609375 -3.96875 L 1.734375 -3.296875 L 1.34375 -3.296875 Z M 2.09375 -3.96875 "/></g></g></g><g fill="#000000" fill-opacity="1"><g transform="translate(106.765906, 19.870695)"><g><path d="M 2.9375 -2.859375 L 1.671875 0 L 1.265625 0 L 0 -2.859375 L 0.40625 -2.859375 L 1.46875 -0.421875 L 2.546875 -2.859375 Z M 2.9375 -2.859375 "/></g></g></g><g fill="#000000" fill-opacity="1"><g transform="translate(109.707712, 19.870695)"><g><path d="M 3.015625 -1.3125 L 0.640625 -1.3125 C 0.660156 -1.007812 0.769531 -0.765625 0.96875 -0.578125 C 1.175781 -0.398438 1.4375 -0.3125 1.75 -0.3125 C 1.925781 -0.3125 2.085938 -0.34375 2.234375 -0.40625 C 2.390625 -0.46875 2.519531 -0.5625 2.625 -0.6875 L 2.84375 -0.4375 C 2.71875 -0.289062 2.5625 -0.175781 2.375 -0.09375 C 2.1875 -0.0078125 1.976562 0.03125 1.75 0.03125 C 1.457031 0.03125 1.195312 -0.03125 0.96875 -0.15625 C 0.738281 -0.28125 0.5625 -0.453125 0.4375 -0.671875 C 0.3125 -0.898438 0.25 -1.148438 0.25 -1.421875 C 0.25 -1.703125 0.304688 -1.953125 0.421875 -2.171875 C 0.546875 -2.390625 0.710938 -2.5625 0.921875 -2.6875 C 1.140625 -2.8125 1.378906 -2.875 1.640625 -2.875 C 1.898438 -2.875 2.132812 -2.8125 2.34375 -2.6875 C 2.5625 -2.5625 2.726562 -2.390625 2.84375 -2.171875 C 2.96875 -1.953125 3.03125 -1.703125 3.03125 -1.421875 Z M 1.640625 -2.546875 C 1.367188 -2.546875 1.140625 -2.457031 0.953125 -2.28125 C 0.765625 -2.101562 0.660156 -1.875 0.640625 -1.59375 L 2.65625 -1.59375 C 2.632812 -1.875 2.53125 -2.101562 2.34375 -2.28125 C 2.15625 -2.457031 1.921875 -2.546875 1.640625 -2.546875 Z M 1.640625 -2.546875 "/></g></g></g><g fill="#000000" fill-opacity="1"><g transform="translate(112.986033, 19.870695)"><g><path d="M 0.53125 -2.859375 L 0.921875 -2.859375 L 0.921875 0 L 0.53125 0 Z M 0.734375 -3.46875 C 0.648438 -3.46875 0.582031 -3.492188 0.53125 -3.546875 C 0.476562 -3.609375 0.453125 -3.675781 0.453125 -3.75 C 0.453125 -3.820312 0.476562 -3.882812 0.53125 -3.9375 C 0.582031 -3.988281 0.648438 -4.015625 0.734375 -4.015625 C 0.816406 -4.015625 0.882812 -3.988281 0.9375 -3.9375 C 0.988281 -3.882812 1.015625 -3.820312 1.015625 -3.75 C 1.015625 -3.675781 0.988281 -3.609375 0.9375 -3.546875 C 0.882812 -3.492188 0.816406 -3.46875 0.734375 -3.46875 Z M 0.734375 -3.46875 "/></g></g></g><g fill="#000000" fill-opacity="1"><g transform="translate(114.446082, 19.870695)"><g><path d="M 1.296875 0.03125 C 1.066406 0.03125 0.84375 0 0.625 -0.0625 C 0.414062 -0.132812 0.253906 -0.222656 0.140625 -0.328125 L 0.3125 -0.625 C 0.4375 -0.53125 0.585938 -0.453125 0.765625 -0.390625 C 0.941406 -0.335938 1.128906 -0.3125 1.328125 -0.3125 C 1.585938 -0.3125 1.78125 -0.347656 1.90625 -0.421875 C 2.03125 -0.503906 2.09375 -0.625 2.09375 -0.78125 C 2.09375 -0.882812 2.054688 -0.960938 1.984375 -1.015625 C 1.921875 -1.078125 1.835938 -1.125 1.734375 -1.15625 C 1.628906 -1.1875 1.488281 -1.21875 1.3125 -1.25 C 1.082031 -1.289062 0.894531 -1.332031 0.75 -1.375 C 0.613281 -1.425781 0.492188 -1.503906 0.390625 -1.609375 C 0.296875 -1.710938 0.25 -1.863281 0.25 -2.0625 C 0.25 -2.300781 0.347656 -2.492188 0.546875 -2.640625 C 0.742188 -2.796875 1.019531 -2.875 1.375 -2.875 C 1.550781 -2.875 1.734375 -2.847656 1.921875 -2.796875 C 2.109375 -2.753906 2.257812 -2.691406 2.375 -2.609375 L 2.21875 -2.296875 C 1.976562 -2.460938 1.695312 -2.546875 1.375 -2.546875 C 1.125 -2.546875 0.9375 -2.5 0.8125 -2.40625 C 0.6875 -2.320312 0.625 -2.210938 0.625 -2.078125 C 0.625 -1.960938 0.660156 -1.875 0.734375 -1.8125 C 0.804688 -1.75 0.894531 -1.703125 1 -1.671875 C 1.101562 -1.640625 1.25 -1.609375 1.4375 -1.578125 C 1.65625 -1.523438 1.832031 -1.476562 1.96875 -1.4375 C 2.113281 -1.394531 2.234375 -1.320312 2.328125 -1.21875 C 2.429688 -1.113281 2.484375 -0.96875 2.484375 -0.78125 C 2.484375 -0.53125 2.378906 -0.332031 2.171875 -0.1875 C 1.960938 -0.0390625 1.671875 0.03125 1.296875 0.03125 Z M 1.296875 0.03125 "/></g></g></g><g fill="#000000" fill-opacity="1"><g transform="translate(117.100222, 19.870695)"><g/></g></g><g fill="#000000" fill-opacity="1"><g transform="translate(118.522278, 19.870695)"><g><path d="M 2.03125 -3.796875 C 2.519531 -3.796875 2.898438 -3.675781 3.171875 -3.4375 C 3.453125 -3.207031 3.59375 -2.894531 3.59375 -2.5 C 3.59375 -2.09375 3.453125 -1.773438 3.171875 -1.546875 C 2.898438 -1.316406 2.519531 -1.203125 2.03125 -1.203125 L 1.015625 -1.203125 L 1.015625 0 L 0.625 0 L 0.625 -3.796875 Z M 2.03125 -1.546875 C 2.40625 -1.546875 2.691406 -1.628906 2.890625 -1.796875 C 3.085938 -1.960938 3.1875 -2.195312 3.1875 -2.5 C 3.1875 -2.800781 3.085938 -3.035156 2.890625 -3.203125 C 2.691406 -3.367188 2.40625 -3.453125 2.03125 -3.453125 L 1.015625 -3.453125 L 1.015625 -1.546875 Z M 2.03125 -1.546875 "/></g></g></g><g fill="#000000" fill-opacity="1"><g transform="translate(122.419356, 19.870695)"><g><path d="M 0.53125 -4.015625 L 0.921875 -4.015625 L 0.921875 0 L 0.53125 0 Z M 0.53125 -4.015625 "/></g></g></g><g fill="#000000" fill-opacity="1"><g transform="translate(123.879406, 19.870695)"><g><path d="M 1.53125 -2.875 C 1.90625 -2.875 2.191406 -2.78125 2.390625 -2.59375 C 2.585938 -2.40625 2.6875 -2.128906 2.6875 -1.765625 L 2.6875 0 L 2.328125 0 L 2.328125 -0.4375 C 2.234375 -0.289062 2.101562 -0.175781 1.9375 -0.09375 C 1.769531 -0.0078125 1.570312 0.03125 1.34375 0.03125 C 1.019531 0.03125 0.765625 -0.0390625 0.578125 -0.1875 C 0.390625 -0.34375 0.296875 -0.546875 0.296875 -0.796875 C 0.296875 -1.046875 0.382812 -1.242188 0.5625 -1.390625 C 0.738281 -1.535156 1.019531 -1.609375 1.40625 -1.609375 L 2.296875 -1.609375 L 2.296875 -1.78125 C 2.296875 -2.03125 2.226562 -2.21875 2.09375 -2.34375 C 1.957031 -2.46875 1.757812 -2.53125 1.5 -2.53125 C 1.3125 -2.53125 1.132812 -2.5 0.96875 -2.4375 C 0.800781 -2.382812 0.660156 -2.304688 0.546875 -2.203125 L 0.375 -2.484375 C 0.519531 -2.609375 0.691406 -2.703125 0.890625 -2.765625 C 1.097656 -2.835938 1.3125 -2.875 1.53125 -2.875 Z M 1.40625 -0.28125 C 1.613281 -0.28125 1.796875 -0.328125 1.953125 -0.421875 C 2.109375 -0.523438 2.222656 -0.671875 2.296875 -0.859375 L 2.296875 -1.328125 L 1.40625 -1.328125 C 0.914062 -1.328125 0.671875 -1.15625 0.671875 -0.8125 C 0.671875 -0.644531 0.734375 -0.515625 0.859375 -0.421875 C 0.992188 -0.328125 1.175781 -0.28125 1.40625 -0.28125 Z M 1.40625 -0.28125 "/></g></g></g><g fill="#000000" fill-opacity="1"><g transform="translate(127.08174, 19.870695)"><g><path d="M 1.984375 -2.875 C 2.347656 -2.875 2.632812 -2.769531 2.84375 -2.5625 C 3.050781 -2.351562 3.15625 -2.050781 3.15625 -1.65625 L 3.15625 0 L 2.78125 0 L 2.78125 -1.609375 C 2.78125 -1.910156 2.703125 -2.140625 2.546875 -2.296875 C 2.398438 -2.453125 2.191406 -2.53125 1.921875 -2.53125 C 1.609375 -2.53125 1.363281 -2.4375 1.1875 -2.25 C 1.007812 -2.070312 0.921875 -1.820312 0.921875 -1.5 L 0.921875 0 L 0.53125 0 L 0.53125 -2.859375 L 0.90625 -2.859375 L 0.90625 -2.328125 C 1.007812 -2.503906 1.15625 -2.640625 1.34375 -2.734375 C 1.53125 -2.828125 1.742188 -2.875 1.984375 -2.875 Z M 1.984375 -2.875 "/></g></g></g><g fill="#000000" fill-opacity="1"><g transform="translate(130.756283, 19.870695)"><g><path d="M 3.015625 -1.3125 L 0.640625 -1.3125 C 0.660156 -1.007812 0.769531 -0.765625 0.96875 -0.578125 C 1.175781 -0.398438 1.4375 -0.3125 1.75 -0.3125 C 1.925781 -0.3125 2.085938 -0.34375 2.234375 -0.40625 C 2.390625 -0.46875 2.519531 -0.5625 2.625 -0.6875 L 2.84375 -0.4375 C 2.71875 -0.289062 2.5625 -0.175781 2.375 -0.09375 C 2.1875 -0.0078125 1.976562 0.03125 1.75 0.03125 C 1.457031 0.03125 1.195312 -0.03125 0.96875 -0.15625 C 0.738281 -0.28125 0.5625 -0.453125 0.4375 -0.671875 C 0.3125 -0.898438 0.25 -1.148438 0.25 -1.421875 C 0.25 -1.703125 0.304688 -1.953125 0.421875 -2.171875 C 0.546875 -2.390625 0.710938 -2.5625 0.921875 -2.6875 C 1.140625 -2.8125 1.378906 -2.875 1.640625 -2.875 C 1.898438 -2.875 2.132812 -2.8125 2.34375 -2.6875 C 2.5625 -2.5625 2.726562 -2.390625 2.84375 -2.171875 C 2.96875 -1.953125 3.03125 -1.703125 3.03125 -1.421875 Z M 1.640625 -2.546875 C 1.367188 -2.546875 1.140625 -2.457031 0.953125 -2.28125 C 0.765625 -2.101562 0.660156 -1.875 0.640625 -1.59375 L 2.65625 -1.59375 C 2.632812 -1.875 2.53125 -2.101562 2.34375 -2.28125 C 2.15625 -2.457031 1.921875 -2.546875 1.640625 -2.546875 Z M 1.640625 -2.546875 "/></g></g></g><g fill="#000000" fill-opacity="1"><g transform="translate(134.034604, 19.870695)"><g><path d="M 0.109375 1.078125 C -0.00390625 1.078125 -0.113281 1.0625 -0.21875 1.03125 C -0.332031 1 -0.421875 0.953125 -0.484375 0.890625 L -0.359375 0.609375 C -0.242188 0.703125 -0.09375 0.75 0.09375 0.75 C 0.238281 0.75 0.351562 0.703125 0.4375 0.609375 C 0.519531 0.523438 0.5625 0.394531 0.5625 0.21875 L 0.5625 -2.859375 L 0.953125 -2.859375 L 0.953125 0.21875 C 0.953125 0.476562 0.878906 0.6875 0.734375 0.84375 C 0.585938 1 0.378906 1.078125 0.109375 1.078125 Z M 0.765625 -3.46875 C 0.679688 -3.46875 0.613281 -3.492188 0.5625 -3.546875 C 0.507812 -3.609375 0.484375 -3.675781 0.484375 -3.75 C 0.484375 -3.820312 0.507812 -3.882812 0.5625 -3.9375 C 0.613281 -3.988281 0.679688 -4.015625 0.765625 -4.015625 C 0.847656 -4.015625 0.914062 -3.988281 0.96875 -3.9375 C 1.019531 -3.882812 1.046875 -3.820312 1.046875 -3.75 C 1.046875 -3.675781 1.019531 -3.609375 0.96875 -3.546875 C 0.914062 -3.492188 0.847656 -3.46875 0.765625 -3.46875 Z M 0.765625 -3.46875 "/></g></g></g><g fill="#000000" fill-opacity="1"><g transform="translate(135.521791, 19.870695)"><g><path d="M 1.53125 -2.875 C 1.90625 -2.875 2.191406 -2.78125 2.390625 -2.59375 C 2.585938 -2.40625 2.6875 -2.128906 2.6875 -1.765625 L 2.6875 0 L 2.328125 0 L 2.328125 -0.4375 C 2.234375 -0.289062 2.101562 -0.175781 1.9375 -0.09375 C 1.769531 -0.0078125 1.570312 0.03125 1.34375 0.03125 C 1.019531 0.03125 0.765625 -0.0390625 0.578125 -0.1875 C 0.390625 -0.34375 0.296875 -0.546875 0.296875 -0.796875 C 0.296875 -1.046875 0.382812 -1.242188 0.5625 -1.390625 C 0.738281 -1.535156 1.019531 -1.609375 1.40625 -1.609375 L 2.296875 -1.609375 L 2.296875 -1.78125 C 2.296875 -2.03125 2.226562 -2.21875 2.09375 -2.34375 C 1.957031 -2.46875 1.757812 -2.53125 1.5 -2.53125 C 1.3125 -2.53125 1.132812 -2.5 0.96875 -2.4375 C 0.800781 -2.382812 0.660156 -2.304688 0.546875 -2.203125 L 0.375 -2.484375 C 0.519531 -2.609375 0.691406 -2.703125 0.890625 -2.765625 C 1.097656 -2.835938 1.3125 -2.875 1.53125 -2.875 Z M 1.40625 -0.28125 C 1.613281 -0.28125 1.796875 -0.328125 1.953125 -0.421875 C 2.109375 -0.523438 2.222656 -0.671875 2.296875 -0.859375 L 2.296875 -1.328125 L 1.40625 -1.328125 C 0.914062 -1.328125 0.671875 -1.15625 0.671875 -0.8125 C 0.671875 -0.644531 0.734375 -0.515625 0.859375 -0.421875 C 0.992188 -0.328125 1.175781 -0.28125 1.40625 -0.28125 Z M 1.40625 -0.28125 "/></g></g></g><g fill="#000000" fill-opacity="1"><g transform="translate(138.724125, 19.870695)"><g><path d="M 3.140625 -4.015625 L 3.140625 0 L 2.765625 0 L 2.765625 -0.5625 C 2.648438 -0.375 2.5 -0.226562 2.3125 -0.125 C 2.125 -0.0195312 1.910156 0.03125 1.671875 0.03125 C 1.398438 0.03125 1.15625 -0.03125 0.9375 -0.15625 C 0.726562 -0.28125 0.5625 -0.453125 0.4375 -0.671875 C 0.3125 -0.890625 0.25 -1.140625 0.25 -1.421875 C 0.25 -1.703125 0.3125 -1.953125 0.4375 -2.171875 C 0.5625 -2.398438 0.726562 -2.570312 0.9375 -2.6875 C 1.15625 -2.8125 1.398438 -2.875 1.671875 -2.875 C 1.898438 -2.875 2.109375 -2.828125 2.296875 -2.734375 C 2.484375 -2.640625 2.632812 -2.5 2.75 -2.3125 L 2.75 -4.015625 Z M 1.703125 -0.3125 C 1.898438 -0.3125 2.078125 -0.359375 2.234375 -0.453125 C 2.398438 -0.546875 2.53125 -0.675781 2.625 -0.84375 C 2.71875 -1.007812 2.765625 -1.203125 2.765625 -1.421875 C 2.765625 -1.640625 2.71875 -1.832031 2.625 -2 C 2.53125 -2.175781 2.398438 -2.304688 2.234375 -2.390625 C 2.078125 -2.484375 1.898438 -2.53125 1.703125 -2.53125 C 1.503906 -2.53125 1.320312 -2.484375 1.15625 -2.390625 C 1 -2.304688 0.875 -2.175781 0.78125 -2 C 0.6875 -1.832031 0.640625 -1.640625 0.640625 -1.421875 C 0.640625 -1.203125 0.6875 -1.007812 0.78125 -0.84375 C 0.875 -0.675781 1 -0.546875 1.15625 -0.453125 C 1.320312 -0.359375 1.503906 -0.3125 1.703125 -0.3125 Z M 1.703125 -0.3125 "/></g></g></g><g fill="#000000" fill-opacity="1"><g transform="translate(142.404099, 19.870695)"><g><path d="M 1.703125 0.03125 C 1.429688 0.03125 1.179688 -0.03125 0.953125 -0.15625 C 0.734375 -0.28125 0.5625 -0.453125 0.4375 -0.671875 C 0.3125 -0.898438 0.25 -1.148438 0.25 -1.421875 C 0.25 -1.703125 0.3125 -1.953125 0.4375 -2.171875 C 0.5625 -2.390625 0.734375 -2.5625 0.953125 -2.6875 C 1.179688 -2.8125 1.429688 -2.875 1.703125 -2.875 C 1.972656 -2.875 2.21875 -2.8125 2.4375 -2.6875 C 2.664062 -2.5625 2.84375 -2.390625 2.96875 -2.171875 C 3.09375 -1.953125 3.15625 -1.703125 3.15625 -1.421875 C 3.15625 -1.148438 3.09375 -0.898438 2.96875 -0.671875 C 2.84375 -0.453125 2.664062 -0.28125 2.4375 -0.15625 C 2.21875 -0.03125 1.972656 0.03125 1.703125 0.03125 Z M 1.703125 -0.3125 C 1.898438 -0.3125 2.078125 -0.359375 2.234375 -0.453125 C 2.398438 -0.546875 2.53125 -0.675781 2.625 -0.84375 C 2.71875 -1.007812 2.765625 -1.203125 2.765625 -1.421875 C 2.765625 -1.640625 2.71875 -1.832031 2.625 -2 C 2.53125 -2.175781 2.398438 -2.304688 2.234375 -2.390625 C 2.078125 -2.484375 1.898438 -2.53125 1.703125 -2.53125 C 1.503906 -2.53125 1.320312 -2.484375 1.15625 -2.390625 C 1 -2.304688 0.875 -2.175781 0.78125 -2 C 0.6875 -1.832031 0.640625 -1.640625 0.640625 -1.421875 C 0.640625 -1.203125 0.6875 -1.007812 0.78125 -0.84375 C 0.875 -0.675781 1 -0.546875 1.15625 -0.453125 C 1.320312 -0.359375 1.503906 -0.3125 1.703125 -0.3125 Z M 1.703125 -0.3125 "/></g></g></g><g fill="#000000" fill-opacity="1"><g transform="translate(145.807256, 19.870695)"><g><path d="M 1.296875 0.03125 C 1.066406 0.03125 0.84375 0 0.625 -0.0625 C 0.414062 -0.132812 0.253906 -0.222656 0.140625 -0.328125 L 0.3125 -0.625 C 0.4375 -0.53125 0.585938 -0.453125 0.765625 -0.390625 C 0.941406 -0.335938 1.128906 -0.3125 1.328125 -0.3125 C 1.585938 -0.3125 1.78125 -0.347656 1.90625 -0.421875 C 2.03125 -0.503906 2.09375 -0.625 2.09375 -0.78125 C 2.09375 -0.882812 2.054688 -0.960938 1.984375 -1.015625 C 1.921875 -1.078125 1.835938 -1.125 1.734375 -1.15625 C 1.628906 -1.1875 1.488281 -1.21875 1.3125 -1.25 C 1.082031 -1.289062 0.894531 -1.332031 0.75 -1.375 C 0.613281 -1.425781 0.492188 -1.503906 0.390625 -1.609375 C 0.296875 -1.710938 0.25 -1.863281 0.25 -2.0625 C 0.25 -2.300781 0.347656 -2.492188 0.546875 -2.640625 C 0.742188 -2.796875 1.019531 -2.875 1.375 -2.875 C 1.550781 -2.875 1.734375 -2.847656 1.921875 -2.796875 C 2.109375 -2.753906 2.257812 -2.691406 2.375 -2.609375 L 2.21875 -2.296875 C 1.976562 -2.460938 1.695312 -2.546875 1.375 -2.546875 C 1.125 -2.546875 0.9375 -2.5 0.8125 -2.40625 C 0.6875 -2.320312 0.625 -2.210938 0.625 -2.078125 C 0.625 -1.960938 0.660156 -1.875 0.734375 -1.8125 C 0.804688 -1.75 0.894531 -1.703125 1 -1.671875 C 1.101562 -1.640625 1.25 -1.609375 1.4375 -1.578125 C 1.65625 -1.523438 1.832031 -1.476562 1.96875 -1.4375 C 2.113281 -1.394531 2.234375 -1.320312 2.328125 -1.21875 C 2.429688 -1.113281 2.484375 -0.96875 2.484375 -0.78125 C 2.484375 -0.53125 2.378906 -0.332031 2.171875 -0.1875 C 1.960938 -0.0390625 1.671875 0.03125 1.296875 0.03125 Z M 1.296875 0.03125 "/></g></g></g><g fill="#000000" fill-opacity="1"><g transform="translate(38.828706, 27.192438)"><g><path d="M 3.859375 -2.953125 C 3.734375 -2.960938 3.644531 -2.929688 3.59375 -2.859375 C 3.539062 -2.785156 3.515625 -2.65625 3.515625 -2.46875 L 3.53125 -0.453125 C 3.53125 -0.378906 3.53125 -0.285156 3.53125 -0.171875 L 3.859375 -0.1875 L 3.84375 0 L 2.859375 0 L 2.875 -0.140625 L 2.90625 -0.140625 C 3.019531 -0.148438 3.09375 -0.195312 3.125 -0.28125 C 3.164062 -0.363281 3.1875 -0.492188 3.1875 -0.671875 L 3.1875 -2.1875 C 3.1875 -2.351562 3.1875 -2.484375 3.1875 -2.578125 L 3.03125 -2.234375 L 1.96875 0.046875 L 1.84375 0.046875 C 1.726562 -0.253906 1.5625 -0.695312 1.34375 -1.28125 C 1.289062 -1.457031 1.203125 -1.710938 1.078125 -2.046875 L 1.046875 -2.140625 C 0.984375 -2.296875 0.925781 -2.457031 0.875 -2.625 C 0.863281 -2.363281 0.84375 -2.070312 0.8125 -1.75 L 0.703125 -0.546875 C 0.679688 -0.367188 0.664062 -0.242188 0.65625 -0.171875 L 0.984375 -0.1875 L 0.96875 0 L 0.140625 0 L 0.140625 -0.140625 C 0.222656 -0.140625 0.285156 -0.15625 0.328125 -0.1875 C 0.378906 -0.226562 0.410156 -0.273438 0.421875 -0.328125 C 0.441406 -0.390625 0.457031 -0.460938 0.46875 -0.546875 L 0.703125 -2.921875 L 0.390625 -2.921875 L 0.390625 -3.109375 L 1.0625 -3.109375 C 1.132812 -2.910156 1.300781 -2.457031 1.5625 -1.75 C 1.789062 -1.144531 1.941406 -0.742188 2.015625 -0.546875 L 2.03125 -0.546875 C 2.082031 -0.660156 2.148438 -0.816406 2.234375 -1.015625 L 2.28125 -1.109375 C 2.363281 -1.285156 2.519531 -1.617188 2.75 -2.109375 C 2.914062 -2.441406 3.070312 -2.773438 3.21875 -3.109375 L 3.859375 -3.109375 Z M 3.859375 -2.953125 "/></g></g></g><g fill="#000000" fill-opacity="1"><g transform="translate(42.900944, 27.192438)"><g><path d="M 1.265625 -2.265625 C 1.429688 -2.265625 1.578125 -2.222656 1.703125 -2.140625 C 1.828125 -2.066406 1.925781 -1.957031 2 -1.8125 C 2.070312 -1.664062 2.109375 -1.492188 2.109375 -1.296875 C 2.109375 -1.054688 2.0625 -0.832031 1.96875 -0.625 C 1.882812 -0.414062 1.757812 -0.25 1.59375 -0.125 C 1.4375 -0.0078125 1.25 0.046875 1.03125 0.046875 C 0.75 0.046875 0.535156 -0.0390625 0.390625 -0.21875 C 0.242188 -0.40625 0.171875 -0.644531 0.171875 -0.9375 C 0.171875 -1.1875 0.210938 -1.410156 0.296875 -1.609375 C 0.390625 -1.804688 0.519531 -1.960938 0.6875 -2.078125 C 0.851562 -2.203125 1.046875 -2.265625 1.265625 -2.265625 Z M 1.203125 -2.109375 C 1.066406 -2.109375 0.953125 -2.0625 0.859375 -1.96875 C 0.765625 -1.875 0.691406 -1.742188 0.640625 -1.578125 C 0.585938 -1.421875 0.5625 -1.242188 0.5625 -1.046875 C 0.5625 -0.796875 0.597656 -0.578125 0.671875 -0.390625 C 0.753906 -0.210938 0.890625 -0.125 1.078125 -0.125 C 1.222656 -0.125 1.34375 -0.179688 1.4375 -0.296875 C 1.539062 -0.410156 1.613281 -0.550781 1.65625 -0.71875 C 1.695312 -0.882812 1.71875 -1.050781 1.71875 -1.21875 C 1.71875 -1.457031 1.675781 -1.664062 1.59375 -1.84375 C 1.519531 -2.019531 1.390625 -2.109375 1.203125 -2.109375 Z M 1.015625 -2.65625 L 1.359375 -3.25 C 1.410156 -3.34375 1.472656 -3.390625 1.546875 -3.390625 C 1.578125 -3.390625 1.609375 -3.375 1.640625 -3.34375 C 1.660156 -3.320312 1.671875 -3.289062 1.671875 -3.25 C 1.671875 -3.1875 1.640625 -3.117188 1.578125 -3.046875 L 1.125 -2.5625 Z M 1.015625 -2.65625 "/></g></g></g><g fill="#000000" fill-opacity="1"><g transform="translate(45.214616, 27.192438)"><g><path d="M 1.609375 -2.265625 C 1.785156 -2.265625 1.921875 -2.191406 2.015625 -2.046875 C 2.109375 -1.898438 2.15625 -1.710938 2.15625 -1.484375 C 2.15625 -1.296875 2.117188 -1.097656 2.046875 -0.890625 C 1.984375 -0.722656 1.894531 -0.566406 1.78125 -0.421875 C 1.675781 -0.285156 1.550781 -0.171875 1.40625 -0.078125 C 1.269531 0.00390625 1.125 0.046875 0.96875 0.046875 C 0.789062 0.046875 0.664062 -0.0078125 0.59375 -0.125 C 0.519531 -0.25 0.484375 -0.398438 0.484375 -0.578125 C 0.484375 -0.742188 0.488281 -0.914062 0.5 -1.09375 C 0.519531 -1.269531 0.53125 -1.375 0.53125 -1.40625 C 0.550781 -1.601562 0.5625 -1.75 0.5625 -1.84375 C 0.5625 -1.90625 0.550781 -1.953125 0.53125 -1.984375 C 0.519531 -2.023438 0.488281 -2.046875 0.4375 -2.046875 C 0.382812 -2.046875 0.332031 -2.007812 0.28125 -1.9375 C 0.226562 -1.863281 0.179688 -1.753906 0.140625 -1.609375 L 0.015625 -1.640625 C 0.0351562 -1.722656 0.0664062 -1.8125 0.109375 -1.90625 C 0.148438 -2 0.210938 -2.082031 0.296875 -2.15625 C 0.378906 -2.226562 0.472656 -2.265625 0.578125 -2.265625 C 0.703125 -2.265625 0.789062 -2.222656 0.84375 -2.140625 C 0.90625 -2.066406 0.9375 -1.957031 0.9375 -1.8125 C 0.9375 -1.6875 0.921875 -1.425781 0.890625 -1.03125 C 0.867188 -0.726562 0.859375 -0.546875 0.859375 -0.484375 C 0.859375 -0.390625 0.867188 -0.316406 0.890625 -0.265625 C 0.921875 -0.210938 0.976562 -0.1875 1.0625 -0.1875 C 1.15625 -0.1875 1.253906 -0.222656 1.359375 -0.296875 C 1.472656 -0.367188 1.578125 -0.46875 1.671875 -0.59375 C 1.765625 -0.71875 1.832031 -0.851562 1.875 -1 C 1.894531 -1.050781 1.910156 -1.117188 1.921875 -1.203125 C 1.929688 -1.285156 1.9375 -1.367188 1.9375 -1.453125 C 1.9375 -1.578125 1.921875 -1.6875 1.890625 -1.78125 C 1.859375 -1.875 1.800781 -1.9375 1.71875 -1.96875 C 1.6875 -1.894531 1.628906 -1.859375 1.546875 -1.859375 C 1.492188 -1.859375 1.445312 -1.875 1.40625 -1.90625 C 1.375 -1.9375 1.359375 -1.984375 1.359375 -2.046875 C 1.359375 -2.097656 1.378906 -2.144531 1.421875 -2.1875 C 1.460938 -2.238281 1.523438 -2.265625 1.609375 -2.265625 Z M 1.609375 -2.265625 "/></g></g></g><g fill="#000000" fill-opacity="1"><g transform="translate(47.550491, 27.192438)"><g><path d="M 1.25 -2.265625 C 1.425781 -2.265625 1.570312 -2.222656 1.6875 -2.140625 C 1.8125 -2.054688 1.875 -1.925781 1.875 -1.75 C 1.875 -1.53125 1.738281 -1.359375 1.46875 -1.234375 C 1.207031 -1.117188 0.90625 -1.039062 0.5625 -1 C 0.5625 -0.726562 0.601562 -0.519531 0.6875 -0.375 C 0.769531 -0.238281 0.894531 -0.171875 1.0625 -0.171875 C 1.207031 -0.171875 1.34375 -0.210938 1.46875 -0.296875 C 1.59375 -0.390625 1.703125 -0.523438 1.796875 -0.703125 L 1.9375 -0.625 C 1.8125 -0.394531 1.671875 -0.222656 1.515625 -0.109375 C 1.367188 -0.00390625 1.195312 0.046875 1 0.046875 C 0.71875 0.046875 0.507812 -0.0351562 0.375 -0.203125 C 0.238281 -0.378906 0.171875 -0.613281 0.171875 -0.90625 C 0.171875 -1.144531 0.210938 -1.367188 0.296875 -1.578125 C 0.378906 -1.785156 0.5 -1.953125 0.65625 -2.078125 C 0.820312 -2.203125 1.019531 -2.265625 1.25 -2.265625 Z M 1.1875 -2.109375 C 1 -2.109375 0.851562 -2.015625 0.75 -1.828125 C 0.644531 -1.648438 0.582031 -1.429688 0.5625 -1.171875 C 0.820312 -1.203125 1.039062 -1.269531 1.21875 -1.375 C 1.40625 -1.488281 1.5 -1.625 1.5 -1.78125 C 1.5 -1.875 1.472656 -1.953125 1.421875 -2.015625 C 1.367188 -2.078125 1.289062 -2.109375 1.1875 -2.109375 Z M 1.1875 -2.109375 "/></g></g></g><g fill="#000000" fill-opacity="1"><g transform="translate(49.668768, 27.192438)"><g><path d="M 0.84375 -3.21875 C 0.90625 -3.21875 0.957031 -3.191406 1 -3.140625 C 1.050781 -3.097656 1.078125 -3.039062 1.078125 -2.96875 C 1.078125 -2.894531 1.050781 -2.832031 1 -2.78125 C 0.957031 -2.738281 0.90625 -2.71875 0.84375 -2.71875 C 0.769531 -2.71875 0.710938 -2.738281 0.671875 -2.78125 C 0.628906 -2.832031 0.609375 -2.894531 0.609375 -2.96875 C 0.609375 -3.039062 0.628906 -3.097656 0.671875 -3.140625 C 0.722656 -3.191406 0.78125 -3.21875 0.84375 -3.21875 Z M 0.59375 -2.265625 C 0.707031 -2.265625 0.796875 -2.222656 0.859375 -2.140625 C 0.929688 -2.054688 0.96875 -1.945312 0.96875 -1.8125 C 0.96875 -1.695312 0.941406 -1.492188 0.890625 -1.203125 C 0.859375 -1.015625 0.832031 -0.859375 0.8125 -0.734375 C 0.800781 -0.609375 0.796875 -0.484375 0.796875 -0.359375 C 0.796875 -0.234375 0.84375 -0.171875 0.9375 -0.171875 C 0.988281 -0.171875 1.039062 -0.207031 1.09375 -0.28125 C 1.15625 -0.351562 1.207031 -0.460938 1.25 -0.609375 L 1.375 -0.578125 C 1.34375 -0.421875 1.28125 -0.273438 1.1875 -0.140625 C 1.09375 -0.015625 0.972656 0.046875 0.828125 0.046875 C 0.566406 0.046875 0.4375 -0.09375 0.4375 -0.375 C 0.4375 -0.488281 0.441406 -0.597656 0.453125 -0.703125 C 0.460938 -0.816406 0.484375 -0.953125 0.515625 -1.109375 C 0.546875 -1.296875 0.566406 -1.4375 0.578125 -1.53125 C 0.597656 -1.632812 0.609375 -1.738281 0.609375 -1.84375 C 0.609375 -1.894531 0.597656 -1.941406 0.578125 -1.984375 C 0.554688 -2.023438 0.523438 -2.046875 0.484375 -2.046875 C 0.421875 -2.046875 0.359375 -2.007812 0.296875 -1.9375 C 0.242188 -1.863281 0.195312 -1.753906 0.15625 -1.609375 L 0.03125 -1.640625 C 0.0625 -1.785156 0.125 -1.925781 0.21875 -2.0625 C 0.3125 -2.195312 0.4375 -2.265625 0.59375 -2.265625 Z M 0.59375 -2.265625 "/></g></g></g><g fill="#000000" fill-opacity="1"><g transform="translate(51.107597, 27.192438)"><g><path d="M 1 -2.265625 C 1.175781 -2.265625 1.328125 -2.222656 1.453125 -2.140625 C 1.585938 -2.066406 1.65625 -1.960938 1.65625 -1.828125 C 1.65625 -1.765625 1.640625 -1.710938 1.609375 -1.671875 C 1.578125 -1.640625 1.535156 -1.625 1.484375 -1.625 C 1.429688 -1.625 1.382812 -1.640625 1.34375 -1.671875 C 1.3125 -1.710938 1.296875 -1.757812 1.296875 -1.8125 C 1.296875 -1.851562 1.3125 -1.894531 1.34375 -1.9375 C 1.320312 -2 1.28125 -2.046875 1.21875 -2.078125 C 1.164062 -2.109375 1.09375 -2.125 1 -2.125 C 0.894531 -2.125 0.796875 -2.085938 0.703125 -2.015625 C 0.617188 -1.953125 0.578125 -1.867188 0.578125 -1.765625 C 0.578125 -1.679688 0.613281 -1.601562 0.6875 -1.53125 C 0.769531 -1.46875 0.894531 -1.390625 1.0625 -1.296875 C 1.1875 -1.222656 1.289062 -1.15625 1.375 -1.09375 C 1.457031 -1.03125 1.523438 -0.957031 1.578125 -0.875 C 1.640625 -0.789062 1.671875 -0.695312 1.671875 -0.59375 C 1.671875 -0.46875 1.632812 -0.359375 1.5625 -0.265625 C 1.5 -0.171875 1.40625 -0.09375 1.28125 -0.03125 C 1.15625 0.0195312 1.007812 0.046875 0.84375 0.046875 C 0.644531 0.046875 0.476562 0.00390625 0.34375 -0.078125 C 0.207031 -0.160156 0.140625 -0.273438 0.140625 -0.421875 C 0.140625 -0.484375 0.15625 -0.535156 0.1875 -0.578125 C 0.226562 -0.617188 0.273438 -0.640625 0.328125 -0.640625 C 0.378906 -0.640625 0.421875 -0.617188 0.453125 -0.578125 C 0.484375 -0.546875 0.5 -0.503906 0.5 -0.453125 C 0.5 -0.398438 0.488281 -0.351562 0.46875 -0.3125 C 0.488281 -0.25 0.53125 -0.195312 0.59375 -0.15625 C 0.664062 -0.125 0.742188 -0.109375 0.828125 -0.109375 C 0.984375 -0.109375 1.101562 -0.144531 1.1875 -0.21875 C 1.269531 -0.289062 1.3125 -0.394531 1.3125 -0.53125 C 1.3125 -0.632812 1.269531 -0.722656 1.1875 -0.796875 C 1.101562 -0.867188 0.976562 -0.953125 0.8125 -1.046875 C 0.625 -1.160156 0.476562 -1.257812 0.375 -1.34375 C 0.28125 -1.4375 0.234375 -1.546875 0.234375 -1.671875 C 0.234375 -1.773438 0.265625 -1.875 0.328125 -1.96875 C 0.398438 -2.0625 0.492188 -2.132812 0.609375 -2.1875 C 0.722656 -2.238281 0.851562 -2.265625 1 -2.265625 Z M 1 -2.265625 "/></g></g></g><g fill="#000000" fill-opacity="1"><g transform="translate(53.00827, 27.192438)"><g/></g></g><g fill="#000000" fill-opacity="1"><g transform="translate(54.176208, 27.192438)"><g><path d="M 1.46875 -2.265625 C 1.550781 -2.265625 1.648438 -2.257812 1.765625 -2.25 C 1.890625 -2.238281 1.984375 -2.226562 2.046875 -2.21875 C 2.015625 -1.875 1.976562 -1.46875 1.9375 -1 C 1.851562 -0.164062 1.804688 0.363281 1.796875 0.59375 C 1.773438 0.78125 1.757812 0.90625 1.75 0.96875 L 2.03125 0.953125 L 2.03125 1.125 L 1.1875 1.125 L 1.1875 1 C 1.257812 1 1.3125 0.972656 1.34375 0.921875 C 1.382812 0.878906 1.410156 0.820312 1.421875 0.75 C 1.429688 0.6875 1.441406 0.59375 1.453125 0.46875 C 1.453125 0.425781 1.453125 0.394531 1.453125 0.375 C 1.492188 -0.0625 1.539062 -0.492188 1.59375 -0.921875 L 1.578125 -0.921875 C 1.472656 -0.546875 1.347656 -0.289062 1.203125 -0.15625 C 1.066406 -0.0195312 0.921875 0.046875 0.765625 0.046875 C 0.566406 0.046875 0.414062 -0.0234375 0.3125 -0.171875 C 0.21875 -0.328125 0.171875 -0.53125 0.171875 -0.78125 C 0.171875 -1.070312 0.21875 -1.328125 0.3125 -1.546875 C 0.414062 -1.773438 0.5625 -1.953125 0.75 -2.078125 C 0.945312 -2.203125 1.1875 -2.265625 1.46875 -2.265625 Z M 1.390625 -2.109375 C 1.203125 -2.109375 1.039062 -2.046875 0.90625 -1.921875 C 0.78125 -1.796875 0.6875 -1.640625 0.625 -1.453125 C 0.570312 -1.265625 0.546875 -1.070312 0.546875 -0.875 C 0.546875 -0.644531 0.570312 -0.46875 0.625 -0.34375 C 0.675781 -0.21875 0.757812 -0.15625 0.875 -0.15625 C 1 -0.15625 1.125 -0.253906 1.25 -0.453125 C 1.375 -0.660156 1.476562 -0.914062 1.5625 -1.21875 C 1.644531 -1.519531 1.695312 -1.804688 1.71875 -2.078125 C 1.625 -2.097656 1.515625 -2.109375 1.390625 -2.109375 Z M 1.390625 -2.109375 "/></g></g></g><g fill="#000000" fill-opacity="1"><g transform="translate(56.476559, 27.192438)"><g><path d="M 0.59375 -2.265625 C 0.707031 -2.265625 0.796875 -2.226562 0.859375 -2.15625 C 0.921875 -2.082031 0.953125 -1.976562 0.953125 -1.84375 C 0.953125 -1.726562 0.925781 -1.503906 0.875 -1.171875 C 0.875 -1.140625 0.859375 -1.035156 0.828125 -0.859375 C 0.804688 -0.691406 0.796875 -0.550781 0.796875 -0.4375 C 0.796875 -0.363281 0.8125 -0.296875 0.84375 -0.234375 C 0.875 -0.179688 0.929688 -0.15625 1.015625 -0.15625 C 1.140625 -0.15625 1.265625 -0.253906 1.390625 -0.453125 C 1.523438 -0.648438 1.632812 -0.890625 1.71875 -1.171875 C 1.800781 -1.460938 1.84375 -1.734375 1.84375 -1.984375 C 1.84375 -2.035156 1.84375 -2.113281 1.84375 -2.21875 L 2.21875 -2.21875 C 2.21875 -2.1875 2.21875 -2.148438 2.21875 -2.109375 C 2.21875 -2.035156 2.207031 -1.921875 2.1875 -1.765625 C 2.175781 -1.617188 2.15625 -1.429688 2.125 -1.203125 L 2.078125 -0.828125 C 2.078125 -0.785156 2.070312 -0.710938 2.0625 -0.609375 C 2.050781 -0.515625 2.046875 -0.4375 2.046875 -0.375 C 2.046875 -0.238281 2.085938 -0.171875 2.171875 -0.171875 C 2.222656 -0.171875 2.273438 -0.207031 2.328125 -0.28125 C 2.390625 -0.351562 2.441406 -0.460938 2.484375 -0.609375 L 2.609375 -0.578125 C 2.597656 -0.492188 2.566406 -0.398438 2.515625 -0.296875 C 2.460938 -0.203125 2.394531 -0.117188 2.3125 -0.046875 C 2.238281 0.015625 2.144531 0.046875 2.03125 0.046875 C 1.914062 0.046875 1.828125 0.0078125 1.765625 -0.0625 C 1.710938 -0.132812 1.6875 -0.226562 1.6875 -0.34375 C 1.6875 -0.476562 1.71875 -0.675781 1.78125 -0.9375 L 1.765625 -0.9375 C 1.617188 -0.5625 1.476562 -0.300781 1.34375 -0.15625 C 1.21875 -0.0195312 1.078125 0.046875 0.921875 0.046875 C 0.753906 0.046875 0.628906 -0.00390625 0.546875 -0.109375 C 0.472656 -0.222656 0.4375 -0.363281 0.4375 -0.53125 C 0.4375 -0.65625 0.441406 -0.78125 0.453125 -0.90625 C 0.472656 -1.039062 0.5 -1.203125 0.53125 -1.390625 C 0.53125 -1.421875 0.535156 -1.488281 0.546875 -1.59375 C 0.566406 -1.695312 0.578125 -1.78125 0.578125 -1.84375 C 0.578125 -1.90625 0.566406 -1.953125 0.546875 -1.984375 C 0.535156 -2.023438 0.507812 -2.046875 0.46875 -2.046875 C 0.40625 -2.046875 0.347656 -2.007812 0.296875 -1.9375 C 0.242188 -1.875 0.195312 -1.765625 0.15625 -1.609375 L 0.03125 -1.640625 C 0.0507812 -1.785156 0.109375 -1.925781 0.203125 -2.0625 C 0.304688 -2.195312 0.4375 -2.265625 0.59375 -2.265625 Z M 0.59375 -2.265625 "/></g></g></g><g fill="#000000" fill-opacity="1"><g transform="translate(59.109967, 27.192438)"><g><path d="M 1.25 -2.265625 C 1.425781 -2.265625 1.570312 -2.222656 1.6875 -2.140625 C 1.8125 -2.054688 1.875 -1.925781 1.875 -1.75 C 1.875 -1.53125 1.738281 -1.359375 1.46875 -1.234375 C 1.207031 -1.117188 0.90625 -1.039062 0.5625 -1 C 0.5625 -0.726562 0.601562 -0.519531 0.6875 -0.375 C 0.769531 -0.238281 0.894531 -0.171875 1.0625 -0.171875 C 1.207031 -0.171875 1.34375 -0.210938 1.46875 -0.296875 C 1.59375 -0.390625 1.703125 -0.523438 1.796875 -0.703125 L 1.9375 -0.625 C 1.8125 -0.394531 1.671875 -0.222656 1.515625 -0.109375 C 1.367188 -0.00390625 1.195312 0.046875 1 0.046875 C 0.71875 0.046875 0.507812 -0.0351562 0.375 -0.203125 C 0.238281 -0.378906 0.171875 -0.613281 0.171875 -0.90625 C 0.171875 -1.144531 0.210938 -1.367188 0.296875 -1.578125 C 0.378906 -1.785156 0.5 -1.953125 0.65625 -2.078125 C 0.820312 -2.203125 1.019531 -2.265625 1.25 -2.265625 Z M 1.1875 -2.109375 C 1 -2.109375 0.851562 -2.015625 0.75 -1.828125 C 0.644531 -1.648438 0.582031 -1.429688 0.5625 -1.171875 C 0.820312 -1.203125 1.039062 -1.269531 1.21875 -1.375 C 1.40625 -1.488281 1.5 -1.625 1.5 -1.78125 C 1.5 -1.875 1.472656 -1.953125 1.421875 -2.015625 C 1.367188 -2.078125 1.289062 -2.109375 1.1875 -2.109375 Z M 1.1875 -2.109375 "/></g></g></g><g fill="#000000" fill-opacity="1"><g transform="translate(61.228244, 27.192438)"><g/></g></g><g fill="#000000" fill-opacity="1"><g transform="translate(62.396182, 27.192438)"><g><path d="M 1.234375 -2.265625 C 1.359375 -2.265625 1.46875 -2.238281 1.5625 -2.1875 C 1.664062 -2.144531 1.75 -2.082031 1.8125 -2 C 1.875 -1.925781 1.90625 -1.84375 1.90625 -1.75 C 1.90625 -1.675781 1.882812 -1.617188 1.84375 -1.578125 C 1.8125 -1.546875 1.765625 -1.53125 1.703125 -1.53125 C 1.640625 -1.53125 1.59375 -1.546875 1.5625 -1.578125 C 1.53125 -1.617188 1.515625 -1.660156 1.515625 -1.703125 C 1.515625 -1.773438 1.535156 -1.832031 1.578125 -1.875 C 1.566406 -1.957031 1.523438 -2.015625 1.453125 -2.046875 C 1.390625 -2.085938 1.316406 -2.109375 1.234375 -2.109375 C 0.992188 -2.109375 0.820312 -2 0.71875 -1.78125 C 0.613281 -1.5625 0.5625 -1.3125 0.5625 -1.03125 C 0.5625 -0.726562 0.609375 -0.507812 0.703125 -0.375 C 0.804688 -0.238281 0.941406 -0.171875 1.109375 -0.171875 C 1.234375 -0.171875 1.351562 -0.210938 1.46875 -0.296875 C 1.59375 -0.390625 1.695312 -0.535156 1.78125 -0.734375 L 1.9375 -0.65625 C 1.832031 -0.40625 1.703125 -0.222656 1.546875 -0.109375 C 1.390625 -0.00390625 1.21875 0.046875 1.03125 0.046875 C 0.757812 0.046875 0.546875 -0.03125 0.390625 -0.1875 C 0.242188 -0.351562 0.171875 -0.597656 0.171875 -0.921875 C 0.171875 -1.128906 0.207031 -1.335938 0.28125 -1.546875 C 0.363281 -1.753906 0.484375 -1.925781 0.640625 -2.0625 C 0.804688 -2.195312 1.003906 -2.265625 1.234375 -2.265625 Z M 1.234375 -2.265625 "/></g></g></g><g fill="#000000" fill-opacity="1"><g transform="translate(64.496694, 27.192438)"><g><path d="M 1.265625 -2.265625 C 1.429688 -2.265625 1.578125 -2.222656 1.703125 -2.140625 C 1.828125 -2.066406 1.925781 -1.957031 2 -1.8125 C 2.070312 -1.664062 2.109375 -1.492188 2.109375 -1.296875 C 2.109375 -1.054688 2.0625 -0.832031 1.96875 -0.625 C 1.882812 -0.414062 1.757812 -0.25 1.59375 -0.125 C 1.4375 -0.0078125 1.25 0.046875 1.03125 0.046875 C 0.75 0.046875 0.535156 -0.0390625 0.390625 -0.21875 C 0.242188 -0.40625 0.171875 -0.644531 0.171875 -0.9375 C 0.171875 -1.1875 0.210938 -1.410156 0.296875 -1.609375 C 0.390625 -1.804688 0.519531 -1.960938 0.6875 -2.078125 C 0.851562 -2.203125 1.046875 -2.265625 1.265625 -2.265625 Z M 1.203125 -2.109375 C 1.066406 -2.109375 0.953125 -2.0625 0.859375 -1.96875 C 0.765625 -1.875 0.691406 -1.742188 0.640625 -1.578125 C 0.585938 -1.421875 0.5625 -1.242188 0.5625 -1.046875 C 0.5625 -0.796875 0.597656 -0.578125 0.671875 -0.390625 C 0.753906 -0.210938 0.890625 -0.125 1.078125 -0.125 C 1.222656 -0.125 1.34375 -0.179688 1.4375 -0.296875 C 1.539062 -0.410156 1.613281 -0.550781 1.65625 -0.71875 C 1.695312 -0.882812 1.71875 -1.050781 1.71875 -1.21875 C 1.71875 -1.457031 1.675781 -1.664062 1.59375 -1.84375 C 1.519531 -2.019531 1.390625 -2.109375 1.203125 -2.109375 Z M 1.203125 -2.109375 "/></g></g></g><g fill="#000000" fill-opacity="1"><g transform="translate(66.810365, 27.192438)"><g><path d="M 1.75 -2.265625 C 1.914062 -2.265625 2.035156 -2.210938 2.109375 -2.109375 C 2.191406 -2.003906 2.234375 -1.863281 2.234375 -1.6875 C 2.234375 -1.488281 2.207031 -1.207031 2.15625 -0.84375 C 2.125 -0.601562 2.109375 -0.445312 2.109375 -0.375 C 2.109375 -0.3125 2.113281 -0.257812 2.125 -0.21875 C 2.144531 -0.1875 2.179688 -0.171875 2.234375 -0.171875 C 2.285156 -0.171875 2.335938 -0.203125 2.390625 -0.265625 C 2.453125 -0.335938 2.503906 -0.453125 2.546875 -0.609375 L 2.671875 -0.578125 C 2.660156 -0.492188 2.628906 -0.398438 2.578125 -0.296875 C 2.523438 -0.203125 2.457031 -0.117188 2.375 -0.046875 C 2.300781 0.015625 2.207031 0.046875 2.09375 0.046875 C 1.96875 0.046875 1.875 0.015625 1.8125 -0.046875 C 1.757812 -0.117188 1.734375 -0.226562 1.734375 -0.375 C 1.734375 -0.488281 1.753906 -0.6875 1.796875 -0.96875 C 1.847656 -1.320312 1.875 -1.59375 1.875 -1.78125 C 1.875 -1.851562 1.859375 -1.914062 1.828125 -1.96875 C 1.796875 -2.03125 1.742188 -2.0625 1.671875 -2.0625 C 1.535156 -2.0625 1.398438 -1.960938 1.265625 -1.765625 C 1.128906 -1.566406 1.015625 -1.320312 0.921875 -1.03125 C 0.835938 -0.75 0.796875 -0.484375 0.796875 -0.234375 C 0.796875 -0.179688 0.796875 -0.101562 0.796875 0 L 0.4375 0 C 0.425781 -0.03125 0.421875 -0.0664062 0.421875 -0.109375 C 0.421875 -0.179688 0.425781 -0.28125 0.4375 -0.40625 C 0.457031 -0.539062 0.476562 -0.710938 0.5 -0.921875 C 0.5 -0.929688 0.503906 -0.957031 0.515625 -1 C 0.515625 -1.039062 0.515625 -1.082031 0.515625 -1.125 C 0.523438 -1.164062 0.535156 -1.207031 0.546875 -1.25 C 0.566406 -1.425781 0.578125 -1.554688 0.578125 -1.640625 C 0.585938 -1.722656 0.59375 -1.789062 0.59375 -1.84375 C 0.59375 -1.90625 0.582031 -1.953125 0.5625 -1.984375 C 0.550781 -2.023438 0.523438 -2.046875 0.484375 -2.046875 C 0.421875 -2.046875 0.359375 -2.007812 0.296875 -1.9375 C 0.242188 -1.863281 0.195312 -1.753906 0.15625 -1.609375 L 0.03125 -1.640625 C 0.0390625 -1.722656 0.0703125 -1.8125 0.125 -1.90625 C 0.175781 -2.007812 0.238281 -2.09375 0.3125 -2.15625 C 0.394531 -2.226562 0.492188 -2.265625 0.609375 -2.265625 C 0.828125 -2.265625 0.9375 -2.113281 0.9375 -1.8125 C 0.9375 -1.726562 0.925781 -1.632812 0.90625 -1.53125 C 0.894531 -1.425781 0.882812 -1.332031 0.875 -1.25 L 0.890625 -1.25 C 1.023438 -1.632812 1.160156 -1.898438 1.296875 -2.046875 C 1.441406 -2.191406 1.59375 -2.265625 1.75 -2.265625 Z M 1.75 -2.265625 "/></g></g></g><g fill="#000000" fill-opacity="1"><g transform="translate(69.541474, 27.192438)"><g><path d="M 0.890625 -2.21875 L 1.59375 -2.21875 L 1.578125 -2.046875 L 0.859375 -2.046875 L 0.828125 -1.75 C 0.765625 -1.195312 0.734375 -0.800781 0.734375 -0.5625 C 0.734375 -0.445312 0.742188 -0.351562 0.765625 -0.28125 C 0.796875 -0.207031 0.851562 -0.171875 0.9375 -0.171875 C 1.09375 -0.171875 1.234375 -0.273438 1.359375 -0.484375 L 1.484375 -0.40625 C 1.390625 -0.25 1.289062 -0.132812 1.1875 -0.0625 C 1.09375 0.0078125 0.976562 0.046875 0.84375 0.046875 C 0.675781 0.046875 0.554688 0 0.484375 -0.09375 C 0.410156 -0.195312 0.375 -0.320312 0.375 -0.46875 C 0.375 -0.644531 0.382812 -0.875 0.40625 -1.15625 C 0.425781 -1.4375 0.457031 -1.726562 0.5 -2.03125 L 0.09375 -2.03125 L 0.109375 -2.21875 C 0.285156 -2.21875 0.425781 -2.269531 0.53125 -2.375 C 0.644531 -2.476562 0.734375 -2.632812 0.796875 -2.84375 L 0.96875 -2.84375 Z M 0.890625 -2.21875 "/></g></g></g><g fill="#000000" fill-opacity="1"><g transform="translate(71.157934, 27.192438)"><g><path d="M 1.453125 -2.265625 C 1.660156 -2.265625 1.859375 -2.238281 2.046875 -2.1875 C 1.921875 -1.226562 1.859375 -0.640625 1.859375 -0.421875 C 1.859375 -0.335938 1.863281 -0.273438 1.875 -0.234375 C 1.894531 -0.191406 1.929688 -0.171875 1.984375 -0.171875 C 2.035156 -0.171875 2.09375 -0.207031 2.15625 -0.28125 C 2.21875 -0.351562 2.269531 -0.460938 2.3125 -0.609375 L 2.4375 -0.578125 C 2.414062 -0.492188 2.378906 -0.398438 2.328125 -0.296875 C 2.285156 -0.203125 2.222656 -0.117188 2.140625 -0.046875 C 2.054688 0.015625 1.960938 0.046875 1.859375 0.046875 C 1.640625 0.046875 1.53125 -0.0820312 1.53125 -0.34375 C 1.53125 -0.476562 1.554688 -0.675781 1.609375 -0.9375 L 1.59375 -0.9375 C 1.46875 -0.550781 1.332031 -0.289062 1.1875 -0.15625 C 1.039062 -0.0195312 0.890625 0.046875 0.734375 0.046875 C 0.554688 0.046875 0.414062 -0.015625 0.3125 -0.140625 C 0.21875 -0.265625 0.171875 -0.457031 0.171875 -0.71875 C 0.171875 -1.007812 0.21875 -1.269531 0.3125 -1.5 C 0.40625 -1.726562 0.550781 -1.910156 0.75 -2.046875 C 0.945312 -2.191406 1.179688 -2.265625 1.453125 -2.265625 Z M 1.328125 -2.109375 C 1.148438 -2.109375 1 -2.046875 0.875 -1.921875 C 0.757812 -1.796875 0.671875 -1.632812 0.609375 -1.4375 C 0.554688 -1.238281 0.53125 -1.023438 0.53125 -0.796875 C 0.53125 -0.359375 0.628906 -0.140625 0.828125 -0.140625 C 0.953125 -0.140625 1.078125 -0.242188 1.203125 -0.453125 C 1.335938 -0.660156 1.445312 -0.910156 1.53125 -1.203125 C 1.625 -1.503906 1.671875 -1.785156 1.671875 -2.046875 C 1.578125 -2.085938 1.460938 -2.109375 1.328125 -2.109375 Z M 1.328125 -2.109375 "/></g></g></g><g fill="#000000" fill-opacity="1"><g transform="translate(73.59151, 27.192438)"><g><path d="M 2.9375 -2.265625 C 3.101562 -2.265625 3.222656 -2.210938 3.296875 -2.109375 C 3.367188 -2.003906 3.40625 -1.863281 3.40625 -1.6875 C 3.40625 -1.5625 3.394531 -1.4375 3.375 -1.3125 C 3.363281 -1.1875 3.34375 -1.03125 3.3125 -0.84375 C 3.28125 -0.601562 3.265625 -0.445312 3.265625 -0.375 C 3.265625 -0.3125 3.269531 -0.257812 3.28125 -0.21875 C 3.300781 -0.1875 3.332031 -0.171875 3.375 -0.171875 C 3.4375 -0.171875 3.492188 -0.203125 3.546875 -0.265625 C 3.609375 -0.335938 3.660156 -0.453125 3.703125 -0.609375 L 3.828125 -0.578125 C 3.816406 -0.492188 3.785156 -0.398438 3.734375 -0.296875 C 3.691406 -0.203125 3.628906 -0.117188 3.546875 -0.046875 C 3.460938 0.015625 3.363281 0.046875 3.25 0.046875 C 3.113281 0.046875 3.019531 0.015625 2.96875 -0.046875 C 2.914062 -0.117188 2.890625 -0.226562 2.890625 -0.375 C 2.890625 -0.5 2.914062 -0.695312 2.96875 -0.96875 C 2.96875 -0.988281 2.976562 -1.054688 3 -1.171875 C 3.019531 -1.296875 3.035156 -1.410156 3.046875 -1.515625 C 3.054688 -1.617188 3.0625 -1.707031 3.0625 -1.78125 C 3.0625 -1.851562 3.039062 -1.914062 3 -1.96875 C 2.96875 -2.03125 2.914062 -2.0625 2.84375 -2.0625 C 2.707031 -2.0625 2.578125 -1.960938 2.453125 -1.765625 C 2.328125 -1.566406 2.222656 -1.320312 2.140625 -1.03125 C 2.066406 -0.75 2.03125 -0.484375 2.03125 -0.234375 C 2.03125 -0.179688 2.035156 -0.101562 2.046875 0 L 1.671875 0 C 1.660156 -0.03125 1.65625 -0.0664062 1.65625 -0.109375 C 1.65625 -0.210938 1.664062 -0.34375 1.6875 -0.5 C 1.707031 -0.664062 1.726562 -0.828125 1.75 -0.984375 C 1.800781 -1.367188 1.828125 -1.632812 1.828125 -1.78125 C 1.828125 -1.96875 1.753906 -2.0625 1.609375 -2.0625 C 1.484375 -2.0625 1.351562 -1.960938 1.21875 -1.765625 C 1.09375 -1.566406 0.988281 -1.320312 0.90625 -1.03125 C 0.832031 -0.75 0.796875 -0.484375 0.796875 -0.234375 C 0.796875 -0.179688 0.800781 -0.101562 0.8125 0 L 0.4375 0 C 0.4375 -0.03125 0.4375 -0.0664062 0.4375 -0.109375 C 0.4375 -0.179688 0.441406 -0.285156 0.453125 -0.421875 C 0.460938 -0.566406 0.484375 -0.757812 0.515625 -1 L 0.5625 -1.46875 C 0.570312 -1.570312 0.582031 -1.648438 0.59375 -1.703125 C 0.601562 -1.753906 0.609375 -1.800781 0.609375 -1.84375 C 0.609375 -1.90625 0.597656 -1.953125 0.578125 -1.984375 C 0.554688 -2.023438 0.523438 -2.046875 0.484375 -2.046875 C 0.429688 -2.046875 0.375 -2.007812 0.3125 -1.9375 C 0.25 -1.863281 0.195312 -1.753906 0.15625 -1.609375 L 0.03125 -1.640625 C 0.0507812 -1.722656 0.0820312 -1.8125 0.125 -1.90625 C 0.175781 -2.007812 0.242188 -2.09375 0.328125 -2.15625 C 0.410156 -2.226562 0.503906 -2.265625 0.609375 -2.265625 C 0.828125 -2.265625 0.9375 -2.117188 0.9375 -1.828125 C 0.9375 -1.742188 0.925781 -1.648438 0.90625 -1.546875 C 0.894531 -1.441406 0.882812 -1.351562 0.875 -1.28125 L 0.890625 -1.28125 C 1.015625 -1.644531 1.144531 -1.898438 1.28125 -2.046875 C 1.414062 -2.191406 1.554688 -2.265625 1.703125 -2.265625 C 1.859375 -2.265625 1.972656 -2.210938 2.046875 -2.109375 C 2.128906 -2.003906 2.171875 -1.890625 2.171875 -1.765625 C 2.171875 -1.679688 2.164062 -1.613281 2.15625 -1.5625 C 2.144531 -1.507812 2.125 -1.421875 2.09375 -1.296875 L 2.109375 -1.296875 C 2.242188 -1.660156 2.378906 -1.910156 2.515625 -2.046875 C 2.660156 -2.191406 2.800781 -2.265625 2.9375 -2.265625 Z M 2.9375 -2.265625 "/></g></g></g><g fill="#000000" fill-opacity="1"><g transform="translate(77.481674, 27.192438)"><g/></g></g><g fill="#000000" fill-opacity="1"><g transform="translate(78.649611, 27.192438)"><g><path d="M 1 -2.265625 C 1.175781 -2.265625 1.328125 -2.222656 1.453125 -2.140625 C 1.585938 -2.066406 1.65625 -1.960938 1.65625 -1.828125 C 1.65625 -1.765625 1.640625 -1.710938 1.609375 -1.671875 C 1.578125 -1.640625 1.535156 -1.625 1.484375 -1.625 C 1.429688 -1.625 1.382812 -1.640625 1.34375 -1.671875 C 1.3125 -1.710938 1.296875 -1.757812 1.296875 -1.8125 C 1.296875 -1.851562 1.3125 -1.894531 1.34375 -1.9375 C 1.320312 -2 1.28125 -2.046875 1.21875 -2.078125 C 1.164062 -2.109375 1.09375 -2.125 1 -2.125 C 0.894531 -2.125 0.796875 -2.085938 0.703125 -2.015625 C 0.617188 -1.953125 0.578125 -1.867188 0.578125 -1.765625 C 0.578125 -1.679688 0.613281 -1.601562 0.6875 -1.53125 C 0.769531 -1.46875 0.894531 -1.390625 1.0625 -1.296875 C 1.1875 -1.222656 1.289062 -1.15625 1.375 -1.09375 C 1.457031 -1.03125 1.523438 -0.957031 1.578125 -0.875 C 1.640625 -0.789062 1.671875 -0.695312 1.671875 -0.59375 C 1.671875 -0.46875 1.632812 -0.359375 1.5625 -0.265625 C 1.5 -0.171875 1.40625 -0.09375 1.28125 -0.03125 C 1.15625 0.0195312 1.007812 0.046875 0.84375 0.046875 C 0.644531 0.046875 0.476562 0.00390625 0.34375 -0.078125 C 0.207031 -0.160156 0.140625 -0.273438 0.140625 -0.421875 C 0.140625 -0.484375 0.15625 -0.535156 0.1875 -0.578125 C 0.226562 -0.617188 0.273438 -0.640625 0.328125 -0.640625 C 0.378906 -0.640625 0.421875 -0.617188 0.453125 -0.578125 C 0.484375 -0.546875 0.5 -0.503906 0.5 -0.453125 C 0.5 -0.398438 0.488281 -0.351562 0.46875 -0.3125 C 0.488281 -0.25 0.53125 -0.195312 0.59375 -0.15625 C 0.664062 -0.125 0.742188 -0.109375 0.828125 -0.109375 C 0.984375 -0.109375 1.101562 -0.144531 1.1875 -0.21875 C 1.269531 -0.289062 1.3125 -0.394531 1.3125 -0.53125 C 1.3125 -0.632812 1.269531 -0.722656 1.1875 -0.796875 C 1.101562 -0.867188 0.976562 -0.953125 0.8125 -1.046875 C 0.625 -1.160156 0.476562 -1.257812 0.375 -1.34375 C 0.28125 -1.4375 0.234375 -1.546875 0.234375 -1.671875 C 0.234375 -1.773438 0.265625 -1.875 0.328125 -1.96875 C 0.398438 -2.0625 0.492188 -2.132812 0.609375 -2.1875 C 0.722656 -2.238281 0.851562 -2.265625 1 -2.265625 Z M 1 -2.265625 "/></g></g></g><g fill="#000000" fill-opacity="1"><g transform="translate(80.550284, 27.192438)"><g><path d="M 0.59375 -2.265625 C 0.707031 -2.265625 0.796875 -2.226562 0.859375 -2.15625 C 0.921875 -2.082031 0.953125 -1.976562 0.953125 -1.84375 C 0.953125 -1.726562 0.925781 -1.503906 0.875 -1.171875 C 0.875 -1.140625 0.859375 -1.035156 0.828125 -0.859375 C 0.804688 -0.691406 0.796875 -0.550781 0.796875 -0.4375 C 0.796875 -0.363281 0.8125 -0.296875 0.84375 -0.234375 C 0.875 -0.179688 0.929688 -0.15625 1.015625 -0.15625 C 1.140625 -0.15625 1.265625 -0.253906 1.390625 -0.453125 C 1.523438 -0.648438 1.632812 -0.890625 1.71875 -1.171875 C 1.800781 -1.460938 1.84375 -1.734375 1.84375 -1.984375 C 1.84375 -2.035156 1.84375 -2.113281 1.84375 -2.21875 L 2.21875 -2.21875 C 2.21875 -2.1875 2.21875 -2.148438 2.21875 -2.109375 C 2.21875 -2.035156 2.207031 -1.921875 2.1875 -1.765625 C 2.175781 -1.617188 2.15625 -1.429688 2.125 -1.203125 L 2.078125 -0.828125 C 2.078125 -0.785156 2.070312 -0.710938 2.0625 -0.609375 C 2.050781 -0.515625 2.046875 -0.4375 2.046875 -0.375 C 2.046875 -0.238281 2.085938 -0.171875 2.171875 -0.171875 C 2.222656 -0.171875 2.273438 -0.207031 2.328125 -0.28125 C 2.390625 -0.351562 2.441406 -0.460938 2.484375 -0.609375 L 2.609375 -0.578125 C 2.597656 -0.492188 2.566406 -0.398438 2.515625 -0.296875 C 2.460938 -0.203125 2.394531 -0.117188 2.3125 -0.046875 C 2.238281 0.015625 2.144531 0.046875 2.03125 0.046875 C 1.914062 0.046875 1.828125 0.0078125 1.765625 -0.0625 C 1.710938 -0.132812 1.6875 -0.226562 1.6875 -0.34375 C 1.6875 -0.476562 1.71875 -0.675781 1.78125 -0.9375 L 1.765625 -0.9375 C 1.617188 -0.5625 1.476562 -0.300781 1.34375 -0.15625 C 1.21875 -0.0195312 1.078125 0.046875 0.921875 0.046875 C 0.753906 0.046875 0.628906 -0.00390625 0.546875 -0.109375 C 0.472656 -0.222656 0.4375 -0.363281 0.4375 -0.53125 C 0.4375 -0.65625 0.441406 -0.78125 0.453125 -0.90625 C 0.472656 -1.039062 0.5 -1.203125 0.53125 -1.390625 C 0.53125 -1.421875 0.535156 -1.488281 0.546875 -1.59375 C 0.566406 -1.695312 0.578125 -1.78125 0.578125 -1.84375 C 0.578125 -1.90625 0.566406 -1.953125 0.546875 -1.984375 C 0.535156 -2.023438 0.507812 -2.046875 0.46875 -2.046875 C 0.40625 -2.046875 0.347656 -2.007812 0.296875 -1.9375 C 0.242188 -1.875 0.195312 -1.765625 0.15625 -1.609375 L 0.03125 -1.640625 C 0.0507812 -1.785156 0.109375 -1.925781 0.203125 -2.0625 C 0.304688 -2.195312 0.4375 -2.265625 0.59375 -2.265625 Z M 0.59375 -2.265625 "/></g></g></g><g fill="#000000" fill-opacity="1"><g transform="translate(83.183693, 27.192438)"><g><path d="M 1.453125 -2.265625 C 1.660156 -2.265625 1.859375 -2.238281 2.046875 -2.1875 C 1.921875 -1.226562 1.859375 -0.640625 1.859375 -0.421875 C 1.859375 -0.335938 1.863281 -0.273438 1.875 -0.234375 C 1.894531 -0.191406 1.929688 -0.171875 1.984375 -0.171875 C 2.035156 -0.171875 2.09375 -0.207031 2.15625 -0.28125 C 2.21875 -0.351562 2.269531 -0.460938 2.3125 -0.609375 L 2.4375 -0.578125 C 2.414062 -0.492188 2.378906 -0.398438 2.328125 -0.296875 C 2.285156 -0.203125 2.222656 -0.117188 2.140625 -0.046875 C 2.054688 0.015625 1.960938 0.046875 1.859375 0.046875 C 1.640625 0.046875 1.53125 -0.0820312 1.53125 -0.34375 C 1.53125 -0.476562 1.554688 -0.675781 1.609375 -0.9375 L 1.59375 -0.9375 C 1.46875 -0.550781 1.332031 -0.289062 1.1875 -0.15625 C 1.039062 -0.0195312 0.890625 0.046875 0.734375 0.046875 C 0.554688 0.046875 0.414062 -0.015625 0.3125 -0.140625 C 0.21875 -0.265625 0.171875 -0.457031 0.171875 -0.71875 C 0.171875 -1.007812 0.21875 -1.269531 0.3125 -1.5 C 0.40625 -1.726562 0.550781 -1.910156 0.75 -2.046875 C 0.945312 -2.191406 1.179688 -2.265625 1.453125 -2.265625 Z M 1.328125 -2.109375 C 1.148438 -2.109375 1 -2.046875 0.875 -1.921875 C 0.757812 -1.796875 0.671875 -1.632812 0.609375 -1.4375 C 0.554688 -1.238281 0.53125 -1.023438 0.53125 -0.796875 C 0.53125 -0.359375 0.628906 -0.140625 0.828125 -0.140625 C 0.953125 -0.140625 1.078125 -0.242188 1.203125 -0.453125 C 1.335938 -0.660156 1.445312 -0.910156 1.53125 -1.203125 C 1.625 -1.503906 1.671875 -1.785156 1.671875 -2.046875 C 1.578125 -2.085938 1.460938 -2.109375 1.328125 -2.109375 Z M 1.328125 -2.109375 "/></g></g></g><g fill="#000000" fill-opacity="1"><g transform="translate(85.617268, 27.192438)"><g/></g></g><g fill="#000000" fill-opacity="1"><g transform="translate(86.785205, 27.192438)"><g><path d="M 0.890625 -3.125 C 0.847656 -2.84375 0.820312 -2.664062 0.8125 -2.59375 C 0.789062 -2.445312 0.765625 -2.226562 0.734375 -1.9375 C 0.703125 -1.65625 0.679688 -1.4375 0.671875 -1.28125 L 0.6875 -1.28125 C 0.820312 -1.65625 0.957031 -1.910156 1.09375 -2.046875 C 1.238281 -2.191406 1.394531 -2.265625 1.5625 -2.265625 C 1.726562 -2.265625 1.847656 -2.207031 1.921875 -2.09375 C 2.003906 -1.988281 2.046875 -1.851562 2.046875 -1.6875 C 2.046875 -1.488281 2.019531 -1.207031 1.96875 -0.84375 C 1.9375 -0.601562 1.921875 -0.445312 1.921875 -0.375 C 1.921875 -0.3125 1.925781 -0.257812 1.9375 -0.21875 C 1.957031 -0.1875 1.992188 -0.171875 2.046875 -0.171875 C 2.097656 -0.171875 2.15625 -0.203125 2.21875 -0.265625 C 2.28125 -0.335938 2.332031 -0.453125 2.375 -0.609375 L 2.484375 -0.578125 C 2.453125 -0.429688 2.390625 -0.289062 2.296875 -0.15625 C 2.203125 -0.0195312 2.078125 0.046875 1.921875 0.046875 C 1.785156 0.046875 1.691406 0.015625 1.640625 -0.046875 C 1.585938 -0.117188 1.5625 -0.226562 1.5625 -0.375 C 1.5625 -0.488281 1.578125 -0.6875 1.609375 -0.96875 C 1.617188 -1.007812 1.632812 -1.117188 1.65625 -1.296875 C 1.675781 -1.484375 1.6875 -1.644531 1.6875 -1.78125 C 1.6875 -1.851562 1.671875 -1.914062 1.640625 -1.96875 C 1.609375 -2.03125 1.550781 -2.0625 1.46875 -2.0625 C 1.34375 -2.0625 1.210938 -1.960938 1.078125 -1.765625 C 0.953125 -1.578125 0.84375 -1.34375 0.75 -1.0625 C 0.664062 -0.78125 0.625 -0.503906 0.625 -0.234375 C 0.625 -0.179688 0.628906 -0.101562 0.640625 0 L 0.265625 0 C 0.265625 -0.03125 0.265625 -0.0664062 0.265625 -0.109375 C 0.265625 -0.328125 0.289062 -0.753906 0.34375 -1.390625 C 0.394531 -2.023438 0.441406 -2.503906 0.484375 -2.828125 C 0.492188 -2.867188 0.507812 -2.953125 0.53125 -3.078125 L 0.21875 -3.046875 L 0.234375 -3.234375 C 0.410156 -3.234375 0.535156 -3.242188 0.609375 -3.265625 C 0.691406 -3.285156 0.753906 -3.3125 0.796875 -3.34375 L 0.921875 -3.34375 Z M 0.890625 -3.125 "/></g></g></g><g fill="#000000" fill-opacity="1"><g transform="translate(89.325358, 27.192438)"><g><path d="M 0.84375 -3.21875 C 0.90625 -3.21875 0.957031 -3.191406 1 -3.140625 C 1.050781 -3.097656 1.078125 -3.039062 1.078125 -2.96875 C 1.078125 -2.894531 1.050781 -2.832031 1 -2.78125 C 0.957031 -2.738281 0.90625 -2.71875 0.84375 -2.71875 C 0.769531 -2.71875 0.710938 -2.738281 0.671875 -2.78125 C 0.628906 -2.832031 0.609375 -2.894531 0.609375 -2.96875 C 0.609375 -3.039062 0.628906 -3.097656 0.671875 -3.140625 C 0.722656 -3.191406 0.78125 -3.21875 0.84375 -3.21875 Z M 0.59375 -2.265625 C 0.707031 -2.265625 0.796875 -2.222656 0.859375 -2.140625 C 0.929688 -2.054688 0.96875 -1.945312 0.96875 -1.8125 C 0.96875 -1.695312 0.941406 -1.492188 0.890625 -1.203125 C 0.859375 -1.015625 0.832031 -0.859375 0.8125 -0.734375 C 0.800781 -0.609375 0.796875 -0.484375 0.796875 -0.359375 C 0.796875 -0.234375 0.84375 -0.171875 0.9375 -0.171875 C 0.988281 -0.171875 1.039062 -0.207031 1.09375 -0.28125 C 1.15625 -0.351562 1.207031 -0.460938 1.25 -0.609375 L 1.375 -0.578125 C 1.34375 -0.421875 1.28125 -0.273438 1.1875 -0.140625 C 1.09375 -0.015625 0.972656 0.046875 0.828125 0.046875 C 0.566406 0.046875 0.4375 -0.09375 0.4375 -0.375 C 0.4375 -0.488281 0.441406 -0.597656 0.453125 -0.703125 C 0.460938 -0.816406 0.484375 -0.953125 0.515625 -1.109375 C 0.546875 -1.296875 0.566406 -1.4375 0.578125 -1.53125 C 0.597656 -1.632812 0.609375 -1.738281 0.609375 -1.84375 C 0.609375 -1.894531 0.597656 -1.941406 0.578125 -1.984375 C 0.554688 -2.023438 0.523438 -2.046875 0.484375 -2.046875 C 0.421875 -2.046875 0.359375 -2.007812 0.296875 -1.9375 C 0.242188 -1.863281 0.195312 -1.753906 0.15625 -1.609375 L 0.03125 -1.640625 C 0.0625 -1.785156 0.125 -1.925781 0.21875 -2.0625 C 0.3125 -2.195312 0.4375 -2.265625 0.59375 -2.265625 Z M 0.59375 -2.265625 "/></g></g></g><g fill="#000000" fill-opacity="1"><g transform="translate(90.764187, 27.192438)"><g><path d="M 1 -2.265625 C 1.175781 -2.265625 1.328125 -2.222656 1.453125 -2.140625 C 1.585938 -2.066406 1.65625 -1.960938 1.65625 -1.828125 C 1.65625 -1.765625 1.640625 -1.710938 1.609375 -1.671875 C 1.578125 -1.640625 1.535156 -1.625 1.484375 -1.625 C 1.429688 -1.625 1.382812 -1.640625 1.34375 -1.671875 C 1.3125 -1.710938 1.296875 -1.757812 1.296875 -1.8125 C 1.296875 -1.851562 1.3125 -1.894531 1.34375 -1.9375 C 1.320312 -2 1.28125 -2.046875 1.21875 -2.078125 C 1.164062 -2.109375 1.09375 -2.125 1 -2.125 C 0.894531 -2.125 0.796875 -2.085938 0.703125 -2.015625 C 0.617188 -1.953125 0.578125 -1.867188 0.578125 -1.765625 C 0.578125 -1.679688 0.613281 -1.601562 0.6875 -1.53125 C 0.769531 -1.46875 0.894531 -1.390625 1.0625 -1.296875 C 1.1875 -1.222656 1.289062 -1.15625 1.375 -1.09375 C 1.457031 -1.03125 1.523438 -0.957031 1.578125 -0.875 C 1.640625 -0.789062 1.671875 -0.695312 1.671875 -0.59375 C 1.671875 -0.46875 1.632812 -0.359375 1.5625 -0.265625 C 1.5 -0.171875 1.40625 -0.09375 1.28125 -0.03125 C 1.15625 0.0195312 1.007812 0.046875 0.84375 0.046875 C 0.644531 0.046875 0.476562 0.00390625 0.34375 -0.078125 C 0.207031 -0.160156 0.140625 -0.273438 0.140625 -0.421875 C 0.140625 -0.484375 0.15625 -0.535156 0.1875 -0.578125 C 0.226562 -0.617188 0.273438 -0.640625 0.328125 -0.640625 C 0.378906 -0.640625 0.421875 -0.617188 0.453125 -0.578125 C 0.484375 -0.546875 0.5 -0.503906 0.5 -0.453125 C 0.5 -0.398438 0.488281 -0.351562 0.46875 -0.3125 C 0.488281 -0.25 0.53125 -0.195312 0.59375 -0.15625 C 0.664062 -0.125 0.742188 -0.109375 0.828125 -0.109375 C 0.984375 -0.109375 1.101562 -0.144531 1.1875 -0.21875 C 1.269531 -0.289062 1.3125 -0.394531 1.3125 -0.53125 C 1.3125 -0.632812 1.269531 -0.722656 1.1875 -0.796875 C 1.101562 -0.867188 0.976562 -0.953125 0.8125 -1.046875 C 0.625 -1.160156 0.476562 -1.257812 0.375 -1.34375 C 0.28125 -1.4375 0.234375 -1.546875 0.234375 -1.671875 C 0.234375 -1.773438 0.265625 -1.875 0.328125 -1.96875 C 0.398438 -2.0625 0.492188 -2.132812 0.609375 -2.1875 C 0.722656 -2.238281 0.851562 -2.265625 1 -2.265625 Z M 1 -2.265625 "/></g></g></g><g fill="#000000" fill-opacity="1"><g transform="translate(92.664861, 27.192438)"><g><path d="M 0.890625 -2.21875 L 1.59375 -2.21875 L 1.578125 -2.046875 L 0.859375 -2.046875 L 0.828125 -1.75 C 0.765625 -1.195312 0.734375 -0.800781 0.734375 -0.5625 C 0.734375 -0.445312 0.742188 -0.351562 0.765625 -0.28125 C 0.796875 -0.207031 0.851562 -0.171875 0.9375 -0.171875 C 1.09375 -0.171875 1.234375 -0.273438 1.359375 -0.484375 L 1.484375 -0.40625 C 1.390625 -0.25 1.289062 -0.132812 1.1875 -0.0625 C 1.09375 0.0078125 0.976562 0.046875 0.84375 0.046875 C 0.675781 0.046875 0.554688 0 0.484375 -0.09375 C 0.410156 -0.195312 0.375 -0.320312 0.375 -0.46875 C 0.375 -0.644531 0.382812 -0.875 0.40625 -1.15625 C 0.425781 -1.4375 0.457031 -1.726562 0.5 -2.03125 L 0.09375 -2.03125 L 0.109375 -2.21875 C 0.285156 -2.21875 0.425781 -2.269531 0.53125 -2.375 C 0.644531 -2.476562 0.734375 -2.632812 0.796875 -2.84375 L 0.96875 -2.84375 Z M 0.890625 -2.21875 "/></g></g></g><g fill="#000000" fill-opacity="1"><g transform="translate(94.281321, 27.192438)"><g><path d="M 1.265625 -2.265625 C 1.429688 -2.265625 1.578125 -2.222656 1.703125 -2.140625 C 1.828125 -2.066406 1.925781 -1.957031 2 -1.8125 C 2.070312 -1.664062 2.109375 -1.492188 2.109375 -1.296875 C 2.109375 -1.054688 2.0625 -0.832031 1.96875 -0.625 C 1.882812 -0.414062 1.757812 -0.25 1.59375 -0.125 C 1.4375 -0.0078125 1.25 0.046875 1.03125 0.046875 C 0.75 0.046875 0.535156 -0.0390625 0.390625 -0.21875 C 0.242188 -0.40625 0.171875 -0.644531 0.171875 -0.9375 C 0.171875 -1.1875 0.210938 -1.410156 0.296875 -1.609375 C 0.390625 -1.804688 0.519531 -1.960938 0.6875 -2.078125 C 0.851562 -2.203125 1.046875 -2.265625 1.265625 -2.265625 Z M 1.203125 -2.109375 C 1.066406 -2.109375 0.953125 -2.0625 0.859375 -1.96875 C 0.765625 -1.875 0.691406 -1.742188 0.640625 -1.578125 C 0.585938 -1.421875 0.5625 -1.242188 0.5625 -1.046875 C 0.5625 -0.796875 0.597656 -0.578125 0.671875 -0.390625 C 0.753906 -0.210938 0.890625 -0.125 1.078125 -0.125 C 1.222656 -0.125 1.34375 -0.179688 1.4375 -0.296875 C 1.539062 -0.410156 1.613281 -0.550781 1.65625 -0.71875 C 1.695312 -0.882812 1.71875 -1.050781 1.71875 -1.21875 C 1.71875 -1.457031 1.675781 -1.664062 1.59375 -1.84375 C 1.519531 -2.019531 1.390625 -2.109375 1.203125 -2.109375 Z M 1.015625 -2.65625 L 1.359375 -3.25 C 1.410156 -3.34375 1.472656 -3.390625 1.546875 -3.390625 C 1.578125 -3.390625 1.609375 -3.375 1.640625 -3.34375 C 1.660156 -3.320312 1.671875 -3.289062 1.671875 -3.25 C 1.671875 -3.1875 1.640625 -3.117188 1.578125 -3.046875 L 1.125 -2.5625 Z M 1.015625 -2.65625 "/></g></g></g><g fill="#000000" fill-opacity="1"><g transform="translate(96.594992, 27.192438)"><g><path d="M 1.71875 -2.265625 C 1.8125 -2.265625 1.882812 -2.238281 1.9375 -2.1875 C 2 -2.144531 2.03125 -2.085938 2.03125 -2.015625 C 2.03125 -1.953125 2.007812 -1.898438 1.96875 -1.859375 C 1.925781 -1.816406 1.878906 -1.796875 1.828125 -1.796875 C 1.773438 -1.796875 1.726562 -1.8125 1.6875 -1.84375 C 1.644531 -1.875 1.625 -1.921875 1.625 -1.984375 C 1.613281 -1.984375 1.597656 -1.984375 1.578125 -1.984375 C 1.453125 -1.984375 1.328125 -1.882812 1.203125 -1.6875 C 1.085938 -1.488281 0.992188 -1.25 0.921875 -0.96875 C 0.847656 -0.6875 0.8125 -0.425781 0.8125 -0.1875 C 0.8125 -0.164062 0.8125 -0.101562 0.8125 0 L 0.453125 0 C 0.441406 -0.03125 0.4375 -0.0664062 0.4375 -0.109375 C 0.4375 -0.296875 0.460938 -0.601562 0.515625 -1.03125 L 0.578125 -1.546875 C 0.585938 -1.691406 0.59375 -1.789062 0.59375 -1.84375 C 0.59375 -1.90625 0.582031 -1.953125 0.5625 -1.984375 C 0.550781 -2.023438 0.523438 -2.046875 0.484375 -2.046875 C 0.421875 -2.046875 0.359375 -2.007812 0.296875 -1.9375 C 0.242188 -1.863281 0.195312 -1.753906 0.15625 -1.609375 L 0.03125 -1.640625 C 0.0390625 -1.722656 0.0703125 -1.8125 0.125 -1.90625 C 0.175781 -2.007812 0.238281 -2.09375 0.3125 -2.15625 C 0.394531 -2.226562 0.492188 -2.265625 0.609375 -2.265625 C 0.722656 -2.265625 0.804688 -2.226562 0.859375 -2.15625 C 0.910156 -2.082031 0.9375 -1.976562 0.9375 -1.84375 C 0.9375 -1.707031 0.910156 -1.523438 0.859375 -1.296875 L 0.875 -1.296875 C 1 -1.660156 1.128906 -1.910156 1.265625 -2.046875 C 1.410156 -2.191406 1.5625 -2.265625 1.71875 -2.265625 Z M 1.71875 -2.265625 "/></g></g></g><g fill="#000000" fill-opacity="1"><g transform="translate(98.615569, 27.192438)"><g><path d="M 0.84375 -3.21875 C 0.90625 -3.21875 0.957031 -3.191406 1 -3.140625 C 1.050781 -3.097656 1.078125 -3.039062 1.078125 -2.96875 C 1.078125 -2.894531 1.050781 -2.832031 1 -2.78125 C 0.957031 -2.738281 0.90625 -2.71875 0.84375 -2.71875 C 0.769531 -2.71875 0.710938 -2.738281 0.671875 -2.78125 C 0.628906 -2.832031 0.609375 -2.894531 0.609375 -2.96875 C 0.609375 -3.039062 0.628906 -3.097656 0.671875 -3.140625 C 0.722656 -3.191406 0.78125 -3.21875 0.84375 -3.21875 Z M 0.59375 -2.265625 C 0.707031 -2.265625 0.796875 -2.222656 0.859375 -2.140625 C 0.929688 -2.054688 0.96875 -1.945312 0.96875 -1.8125 C 0.96875 -1.695312 0.941406 -1.492188 0.890625 -1.203125 C 0.859375 -1.015625 0.832031 -0.859375 0.8125 -0.734375 C 0.800781 -0.609375 0.796875 -0.484375 0.796875 -0.359375 C 0.796875 -0.234375 0.84375 -0.171875 0.9375 -0.171875 C 0.988281 -0.171875 1.039062 -0.207031 1.09375 -0.28125 C 1.15625 -0.351562 1.207031 -0.460938 1.25 -0.609375 L 1.375 -0.578125 C 1.34375 -0.421875 1.28125 -0.273438 1.1875 -0.140625 C 1.09375 -0.015625 0.972656 0.046875 0.828125 0.046875 C 0.566406 0.046875 0.4375 -0.09375 0.4375 -0.375 C 0.4375 -0.488281 0.441406 -0.597656 0.453125 -0.703125 C 0.460938 -0.816406 0.484375 -0.953125 0.515625 -1.109375 C 0.546875 -1.296875 0.566406 -1.4375 0.578125 -1.53125 C 0.597656 -1.632812 0.609375 -1.738281 0.609375 -1.84375 C 0.609375 -1.894531 0.597656 -1.941406 0.578125 -1.984375 C 0.554688 -2.023438 0.523438 -2.046875 0.484375 -2.046875 C 0.421875 -2.046875 0.359375 -2.007812 0.296875 -1.9375 C 0.242188 -1.863281 0.195312 -1.753906 0.15625 -1.609375 L 0.03125 -1.640625 C 0.0625 -1.785156 0.125 -1.925781 0.21875 -2.0625 C 0.3125 -2.195312 0.4375 -2.265625 0.59375 -2.265625 Z M 0.59375 -2.265625 "/></g></g></g><g fill="#000000" fill-opacity="1"><g transform="translate(100.054399, 27.192438)"><g><path d="M 1.453125 -2.265625 C 1.660156 -2.265625 1.859375 -2.238281 2.046875 -2.1875 C 1.921875 -1.226562 1.859375 -0.640625 1.859375 -0.421875 C 1.859375 -0.335938 1.863281 -0.273438 1.875 -0.234375 C 1.894531 -0.191406 1.929688 -0.171875 1.984375 -0.171875 C 2.035156 -0.171875 2.09375 -0.207031 2.15625 -0.28125 C 2.21875 -0.351562 2.269531 -0.460938 2.3125 -0.609375 L 2.4375 -0.578125 C 2.414062 -0.492188 2.378906 -0.398438 2.328125 -0.296875 C 2.285156 -0.203125 2.222656 -0.117188 2.140625 -0.046875 C 2.054688 0.015625 1.960938 0.046875 1.859375 0.046875 C 1.640625 0.046875 1.53125 -0.0820312 1.53125 -0.34375 C 1.53125 -0.476562 1.554688 -0.675781 1.609375 -0.9375 L 1.59375 -0.9375 C 1.46875 -0.550781 1.332031 -0.289062 1.1875 -0.15625 C 1.039062 -0.0195312 0.890625 0.046875 0.734375 0.046875 C 0.554688 0.046875 0.414062 -0.015625 0.3125 -0.140625 C 0.21875 -0.265625 0.171875 -0.457031 0.171875 -0.71875 C 0.171875 -1.007812 0.21875 -1.269531 0.3125 -1.5 C 0.40625 -1.726562 0.550781 -1.910156 0.75 -2.046875 C 0.945312 -2.191406 1.179688 -2.265625 1.453125 -2.265625 Z M 1.328125 -2.109375 C 1.148438 -2.109375 1 -2.046875 0.875 -1.921875 C 0.757812 -1.796875 0.671875 -1.632812 0.609375 -1.4375 C 0.554688 -1.238281 0.53125 -1.023438 0.53125 -0.796875 C 0.53125 -0.359375 0.628906 -0.140625 0.828125 -0.140625 C 0.953125 -0.140625 1.078125 -0.242188 1.203125 -0.453125 C 1.335938 -0.660156 1.445312 -0.910156 1.53125 -1.203125 C 1.625 -1.503906 1.671875 -1.785156 1.671875 -2.046875 C 1.578125 -2.085938 1.460938 -2.109375 1.328125 -2.109375 Z M 1.328125 -2.109375 "/></g></g></g><g fill="#000000" fill-opacity="1"><g transform="translate(102.487974, 27.192438)"><g><path d="M 0.46875 -0.484375 C 0.53125 -0.484375 0.582031 -0.457031 0.625 -0.40625 C 0.675781 -0.363281 0.703125 -0.300781 0.703125 -0.21875 C 0.703125 -0.144531 0.671875 -0.078125 0.609375 -0.015625 C 0.554688 0.046875 0.5 0.078125 0.4375 0.078125 C 0.363281 0.078125 0.300781 0.0507812 0.25 0 C 0.207031 -0.0507812 0.1875 -0.117188 0.1875 -0.203125 C 0.1875 -0.273438 0.210938 -0.335938 0.265625 -0.390625 C 0.328125 -0.453125 0.394531 -0.484375 0.46875 -0.484375 Z M 0.46875 -0.484375 "/></g></g></g><g fill="#000000" fill-opacity="1"><g transform="translate(91.495715, 19.138773)"><g/></g></g><g fill="#000000" fill-opacity="1"><g transform="translate(93.982094, 19.138773)"><g><path d="M 2.3125 -7.265625 L 2.96875 -7.265625 L 2.96875 2.3125 L 2.3125 2.3125 Z M 2.3125 -7.265625 "/></g></g></g></svg>