<svg xmlns="http://www.w3.org/2000/svg" xmlns:xlink="http://www.w3.org/1999/xlink" width="200" zoomAndPan="magnify" viewBox="0 0 150 44.999999" height="60" preserveAspectRatio="xMidYMid meet" version="1.0"><defs><g/><clipPath id="0061ae7aa9"><path d="M 3.871094 8.25 L 32.371094 8.25 L 32.371094 36.75 L 3.871094 36.75 Z M 3.871094 8.25 " clip-rule="nonzero"/></clipPath></defs><g clip-path="url(#0061ae7aa9)"><path fill="#000000" d="M 6.6875 31 C 4.917969 28.625 3.871094 25.683594 3.871094 22.5 C 3.871094 14.632812 10.257812 8.25 18.121094 8.25 C 25.984375 8.25 32.371094 14.632812 32.371094 22.5 C 32.371094 25.683594 31.324219 28.625 29.554688 31 L 32.199219 31 C 32.292969 31 32.371094 31.074219 32.371094 31.171875 C 32.371094 31.265625 32.292969 31.339844 32.199219 31.339844 L 29.292969 31.339844 C 26.679688 34.632812 22.644531 36.75 18.121094 36.75 C 13.597656 36.75 9.5625 34.632812 6.949219 31.339844 L 4.042969 31.339844 C 3.949219 31.339844 3.871094 31.265625 3.871094 31.171875 C 3.871094 31.074219 3.949219 31 4.042969 31 Z M 29.125 31 C 30.945312 28.648438 32.027344 25.699219 32.027344 22.5 C 32.027344 15.363281 26.640625 9.476562 19.71875 8.683594 L 19.71875 12.171875 L 21.183594 13.527344 C 21.234375 13.574219 21.25 13.648438 21.226562 13.714844 C 21.199219 13.78125 21.136719 13.824219 21.066406 13.824219 L 18.027344 13.824219 C 17.957031 13.824219 17.890625 13.78125 17.867188 13.714844 C 17.839844 13.648438 17.859375 13.574219 17.910156 13.527344 L 19.375 12.171875 L 19.375 8.648438 C 18.960938 8.609375 18.542969 8.589844 18.121094 8.589844 C 17.519531 8.589844 16.929688 8.628906 16.351562 8.703125 C 16.355469 10.414062 16.355469 12.132812 16.351562 13.851562 C 16.597656 13.886719 16.828125 14.003906 17.007812 14.183594 C 17.226562 14.402344 17.351562 14.699219 17.351562 15.011719 L 17.351562 16.667969 C 17.351562 16.761719 17.273438 16.839844 17.179688 16.839844 L 15.175781 16.839844 C 15.082031 16.839844 15.003906 16.761719 15.003906 16.667969 L 15.003906 15.011719 C 15.003906 14.699219 15.128906 14.402344 15.347656 14.183594 C 15.527344 14.003906 15.761719 13.886719 16.007812 13.851562 C 16.011719 12.148438 16.015625 10.445312 16.007812 8.75 C 14.277344 9.015625 12.652344 9.597656 11.195312 10.4375 L 11.195312 31 L 12.957031 31 L 13.324219 29.863281 L 12.558594 29.863281 C 12.464844 29.863281 12.386719 29.785156 12.386719 29.691406 L 12.386719 24.800781 C 12.386719 24.707031 12.464844 24.628906 12.558594 24.628906 L 13.644531 24.628906 L 13.414062 22.613281 C 13.410156 22.5625 13.425781 22.515625 13.457031 22.480469 C 13.488281 22.441406 13.535156 22.421875 13.585938 22.421875 L 13.902344 22.421875 C 13.730469 22.300781 13.59375 22.15625 13.492188 21.992188 C 13.277344 21.644531 13.222656 21.195312 13.371094 20.625 C 13.394531 20.535156 13.484375 20.480469 13.574219 20.5 C 13.765625 20.546875 13.929688 20.601562 14.078125 20.671875 C 14.171875 20.476562 14.316406 20.277344 14.511719 20.078125 C 14.578125 20.011719 14.683594 20.011719 14.75 20.074219 C 14.964844 20.277344 15.121094 20.480469 15.222656 20.679688 C 15.371094 20.605469 15.542969 20.546875 15.738281 20.5 C 15.828125 20.480469 15.921875 20.535156 15.945312 20.625 C 16.09375 21.195312 16.039062 21.644531 15.824219 21.992188 C 15.722656 22.15625 15.585938 22.296875 15.417969 22.417969 L 15.679688 22.417969 C 15.730469 22.417969 15.777344 22.441406 15.8125 22.476562 C 15.84375 22.515625 15.859375 22.566406 15.851562 22.613281 L 15.558594 24.628906 L 20.316406 24.628906 C 20.410156 24.628906 20.488281 24.707031 20.488281 24.800781 L 20.488281 29.691406 C 20.488281 29.785156 20.410156 29.863281 20.316406 29.863281 L 19.546875 29.863281 L 19.914062 31 L 21.644531 31 L 22.515625 28.296875 L 21.769531 28.296875 C 21.671875 28.296875 21.597656 28.21875 21.597656 28.125 C 21.597656 28.03125 21.671875 27.953125 21.769531 27.953125 L 22.746094 27.953125 C 22.75 27.953125 22.75 27.953125 22.753906 27.953125 L 24.972656 27.953125 C 24.972656 27.953125 24.976562 27.953125 24.976562 27.953125 L 25.785156 27.953125 L 25.785156 24.210938 C 25.785156 24.117188 25.863281 24.042969 25.957031 24.042969 C 26.050781 24.042969 26.128906 24.117188 26.128906 24.210938 L 26.128906 28.125 C 26.128906 28.21875 26.050781 28.296875 25.957031 28.296875 L 25.210938 28.296875 L 26.082031 31 L 27.839844 31 L 27.839844 22.402344 L 26.460938 22.40625 C 26.410156 22.40625 26.359375 22.382812 26.328125 22.34375 C 26.296875 22.304688 26.28125 22.25 26.292969 22.203125 L 26.765625 19.71875 C 26.78125 19.636719 26.851562 19.578125 26.933594 19.578125 L 29.1875 19.578125 C 29.273438 19.578125 29.34375 19.640625 29.359375 19.726562 L 29.730469 22.207031 C 29.738281 22.253906 29.722656 22.304688 29.691406 22.34375 C 29.65625 22.378906 29.609375 22.402344 29.558594 22.402344 L 28.183594 22.402344 L 28.183594 31 Z M 23.214844 17.253906 L 23.214844 21.082031 C 23.214844 21.175781 23.140625 21.25 23.042969 21.25 L 19.945312 21.25 C 19.851562 21.25 19.773438 21.175781 19.773438 21.082031 L 19.773438 17.253906 C 19.773438 17.160156 19.851562 17.082031 19.945312 17.082031 L 23.042969 17.082031 C 23.140625 17.082031 23.214844 17.160156 23.214844 17.253906 Z M 22.875 17.425781 L 20.117188 17.425781 L 20.117188 20.910156 L 22.875 20.910156 Z M 22.363281 18.066406 L 22.363281 20.269531 C 22.363281 20.363281 22.285156 20.441406 22.191406 20.441406 L 20.800781 20.441406 C 20.703125 20.441406 20.628906 20.363281 20.628906 20.269531 L 20.628906 18.066406 C 20.628906 17.972656 20.703125 17.894531 20.800781 17.894531 L 22.191406 17.894531 C 22.285156 17.894531 22.363281 17.972656 22.363281 18.066406 Z M 22.019531 18.238281 L 20.96875 18.238281 L 20.96875 20.097656 L 22.019531 20.097656 Z M 8.527344 12.4375 C 8.238281 12.707031 7.964844 12.992188 7.703125 13.289062 L 7.703125 31 L 8.527344 31 Z M 7.363281 13.691406 C 7.070312 14.046875 6.796875 14.414062 6.539062 14.796875 L 6.539062 30.199219 C 6.722656 30.472656 6.914062 30.738281 7.117188 31 L 7.363281 31 Z M 10.851562 10.640625 C 10.574219 10.8125 10.296875 10.996094 10.03125 11.1875 L 10.03125 31 L 10.851562 31 Z M 9.6875 11.441406 C 9.40625 11.65625 9.132812 11.882812 8.867188 12.121094 L 8.867188 31 L 9.6875 31 Z M 6.199219 15.339844 C 5.890625 15.847656 5.617188 16.378906 5.378906 16.925781 L 5.378906 28.070312 C 5.617188 28.621094 5.890625 29.148438 6.199219 29.65625 Z M 5.035156 17.785156 C 4.503906 19.257812 4.214844 20.84375 4.214844 22.5 C 4.214844 24.152344 4.503906 25.742188 5.035156 27.214844 Z M 7.390625 31.339844 C 9.941406 34.433594 13.804688 36.40625 18.121094 36.40625 C 22.4375 36.40625 26.300781 34.433594 28.851562 31.339844 L 25.960938 31.339844 C 25.957031 31.339844 25.957031 31.339844 25.953125 31.339844 L 21.769531 31.339844 C 21.769531 31.339844 21.765625 31.339844 21.765625 31.339844 L 19.792969 31.339844 C 19.789062 31.339844 19.789062 31.339844 19.785156 31.339844 L 13.085938 31.339844 C 13.085938 31.339844 13.082031 31.339844 13.082031 31.339844 Z M 16.179688 14.179688 C 15.957031 14.179688 15.746094 14.269531 15.589844 14.425781 C 15.4375 14.578125 15.347656 14.789062 15.347656 15.011719 L 15.347656 16.496094 C 15.347656 16.496094 17.007812 16.496094 17.007812 16.496094 L 17.007812 15.011719 C 17.007812 14.789062 16.921875 14.578125 16.765625 14.425781 C 16.609375 14.269531 16.398438 14.179688 16.179688 14.179688 Z M 13.988281 24.628906 L 15.210938 24.628906 L 15.484375 22.761719 L 13.777344 22.765625 Z M 20.628906 13.480469 L 19.546875 12.480469 L 18.464844 13.480469 Z M 14.929688 20.855469 C 14.863281 20.722656 14.765625 20.585938 14.636719 20.445312 C 14.519531 20.582031 14.433594 20.714844 14.375 20.847656 C 14.488281 20.929688 14.582031 21.023438 14.65625 21.125 C 14.730469 21.027344 14.820312 20.9375 14.929688 20.855469 Z M 15 22.269531 C 15.234375 22.152344 15.414062 22.003906 15.53125 21.8125 C 15.683594 21.570312 15.722656 21.261719 15.652344 20.878906 C 15.539062 20.914062 15.4375 20.953125 15.34375 21 C 15.375 21.117188 15.386719 21.234375 15.382812 21.351562 C 15.371094 21.664062 15.242188 21.976562 15 22.269531 Z M 13.683594 29.863281 L 13.320312 31 L 19.554688 31 L 19.1875 29.863281 Z M 28.019531 22.0625 L 29.359375 22.058594 L 29.039062 19.921875 L 27.078125 19.921875 C 27.078125 19.921875 26.667969 22.0625 26.667969 22.0625 L 28 22.0625 C 28.003906 22.0625 28.007812 22.0625 28.011719 22.0625 C 28.011719 22.0625 28.015625 22.0625 28.019531 22.0625 Z M 14.472656 21.476562 C 14.46875 21.46875 14.464844 21.460938 14.457031 21.449219 C 14.414062 21.363281 14.351562 21.285156 14.277344 21.210938 C 14.273438 21.246094 14.273438 21.28125 14.273438 21.316406 C 14.277344 21.480469 14.324219 21.640625 14.402344 21.804688 C 14.414062 21.6875 14.4375 21.578125 14.472656 21.476562 Z M 14.910156 21.796875 C 14.988281 21.648438 15.035156 21.496094 15.039062 21.339844 C 15.042969 21.296875 15.039062 21.253906 15.035156 21.214844 C 14.960938 21.285156 14.902344 21.363281 14.855469 21.449219 C 14.851562 21.460938 14.847656 21.46875 14.84375 21.476562 C 14.875 21.578125 14.898438 21.683594 14.910156 21.796875 Z M 13.964844 20.996094 C 13.875 20.953125 13.773438 20.914062 13.664062 20.878906 C 13.589844 21.261719 13.632812 21.570312 13.785156 21.8125 C 13.894531 21.996094 14.0625 22.136719 14.277344 22.253906 C 14.058594 21.945312 13.941406 21.636719 13.929688 21.324219 C 13.929688 21.214844 13.9375 21.105469 13.964844 20.996094 Z M 22.875 28.296875 L 22.003906 31 L 25.722656 31 L 24.851562 28.296875 Z M 12.730469 27.417969 L 12.730469 29.519531 L 19.308594 29.519531 C 19.3125 29.519531 19.3125 29.519531 19.316406 29.519531 L 20.144531 29.519531 L 20.144531 27.417969 Z M 16.519531 28.292969 C 16.613281 28.292969 16.691406 28.371094 16.691406 28.46875 C 16.691406 28.5625 16.613281 28.640625 16.519531 28.640625 L 16.355469 28.640625 C 16.257812 28.640625 16.179688 28.5625 16.179688 28.46875 C 16.179688 28.371094 16.257812 28.292969 16.355469 28.292969 Z M 20.144531 27.074219 L 20.144531 24.972656 L 12.730469 24.972656 L 12.730469 27.074219 Z M 16.519531 25.851562 C 16.613281 25.851562 16.691406 25.929688 16.691406 26.023438 C 16.691406 26.121094 16.613281 26.195312 16.519531 26.195312 L 16.355469 26.195312 C 16.257812 26.195312 16.179688 26.121094 16.179688 26.023438 C 16.179688 25.929688 16.257812 25.851562 16.355469 25.851562 Z M 16.519531 25.851562 " fill-opacity="1" fill-rule="evenodd"/></g><g fill="#000000" fill-opacity="1"><g transform="translate(34.624046, 24.098455)"><g><path d="M 4.375 0.171875 C 3.601562 0.171875 2.851562 0.0664062 2.125 -0.140625 C 1.40625 -0.359375 0.828125 -0.632812 0.390625 -0.96875 L 1.15625 -2.671875 C 1.582031 -2.367188 2.082031 -2.125 2.65625 -1.9375 C 3.238281 -1.75 3.816406 -1.65625 4.390625 -1.65625 C 5.035156 -1.65625 5.507812 -1.75 5.8125 -1.9375 C 6.125 -2.125 6.28125 -2.378906 6.28125 -2.703125 C 6.28125 -2.929688 6.1875 -3.125 6 -3.28125 C 5.820312 -3.4375 5.59375 -3.5625 5.3125 -3.65625 C 5.03125 -3.75 4.644531 -3.851562 4.15625 -3.96875 C 3.40625 -4.144531 2.789062 -4.320312 2.3125 -4.5 C 1.84375 -4.675781 1.4375 -4.957031 1.09375 -5.34375 C 0.757812 -5.738281 0.59375 -6.265625 0.59375 -6.921875 C 0.59375 -7.484375 0.742188 -7.992188 1.046875 -8.453125 C 1.359375 -8.921875 1.820312 -9.289062 2.4375 -9.5625 C 3.0625 -9.832031 3.820312 -9.96875 4.71875 -9.96875 C 5.34375 -9.96875 5.953125 -9.890625 6.546875 -9.734375 C 7.148438 -9.585938 7.675781 -9.375 8.125 -9.09375 L 7.421875 -7.375 C 6.515625 -7.882812 5.609375 -8.140625 4.703125 -8.140625 C 4.066406 -8.140625 3.597656 -8.035156 3.296875 -7.828125 C 2.992188 -7.628906 2.84375 -7.363281 2.84375 -7.03125 C 2.84375 -6.695312 3.015625 -6.445312 3.359375 -6.28125 C 3.710938 -6.113281 4.25 -5.953125 4.96875 -5.796875 C 5.71875 -5.617188 6.328125 -5.441406 6.796875 -5.265625 C 7.273438 -5.085938 7.6875 -4.804688 8.03125 -4.421875 C 8.375 -4.035156 8.546875 -3.519531 8.546875 -2.875 C 8.546875 -2.3125 8.390625 -1.796875 8.078125 -1.328125 C 7.765625 -0.867188 7.289062 -0.503906 6.65625 -0.234375 C 6.03125 0.0351562 5.269531 0.171875 4.375 0.171875 Z M 4.375 0.171875 "/></g></g></g><g fill="#000000" fill-opacity="1"><g transform="translate(43.551067, 24.098455)"><g><path d="M 4.046875 -7.640625 C 5.210938 -7.640625 6.109375 -7.363281 6.734375 -6.8125 C 7.359375 -6.257812 7.671875 -5.421875 7.671875 -4.296875 L 7.671875 0 L 5.625 0 L 5.625 -0.9375 C 5.21875 -0.238281 4.453125 0.109375 3.328125 0.109375 C 2.753906 0.109375 2.253906 0.015625 1.828125 -0.171875 C 1.398438 -0.367188 1.070312 -0.640625 0.84375 -0.984375 C 0.625 -1.335938 0.515625 -1.734375 0.515625 -2.171875 C 0.515625 -2.867188 0.773438 -3.414062 1.296875 -3.8125 C 1.828125 -4.21875 2.644531 -4.421875 3.75 -4.421875 L 5.484375 -4.421875 C 5.484375 -4.898438 5.335938 -5.265625 5.046875 -5.515625 C 4.765625 -5.773438 4.332031 -5.90625 3.75 -5.90625 C 3.351562 -5.90625 2.957031 -5.84375 2.5625 -5.71875 C 2.175781 -5.59375 1.847656 -5.421875 1.578125 -5.203125 L 0.796875 -6.734375 C 1.203125 -7.023438 1.691406 -7.25 2.265625 -7.40625 C 2.847656 -7.5625 3.441406 -7.640625 4.046875 -7.640625 Z M 3.875 -1.359375 C 4.25 -1.359375 4.582031 -1.441406 4.875 -1.609375 C 5.164062 -1.785156 5.367188 -2.039062 5.484375 -2.375 L 5.484375 -3.15625 L 3.984375 -3.15625 C 3.085938 -3.15625 2.640625 -2.859375 2.640625 -2.265625 C 2.640625 -1.984375 2.75 -1.757812 2.96875 -1.59375 C 3.1875 -1.4375 3.488281 -1.359375 3.875 -1.359375 Z M 3.875 -1.359375 "/></g></g></g><g fill="#000000" fill-opacity="1"><g transform="translate(52.184248, 24.098455)"><g><path d="M 5.59375 -7.640625 C 6.519531 -7.640625 7.269531 -7.359375 7.84375 -6.796875 C 8.414062 -6.242188 8.703125 -5.414062 8.703125 -4.3125 L 8.703125 0 L 6.53125 0 L 6.53125 -3.96875 C 6.53125 -4.570312 6.394531 -5.019531 6.125 -5.3125 C 5.863281 -5.601562 5.488281 -5.75 5 -5.75 C 4.445312 -5.75 4.003906 -5.578125 3.671875 -5.234375 C 3.347656 -4.898438 3.1875 -4.394531 3.1875 -3.71875 L 3.1875 0 L 1.015625 0 L 1.015625 -7.53125 L 3.09375 -7.53125 L 3.09375 -6.65625 C 3.382812 -6.96875 3.742188 -7.207031 4.171875 -7.375 C 4.597656 -7.550781 5.070312 -7.640625 5.59375 -7.640625 Z M 5.59375 -7.640625 "/></g></g></g><g fill="#000000" fill-opacity="1"><g transform="translate(61.852846, 24.098455)"><g><path d="M 5.859375 -0.359375 C 5.648438 -0.203125 5.390625 -0.0820312 5.078125 0 C 4.765625 0.0703125 4.4375 0.109375 4.09375 0.109375 C 3.195312 0.109375 2.503906 -0.117188 2.015625 -0.578125 C 1.523438 -1.035156 1.28125 -1.707031 1.28125 -2.59375 L 1.28125 -5.6875 L 0.109375 -5.6875 L 0.109375 -7.359375 L 1.28125 -7.359375 L 1.28125 -9.203125 L 3.453125 -9.203125 L 3.453125 -7.359375 L 5.328125 -7.359375 L 5.328125 -5.6875 L 3.453125 -5.6875 L 3.453125 -2.625 C 3.453125 -2.300781 3.535156 -2.050781 3.703125 -1.875 C 3.867188 -1.707031 4.097656 -1.625 4.390625 -1.625 C 4.734375 -1.625 5.03125 -1.71875 5.28125 -1.90625 Z M 5.859375 -0.359375 "/></g></g></g><g fill="#000000" fill-opacity="1"><g transform="translate(67.939443, 24.098455)"><g><path d="M 4.046875 -7.640625 C 5.210938 -7.640625 6.109375 -7.363281 6.734375 -6.8125 C 7.359375 -6.257812 7.671875 -5.421875 7.671875 -4.296875 L 7.671875 0 L 5.625 0 L 5.625 -0.9375 C 5.21875 -0.238281 4.453125 0.109375 3.328125 0.109375 C 2.753906 0.109375 2.253906 0.015625 1.828125 -0.171875 C 1.398438 -0.367188 1.070312 -0.640625 0.84375 -0.984375 C 0.625 -1.335938 0.515625 -1.734375 0.515625 -2.171875 C 0.515625 -2.867188 0.773438 -3.414062 1.296875 -3.8125 C 1.828125 -4.21875 2.644531 -4.421875 3.75 -4.421875 L 5.484375 -4.421875 C 5.484375 -4.898438 5.335938 -5.265625 5.046875 -5.515625 C 4.765625 -5.773438 4.332031 -5.90625 3.75 -5.90625 C 3.351562 -5.90625 2.957031 -5.84375 2.5625 -5.71875 C 2.175781 -5.59375 1.847656 -5.421875 1.578125 -5.203125 L 0.796875 -6.734375 C 1.203125 -7.023438 1.691406 -7.25 2.265625 -7.40625 C 2.847656 -7.5625 3.441406 -7.640625 4.046875 -7.640625 Z M 3.875 -1.359375 C 4.25 -1.359375 4.582031 -1.441406 4.875 -1.609375 C 5.164062 -1.785156 5.367188 -2.039062 5.484375 -2.375 L 5.484375 -3.15625 L 3.984375 -3.15625 C 3.085938 -3.15625 2.640625 -2.859375 2.640625 -2.265625 C 2.640625 -1.984375 2.75 -1.757812 2.96875 -1.59375 C 3.1875 -1.4375 3.488281 -1.359375 3.875 -1.359375 Z M 3.875 -1.359375 "/></g></g></g><g fill="#000000" fill-opacity="1"><g transform="translate(76.572625, 24.098455)"><g><path d="M 5.59375 -7.640625 C 6.519531 -7.640625 7.269531 -7.359375 7.84375 -6.796875 C 8.414062 -6.242188 8.703125 -5.414062 8.703125 -4.3125 L 8.703125 0 L 6.53125 0 L 6.53125 -3.96875 C 6.53125 -4.570312 6.394531 -5.019531 6.125 -5.3125 C 5.863281 -5.601562 5.488281 -5.75 5 -5.75 C 4.445312 -5.75 4.003906 -5.578125 3.671875 -5.234375 C 3.347656 -4.898438 3.1875 -4.394531 3.1875 -3.71875 L 3.1875 0 L 1.015625 0 L 1.015625 -7.53125 L 3.09375 -7.53125 L 3.09375 -6.65625 C 3.382812 -6.96875 3.742188 -7.207031 4.171875 -7.375 C 4.597656 -7.550781 5.070312 -7.640625 5.59375 -7.640625 Z M 5.59375 -7.640625 "/></g></g></g><g fill="#000000" fill-opacity="1"><g transform="translate(86.241223, 24.098455)"><g><path d="M 4.046875 -7.640625 C 5.210938 -7.640625 6.109375 -7.363281 6.734375 -6.8125 C 7.359375 -6.257812 7.671875 -5.421875 7.671875 -4.296875 L 7.671875 0 L 5.625 0 L 5.625 -0.9375 C 5.21875 -0.238281 4.453125 0.109375 3.328125 0.109375 C 2.753906 0.109375 2.253906 0.015625 1.828125 -0.171875 C 1.398438 -0.367188 1.070312 -0.640625 0.84375 -0.984375 C 0.625 -1.335938 0.515625 -1.734375 0.515625 -2.171875 C 0.515625 -2.867188 0.773438 -3.414062 1.296875 -3.8125 C 1.828125 -4.21875 2.644531 -4.421875 3.75 -4.421875 L 5.484375 -4.421875 C 5.484375 -4.898438 5.335938 -5.265625 5.046875 -5.515625 C 4.765625 -5.773438 4.332031 -5.90625 3.75 -5.90625 C 3.351562 -5.90625 2.957031 -5.84375 2.5625 -5.71875 C 2.175781 -5.59375 1.847656 -5.421875 1.578125 -5.203125 L 0.796875 -6.734375 C 1.203125 -7.023438 1.691406 -7.25 2.265625 -7.40625 C 2.847656 -7.5625 3.441406 -7.640625 4.046875 -7.640625 Z M 3.875 -1.359375 C 4.25 -1.359375 4.582031 -1.441406 4.875 -1.609375 C 5.164062 -1.785156 5.367188 -2.039062 5.484375 -2.375 L 5.484375 -3.15625 L 3.984375 -3.15625 C 3.085938 -3.15625 2.640625 -2.859375 2.640625 -2.265625 C 2.640625 -1.984375 2.75 -1.757812 2.96875 -1.59375 C 3.1875 -1.4375 3.488281 -1.359375 3.875 -1.359375 Z M 3.875 -1.359375 "/></g></g></g><g fill="#000000" fill-opacity="1"><g transform="translate(98.542827, 23.012782)"><g><path d="M 4.203125 -3.5 L 4.203125 0 L 3.84375 0 L 3.84375 -2.796875 L 2.46875 -0.4375 L 2.296875 -0.4375 L 0.921875 -2.78125 L 0.921875 0 L 0.5625 0 L 0.5625 -3.5 L 0.875 -3.5 L 2.390625 -0.90625 L 3.90625 -3.5 Z M 4.203125 -3.5 "/></g></g></g><g fill="#000000" fill-opacity="1"><g transform="translate(103.317853, 23.012782)"><g><path d="M 1.5625 0.03125 C 1.3125 0.03125 1.082031 -0.0234375 0.875 -0.140625 C 0.675781 -0.253906 0.519531 -0.414062 0.40625 -0.625 C 0.289062 -0.832031 0.234375 -1.0625 0.234375 -1.3125 C 0.234375 -1.570312 0.289062 -1.800781 0.40625 -2 C 0.519531 -2.207031 0.675781 -2.367188 0.875 -2.484375 C 1.082031 -2.597656 1.3125 -2.65625 1.5625 -2.65625 C 1.820312 -2.65625 2.050781 -2.597656 2.25 -2.484375 C 2.457031 -2.367188 2.617188 -2.207031 2.734375 -2 C 2.847656 -1.800781 2.90625 -1.570312 2.90625 -1.3125 C 2.90625 -1.0625 2.847656 -0.832031 2.734375 -0.625 C 2.617188 -0.414062 2.457031 -0.253906 2.25 -0.140625 C 2.050781 -0.0234375 1.820312 0.03125 1.5625 0.03125 Z M 1.5625 -0.296875 C 1.75 -0.296875 1.914062 -0.335938 2.0625 -0.421875 C 2.21875 -0.503906 2.335938 -0.625 2.421875 -0.78125 C 2.503906 -0.9375 2.546875 -1.113281 2.546875 -1.3125 C 2.546875 -1.507812 2.503906 -1.6875 2.421875 -1.84375 C 2.335938 -2 2.21875 -2.117188 2.0625 -2.203125 C 1.914062 -2.296875 1.75 -2.34375 1.5625 -2.34375 C 1.382812 -2.34375 1.21875 -2.296875 1.0625 -2.203125 C 0.914062 -2.117188 0.800781 -2 0.71875 -1.84375 C 0.632812 -1.6875 0.59375 -1.507812 0.59375 -1.3125 C 0.59375 -1.113281 0.632812 -0.9375 0.71875 -0.78125 C 0.800781 -0.625 0.914062 -0.503906 1.0625 -0.421875 C 1.21875 -0.335938 1.382812 -0.296875 1.5625 -0.296875 Z M 1.921875 -3.65625 L 2.390625 -3.65625 L 1.59375 -3.03125 L 1.234375 -3.03125 Z M 1.921875 -3.65625 "/></g></g></g><g fill="#000000" fill-opacity="1"><g transform="translate(106.452868, 23.012782)"><g><path d="M 2.703125 -2.625 L 1.53125 0 L 1.171875 0 L 0 -2.625 L 0.375 -2.625 L 1.359375 -0.390625 L 2.359375 -2.625 Z M 2.703125 -2.625 "/></g></g></g><g fill="#000000" fill-opacity="1"><g transform="translate(109.162881, 23.012782)"><g><path d="M 2.78125 -1.203125 L 0.578125 -1.203125 C 0.597656 -0.929688 0.703125 -0.710938 0.890625 -0.546875 C 1.085938 -0.378906 1.332031 -0.296875 1.625 -0.296875 C 1.78125 -0.296875 1.925781 -0.320312 2.0625 -0.375 C 2.207031 -0.4375 2.328125 -0.523438 2.421875 -0.640625 L 2.625 -0.40625 C 2.507812 -0.257812 2.363281 -0.148438 2.1875 -0.078125 C 2.007812 -0.00390625 1.816406 0.03125 1.609375 0.03125 C 1.335938 0.03125 1.097656 -0.0234375 0.890625 -0.140625 C 0.679688 -0.253906 0.519531 -0.414062 0.40625 -0.625 C 0.289062 -0.832031 0.234375 -1.0625 0.234375 -1.3125 C 0.234375 -1.570312 0.285156 -1.800781 0.390625 -2 C 0.503906 -2.207031 0.660156 -2.367188 0.859375 -2.484375 C 1.054688 -2.597656 1.273438 -2.65625 1.515625 -2.65625 C 1.753906 -2.65625 1.96875 -2.597656 2.15625 -2.484375 C 2.351562 -2.367188 2.507812 -2.207031 2.625 -2 C 2.738281 -1.800781 2.796875 -1.570312 2.796875 -1.3125 Z M 1.515625 -2.34375 C 1.265625 -2.34375 1.050781 -2.257812 0.875 -2.09375 C 0.707031 -1.9375 0.609375 -1.726562 0.578125 -1.46875 L 2.453125 -1.46875 C 2.429688 -1.726562 2.332031 -1.9375 2.15625 -2.09375 C 1.988281 -2.257812 1.773438 -2.34375 1.515625 -2.34375 Z M 1.515625 -2.34375 "/></g></g></g><g fill="#000000" fill-opacity="1"><g transform="translate(112.182896, 23.012782)"><g><path d="M 0.5 -2.625 L 0.84375 -2.625 L 0.84375 0 L 0.5 0 Z M 0.671875 -3.203125 C 0.597656 -3.203125 0.535156 -3.226562 0.484375 -3.28125 C 0.429688 -3.332031 0.40625 -3.390625 0.40625 -3.453125 C 0.40625 -3.523438 0.429688 -3.582031 0.484375 -3.625 C 0.535156 -3.675781 0.597656 -3.703125 0.671875 -3.703125 C 0.742188 -3.703125 0.804688 -3.675781 0.859375 -3.625 C 0.910156 -3.582031 0.9375 -3.53125 0.9375 -3.46875 C 0.9375 -3.394531 0.910156 -3.332031 0.859375 -3.28125 C 0.804688 -3.226562 0.742188 -3.203125 0.671875 -3.203125 Z M 0.671875 -3.203125 "/></g></g></g><g fill="#000000" fill-opacity="1"><g transform="translate(113.527905, 23.012782)"><g><path d="M 1.203125 0.03125 C 0.984375 0.03125 0.773438 0 0.578125 -0.0625 C 0.390625 -0.125 0.238281 -0.203125 0.125 -0.296875 L 0.296875 -0.578125 C 0.398438 -0.492188 0.535156 -0.421875 0.703125 -0.359375 C 0.867188 -0.304688 1.039062 -0.28125 1.21875 -0.28125 C 1.457031 -0.28125 1.632812 -0.316406 1.75 -0.390625 C 1.875 -0.472656 1.9375 -0.582031 1.9375 -0.71875 C 1.9375 -0.8125 1.898438 -0.882812 1.828125 -0.9375 C 1.765625 -1 1.6875 -1.039062 1.59375 -1.0625 C 1.5 -1.09375 1.367188 -1.125 1.203125 -1.15625 C 0.992188 -1.1875 0.820312 -1.222656 0.6875 -1.265625 C 0.5625 -1.304688 0.453125 -1.378906 0.359375 -1.484375 C 0.265625 -1.585938 0.21875 -1.726562 0.21875 -1.90625 C 0.21875 -2.125 0.3125 -2.300781 0.5 -2.4375 C 0.6875 -2.582031 0.941406 -2.65625 1.265625 -2.65625 C 1.429688 -2.65625 1.597656 -2.628906 1.765625 -2.578125 C 1.941406 -2.535156 2.082031 -2.476562 2.1875 -2.40625 L 2.046875 -2.125 C 1.828125 -2.269531 1.566406 -2.34375 1.265625 -2.34375 C 1.035156 -2.34375 0.863281 -2.300781 0.75 -2.21875 C 0.632812 -2.144531 0.578125 -2.039062 0.578125 -1.90625 C 0.578125 -1.8125 0.609375 -1.734375 0.671875 -1.671875 C 0.742188 -1.609375 0.828125 -1.5625 0.921875 -1.53125 C 1.015625 -1.507812 1.144531 -1.484375 1.3125 -1.453125 C 1.53125 -1.410156 1.703125 -1.367188 1.828125 -1.328125 C 1.953125 -1.285156 2.054688 -1.21875 2.140625 -1.125 C 2.234375 -1.03125 2.28125 -0.894531 2.28125 -0.71875 C 2.28125 -0.488281 2.179688 -0.304688 1.984375 -0.171875 C 1.796875 -0.0351562 1.535156 0.03125 1.203125 0.03125 Z M 1.203125 0.03125 "/></g></g></g><g fill="#000000" fill-opacity="1"><g transform="translate(115.972918, 23.012782)"><g/></g></g><g fill="#000000" fill-opacity="1"><g transform="translate(117.282927, 23.012782)"><g><path d="M 1.875 -3.5 C 2.320312 -3.5 2.671875 -3.390625 2.921875 -3.171875 C 3.179688 -2.960938 3.3125 -2.671875 3.3125 -2.296875 C 3.3125 -1.921875 3.179688 -1.628906 2.921875 -1.421875 C 2.671875 -1.210938 2.320312 -1.109375 1.875 -1.109375 L 0.9375 -1.109375 L 0.9375 0 L 0.5625 0 L 0.5625 -3.5 Z M 1.875 -1.4375 C 2.21875 -1.4375 2.476562 -1.507812 2.65625 -1.65625 C 2.84375 -1.8125 2.9375 -2.023438 2.9375 -2.296875 C 2.9375 -2.578125 2.84375 -2.796875 2.65625 -2.953125 C 2.476562 -3.109375 2.21875 -3.1875 1.875 -3.1875 L 0.9375 -3.1875 L 0.9375 -1.4375 Z M 1.875 -1.4375 "/></g></g></g><g fill="#000000" fill-opacity="1"><g transform="translate(120.872945, 23.012782)"><g><path d="M 0.5 -3.703125 L 0.84375 -3.703125 L 0.84375 0 L 0.5 0 Z M 0.5 -3.703125 "/></g></g></g><g fill="#000000" fill-opacity="1"><g transform="translate(122.217954, 23.012782)"><g><path d="M 1.421875 -2.65625 C 1.765625 -2.65625 2.023438 -2.566406 2.203125 -2.390625 C 2.390625 -2.222656 2.484375 -1.96875 2.484375 -1.625 L 2.484375 0 L 2.140625 0 L 2.140625 -0.40625 C 2.054688 -0.269531 1.9375 -0.160156 1.78125 -0.078125 C 1.632812 -0.00390625 1.453125 0.03125 1.234375 0.03125 C 0.941406 0.03125 0.707031 -0.0351562 0.53125 -0.171875 C 0.363281 -0.316406 0.28125 -0.503906 0.28125 -0.734375 C 0.28125 -0.960938 0.359375 -1.144531 0.515625 -1.28125 C 0.679688 -1.414062 0.941406 -1.484375 1.296875 -1.484375 L 2.125 -1.484375 L 2.125 -1.640625 C 2.125 -1.867188 2.0625 -2.039062 1.9375 -2.15625 C 1.8125 -2.28125 1.625 -2.34375 1.375 -2.34375 C 1.207031 -2.34375 1.046875 -2.3125 0.890625 -2.25 C 0.742188 -2.195312 0.613281 -2.125 0.5 -2.03125 L 0.34375 -2.296875 C 0.476562 -2.410156 0.640625 -2.5 0.828125 -2.5625 C 1.015625 -2.625 1.210938 -2.65625 1.421875 -2.65625 Z M 1.296875 -0.25 C 1.492188 -0.25 1.660156 -0.296875 1.796875 -0.390625 C 1.941406 -0.484375 2.050781 -0.617188 2.125 -0.796875 L 2.125 -1.21875 L 1.296875 -1.21875 C 0.847656 -1.21875 0.625 -1.0625 0.625 -0.75 C 0.625 -0.59375 0.679688 -0.46875 0.796875 -0.375 C 0.910156 -0.289062 1.078125 -0.25 1.296875 -0.25 Z M 1.296875 -0.25 "/></g></g></g><g fill="#000000" fill-opacity="1"><g transform="translate(125.167969, 23.012782)"><g><path d="M 1.828125 -2.65625 C 2.160156 -2.65625 2.425781 -2.554688 2.625 -2.359375 C 2.820312 -2.171875 2.921875 -1.894531 2.921875 -1.53125 L 2.921875 0 L 2.5625 0 L 2.5625 -1.484375 C 2.5625 -1.765625 2.492188 -1.972656 2.359375 -2.109375 C 2.222656 -2.253906 2.023438 -2.328125 1.765625 -2.328125 C 1.484375 -2.328125 1.257812 -2.242188 1.09375 -2.078125 C 0.925781 -1.910156 0.84375 -1.675781 0.84375 -1.375 L 0.84375 0 L 0.5 0 L 0.5 -2.625 L 0.828125 -2.625 L 0.828125 -2.140625 C 0.929688 -2.304688 1.066406 -2.429688 1.234375 -2.515625 C 1.410156 -2.609375 1.609375 -2.65625 1.828125 -2.65625 Z M 1.828125 -2.65625 "/></g></g></g><g fill="#000000" fill-opacity="1"><g transform="translate(128.552986, 23.012782)"><g><path d="M 2.78125 -1.203125 L 0.578125 -1.203125 C 0.597656 -0.929688 0.703125 -0.710938 0.890625 -0.546875 C 1.085938 -0.378906 1.332031 -0.296875 1.625 -0.296875 C 1.78125 -0.296875 1.925781 -0.320312 2.0625 -0.375 C 2.207031 -0.4375 2.328125 -0.523438 2.421875 -0.640625 L 2.625 -0.40625 C 2.507812 -0.257812 2.363281 -0.148438 2.1875 -0.078125 C 2.007812 -0.00390625 1.816406 0.03125 1.609375 0.03125 C 1.335938 0.03125 1.097656 -0.0234375 0.890625 -0.140625 C 0.679688 -0.253906 0.519531 -0.414062 0.40625 -0.625 C 0.289062 -0.832031 0.234375 -1.0625 0.234375 -1.3125 C 0.234375 -1.570312 0.285156 -1.800781 0.390625 -2 C 0.503906 -2.207031 0.660156 -2.367188 0.859375 -2.484375 C 1.054688 -2.597656 1.273438 -2.65625 1.515625 -2.65625 C 1.753906 -2.65625 1.96875 -2.597656 2.15625 -2.484375 C 2.351562 -2.367188 2.507812 -2.207031 2.625 -2 C 2.738281 -1.800781 2.796875 -1.570312 2.796875 -1.3125 Z M 1.515625 -2.34375 C 1.265625 -2.34375 1.050781 -2.257812 0.875 -2.09375 C 0.707031 -1.9375 0.609375 -1.726562 0.578125 -1.46875 L 2.453125 -1.46875 C 2.429688 -1.726562 2.332031 -1.9375 2.15625 -2.09375 C 1.988281 -2.257812 1.773438 -2.34375 1.515625 -2.34375 Z M 1.515625 -2.34375 "/></g></g></g><g fill="#000000" fill-opacity="1"><g transform="translate(131.573, 23.012782)"><g><path d="M 0.109375 1 C -0.00390625 1 -0.109375 0.984375 -0.203125 0.953125 C -0.304688 0.921875 -0.390625 0.878906 -0.453125 0.828125 L -0.328125 0.5625 C -0.222656 0.644531 -0.0859375 0.6875 0.078125 0.6875 C 0.222656 0.6875 0.332031 0.644531 0.40625 0.5625 C 0.476562 0.476562 0.515625 0.351562 0.515625 0.1875 L 0.515625 -2.625 L 0.875 -2.625 L 0.875 0.1875 C 0.875 0.4375 0.804688 0.632812 0.671875 0.78125 C 0.535156 0.925781 0.347656 1 0.109375 1 Z M 0.703125 -3.203125 C 0.628906 -3.203125 0.566406 -3.226562 0.515625 -3.28125 C 0.460938 -3.332031 0.4375 -3.390625 0.4375 -3.453125 C 0.4375 -3.523438 0.460938 -3.582031 0.515625 -3.625 C 0.566406 -3.675781 0.628906 -3.703125 0.703125 -3.703125 C 0.773438 -3.703125 0.835938 -3.675781 0.890625 -3.625 C 0.941406 -3.582031 0.96875 -3.53125 0.96875 -3.46875 C 0.96875 -3.394531 0.941406 -3.332031 0.890625 -3.28125 C 0.835938 -3.226562 0.773438 -3.203125 0.703125 -3.203125 Z M 0.703125 -3.203125 "/></g></g></g><g fill="#000000" fill-opacity="1"><g transform="translate(132.943008, 23.012782)"><g><path d="M 1.421875 -2.65625 C 1.765625 -2.65625 2.023438 -2.566406 2.203125 -2.390625 C 2.390625 -2.222656 2.484375 -1.96875 2.484375 -1.625 L 2.484375 0 L 2.140625 0 L 2.140625 -0.40625 C 2.054688 -0.269531 1.9375 -0.160156 1.78125 -0.078125 C 1.632812 -0.00390625 1.453125 0.03125 1.234375 0.03125 C 0.941406 0.03125 0.707031 -0.0351562 0.53125 -0.171875 C 0.363281 -0.316406 0.28125 -0.503906 0.28125 -0.734375 C 0.28125 -0.960938 0.359375 -1.144531 0.515625 -1.28125 C 0.679688 -1.414062 0.941406 -1.484375 1.296875 -1.484375 L 2.125 -1.484375 L 2.125 -1.640625 C 2.125 -1.867188 2.0625 -2.039062 1.9375 -2.15625 C 1.8125 -2.28125 1.625 -2.34375 1.375 -2.34375 C 1.207031 -2.34375 1.046875 -2.3125 0.890625 -2.25 C 0.742188 -2.195312 0.613281 -2.125 0.5 -2.03125 L 0.34375 -2.296875 C 0.476562 -2.410156 0.640625 -2.5 0.828125 -2.5625 C 1.015625 -2.625 1.210938 -2.65625 1.421875 -2.65625 Z M 1.296875 -0.25 C 1.492188 -0.25 1.660156 -0.296875 1.796875 -0.390625 C 1.941406 -0.484375 2.050781 -0.617188 2.125 -0.796875 L 2.125 -1.21875 L 1.296875 -1.21875 C 0.847656 -1.21875 0.625 -1.0625 0.625 -0.75 C 0.625 -0.59375 0.679688 -0.46875 0.796875 -0.375 C 0.910156 -0.289062 1.078125 -0.25 1.296875 -0.25 Z M 1.296875 -0.25 "/></g></g></g><g fill="#000000" fill-opacity="1"><g transform="translate(135.893023, 23.012782)"><g><path d="M 2.890625 -3.703125 L 2.890625 0 L 2.5625 0 L 2.5625 -0.515625 C 2.445312 -0.335938 2.300781 -0.203125 2.125 -0.109375 C 1.957031 -0.015625 1.765625 0.03125 1.546875 0.03125 C 1.296875 0.03125 1.066406 -0.0234375 0.859375 -0.140625 C 0.660156 -0.253906 0.503906 -0.410156 0.390625 -0.609375 C 0.285156 -0.816406 0.234375 -1.050781 0.234375 -1.3125 C 0.234375 -1.570312 0.285156 -1.800781 0.390625 -2 C 0.503906 -2.207031 0.660156 -2.367188 0.859375 -2.484375 C 1.066406 -2.597656 1.296875 -2.65625 1.546875 -2.65625 C 1.753906 -2.65625 1.941406 -2.609375 2.109375 -2.515625 C 2.285156 -2.429688 2.429688 -2.300781 2.546875 -2.125 L 2.546875 -3.703125 Z M 1.5625 -0.296875 C 1.75 -0.296875 1.914062 -0.335938 2.0625 -0.421875 C 2.21875 -0.503906 2.335938 -0.625 2.421875 -0.78125 C 2.503906 -0.9375 2.546875 -1.113281 2.546875 -1.3125 C 2.546875 -1.507812 2.503906 -1.6875 2.421875 -1.84375 C 2.335938 -2 2.21875 -2.117188 2.0625 -2.203125 C 1.914062 -2.296875 1.75 -2.34375 1.5625 -2.34375 C 1.382812 -2.34375 1.21875 -2.296875 1.0625 -2.203125 C 0.914062 -2.117188 0.800781 -2 0.71875 -1.84375 C 0.632812 -1.6875 0.59375 -1.507812 0.59375 -1.3125 C 0.59375 -1.113281 0.632812 -0.9375 0.71875 -0.78125 C 0.800781 -0.625 0.914062 -0.503906 1.0625 -0.421875 C 1.21875 -0.335938 1.382812 -0.296875 1.5625 -0.296875 Z M 1.5625 -0.296875 "/></g></g></g><g fill="#000000" fill-opacity="1"><g transform="translate(139.283043, 23.012782)"><g><path d="M 1.5625 0.03125 C 1.3125 0.03125 1.082031 -0.0234375 0.875 -0.140625 C 0.675781 -0.253906 0.519531 -0.414062 0.40625 -0.625 C 0.289062 -0.832031 0.234375 -1.0625 0.234375 -1.3125 C 0.234375 -1.570312 0.289062 -1.800781 0.40625 -2 C 0.519531 -2.207031 0.675781 -2.367188 0.875 -2.484375 C 1.082031 -2.597656 1.3125 -2.65625 1.5625 -2.65625 C 1.820312 -2.65625 2.050781 -2.597656 2.25 -2.484375 C 2.457031 -2.367188 2.617188 -2.207031 2.734375 -2 C 2.847656 -1.800781 2.90625 -1.570312 2.90625 -1.3125 C 2.90625 -1.0625 2.847656 -0.832031 2.734375 -0.625 C 2.617188 -0.414062 2.457031 -0.253906 2.25 -0.140625 C 2.050781 -0.0234375 1.820312 0.03125 1.5625 0.03125 Z M 1.5625 -0.296875 C 1.75 -0.296875 1.914062 -0.335938 2.0625 -0.421875 C 2.21875 -0.503906 2.335938 -0.625 2.421875 -0.78125 C 2.503906 -0.9375 2.546875 -1.113281 2.546875 -1.3125 C 2.546875 -1.507812 2.503906 -1.6875 2.421875 -1.84375 C 2.335938 -2 2.21875 -2.117188 2.0625 -2.203125 C 1.914062 -2.296875 1.75 -2.34375 1.5625 -2.34375 C 1.382812 -2.34375 1.21875 -2.296875 1.0625 -2.203125 C 0.914062 -2.117188 0.800781 -2 0.71875 -1.84375 C 0.632812 -1.6875 0.59375 -1.507812 0.59375 -1.3125 C 0.59375 -1.113281 0.632812 -0.9375 0.71875 -0.78125 C 0.800781 -0.625 0.914062 -0.503906 1.0625 -0.421875 C 1.21875 -0.335938 1.382812 -0.296875 1.5625 -0.296875 Z M 1.5625 -0.296875 "/></g></g></g><g fill="#000000" fill-opacity="1"><g transform="translate(142.418057, 23.012782)"><g><path d="M 1.203125 0.03125 C 0.984375 0.03125 0.773438 0 0.578125 -0.0625 C 0.390625 -0.125 0.238281 -0.203125 0.125 -0.296875 L 0.296875 -0.578125 C 0.398438 -0.492188 0.535156 -0.421875 0.703125 -0.359375 C 0.867188 -0.304688 1.039062 -0.28125 1.21875 -0.28125 C 1.457031 -0.28125 1.632812 -0.316406 1.75 -0.390625 C 1.875 -0.472656 1.9375 -0.582031 1.9375 -0.71875 C 1.9375 -0.8125 1.898438 -0.882812 1.828125 -0.9375 C 1.765625 -1 1.6875 -1.039062 1.59375 -1.0625 C 1.5 -1.09375 1.367188 -1.125 1.203125 -1.15625 C 0.992188 -1.1875 0.820312 -1.222656 0.6875 -1.265625 C 0.5625 -1.304688 0.453125 -1.378906 0.359375 -1.484375 C 0.265625 -1.585938 0.21875 -1.726562 0.21875 -1.90625 C 0.21875 -2.125 0.3125 -2.300781 0.5 -2.4375 C 0.6875 -2.582031 0.941406 -2.65625 1.265625 -2.65625 C 1.429688 -2.65625 1.597656 -2.628906 1.765625 -2.578125 C 1.941406 -2.535156 2.082031 -2.476562 2.1875 -2.40625 L 2.046875 -2.125 C 1.828125 -2.269531 1.566406 -2.34375 1.265625 -2.34375 C 1.035156 -2.34375 0.863281 -2.300781 0.75 -2.21875 C 0.632812 -2.144531 0.578125 -2.039062 0.578125 -1.90625 C 0.578125 -1.8125 0.609375 -1.734375 0.671875 -1.671875 C 0.742188 -1.609375 0.828125 -1.5625 0.921875 -1.53125 C 1.015625 -1.507812 1.144531 -1.484375 1.3125 -1.453125 C 1.53125 -1.410156 1.703125 -1.367188 1.828125 -1.328125 C 1.953125 -1.285156 2.054688 -1.21875 2.140625 -1.125 C 2.234375 -1.03125 2.28125 -0.894531 2.28125 -0.71875 C 2.28125 -0.488281 2.179688 -0.304688 1.984375 -0.171875 C 1.796875 -0.0351562 1.535156 0.03125 1.203125 0.03125 Z M 1.203125 0.03125 "/></g></g></g><g fill="#000000" fill-opacity="1"><g transform="translate(34.624046, 30.375002)"><g><path d="M 3.90625 -3 C 3.789062 -3 3.703125 -2.960938 3.640625 -2.890625 C 3.585938 -2.816406 3.566406 -2.691406 3.578125 -2.515625 L 3.59375 -0.46875 C 3.59375 -0.382812 3.585938 -0.289062 3.578125 -0.1875 L 3.90625 -0.203125 L 3.890625 0 L 2.90625 0 L 2.921875 -0.15625 L 2.953125 -0.15625 C 3.066406 -0.15625 3.140625 -0.195312 3.171875 -0.28125 C 3.210938 -0.363281 3.234375 -0.5 3.234375 -0.6875 L 3.234375 -2.21875 C 3.234375 -2.394531 3.234375 -2.523438 3.234375 -2.609375 L 3.21875 -2.609375 L 3.0625 -2.265625 L 2 0.046875 L 1.875 0.046875 C 1.75 -0.253906 1.582031 -0.707031 1.375 -1.3125 C 1.3125 -1.476562 1.21875 -1.734375 1.09375 -2.078125 L 1.0625 -2.171875 C 1 -2.328125 0.941406 -2.492188 0.890625 -2.671875 L 0.875 -2.671875 C 0.863281 -2.398438 0.847656 -2.101562 0.828125 -1.78125 L 0.703125 -0.5625 C 0.679688 -0.382812 0.664062 -0.257812 0.65625 -0.1875 L 1 -0.203125 L 0.984375 0 L 0.140625 0 L 0.140625 -0.15625 C 0.234375 -0.15625 0.300781 -0.171875 0.34375 -0.203125 C 0.382812 -0.234375 0.410156 -0.273438 0.421875 -0.328125 C 0.441406 -0.390625 0.457031 -0.46875 0.46875 -0.5625 L 0.71875 -2.96875 L 0.390625 -2.953125 L 0.40625 -3.15625 L 1.078125 -3.15625 C 1.148438 -2.957031 1.316406 -2.5 1.578125 -1.78125 C 1.816406 -1.15625 1.972656 -0.742188 2.046875 -0.546875 L 2.0625 -0.546875 C 2.113281 -0.671875 2.179688 -0.832031 2.265625 -1.03125 L 2.3125 -1.125 C 2.394531 -1.300781 2.554688 -1.640625 2.796875 -2.140625 C 2.953125 -2.472656 3.109375 -2.8125 3.265625 -3.15625 L 3.921875 -3.15625 Z M 3.90625 -3 "/></g></g></g><g fill="#000000" fill-opacity="1"><g transform="translate(38.750581, 30.375002)"><g><path d="M 1.28125 -2.296875 C 1.445312 -2.296875 1.59375 -2.253906 1.71875 -2.171875 C 1.851562 -2.097656 1.957031 -1.988281 2.03125 -1.84375 C 2.101562 -1.695312 2.140625 -1.519531 2.140625 -1.3125 C 2.140625 -1.0625 2.09375 -0.832031 2 -0.625 C 1.914062 -0.425781 1.789062 -0.265625 1.625 -0.140625 C 1.457031 -0.015625 1.265625 0.046875 1.046875 0.046875 C 0.753906 0.046875 0.535156 -0.046875 0.390625 -0.234375 C 0.242188 -0.421875 0.171875 -0.660156 0.171875 -0.953125 C 0.171875 -1.203125 0.21875 -1.425781 0.3125 -1.625 C 0.40625 -1.832031 0.535156 -1.992188 0.703125 -2.109375 C 0.867188 -2.234375 1.0625 -2.296875 1.28125 -2.296875 Z M 1.21875 -2.140625 C 1.082031 -2.140625 0.960938 -2.085938 0.859375 -1.984375 C 0.765625 -1.890625 0.691406 -1.757812 0.640625 -1.59375 C 0.597656 -1.4375 0.578125 -1.257812 0.578125 -1.0625 C 0.578125 -0.8125 0.613281 -0.59375 0.6875 -0.40625 C 0.769531 -0.21875 0.90625 -0.125 1.09375 -0.125 C 1.238281 -0.125 1.359375 -0.179688 1.453125 -0.296875 C 1.554688 -0.410156 1.628906 -0.550781 1.671875 -0.71875 C 1.722656 -0.894531 1.75 -1.066406 1.75 -1.234375 C 1.75 -1.484375 1.707031 -1.695312 1.625 -1.875 C 1.539062 -2.050781 1.40625 -2.140625 1.21875 -2.140625 Z M 1.015625 -2.703125 L 1.359375 -3.296875 C 1.421875 -3.390625 1.488281 -3.4375 1.5625 -3.4375 C 1.59375 -3.4375 1.617188 -3.421875 1.640625 -3.390625 C 1.671875 -3.367188 1.6875 -3.335938 1.6875 -3.296875 C 1.6875 -3.222656 1.65625 -3.15625 1.59375 -3.09375 L 1.125 -2.609375 Z M 1.015625 -2.703125 "/></g></g></g><g fill="#000000" fill-opacity="1"><g transform="translate(41.095102, 30.375002)"><g><path d="M 1.640625 -2.296875 C 1.816406 -2.296875 1.953125 -2.222656 2.046875 -2.078125 C 2.140625 -1.929688 2.1875 -1.742188 2.1875 -1.515625 C 2.1875 -1.316406 2.144531 -1.113281 2.0625 -0.90625 C 2 -0.738281 1.910156 -0.582031 1.796875 -0.4375 C 1.691406 -0.289062 1.566406 -0.171875 1.421875 -0.078125 C 1.285156 0.00390625 1.140625 0.046875 0.984375 0.046875 C 0.804688 0.046875 0.675781 -0.0078125 0.59375 -0.125 C 0.519531 -0.25 0.484375 -0.40625 0.484375 -0.59375 C 0.484375 -0.757812 0.488281 -0.929688 0.5 -1.109375 C 0.519531 -1.285156 0.535156 -1.390625 0.546875 -1.421875 C 0.566406 -1.617188 0.578125 -1.769531 0.578125 -1.875 C 0.578125 -1.9375 0.566406 -1.984375 0.546875 -2.015625 C 0.523438 -2.046875 0.492188 -2.0625 0.453125 -2.0625 C 0.398438 -2.0625 0.34375 -2.023438 0.28125 -1.953125 C 0.226562 -1.890625 0.179688 -1.78125 0.140625 -1.625 L 0.015625 -1.65625 C 0.0351562 -1.75 0.0664062 -1.84375 0.109375 -1.9375 C 0.148438 -2.03125 0.210938 -2.113281 0.296875 -2.1875 C 0.378906 -2.257812 0.476562 -2.296875 0.59375 -2.296875 C 0.707031 -2.296875 0.796875 -2.253906 0.859375 -2.171875 C 0.921875 -2.097656 0.953125 -1.988281 0.953125 -1.84375 C 0.953125 -1.707031 0.9375 -1.441406 0.90625 -1.046875 C 0.875 -0.734375 0.859375 -0.546875 0.859375 -0.484375 C 0.859375 -0.398438 0.867188 -0.328125 0.890625 -0.265625 C 0.921875 -0.210938 0.984375 -0.1875 1.078125 -0.1875 C 1.171875 -0.1875 1.273438 -0.222656 1.390625 -0.296875 C 1.503906 -0.378906 1.601562 -0.484375 1.6875 -0.609375 C 1.78125 -0.734375 1.851562 -0.867188 1.90625 -1.015625 C 1.914062 -1.066406 1.925781 -1.132812 1.9375 -1.21875 C 1.957031 -1.300781 1.96875 -1.382812 1.96875 -1.46875 C 1.96875 -1.601562 1.945312 -1.71875 1.90625 -1.8125 C 1.875 -1.90625 1.820312 -1.96875 1.75 -2 C 1.71875 -1.925781 1.65625 -1.890625 1.5625 -1.890625 C 1.519531 -1.890625 1.476562 -1.90625 1.4375 -1.9375 C 1.394531 -1.96875 1.375 -2.015625 1.375 -2.078125 C 1.375 -2.128906 1.394531 -2.175781 1.4375 -2.21875 C 1.476562 -2.269531 1.546875 -2.296875 1.640625 -2.296875 Z M 1.640625 -2.296875 "/></g></g></g><g fill="#000000" fill-opacity="1"><g transform="translate(43.462121, 30.375002)"><g><path d="M 1.265625 -2.296875 C 1.441406 -2.296875 1.59375 -2.253906 1.71875 -2.171875 C 1.84375 -2.085938 1.90625 -1.957031 1.90625 -1.78125 C 1.90625 -1.5625 1.769531 -1.390625 1.5 -1.265625 C 1.226562 -1.140625 0.921875 -1.054688 0.578125 -1.015625 C 0.578125 -0.734375 0.617188 -0.519531 0.703125 -0.375 C 0.785156 -0.238281 0.910156 -0.171875 1.078125 -0.171875 C 1.222656 -0.171875 1.359375 -0.21875 1.484375 -0.3125 C 1.609375 -0.40625 1.722656 -0.539062 1.828125 -0.71875 L 1.96875 -0.640625 C 1.84375 -0.398438 1.703125 -0.222656 1.546875 -0.109375 C 1.390625 -0.00390625 1.210938 0.046875 1.015625 0.046875 C 0.734375 0.046875 0.519531 -0.0351562 0.375 -0.203125 C 0.238281 -0.378906 0.171875 -0.617188 0.171875 -0.921875 C 0.171875 -1.160156 0.210938 -1.382812 0.296875 -1.59375 C 0.378906 -1.800781 0.503906 -1.96875 0.671875 -2.09375 C 0.835938 -2.226562 1.035156 -2.296875 1.265625 -2.296875 Z M 1.203125 -2.140625 C 1.015625 -2.140625 0.867188 -2.046875 0.765625 -1.859375 C 0.660156 -1.679688 0.597656 -1.457031 0.578125 -1.1875 C 0.835938 -1.21875 1.0625 -1.285156 1.25 -1.390625 C 1.4375 -1.503906 1.53125 -1.640625 1.53125 -1.796875 C 1.53125 -1.898438 1.5 -1.984375 1.4375 -2.046875 C 1.382812 -2.109375 1.304688 -2.140625 1.203125 -2.140625 Z M 1.203125 -2.140625 "/></g></g></g><g fill="#000000" fill-opacity="1"><g transform="translate(45.608642, 30.375002)"><g><path d="M 0.859375 -3.265625 C 0.921875 -3.265625 0.972656 -3.238281 1.015625 -3.1875 C 1.066406 -3.144531 1.09375 -3.085938 1.09375 -3.015625 C 1.09375 -2.941406 1.066406 -2.878906 1.015625 -2.828125 C 0.972656 -2.785156 0.914062 -2.765625 0.84375 -2.765625 C 0.78125 -2.765625 0.722656 -2.785156 0.671875 -2.828125 C 0.628906 -2.878906 0.609375 -2.941406 0.609375 -3.015625 C 0.609375 -3.085938 0.628906 -3.144531 0.671875 -3.1875 C 0.722656 -3.238281 0.785156 -3.265625 0.859375 -3.265625 Z M 0.59375 -2.296875 C 0.71875 -2.296875 0.8125 -2.253906 0.875 -2.171875 C 0.9375 -2.085938 0.96875 -1.972656 0.96875 -1.828125 C 0.96875 -1.710938 0.945312 -1.507812 0.90625 -1.21875 C 0.875 -1.03125 0.847656 -0.867188 0.828125 -0.734375 C 0.816406 -0.609375 0.8125 -0.484375 0.8125 -0.359375 C 0.8125 -0.234375 0.851562 -0.171875 0.9375 -0.171875 C 1 -0.171875 1.054688 -0.207031 1.109375 -0.28125 C 1.171875 -0.351562 1.226562 -0.460938 1.28125 -0.609375 L 1.40625 -0.578125 C 1.363281 -0.421875 1.296875 -0.273438 1.203125 -0.140625 C 1.109375 -0.015625 0.988281 0.046875 0.84375 0.046875 C 0.570312 0.046875 0.4375 -0.09375 0.4375 -0.375 C 0.4375 -0.488281 0.441406 -0.597656 0.453125 -0.703125 C 0.472656 -0.816406 0.5 -0.957031 0.53125 -1.125 C 0.5625 -1.3125 0.582031 -1.453125 0.59375 -1.546875 C 0.601562 -1.648438 0.609375 -1.757812 0.609375 -1.875 C 0.609375 -1.925781 0.597656 -1.972656 0.578125 -2.015625 C 0.554688 -2.054688 0.523438 -2.078125 0.484375 -2.078125 C 0.429688 -2.078125 0.375 -2.039062 0.3125 -1.96875 C 0.25 -1.894531 0.195312 -1.785156 0.15625 -1.640625 L 0.03125 -1.671875 C 0.0625 -1.816406 0.125 -1.957031 0.21875 -2.09375 C 0.3125 -2.226562 0.4375 -2.296875 0.59375 -2.296875 Z M 0.59375 -2.296875 "/></g></g></g><g fill="#000000" fill-opacity="1"><g transform="translate(47.066656, 30.375002)"><g><path d="M 1.015625 -2.296875 C 1.191406 -2.296875 1.347656 -2.253906 1.484375 -2.171875 C 1.617188 -2.085938 1.6875 -1.984375 1.6875 -1.859375 C 1.6875 -1.796875 1.664062 -1.742188 1.625 -1.703125 C 1.59375 -1.671875 1.550781 -1.65625 1.5 -1.65625 C 1.445312 -1.65625 1.398438 -1.671875 1.359375 -1.703125 C 1.328125 -1.742188 1.3125 -1.785156 1.3125 -1.828125 C 1.3125 -1.878906 1.328125 -1.925781 1.359375 -1.96875 C 1.335938 -2.019531 1.296875 -2.0625 1.234375 -2.09375 C 1.179688 -2.132812 1.109375 -2.15625 1.015625 -2.15625 C 0.898438 -2.15625 0.800781 -2.117188 0.71875 -2.046875 C 0.632812 -1.984375 0.59375 -1.898438 0.59375 -1.796875 C 0.59375 -1.710938 0.628906 -1.632812 0.703125 -1.5625 C 0.785156 -1.488281 0.910156 -1.40625 1.078125 -1.3125 C 1.210938 -1.238281 1.320312 -1.171875 1.40625 -1.109375 C 1.488281 -1.046875 1.554688 -0.972656 1.609375 -0.890625 C 1.671875 -0.804688 1.703125 -0.710938 1.703125 -0.609375 C 1.703125 -0.484375 1.664062 -0.367188 1.59375 -0.265625 C 1.519531 -0.171875 1.421875 -0.09375 1.296875 -0.03125 C 1.171875 0.0195312 1.023438 0.046875 0.859375 0.046875 C 0.660156 0.046875 0.488281 0.00390625 0.34375 -0.078125 C 0.207031 -0.171875 0.140625 -0.289062 0.140625 -0.4375 C 0.140625 -0.5 0.15625 -0.550781 0.1875 -0.59375 C 0.226562 -0.632812 0.273438 -0.65625 0.328125 -0.65625 C 0.378906 -0.65625 0.421875 -0.632812 0.453125 -0.59375 C 0.492188 -0.5625 0.515625 -0.519531 0.515625 -0.46875 C 0.515625 -0.414062 0.5 -0.367188 0.46875 -0.328125 C 0.488281 -0.265625 0.535156 -0.210938 0.609375 -0.171875 C 0.679688 -0.128906 0.757812 -0.109375 0.84375 -0.109375 C 1 -0.109375 1.117188 -0.144531 1.203125 -0.21875 C 1.285156 -0.300781 1.328125 -0.410156 1.328125 -0.546875 C 1.328125 -0.640625 1.285156 -0.722656 1.203125 -0.796875 C 1.117188 -0.878906 0.992188 -0.96875 0.828125 -1.0625 C 0.628906 -1.175781 0.484375 -1.273438 0.390625 -1.359375 C 0.296875 -1.453125 0.25 -1.5625 0.25 -1.6875 C 0.25 -1.800781 0.28125 -1.90625 0.34375 -2 C 0.40625 -2.09375 0.492188 -2.164062 0.609375 -2.21875 C 0.734375 -2.269531 0.867188 -2.296875 1.015625 -2.296875 Z M 1.015625 -2.296875 "/></g></g></g><g fill="#000000" fill-opacity="1"><g transform="translate(48.992671, 30.375002)"><g/></g></g><g fill="#000000" fill-opacity="1"><g transform="translate(50.176181, 30.375002)"><g><path d="M 1.484375 -2.296875 C 1.566406 -2.296875 1.671875 -2.289062 1.796875 -2.28125 C 1.921875 -2.269531 2.015625 -2.257812 2.078125 -2.25 C 2.046875 -1.90625 2.007812 -1.492188 1.96875 -1.015625 C 1.882812 -0.160156 1.832031 0.378906 1.8125 0.609375 C 1.800781 0.785156 1.785156 0.90625 1.765625 0.96875 L 2.0625 0.96875 L 2.0625 1.140625 L 1.203125 1.140625 L 1.203125 1.015625 C 1.273438 1.015625 1.328125 0.988281 1.359375 0.9375 C 1.398438 0.894531 1.425781 0.835938 1.4375 0.765625 C 1.457031 0.703125 1.46875 0.601562 1.46875 0.46875 C 1.46875 0.425781 1.472656 0.394531 1.484375 0.375 C 1.515625 -0.0625 1.5625 -0.5 1.625 -0.9375 L 1.609375 -0.9375 C 1.492188 -0.550781 1.363281 -0.289062 1.21875 -0.15625 C 1.082031 -0.0195312 0.9375 0.046875 0.78125 0.046875 C 0.582031 0.046875 0.429688 -0.03125 0.328125 -0.1875 C 0.222656 -0.34375 0.171875 -0.546875 0.171875 -0.796875 C 0.171875 -1.085938 0.21875 -1.34375 0.3125 -1.5625 C 0.414062 -1.789062 0.566406 -1.96875 0.765625 -2.09375 C 0.960938 -2.226562 1.203125 -2.296875 1.484375 -2.296875 Z M 1.421875 -2.140625 C 1.222656 -2.140625 1.054688 -2.078125 0.921875 -1.953125 C 0.796875 -1.828125 0.703125 -1.664062 0.640625 -1.46875 C 0.585938 -1.28125 0.5625 -1.085938 0.5625 -0.890625 C 0.5625 -0.660156 0.582031 -0.476562 0.625 -0.34375 C 0.675781 -0.21875 0.757812 -0.15625 0.875 -0.15625 C 1.007812 -0.15625 1.140625 -0.257812 1.265625 -0.46875 C 1.398438 -0.675781 1.507812 -0.929688 1.59375 -1.234375 C 1.675781 -1.546875 1.722656 -1.835938 1.734375 -2.109375 C 1.648438 -2.128906 1.546875 -2.140625 1.421875 -2.140625 Z M 1.421875 -2.140625 "/></g></g></g><g fill="#000000" fill-opacity="1"><g transform="translate(52.507204, 30.375002)"><g><path d="M 0.59375 -2.296875 C 0.71875 -2.296875 0.8125 -2.257812 0.875 -2.1875 C 0.9375 -2.113281 0.96875 -2.003906 0.96875 -1.859375 C 0.96875 -1.753906 0.941406 -1.53125 0.890625 -1.1875 C 0.890625 -1.15625 0.875 -1.050781 0.84375 -0.875 C 0.820312 -0.707031 0.8125 -0.566406 0.8125 -0.453125 C 0.8125 -0.378906 0.828125 -0.3125 0.859375 -0.25 C 0.890625 -0.1875 0.945312 -0.15625 1.03125 -0.15625 C 1.15625 -0.15625 1.285156 -0.253906 1.421875 -0.453125 C 1.554688 -0.660156 1.664062 -0.910156 1.75 -1.203125 C 1.832031 -1.492188 1.875 -1.765625 1.875 -2.015625 C 1.875 -2.066406 1.875 -2.144531 1.875 -2.25 L 2.25 -2.25 C 2.25 -2.21875 2.25 -2.179688 2.25 -2.140625 C 2.25 -2.066406 2.238281 -1.953125 2.21875 -1.796875 C 2.207031 -1.648438 2.1875 -1.457031 2.15625 -1.21875 L 2.109375 -0.84375 C 2.109375 -0.800781 2.101562 -0.726562 2.09375 -0.625 C 2.082031 -0.519531 2.078125 -0.4375 2.078125 -0.375 C 2.078125 -0.25 2.117188 -0.1875 2.203125 -0.1875 C 2.253906 -0.1875 2.3125 -0.21875 2.375 -0.28125 C 2.4375 -0.351562 2.488281 -0.460938 2.53125 -0.609375 L 2.65625 -0.578125 C 2.632812 -0.492188 2.597656 -0.398438 2.546875 -0.296875 C 2.503906 -0.203125 2.441406 -0.117188 2.359375 -0.046875 C 2.273438 0.015625 2.175781 0.046875 2.0625 0.046875 C 1.945312 0.046875 1.859375 0.0078125 1.796875 -0.0625 C 1.742188 -0.132812 1.71875 -0.234375 1.71875 -0.359375 C 1.71875 -0.484375 1.742188 -0.679688 1.796875 -0.953125 L 1.78125 -0.953125 C 1.644531 -0.566406 1.507812 -0.300781 1.375 -0.15625 C 1.238281 -0.0195312 1.09375 0.046875 0.9375 0.046875 C 0.769531 0.046875 0.644531 -0.00390625 0.5625 -0.109375 C 0.488281 -0.222656 0.453125 -0.363281 0.453125 -0.53125 C 0.453125 -0.664062 0.457031 -0.796875 0.46875 -0.921875 C 0.476562 -1.054688 0.5 -1.21875 0.53125 -1.40625 C 0.539062 -1.4375 0.550781 -1.503906 0.5625 -1.609375 C 0.582031 -1.710938 0.59375 -1.796875 0.59375 -1.859375 C 0.59375 -1.929688 0.582031 -1.984375 0.5625 -2.015625 C 0.550781 -2.054688 0.519531 -2.078125 0.46875 -2.078125 C 0.414062 -2.078125 0.359375 -2.039062 0.296875 -1.96875 C 0.242188 -1.894531 0.195312 -1.785156 0.15625 -1.640625 L 0.03125 -1.671875 C 0.0507812 -1.816406 0.109375 -1.957031 0.203125 -2.09375 C 0.304688 -2.226562 0.4375 -2.296875 0.59375 -2.296875 Z M 0.59375 -2.296875 "/></g></g></g><g fill="#000000" fill-opacity="1"><g transform="translate(55.175724, 30.375002)"><g><path d="M 1.265625 -2.296875 C 1.441406 -2.296875 1.59375 -2.253906 1.71875 -2.171875 C 1.84375 -2.085938 1.90625 -1.957031 1.90625 -1.78125 C 1.90625 -1.5625 1.769531 -1.390625 1.5 -1.265625 C 1.226562 -1.140625 0.921875 -1.054688 0.578125 -1.015625 C 0.578125 -0.734375 0.617188 -0.519531 0.703125 -0.375 C 0.785156 -0.238281 0.910156 -0.171875 1.078125 -0.171875 C 1.222656 -0.171875 1.359375 -0.21875 1.484375 -0.3125 C 1.609375 -0.40625 1.722656 -0.539062 1.828125 -0.71875 L 1.96875 -0.640625 C 1.84375 -0.398438 1.703125 -0.222656 1.546875 -0.109375 C 1.390625 -0.00390625 1.210938 0.046875 1.015625 0.046875 C 0.734375 0.046875 0.519531 -0.0351562 0.375 -0.203125 C 0.238281 -0.378906 0.171875 -0.617188 0.171875 -0.921875 C 0.171875 -1.160156 0.210938 -1.382812 0.296875 -1.59375 C 0.378906 -1.800781 0.503906 -1.96875 0.671875 -2.09375 C 0.835938 -2.226562 1.035156 -2.296875 1.265625 -2.296875 Z M 1.203125 -2.140625 C 1.015625 -2.140625 0.867188 -2.046875 0.765625 -1.859375 C 0.660156 -1.679688 0.597656 -1.457031 0.578125 -1.1875 C 0.835938 -1.21875 1.0625 -1.285156 1.25 -1.390625 C 1.4375 -1.503906 1.53125 -1.640625 1.53125 -1.796875 C 1.53125 -1.898438 1.5 -1.984375 1.4375 -2.046875 C 1.382812 -2.109375 1.304688 -2.140625 1.203125 -2.140625 Z M 1.203125 -2.140625 "/></g></g></g><g fill="#000000" fill-opacity="1"><g transform="translate(57.322245, 30.375002)"><g/></g></g><g fill="#000000" fill-opacity="1"><g transform="translate(58.505755, 30.375002)"><g><path d="M 1.25 -2.296875 C 1.375 -2.296875 1.488281 -2.269531 1.59375 -2.21875 C 1.695312 -2.175781 1.773438 -2.113281 1.828125 -2.03125 C 1.890625 -1.957031 1.921875 -1.867188 1.921875 -1.765625 C 1.921875 -1.703125 1.898438 -1.648438 1.859375 -1.609375 C 1.828125 -1.566406 1.785156 -1.546875 1.734375 -1.546875 C 1.671875 -1.546875 1.625 -1.566406 1.59375 -1.609375 C 1.5625 -1.648438 1.546875 -1.691406 1.546875 -1.734375 C 1.546875 -1.804688 1.566406 -1.863281 1.609375 -1.90625 C 1.585938 -1.988281 1.546875 -2.046875 1.484375 -2.078125 C 1.421875 -2.117188 1.34375 -2.140625 1.25 -2.140625 C 1.007812 -2.140625 0.835938 -2.023438 0.734375 -1.796875 C 0.628906 -1.578125 0.578125 -1.328125 0.578125 -1.046875 C 0.578125 -0.742188 0.625 -0.519531 0.71875 -0.375 C 0.8125 -0.238281 0.945312 -0.171875 1.125 -0.171875 C 1.25 -0.171875 1.375 -0.210938 1.5 -0.296875 C 1.625 -0.390625 1.726562 -0.535156 1.8125 -0.734375 L 1.96875 -0.65625 C 1.851562 -0.40625 1.71875 -0.222656 1.5625 -0.109375 C 1.40625 -0.00390625 1.234375 0.046875 1.046875 0.046875 C 0.773438 0.046875 0.5625 -0.03125 0.40625 -0.1875 C 0.25 -0.351562 0.171875 -0.601562 0.171875 -0.9375 C 0.171875 -1.144531 0.207031 -1.351562 0.28125 -1.5625 C 0.363281 -1.769531 0.488281 -1.941406 0.65625 -2.078125 C 0.820312 -2.222656 1.019531 -2.296875 1.25 -2.296875 Z M 1.25 -2.296875 "/></g></g></g><g fill="#000000" fill-opacity="1"><g transform="translate(60.634273, 30.375002)"><g><path d="M 1.28125 -2.296875 C 1.445312 -2.296875 1.59375 -2.253906 1.71875 -2.171875 C 1.851562 -2.097656 1.957031 -1.988281 2.03125 -1.84375 C 2.101562 -1.695312 2.140625 -1.519531 2.140625 -1.3125 C 2.140625 -1.0625 2.09375 -0.832031 2 -0.625 C 1.914062 -0.425781 1.789062 -0.265625 1.625 -0.140625 C 1.457031 -0.015625 1.265625 0.046875 1.046875 0.046875 C 0.753906 0.046875 0.535156 -0.046875 0.390625 -0.234375 C 0.242188 -0.421875 0.171875 -0.660156 0.171875 -0.953125 C 0.171875 -1.203125 0.21875 -1.425781 0.3125 -1.625 C 0.40625 -1.832031 0.535156 -1.992188 0.703125 -2.109375 C 0.867188 -2.234375 1.0625 -2.296875 1.28125 -2.296875 Z M 1.21875 -2.140625 C 1.082031 -2.140625 0.960938 -2.085938 0.859375 -1.984375 C 0.765625 -1.890625 0.691406 -1.757812 0.640625 -1.59375 C 0.597656 -1.4375 0.578125 -1.257812 0.578125 -1.0625 C 0.578125 -0.8125 0.613281 -0.59375 0.6875 -0.40625 C 0.769531 -0.21875 0.90625 -0.125 1.09375 -0.125 C 1.238281 -0.125 1.359375 -0.179688 1.453125 -0.296875 C 1.554688 -0.410156 1.628906 -0.550781 1.671875 -0.71875 C 1.722656 -0.894531 1.75 -1.066406 1.75 -1.234375 C 1.75 -1.484375 1.707031 -1.695312 1.625 -1.875 C 1.539062 -2.050781 1.40625 -2.140625 1.21875 -2.140625 Z M 1.21875 -2.140625 "/></g></g></g><g fill="#000000" fill-opacity="1"><g transform="translate(62.978794, 30.375002)"><g><path d="M 1.78125 -2.296875 C 1.945312 -2.296875 2.066406 -2.238281 2.140625 -2.125 C 2.222656 -2.019531 2.265625 -1.882812 2.265625 -1.71875 C 2.265625 -1.507812 2.238281 -1.21875 2.1875 -0.84375 C 2.15625 -0.613281 2.140625 -0.457031 2.140625 -0.375 C 2.140625 -0.3125 2.144531 -0.257812 2.15625 -0.21875 C 2.175781 -0.1875 2.210938 -0.171875 2.265625 -0.171875 C 2.316406 -0.171875 2.375 -0.207031 2.4375 -0.28125 C 2.5 -0.351562 2.550781 -0.460938 2.59375 -0.609375 L 2.71875 -0.578125 C 2.695312 -0.492188 2.660156 -0.398438 2.609375 -0.296875 C 2.566406 -0.203125 2.503906 -0.117188 2.421875 -0.046875 C 2.335938 0.015625 2.238281 0.046875 2.125 0.046875 C 1.988281 0.046875 1.894531 0.015625 1.84375 -0.046875 C 1.789062 -0.117188 1.765625 -0.226562 1.765625 -0.375 C 1.765625 -0.488281 1.785156 -0.6875 1.828125 -0.96875 C 1.878906 -1.34375 1.90625 -1.625 1.90625 -1.8125 C 1.90625 -1.882812 1.890625 -1.945312 1.859375 -2 C 1.828125 -2.0625 1.769531 -2.09375 1.6875 -2.09375 C 1.5625 -2.09375 1.425781 -1.988281 1.28125 -1.78125 C 1.144531 -1.582031 1.03125 -1.335938 0.9375 -1.046875 C 0.851562 -0.753906 0.8125 -0.484375 0.8125 -0.234375 C 0.8125 -0.179688 0.8125 -0.101562 0.8125 0 L 0.4375 0 C 0.4375 -0.03125 0.4375 -0.0664062 0.4375 -0.109375 C 0.4375 -0.179688 0.441406 -0.28125 0.453125 -0.40625 C 0.460938 -0.539062 0.484375 -0.710938 0.515625 -0.921875 C 0.515625 -0.941406 0.515625 -0.972656 0.515625 -1.015625 C 0.523438 -1.054688 0.53125 -1.097656 0.53125 -1.140625 C 0.539062 -1.179688 0.546875 -1.222656 0.546875 -1.265625 C 0.566406 -1.441406 0.582031 -1.570312 0.59375 -1.65625 C 0.601562 -1.75 0.609375 -1.820312 0.609375 -1.875 C 0.609375 -1.9375 0.597656 -1.984375 0.578125 -2.015625 C 0.566406 -2.054688 0.535156 -2.078125 0.484375 -2.078125 C 0.429688 -2.078125 0.375 -2.039062 0.3125 -1.96875 C 0.25 -1.894531 0.195312 -1.785156 0.15625 -1.640625 L 0.03125 -1.671875 C 0.0390625 -1.753906 0.0703125 -1.84375 0.125 -1.9375 C 0.175781 -2.039062 0.242188 -2.125 0.328125 -2.1875 C 0.410156 -2.257812 0.503906 -2.296875 0.609375 -2.296875 C 0.835938 -2.296875 0.953125 -2.144531 0.953125 -1.84375 C 0.953125 -1.75 0.941406 -1.648438 0.921875 -1.546875 C 0.910156 -1.441406 0.894531 -1.351562 0.875 -1.28125 L 0.890625 -1.28125 C 1.035156 -1.65625 1.175781 -1.914062 1.3125 -2.0625 C 1.457031 -2.21875 1.613281 -2.296875 1.78125 -2.296875 Z M 1.78125 -2.296875 "/></g></g></g><g fill="#000000" fill-opacity="1"><g transform="translate(65.746318, 30.375002)"><g><path d="M 0.890625 -2.25 L 1.609375 -2.25 L 1.59375 -2.078125 L 0.875 -2.0625 L 0.84375 -1.78125 C 0.78125 -1.207031 0.75 -0.804688 0.75 -0.578125 C 0.75 -0.453125 0.757812 -0.351562 0.78125 -0.28125 C 0.8125 -0.21875 0.867188 -0.1875 0.953125 -0.1875 C 1.109375 -0.1875 1.25 -0.289062 1.375 -0.5 L 1.5 -0.421875 C 1.40625 -0.265625 1.304688 -0.144531 1.203125 -0.0625 C 1.109375 0.0078125 0.988281 0.046875 0.84375 0.046875 C 0.6875 0.046875 0.566406 0 0.484375 -0.09375 C 0.410156 -0.195312 0.375 -0.328125 0.375 -0.484375 C 0.375 -0.660156 0.382812 -0.890625 0.40625 -1.171875 C 0.4375 -1.453125 0.46875 -1.75 0.5 -2.0625 L 0.09375 -2.0625 L 0.109375 -2.25 C 0.285156 -2.25 0.429688 -2.300781 0.546875 -2.40625 C 0.660156 -2.507812 0.75 -2.671875 0.8125 -2.890625 L 0.96875 -2.890625 Z M 0.890625 -2.25 "/></g></g></g><g fill="#000000" fill-opacity="1"><g transform="translate(67.384331, 30.375002)"><g><path d="M 1.484375 -2.296875 C 1.679688 -2.296875 1.878906 -2.269531 2.078125 -2.21875 C 1.953125 -1.238281 1.890625 -0.640625 1.890625 -0.421875 C 1.890625 -0.347656 1.894531 -0.285156 1.90625 -0.234375 C 1.925781 -0.191406 1.960938 -0.171875 2.015625 -0.171875 C 2.066406 -0.171875 2.125 -0.207031 2.1875 -0.28125 C 2.25 -0.351562 2.300781 -0.460938 2.34375 -0.609375 L 2.46875 -0.578125 C 2.445312 -0.492188 2.410156 -0.398438 2.359375 -0.296875 C 2.316406 -0.203125 2.253906 -0.117188 2.171875 -0.046875 C 2.085938 0.015625 1.988281 0.046875 1.875 0.046875 C 1.65625 0.046875 1.546875 -0.0859375 1.546875 -0.359375 C 1.546875 -0.484375 1.570312 -0.679688 1.625 -0.953125 L 1.609375 -0.953125 C 1.484375 -0.554688 1.34375 -0.289062 1.1875 -0.15625 C 1.039062 -0.0195312 0.890625 0.046875 0.734375 0.046875 C 0.566406 0.046875 0.429688 -0.015625 0.328125 -0.140625 C 0.222656 -0.265625 0.171875 -0.460938 0.171875 -0.734375 C 0.171875 -1.023438 0.21875 -1.285156 0.3125 -1.515625 C 0.414062 -1.753906 0.566406 -1.941406 0.765625 -2.078125 C 0.960938 -2.222656 1.203125 -2.296875 1.484375 -2.296875 Z M 1.34375 -2.140625 C 1.164062 -2.140625 1.015625 -2.078125 0.890625 -1.953125 C 0.773438 -1.828125 0.6875 -1.660156 0.625 -1.453125 C 0.570312 -1.253906 0.546875 -1.039062 0.546875 -0.8125 C 0.546875 -0.375 0.644531 -0.15625 0.84375 -0.15625 C 0.96875 -0.15625 1.097656 -0.253906 1.234375 -0.453125 C 1.367188 -0.660156 1.476562 -0.914062 1.5625 -1.21875 C 1.644531 -1.53125 1.6875 -1.816406 1.6875 -2.078125 C 1.601562 -2.117188 1.488281 -2.140625 1.34375 -2.140625 Z M 1.34375 -2.140625 "/></g></g></g><g fill="#000000" fill-opacity="1"><g transform="translate(69.850353, 30.375002)"><g><path d="M 2.984375 -2.296875 C 3.148438 -2.296875 3.269531 -2.238281 3.34375 -2.125 C 3.414062 -2.019531 3.453125 -1.882812 3.453125 -1.71875 C 3.453125 -1.59375 3.441406 -1.460938 3.421875 -1.328125 C 3.410156 -1.203125 3.390625 -1.039062 3.359375 -0.84375 C 3.328125 -0.601562 3.3125 -0.445312 3.3125 -0.375 C 3.3125 -0.3125 3.316406 -0.257812 3.328125 -0.21875 C 3.347656 -0.1875 3.378906 -0.171875 3.421875 -0.171875 C 3.484375 -0.171875 3.546875 -0.207031 3.609375 -0.28125 C 3.671875 -0.351562 3.722656 -0.460938 3.765625 -0.609375 L 3.890625 -0.578125 C 3.867188 -0.492188 3.832031 -0.398438 3.78125 -0.296875 C 3.738281 -0.203125 3.675781 -0.117188 3.59375 -0.046875 C 3.507812 0.015625 3.410156 0.046875 3.296875 0.046875 C 3.160156 0.046875 3.066406 0.015625 3.015625 -0.046875 C 2.960938 -0.117188 2.9375 -0.226562 2.9375 -0.375 C 2.9375 -0.5 2.960938 -0.695312 3.015625 -0.96875 C 3.015625 -1 3.019531 -1.070312 3.03125 -1.1875 C 3.050781 -1.3125 3.066406 -1.425781 3.078125 -1.53125 C 3.085938 -1.632812 3.09375 -1.726562 3.09375 -1.8125 C 3.09375 -1.882812 3.078125 -1.945312 3.046875 -2 C 3.015625 -2.0625 2.960938 -2.09375 2.890625 -2.09375 C 2.753906 -2.09375 2.617188 -1.992188 2.484375 -1.796875 C 2.359375 -1.597656 2.253906 -1.351562 2.171875 -1.0625 C 2.097656 -0.769531 2.0625 -0.492188 2.0625 -0.234375 C 2.0625 -0.179688 2.0625 -0.101562 2.0625 0 L 1.6875 0 C 1.6875 -0.03125 1.6875 -0.0664062 1.6875 -0.109375 C 1.6875 -0.210938 1.691406 -0.347656 1.703125 -0.515625 C 1.722656 -0.679688 1.742188 -0.84375 1.765625 -1 C 1.816406 -1.394531 1.84375 -1.660156 1.84375 -1.796875 C 1.84375 -1.992188 1.773438 -2.09375 1.640625 -2.09375 C 1.503906 -2.09375 1.367188 -1.992188 1.234375 -1.796875 C 1.109375 -1.597656 1.003906 -1.347656 0.921875 -1.046875 C 0.847656 -0.753906 0.8125 -0.484375 0.8125 -0.234375 C 0.8125 -0.179688 0.8125 -0.101562 0.8125 0 L 0.4375 0 C 0.4375 -0.03125 0.4375 -0.0664062 0.4375 -0.109375 C 0.4375 -0.191406 0.441406 -0.300781 0.453125 -0.4375 C 0.472656 -0.582031 0.492188 -0.773438 0.515625 -1.015625 L 0.578125 -1.484375 C 0.585938 -1.585938 0.59375 -1.664062 0.59375 -1.71875 C 0.601562 -1.78125 0.609375 -1.832031 0.609375 -1.875 C 0.609375 -1.9375 0.597656 -1.984375 0.578125 -2.015625 C 0.566406 -2.054688 0.535156 -2.078125 0.484375 -2.078125 C 0.429688 -2.078125 0.375 -2.039062 0.3125 -1.96875 C 0.25 -1.894531 0.195312 -1.785156 0.15625 -1.640625 L 0.03125 -1.671875 C 0.0507812 -1.753906 0.0820312 -1.84375 0.125 -1.9375 C 0.175781 -2.039062 0.242188 -2.125 0.328125 -2.1875 C 0.410156 -2.257812 0.507812 -2.296875 0.625 -2.296875 C 0.84375 -2.296875 0.953125 -2.144531 0.953125 -1.84375 C 0.953125 -1.757812 0.941406 -1.664062 0.921875 -1.5625 C 0.910156 -1.46875 0.898438 -1.378906 0.890625 -1.296875 L 0.90625 -1.296875 C 1.03125 -1.671875 1.160156 -1.929688 1.296875 -2.078125 C 1.429688 -2.222656 1.570312 -2.296875 1.71875 -2.296875 C 1.882812 -2.296875 2.003906 -2.242188 2.078125 -2.140625 C 2.160156 -2.035156 2.203125 -1.914062 2.203125 -1.78125 C 2.203125 -1.707031 2.195312 -1.644531 2.1875 -1.59375 C 2.175781 -1.539062 2.15625 -1.445312 2.125 -1.3125 L 2.140625 -1.3125 C 2.273438 -1.6875 2.410156 -1.941406 2.546875 -2.078125 C 2.691406 -2.222656 2.835938 -2.296875 2.984375 -2.296875 Z M 2.984375 -2.296875 "/></g></g></g><g fill="#000000" fill-opacity="1"><g transform="translate(73.792386, 30.375002)"><g/></g></g><g fill="#000000" fill-opacity="1"><g transform="translate(74.975896, 30.375002)"><g><path d="M 1.015625 -2.296875 C 1.191406 -2.296875 1.347656 -2.253906 1.484375 -2.171875 C 1.617188 -2.085938 1.6875 -1.984375 1.6875 -1.859375 C 1.6875 -1.796875 1.664062 -1.742188 1.625 -1.703125 C 1.59375 -1.671875 1.550781 -1.65625 1.5 -1.65625 C 1.445312 -1.65625 1.398438 -1.671875 1.359375 -1.703125 C 1.328125 -1.742188 1.3125 -1.785156 1.3125 -1.828125 C 1.3125 -1.878906 1.328125 -1.925781 1.359375 -1.96875 C 1.335938 -2.019531 1.296875 -2.0625 1.234375 -2.09375 C 1.179688 -2.132812 1.109375 -2.15625 1.015625 -2.15625 C 0.898438 -2.15625 0.800781 -2.117188 0.71875 -2.046875 C 0.632812 -1.984375 0.59375 -1.898438 0.59375 -1.796875 C 0.59375 -1.710938 0.628906 -1.632812 0.703125 -1.5625 C 0.785156 -1.488281 0.910156 -1.40625 1.078125 -1.3125 C 1.210938 -1.238281 1.320312 -1.171875 1.40625 -1.109375 C 1.488281 -1.046875 1.554688 -0.972656 1.609375 -0.890625 C 1.671875 -0.804688 1.703125 -0.710938 1.703125 -0.609375 C 1.703125 -0.484375 1.664062 -0.367188 1.59375 -0.265625 C 1.519531 -0.171875 1.421875 -0.09375 1.296875 -0.03125 C 1.171875 0.0195312 1.023438 0.046875 0.859375 0.046875 C 0.660156 0.046875 0.488281 0.00390625 0.34375 -0.078125 C 0.207031 -0.171875 0.140625 -0.289062 0.140625 -0.4375 C 0.140625 -0.5 0.15625 -0.550781 0.1875 -0.59375 C 0.226562 -0.632812 0.273438 -0.65625 0.328125 -0.65625 C 0.378906 -0.65625 0.421875 -0.632812 0.453125 -0.59375 C 0.492188 -0.5625 0.515625 -0.519531 0.515625 -0.46875 C 0.515625 -0.414062 0.5 -0.367188 0.46875 -0.328125 C 0.488281 -0.265625 0.535156 -0.210938 0.609375 -0.171875 C 0.679688 -0.128906 0.757812 -0.109375 0.84375 -0.109375 C 1 -0.109375 1.117188 -0.144531 1.203125 -0.21875 C 1.285156 -0.300781 1.328125 -0.410156 1.328125 -0.546875 C 1.328125 -0.640625 1.285156 -0.722656 1.203125 -0.796875 C 1.117188 -0.878906 0.992188 -0.96875 0.828125 -1.0625 C 0.628906 -1.175781 0.484375 -1.273438 0.390625 -1.359375 C 0.296875 -1.453125 0.25 -1.5625 0.25 -1.6875 C 0.25 -1.800781 0.28125 -1.90625 0.34375 -2 C 0.40625 -2.09375 0.492188 -2.164062 0.609375 -2.21875 C 0.734375 -2.269531 0.867188 -2.296875 1.015625 -2.296875 Z M 1.015625 -2.296875 "/></g></g></g><g fill="#000000" fill-opacity="1"><g transform="translate(76.901911, 30.375002)"><g><path d="M 0.59375 -2.296875 C 0.71875 -2.296875 0.8125 -2.257812 0.875 -2.1875 C 0.9375 -2.113281 0.96875 -2.003906 0.96875 -1.859375 C 0.96875 -1.753906 0.941406 -1.53125 0.890625 -1.1875 C 0.890625 -1.15625 0.875 -1.050781 0.84375 -0.875 C 0.820312 -0.707031 0.8125 -0.566406 0.8125 -0.453125 C 0.8125 -0.378906 0.828125 -0.3125 0.859375 -0.25 C 0.890625 -0.1875 0.945312 -0.15625 1.03125 -0.15625 C 1.15625 -0.15625 1.285156 -0.253906 1.421875 -0.453125 C 1.554688 -0.660156 1.664062 -0.910156 1.75 -1.203125 C 1.832031 -1.492188 1.875 -1.765625 1.875 -2.015625 C 1.875 -2.066406 1.875 -2.144531 1.875 -2.25 L 2.25 -2.25 C 2.25 -2.21875 2.25 -2.179688 2.25 -2.140625 C 2.25 -2.066406 2.238281 -1.953125 2.21875 -1.796875 C 2.207031 -1.648438 2.1875 -1.457031 2.15625 -1.21875 L 2.109375 -0.84375 C 2.109375 -0.800781 2.101562 -0.726562 2.09375 -0.625 C 2.082031 -0.519531 2.078125 -0.4375 2.078125 -0.375 C 2.078125 -0.25 2.117188 -0.1875 2.203125 -0.1875 C 2.253906 -0.1875 2.3125 -0.21875 2.375 -0.28125 C 2.4375 -0.351562 2.488281 -0.460938 2.53125 -0.609375 L 2.65625 -0.578125 C 2.632812 -0.492188 2.597656 -0.398438 2.546875 -0.296875 C 2.503906 -0.203125 2.441406 -0.117188 2.359375 -0.046875 C 2.273438 0.015625 2.175781 0.046875 2.0625 0.046875 C 1.945312 0.046875 1.859375 0.0078125 1.796875 -0.0625 C 1.742188 -0.132812 1.71875 -0.234375 1.71875 -0.359375 C 1.71875 -0.484375 1.742188 -0.679688 1.796875 -0.953125 L 1.78125 -0.953125 C 1.644531 -0.566406 1.507812 -0.300781 1.375 -0.15625 C 1.238281 -0.0195312 1.09375 0.046875 0.9375 0.046875 C 0.769531 0.046875 0.644531 -0.00390625 0.5625 -0.109375 C 0.488281 -0.222656 0.453125 -0.363281 0.453125 -0.53125 C 0.453125 -0.664062 0.457031 -0.796875 0.46875 -0.921875 C 0.476562 -1.054688 0.5 -1.21875 0.53125 -1.40625 C 0.539062 -1.4375 0.550781 -1.503906 0.5625 -1.609375 C 0.582031 -1.710938 0.59375 -1.796875 0.59375 -1.859375 C 0.59375 -1.929688 0.582031 -1.984375 0.5625 -2.015625 C 0.550781 -2.054688 0.519531 -2.078125 0.46875 -2.078125 C 0.414062 -2.078125 0.359375 -2.039062 0.296875 -1.96875 C 0.242188 -1.894531 0.195312 -1.785156 0.15625 -1.640625 L 0.03125 -1.671875 C 0.0507812 -1.816406 0.109375 -1.957031 0.203125 -2.09375 C 0.304688 -2.226562 0.4375 -2.296875 0.59375 -2.296875 Z M 0.59375 -2.296875 "/></g></g></g><g fill="#000000" fill-opacity="1"><g transform="translate(79.570432, 30.375002)"><g><path d="M 1.484375 -2.296875 C 1.679688 -2.296875 1.878906 -2.269531 2.078125 -2.21875 C 1.953125 -1.238281 1.890625 -0.640625 1.890625 -0.421875 C 1.890625 -0.347656 1.894531 -0.285156 1.90625 -0.234375 C 1.925781 -0.191406 1.960938 -0.171875 2.015625 -0.171875 C 2.066406 -0.171875 2.125 -0.207031 2.1875 -0.28125 C 2.25 -0.351562 2.300781 -0.460938 2.34375 -0.609375 L 2.46875 -0.578125 C 2.445312 -0.492188 2.410156 -0.398438 2.359375 -0.296875 C 2.316406 -0.203125 2.253906 -0.117188 2.171875 -0.046875 C 2.085938 0.015625 1.988281 0.046875 1.875 0.046875 C 1.65625 0.046875 1.546875 -0.0859375 1.546875 -0.359375 C 1.546875 -0.484375 1.570312 -0.679688 1.625 -0.953125 L 1.609375 -0.953125 C 1.484375 -0.554688 1.34375 -0.289062 1.1875 -0.15625 C 1.039062 -0.0195312 0.890625 0.046875 0.734375 0.046875 C 0.566406 0.046875 0.429688 -0.015625 0.328125 -0.140625 C 0.222656 -0.265625 0.171875 -0.460938 0.171875 -0.734375 C 0.171875 -1.023438 0.21875 -1.285156 0.3125 -1.515625 C 0.414062 -1.753906 0.566406 -1.941406 0.765625 -2.078125 C 0.960938 -2.222656 1.203125 -2.296875 1.484375 -2.296875 Z M 1.34375 -2.140625 C 1.164062 -2.140625 1.015625 -2.078125 0.890625 -1.953125 C 0.773438 -1.828125 0.6875 -1.660156 0.625 -1.453125 C 0.570312 -1.253906 0.546875 -1.039062 0.546875 -0.8125 C 0.546875 -0.375 0.644531 -0.15625 0.84375 -0.15625 C 0.96875 -0.15625 1.097656 -0.253906 1.234375 -0.453125 C 1.367188 -0.660156 1.476562 -0.914062 1.5625 -1.21875 C 1.644531 -1.53125 1.6875 -1.816406 1.6875 -2.078125 C 1.601562 -2.117188 1.488281 -2.140625 1.34375 -2.140625 Z M 1.34375 -2.140625 "/></g></g></g><g fill="#000000" fill-opacity="1"><g transform="translate(82.036455, 30.375002)"><g/></g></g><g fill="#000000" fill-opacity="1"><g transform="translate(83.219965, 30.375002)"><g><path d="M 0.90625 -3.171875 C 0.851562 -2.878906 0.820312 -2.695312 0.8125 -2.625 C 0.789062 -2.476562 0.765625 -2.257812 0.734375 -1.96875 C 0.710938 -1.675781 0.695312 -1.453125 0.6875 -1.296875 L 0.703125 -1.296875 C 0.835938 -1.679688 0.976562 -1.941406 1.125 -2.078125 C 1.269531 -2.222656 1.421875 -2.296875 1.578125 -2.296875 C 1.753906 -2.296875 1.878906 -2.238281 1.953125 -2.125 C 2.035156 -2.019531 2.078125 -1.882812 2.078125 -1.71875 C 2.078125 -1.507812 2.050781 -1.21875 2 -0.84375 C 1.96875 -0.613281 1.953125 -0.457031 1.953125 -0.375 C 1.953125 -0.3125 1.957031 -0.257812 1.96875 -0.21875 C 1.988281 -0.1875 2.023438 -0.171875 2.078125 -0.171875 C 2.128906 -0.171875 2.1875 -0.207031 2.25 -0.28125 C 2.3125 -0.351562 2.363281 -0.460938 2.40625 -0.609375 L 2.515625 -0.578125 C 2.484375 -0.429688 2.421875 -0.289062 2.328125 -0.15625 C 2.234375 -0.0195312 2.101562 0.046875 1.9375 0.046875 C 1.800781 0.046875 1.707031 0.015625 1.65625 -0.046875 C 1.601562 -0.117188 1.578125 -0.226562 1.578125 -0.375 C 1.578125 -0.488281 1.597656 -0.691406 1.640625 -0.984375 C 1.640625 -1.023438 1.648438 -1.132812 1.671875 -1.3125 C 1.691406 -1.5 1.703125 -1.664062 1.703125 -1.8125 C 1.703125 -1.882812 1.6875 -1.945312 1.65625 -2 C 1.625 -2.0625 1.570312 -2.09375 1.5 -2.09375 C 1.363281 -2.09375 1.226562 -1.992188 1.09375 -1.796875 C 0.957031 -1.609375 0.847656 -1.367188 0.765625 -1.078125 C 0.679688 -0.785156 0.640625 -0.503906 0.640625 -0.234375 C 0.640625 -0.179688 0.640625 -0.101562 0.640625 0 L 0.28125 0 C 0.269531 -0.03125 0.265625 -0.0664062 0.265625 -0.109375 C 0.265625 -0.335938 0.289062 -0.769531 0.34375 -1.40625 C 0.394531 -2.050781 0.445312 -2.539062 0.5 -2.875 C 0.5 -2.90625 0.507812 -2.984375 0.53125 -3.109375 L 0.21875 -3.09375 L 0.234375 -3.28125 C 0.421875 -3.28125 0.550781 -3.289062 0.625 -3.3125 C 0.707031 -3.332031 0.769531 -3.359375 0.8125 -3.390625 L 0.9375 -3.390625 Z M 0.90625 -3.171875 "/></g></g></g><g fill="#000000" fill-opacity="1"><g transform="translate(85.793986, 30.375002)"><g><path d="M 0.859375 -3.265625 C 0.921875 -3.265625 0.972656 -3.238281 1.015625 -3.1875 C 1.066406 -3.144531 1.09375 -3.085938 1.09375 -3.015625 C 1.09375 -2.941406 1.066406 -2.878906 1.015625 -2.828125 C 0.972656 -2.785156 0.914062 -2.765625 0.84375 -2.765625 C 0.78125 -2.765625 0.722656 -2.785156 0.671875 -2.828125 C 0.628906 -2.878906 0.609375 -2.941406 0.609375 -3.015625 C 0.609375 -3.085938 0.628906 -3.144531 0.671875 -3.1875 C 0.722656 -3.238281 0.785156 -3.265625 0.859375 -3.265625 Z M 0.59375 -2.296875 C 0.71875 -2.296875 0.8125 -2.253906 0.875 -2.171875 C 0.9375 -2.085938 0.96875 -1.972656 0.96875 -1.828125 C 0.96875 -1.710938 0.945312 -1.507812 0.90625 -1.21875 C 0.875 -1.03125 0.847656 -0.867188 0.828125 -0.734375 C 0.816406 -0.609375 0.8125 -0.484375 0.8125 -0.359375 C 0.8125 -0.234375 0.851562 -0.171875 0.9375 -0.171875 C 1 -0.171875 1.054688 -0.207031 1.109375 -0.28125 C 1.171875 -0.351562 1.226562 -0.460938 1.28125 -0.609375 L 1.40625 -0.578125 C 1.363281 -0.421875 1.296875 -0.273438 1.203125 -0.140625 C 1.109375 -0.015625 0.988281 0.046875 0.84375 0.046875 C 0.570312 0.046875 0.4375 -0.09375 0.4375 -0.375 C 0.4375 -0.488281 0.441406 -0.597656 0.453125 -0.703125 C 0.472656 -0.816406 0.5 -0.957031 0.53125 -1.125 C 0.5625 -1.3125 0.582031 -1.453125 0.59375 -1.546875 C 0.601562 -1.648438 0.609375 -1.757812 0.609375 -1.875 C 0.609375 -1.925781 0.597656 -1.972656 0.578125 -2.015625 C 0.554688 -2.054688 0.523438 -2.078125 0.484375 -2.078125 C 0.429688 -2.078125 0.375 -2.039062 0.3125 -1.96875 C 0.25 -1.894531 0.195312 -1.785156 0.15625 -1.640625 L 0.03125 -1.671875 C 0.0625 -1.816406 0.125 -1.957031 0.21875 -2.09375 C 0.3125 -2.226562 0.4375 -2.296875 0.59375 -2.296875 Z M 0.59375 -2.296875 "/></g></g></g><g fill="#000000" fill-opacity="1"><g transform="translate(87.252, 30.375002)"><g><path d="M 1.015625 -2.296875 C 1.191406 -2.296875 1.347656 -2.253906 1.484375 -2.171875 C 1.617188 -2.085938 1.6875 -1.984375 1.6875 -1.859375 C 1.6875 -1.796875 1.664062 -1.742188 1.625 -1.703125 C 1.59375 -1.671875 1.550781 -1.65625 1.5 -1.65625 C 1.445312 -1.65625 1.398438 -1.671875 1.359375 -1.703125 C 1.328125 -1.742188 1.3125 -1.785156 1.3125 -1.828125 C 1.3125 -1.878906 1.328125 -1.925781 1.359375 -1.96875 C 1.335938 -2.019531 1.296875 -2.0625 1.234375 -2.09375 C 1.179688 -2.132812 1.109375 -2.15625 1.015625 -2.15625 C 0.898438 -2.15625 0.800781 -2.117188 0.71875 -2.046875 C 0.632812 -1.984375 0.59375 -1.898438 0.59375 -1.796875 C 0.59375 -1.710938 0.628906 -1.632812 0.703125 -1.5625 C 0.785156 -1.488281 0.910156 -1.40625 1.078125 -1.3125 C 1.210938 -1.238281 1.320312 -1.171875 1.40625 -1.109375 C 1.488281 -1.046875 1.554688 -0.972656 1.609375 -0.890625 C 1.671875 -0.804688 1.703125 -0.710938 1.703125 -0.609375 C 1.703125 -0.484375 1.664062 -0.367188 1.59375 -0.265625 C 1.519531 -0.171875 1.421875 -0.09375 1.296875 -0.03125 C 1.171875 0.0195312 1.023438 0.046875 0.859375 0.046875 C 0.660156 0.046875 0.488281 0.00390625 0.34375 -0.078125 C 0.207031 -0.171875 0.140625 -0.289062 0.140625 -0.4375 C 0.140625 -0.5 0.15625 -0.550781 0.1875 -0.59375 C 0.226562 -0.632812 0.273438 -0.65625 0.328125 -0.65625 C 0.378906 -0.65625 0.421875 -0.632812 0.453125 -0.59375 C 0.492188 -0.5625 0.515625 -0.519531 0.515625 -0.46875 C 0.515625 -0.414062 0.5 -0.367188 0.46875 -0.328125 C 0.488281 -0.265625 0.535156 -0.210938 0.609375 -0.171875 C 0.679688 -0.128906 0.757812 -0.109375 0.84375 -0.109375 C 1 -0.109375 1.117188 -0.144531 1.203125 -0.21875 C 1.285156 -0.300781 1.328125 -0.410156 1.328125 -0.546875 C 1.328125 -0.640625 1.285156 -0.722656 1.203125 -0.796875 C 1.117188 -0.878906 0.992188 -0.96875 0.828125 -1.0625 C 0.628906 -1.175781 0.484375 -1.273438 0.390625 -1.359375 C 0.296875 -1.453125 0.25 -1.5625 0.25 -1.6875 C 0.25 -1.800781 0.28125 -1.90625 0.34375 -2 C 0.40625 -2.09375 0.492188 -2.164062 0.609375 -2.21875 C 0.734375 -2.269531 0.867188 -2.296875 1.015625 -2.296875 Z M 1.015625 -2.296875 "/></g></g></g><g fill="#000000" fill-opacity="1"><g transform="translate(89.178015, 30.375002)"><g><path d="M 0.890625 -2.25 L 1.609375 -2.25 L 1.59375 -2.078125 L 0.875 -2.0625 L 0.84375 -1.78125 C 0.78125 -1.207031 0.75 -0.804688 0.75 -0.578125 C 0.75 -0.453125 0.757812 -0.351562 0.78125 -0.28125 C 0.8125 -0.21875 0.867188 -0.1875 0.953125 -0.1875 C 1.109375 -0.1875 1.25 -0.289062 1.375 -0.5 L 1.5 -0.421875 C 1.40625 -0.265625 1.304688 -0.144531 1.203125 -0.0625 C 1.109375 0.0078125 0.988281 0.046875 0.84375 0.046875 C 0.6875 0.046875 0.566406 0 0.484375 -0.09375 C 0.410156 -0.195312 0.375 -0.328125 0.375 -0.484375 C 0.375 -0.660156 0.382812 -0.890625 0.40625 -1.171875 C 0.4375 -1.453125 0.46875 -1.75 0.5 -2.0625 L 0.09375 -2.0625 L 0.109375 -2.25 C 0.285156 -2.25 0.429688 -2.300781 0.546875 -2.40625 C 0.660156 -2.507812 0.75 -2.671875 0.8125 -2.890625 L 0.96875 -2.890625 Z M 0.890625 -2.25 "/></g></g></g><g fill="#000000" fill-opacity="1"><g transform="translate(90.816028, 30.375002)"><g><path d="M 1.28125 -2.296875 C 1.445312 -2.296875 1.59375 -2.253906 1.71875 -2.171875 C 1.851562 -2.097656 1.957031 -1.988281 2.03125 -1.84375 C 2.101562 -1.695312 2.140625 -1.519531 2.140625 -1.3125 C 2.140625 -1.0625 2.09375 -0.832031 2 -0.625 C 1.914062 -0.425781 1.789062 -0.265625 1.625 -0.140625 C 1.457031 -0.015625 1.265625 0.046875 1.046875 0.046875 C 0.753906 0.046875 0.535156 -0.046875 0.390625 -0.234375 C 0.242188 -0.421875 0.171875 -0.660156 0.171875 -0.953125 C 0.171875 -1.203125 0.21875 -1.425781 0.3125 -1.625 C 0.40625 -1.832031 0.535156 -1.992188 0.703125 -2.109375 C 0.867188 -2.234375 1.0625 -2.296875 1.28125 -2.296875 Z M 1.21875 -2.140625 C 1.082031 -2.140625 0.960938 -2.085938 0.859375 -1.984375 C 0.765625 -1.890625 0.691406 -1.757812 0.640625 -1.59375 C 0.597656 -1.4375 0.578125 -1.257812 0.578125 -1.0625 C 0.578125 -0.8125 0.613281 -0.59375 0.6875 -0.40625 C 0.769531 -0.21875 0.90625 -0.125 1.09375 -0.125 C 1.238281 -0.125 1.359375 -0.179688 1.453125 -0.296875 C 1.554688 -0.410156 1.628906 -0.550781 1.671875 -0.71875 C 1.722656 -0.894531 1.75 -1.066406 1.75 -1.234375 C 1.75 -1.484375 1.707031 -1.695312 1.625 -1.875 C 1.539062 -2.050781 1.40625 -2.140625 1.21875 -2.140625 Z M 1.015625 -2.703125 L 1.359375 -3.296875 C 1.421875 -3.390625 1.488281 -3.4375 1.5625 -3.4375 C 1.59375 -3.4375 1.617188 -3.421875 1.640625 -3.390625 C 1.671875 -3.367188 1.6875 -3.335938 1.6875 -3.296875 C 1.6875 -3.222656 1.65625 -3.15625 1.59375 -3.09375 L 1.125 -2.609375 Z M 1.015625 -2.703125 "/></g></g></g><g fill="#000000" fill-opacity="1"><g transform="translate(93.160549, 30.375002)"><g><path d="M 1.734375 -2.296875 C 1.828125 -2.296875 1.90625 -2.269531 1.96875 -2.21875 C 2.03125 -2.175781 2.0625 -2.113281 2.0625 -2.03125 C 2.0625 -1.976562 2.039062 -1.929688 2 -1.890625 C 1.957031 -1.847656 1.90625 -1.828125 1.84375 -1.828125 C 1.789062 -1.828125 1.742188 -1.84375 1.703125 -1.875 C 1.671875 -1.90625 1.648438 -1.953125 1.640625 -2.015625 C 1.628906 -2.015625 1.613281 -2.015625 1.59375 -2.015625 C 1.46875 -2.015625 1.34375 -1.910156 1.21875 -1.703125 C 1.101562 -1.503906 1.003906 -1.257812 0.921875 -0.96875 C 0.847656 -0.6875 0.8125 -0.425781 0.8125 -0.1875 C 0.8125 -0.164062 0.816406 -0.101562 0.828125 0 L 0.453125 0 C 0.453125 -0.03125 0.453125 -0.0664062 0.453125 -0.109375 C 0.453125 -0.296875 0.472656 -0.609375 0.515625 -1.046875 L 0.578125 -1.5625 C 0.597656 -1.71875 0.609375 -1.820312 0.609375 -1.875 C 0.609375 -1.9375 0.597656 -1.984375 0.578125 -2.015625 C 0.566406 -2.054688 0.535156 -2.078125 0.484375 -2.078125 C 0.429688 -2.078125 0.375 -2.039062 0.3125 -1.96875 C 0.25 -1.894531 0.195312 -1.785156 0.15625 -1.640625 L 0.03125 -1.671875 C 0.0390625 -1.753906 0.0703125 -1.84375 0.125 -1.9375 C 0.175781 -2.039062 0.242188 -2.125 0.328125 -2.1875 C 0.410156 -2.257812 0.503906 -2.296875 0.609375 -2.296875 C 0.734375 -2.296875 0.816406 -2.257812 0.859375 -2.1875 C 0.910156 -2.113281 0.9375 -2.003906 0.9375 -1.859375 C 0.9375 -1.722656 0.914062 -1.539062 0.875 -1.3125 L 0.890625 -1.3125 C 1.015625 -1.675781 1.144531 -1.929688 1.28125 -2.078125 C 1.425781 -2.222656 1.578125 -2.296875 1.734375 -2.296875 Z M 1.734375 -2.296875 "/></g></g></g><g fill="#000000" fill-opacity="1"><g transform="translate(95.208066, 30.375002)"><g><path d="M 0.859375 -3.265625 C 0.921875 -3.265625 0.972656 -3.238281 1.015625 -3.1875 C 1.066406 -3.144531 1.09375 -3.085938 1.09375 -3.015625 C 1.09375 -2.941406 1.066406 -2.878906 1.015625 -2.828125 C 0.972656 -2.785156 0.914062 -2.765625 0.84375 -2.765625 C 0.78125 -2.765625 0.722656 -2.785156 0.671875 -2.828125 C 0.628906 -2.878906 0.609375 -2.941406 0.609375 -3.015625 C 0.609375 -3.085938 0.628906 -3.144531 0.671875 -3.1875 C 0.722656 -3.238281 0.785156 -3.265625 0.859375 -3.265625 Z M 0.59375 -2.296875 C 0.71875 -2.296875 0.8125 -2.253906 0.875 -2.171875 C 0.9375 -2.085938 0.96875 -1.972656 0.96875 -1.828125 C 0.96875 -1.710938 0.945312 -1.507812 0.90625 -1.21875 C 0.875 -1.03125 0.847656 -0.867188 0.828125 -0.734375 C 0.816406 -0.609375 0.8125 -0.484375 0.8125 -0.359375 C 0.8125 -0.234375 0.851562 -0.171875 0.9375 -0.171875 C 1 -0.171875 1.054688 -0.207031 1.109375 -0.28125 C 1.171875 -0.351562 1.226562 -0.460938 1.28125 -0.609375 L 1.40625 -0.578125 C 1.363281 -0.421875 1.296875 -0.273438 1.203125 -0.140625 C 1.109375 -0.015625 0.988281 0.046875 0.84375 0.046875 C 0.570312 0.046875 0.4375 -0.09375 0.4375 -0.375 C 0.4375 -0.488281 0.441406 -0.597656 0.453125 -0.703125 C 0.472656 -0.816406 0.5 -0.957031 0.53125 -1.125 C 0.5625 -1.3125 0.582031 -1.453125 0.59375 -1.546875 C 0.601562 -1.648438 0.609375 -1.757812 0.609375 -1.875 C 0.609375 -1.925781 0.597656 -1.972656 0.578125 -2.015625 C 0.554688 -2.054688 0.523438 -2.078125 0.484375 -2.078125 C 0.429688 -2.078125 0.375 -2.039062 0.3125 -1.96875 C 0.25 -1.894531 0.195312 -1.785156 0.15625 -1.640625 L 0.03125 -1.671875 C 0.0625 -1.816406 0.125 -1.957031 0.21875 -2.09375 C 0.3125 -2.226562 0.4375 -2.296875 0.59375 -2.296875 Z M 0.59375 -2.296875 "/></g></g></g><g fill="#000000" fill-opacity="1"><g transform="translate(96.66608, 30.375002)"><g><path d="M 1.484375 -2.296875 C 1.679688 -2.296875 1.878906 -2.269531 2.078125 -2.21875 C 1.953125 -1.238281 1.890625 -0.640625 1.890625 -0.421875 C 1.890625 -0.347656 1.894531 -0.285156 1.90625 -0.234375 C 1.925781 -0.191406 1.960938 -0.171875 2.015625 -0.171875 C 2.066406 -0.171875 2.125 -0.207031 2.1875 -0.28125 C 2.25 -0.351562 2.300781 -0.460938 2.34375 -0.609375 L 2.46875 -0.578125 C 2.445312 -0.492188 2.410156 -0.398438 2.359375 -0.296875 C 2.316406 -0.203125 2.253906 -0.117188 2.171875 -0.046875 C 2.085938 0.015625 1.988281 0.046875 1.875 0.046875 C 1.65625 0.046875 1.546875 -0.0859375 1.546875 -0.359375 C 1.546875 -0.484375 1.570312 -0.679688 1.625 -0.953125 L 1.609375 -0.953125 C 1.484375 -0.554688 1.34375 -0.289062 1.1875 -0.15625 C 1.039062 -0.0195312 0.890625 0.046875 0.734375 0.046875 C 0.566406 0.046875 0.429688 -0.015625 0.328125 -0.140625 C 0.222656 -0.265625 0.171875 -0.460938 0.171875 -0.734375 C 0.171875 -1.023438 0.21875 -1.285156 0.3125 -1.515625 C 0.414062 -1.753906 0.566406 -1.941406 0.765625 -2.078125 C 0.960938 -2.222656 1.203125 -2.296875 1.484375 -2.296875 Z M 1.34375 -2.140625 C 1.164062 -2.140625 1.015625 -2.078125 0.890625 -1.953125 C 0.773438 -1.828125 0.6875 -1.660156 0.625 -1.453125 C 0.570312 -1.253906 0.546875 -1.039062 0.546875 -0.8125 C 0.546875 -0.375 0.644531 -0.15625 0.84375 -0.15625 C 0.96875 -0.15625 1.097656 -0.253906 1.234375 -0.453125 C 1.367188 -0.660156 1.476562 -0.914062 1.5625 -1.21875 C 1.644531 -1.53125 1.6875 -1.816406 1.6875 -2.078125 C 1.601562 -2.117188 1.488281 -2.140625 1.34375 -2.140625 Z M 1.34375 -2.140625 "/></g></g></g><g fill="#000000" fill-opacity="1"><g transform="translate(99.132103, 30.375002)"><g><path d="M 0.46875 -0.5 C 0.539062 -0.5 0.597656 -0.472656 0.640625 -0.421875 C 0.679688 -0.367188 0.703125 -0.304688 0.703125 -0.234375 C 0.703125 -0.148438 0.675781 -0.078125 0.625 -0.015625 C 0.570312 0.046875 0.507812 0.078125 0.4375 0.078125 C 0.363281 0.078125 0.300781 0.0507812 0.25 0 C 0.207031 -0.0507812 0.1875 -0.117188 0.1875 -0.203125 C 0.1875 -0.285156 0.210938 -0.351562 0.265625 -0.40625 C 0.328125 -0.46875 0.394531 -0.5 0.46875 -0.5 Z M 0.46875 -0.5 "/></g></g></g><g fill="#000000" fill-opacity="1"><g transform="translate(94.893569, 23.221881)"><g><path d="M 1.65625 -5.203125 L 2.125 -5.203125 L 2.125 1.65625 L 1.65625 1.65625 Z M 1.65625 -5.203125 "/></g></g></g></svg>