<svg xmlns="http://www.w3.org/2000/svg" xmlns:xlink="http://www.w3.org/1999/xlink" width="400" zoomAndPan="magnify" viewBox="0 0 300 97.5" height="130" preserveAspectRatio="xMidYMid meet" version="1.0"><defs><g/><clipPath id="60d7658b5f"><path d="M 16.511719 11.589844 L 90.382812 11.589844 L 90.382812 85.460938 L 16.511719 85.460938 Z M 16.511719 11.589844 " clip-rule="nonzero"/></clipPath></defs><g clip-path="url(#60d7658b5f)"><path fill="#000000" d="M 23.804688 70.558594 C 19.222656 64.40625 16.511719 56.78125 16.511719 48.527344 C 16.511719 28.140625 33.058594 11.589844 53.445312 11.589844 C 73.832031 11.589844 90.382812 28.140625 90.382812 48.527344 C 90.382812 56.78125 87.667969 64.40625 83.085938 70.558594 L 89.9375 70.558594 C 90.183594 70.558594 90.382812 70.757812 90.382812 71.003906 C 90.382812 71.25 90.183594 71.449219 89.9375 71.449219 L 82.402344 71.449219 C 75.632812 79.984375 65.175781 85.460938 53.445312 85.460938 C 41.714844 85.460938 31.257812 79.984375 24.488281 71.449219 L 16.953125 71.449219 C 16.710938 71.449219 16.511719 71.25 16.511719 71.003906 C 16.511719 70.757812 16.710938 70.558594 16.953125 70.558594 Z M 81.96875 70.558594 C 86.6875 64.464844 89.492188 56.820312 89.492188 48.527344 C 89.492188 30.03125 75.53125 14.769531 57.582031 12.714844 L 57.582031 21.757812 L 61.378906 25.269531 C 61.511719 25.394531 61.558594 25.589844 61.492188 25.757812 C 61.425781 25.929688 61.257812 26.042969 61.078125 26.042969 L 53.199219 26.042969 C 53.015625 26.042969 52.851562 25.929688 52.785156 25.757812 C 52.71875 25.589844 52.765625 25.394531 52.898438 25.269531 L 56.695312 21.757812 L 56.695312 12.625 C 55.625 12.527344 54.539062 12.480469 53.445312 12.480469 C 51.890625 12.480469 50.359375 12.578125 48.855469 12.769531 C 48.871094 17.207031 48.871094 21.65625 48.855469 26.113281 C 49.5 26.207031 50.097656 26.503906 50.5625 26.96875 C 51.132812 27.539062 51.453125 28.3125 51.453125 29.121094 L 51.453125 33.414062 C 51.453125 33.660156 51.253906 33.859375 51.007812 33.859375 L 45.816406 33.859375 C 45.570312 33.859375 45.371094 33.660156 45.371094 33.414062 L 45.371094 29.121094 C 45.371094 28.3125 45.691406 27.539062 46.261719 26.96875 C 46.726562 26.503906 47.324219 26.207031 47.96875 26.113281 C 47.984375 21.695312 47.984375 17.289062 47.96875 12.894531 C 43.488281 13.578125 39.273438 15.089844 35.496094 17.265625 L 35.496094 70.558594 L 40.066406 70.558594 L 41.015625 67.613281 L 39.023438 67.613281 C 38.78125 67.613281 38.582031 67.414062 38.582031 67.167969 L 38.582031 54.496094 C 38.582031 54.25 38.78125 54.050781 39.023438 54.050781 L 41.84375 54.050781 L 41.246094 48.824219 C 41.230469 48.695312 41.269531 48.570312 41.355469 48.476562 C 41.4375 48.382812 41.558594 48.328125 41.6875 48.328125 L 42.507812 48.328125 C 42.0625 48.011719 41.707031 47.644531 41.449219 47.21875 C 40.890625 46.316406 40.746094 45.148438 41.132812 43.667969 C 41.191406 43.433594 41.429688 43.292969 41.664062 43.347656 C 42.152344 43.464844 42.585938 43.613281 42.964844 43.792969 C 43.210938 43.28125 43.582031 42.769531 44.089844 42.253906 C 44.257812 42.082031 44.535156 42.078125 44.710938 42.242188 C 45.265625 42.765625 45.667969 43.292969 45.933594 43.808594 C 46.320312 43.625 46.765625 43.46875 47.269531 43.347656 C 47.507812 43.292969 47.742188 43.433594 47.804688 43.667969 C 48.191406 45.148438 48.042969 46.316406 47.488281 47.21875 C 47.226562 47.640625 46.875 48.007812 46.4375 48.320312 L 47.121094 48.320312 C 47.25 48.320312 47.375 48.375 47.457031 48.472656 C 47.542969 48.570312 47.582031 48.703125 47.5625 48.828125 L 46.804688 54.050781 L 59.132812 54.050781 C 59.378906 54.050781 59.578125 54.25 59.578125 54.496094 L 59.578125 67.167969 C 59.578125 67.414062 59.378906 67.613281 59.132812 67.613281 L 57.140625 67.613281 L 58.09375 70.558594 L 62.574219 70.558594 L 64.832031 63.554688 L 62.898438 63.554688 C 62.652344 63.554688 62.453125 63.355469 62.453125 63.109375 C 62.453125 62.867188 62.652344 62.667969 62.898438 62.667969 L 65.433594 62.667969 C 65.4375 62.667969 65.445312 62.667969 65.449219 62.667969 L 71.203125 62.667969 C 71.207031 62.667969 71.214844 62.667969 71.21875 62.667969 L 73.308594 62.667969 L 73.308594 52.96875 C 73.308594 52.722656 73.507812 52.527344 73.753906 52.527344 C 74 52.527344 74.199219 52.722656 74.199219 52.96875 L 74.199219 63.109375 C 74.199219 63.355469 74 63.554688 73.753906 63.554688 L 71.820312 63.554688 L 74.078125 70.558594 L 78.632812 70.558594 L 78.632812 48.28125 L 75.0625 48.285156 C 74.929688 48.285156 74.804688 48.226562 74.71875 48.125 C 74.636719 48.023438 74.601562 47.886719 74.625 47.757812 L 75.855469 41.320312 C 75.894531 41.113281 76.078125 40.960938 76.289062 40.960938 L 82.132812 40.960938 C 82.351562 40.960938 82.539062 41.121094 82.570312 41.339844 L 83.535156 47.765625 C 83.554688 47.894531 83.515625 48.023438 83.433594 48.121094 C 83.347656 48.21875 83.226562 48.277344 83.09375 48.277344 L 79.523438 48.28125 L 79.523438 70.558594 Z M 66.652344 34.9375 L 66.652344 44.851562 C 66.652344 45.097656 66.453125 45.296875 66.207031 45.296875 L 58.171875 45.296875 C 57.929688 45.296875 57.730469 45.097656 57.730469 44.851562 L 57.730469 34.9375 C 57.730469 34.691406 57.929688 34.492188 58.171875 34.492188 L 66.207031 34.492188 C 66.453125 34.492188 66.652344 34.691406 66.652344 34.9375 Z M 65.761719 35.378906 L 58.617188 35.378906 L 58.617188 44.40625 L 65.761719 44.40625 Z M 64.4375 37.042969 L 64.4375 42.746094 C 64.4375 42.992188 64.238281 43.191406 63.992188 43.191406 L 60.386719 43.191406 C 60.140625 43.191406 59.941406 42.992188 59.941406 42.746094 L 59.941406 37.042969 C 59.941406 36.796875 60.140625 36.597656 60.386719 36.597656 L 63.992188 36.597656 C 64.238281 36.597656 64.4375 36.796875 64.4375 37.042969 Z M 63.550781 37.484375 L 60.832031 37.484375 L 60.832031 42.300781 L 63.550781 42.300781 Z M 28.574219 22.445312 C 27.835938 23.148438 27.125 23.886719 26.445312 24.652344 L 26.445312 70.558594 L 28.574219 70.558594 Z M 25.558594 25.695312 C 24.804688 26.617188 24.09375 27.574219 23.429688 28.570312 L 23.429688 68.484375 C 23.902344 69.195312 24.402344 69.886719 24.921875 70.558594 L 25.558594 70.558594 Z M 34.605469 17.796875 C 33.878906 18.242188 33.171875 18.714844 32.476562 19.210938 L 32.476562 70.558594 L 34.605469 70.558594 Z M 31.589844 19.867188 C 30.859375 20.425781 30.148438 21.011719 29.460938 21.625 L 29.460938 70.558594 L 31.589844 70.558594 Z M 22.542969 29.96875 C 21.75 31.289062 21.035156 32.660156 20.414062 34.082031 L 20.414062 62.972656 C 21.035156 64.394531 21.75 65.765625 22.542969 67.082031 Z M 19.527344 36.304688 C 18.148438 40.121094 17.398438 44.238281 17.398438 48.527344 C 17.398438 52.816406 18.148438 56.929688 19.527344 60.746094 Z M 25.632812 71.449219 C 32.246094 79.460938 42.253906 84.574219 53.445312 84.574219 C 64.636719 84.574219 74.644531 79.460938 81.257812 71.449219 L 73.761719 71.449219 C 73.757812 71.449219 73.75 71.449219 73.746094 71.449219 L 62.90625 71.449219 C 62.902344 71.449219 62.894531 71.449219 62.890625 71.449219 L 57.777344 71.449219 C 57.773438 71.449219 57.765625 71.449219 57.761719 71.449219 L 40.398438 71.449219 C 40.390625 71.449219 40.386719 71.449219 40.378906 71.449219 Z M 48.410156 26.96875 C 47.839844 26.96875 47.292969 27.195312 46.890625 27.597656 C 46.484375 28 46.257812 28.550781 46.257812 29.121094 L 46.257812 32.96875 C 46.257812 32.96875 50.5625 32.96875 50.5625 32.96875 L 50.5625 29.121094 C 50.5625 28.550781 50.335938 28 49.933594 27.597656 C 49.53125 27.195312 48.980469 26.96875 48.410156 26.96875 Z M 42.734375 54.042969 L 45.90625 54.042969 L 46.609375 49.210938 L 42.183594 49.214844 Z M 59.941406 25.152344 L 57.136719 22.554688 L 54.332031 25.152344 Z M 45.171875 44.269531 C 45 43.917969 44.75 43.566406 44.417969 43.207031 C 44.117188 43.554688 43.886719 43.902344 43.730469 44.246094 C 44.023438 44.464844 44.269531 44.707031 44.46875 44.96875 C 44.660156 44.714844 44.894531 44.480469 45.171875 44.269531 Z M 45.359375 47.9375 C 45.964844 47.632812 46.429688 47.246094 46.730469 46.753906 C 47.125 46.117188 47.230469 45.316406 47.042969 44.328125 C 46.75 44.417969 46.488281 44.523438 46.25 44.644531 C 46.328125 44.949219 46.359375 45.25 46.347656 45.550781 C 46.320312 46.367188 45.980469 47.167969 45.359375 47.9375 Z M 41.949219 67.613281 L 41 70.558594 L 57.160156 70.558594 L 56.210938 67.613281 Z M 79.101562 47.390625 L 82.578125 47.390625 L 81.75 41.847656 L 76.65625 41.847656 C 76.65625 41.847656 75.597656 47.394531 75.597656 47.394531 L 79.054688 47.390625 C 79.0625 47.390625 79.070312 47.390625 79.078125 47.390625 C 79.085938 47.390625 79.09375 47.390625 79.101562 47.390625 Z M 43.988281 45.878906 C 43.976562 45.855469 43.964844 45.832031 43.953125 45.808594 C 43.832031 45.585938 43.675781 45.378906 43.480469 45.191406 C 43.472656 45.28125 43.472656 45.371094 43.472656 45.460938 C 43.488281 45.886719 43.601562 46.308594 43.8125 46.726562 C 43.839844 46.429688 43.898438 46.144531 43.988281 45.878906 Z M 45.121094 46.710938 C 45.328125 46.320312 45.445312 45.925781 45.460938 45.519531 C 45.464844 45.414062 45.460938 45.304688 45.449219 45.195312 C 45.257812 45.382812 45.101562 45.585938 44.980469 45.808594 C 44.96875 45.832031 44.957031 45.855469 44.949219 45.878906 C 45.035156 46.140625 45.09375 46.417969 45.121094 46.710938 Z M 42.667969 44.636719 C 42.4375 44.519531 42.175781 44.417969 41.890625 44.328125 C 41.707031 45.316406 41.8125 46.117188 42.203125 46.753906 C 42.492188 47.21875 42.925781 47.59375 43.484375 47.890625 C 42.917969 47.097656 42.609375 46.292969 42.585938 45.488281 C 42.578125 45.203125 42.605469 44.921875 42.667969 44.636719 Z M 65.765625 63.554688 L 63.507812 70.558594 L 73.144531 70.558594 L 70.886719 63.554688 Z M 39.46875 61.277344 L 39.46875 66.722656 L 56.523438 66.722656 C 56.53125 66.722656 56.535156 66.722656 56.542969 66.722656 L 58.6875 66.722656 L 58.6875 61.277344 Z M 49.289062 63.550781 C 49.539062 63.550781 49.738281 63.75 49.738281 64 C 49.738281 64.246094 49.539062 64.449219 49.289062 64.449219 L 48.867188 64.449219 C 48.621094 64.449219 48.417969 64.246094 48.417969 64 C 48.417969 63.75 48.621094 63.550781 48.867188 63.550781 Z M 58.6875 60.386719 L 58.6875 54.941406 L 39.46875 54.941406 L 39.46875 60.386719 Z M 49.289062 57.214844 C 49.539062 57.214844 49.738281 57.414062 49.738281 57.664062 C 49.738281 57.910156 49.539062 58.113281 49.289062 58.113281 L 48.867188 58.113281 C 48.621094 58.113281 48.417969 57.910156 48.417969 57.664062 C 48.417969 57.414062 48.621094 57.214844 48.867188 57.214844 Z M 49.289062 57.214844 " fill-opacity="1" fill-rule="evenodd"/></g><g fill="#000000" fill-opacity="1"><g transform="translate(95.918831, 48.808298)"><g><path d="M 6.234375 0.234375 C 5.128906 0.234375 4.0625 0.0859375 3.03125 -0.203125 C 2.007812 -0.503906 1.1875 -0.894531 0.5625 -1.375 L 1.65625 -3.8125 C 2.25 -3.375 2.957031 -3.019531 3.78125 -2.75 C 4.613281 -2.488281 5.441406 -2.359375 6.265625 -2.359375 C 7.179688 -2.359375 7.859375 -2.492188 8.296875 -2.765625 C 8.734375 -3.035156 8.953125 -3.394531 8.953125 -3.84375 C 8.953125 -4.175781 8.820312 -4.453125 8.5625 -4.671875 C 8.300781 -4.890625 7.96875 -5.066406 7.5625 -5.203125 C 7.15625 -5.335938 6.609375 -5.484375 5.921875 -5.640625 C 4.859375 -5.890625 3.988281 -6.140625 3.3125 -6.390625 C 2.632812 -6.648438 2.050781 -7.054688 1.5625 -7.609375 C 1.082031 -8.171875 0.84375 -8.914062 0.84375 -9.84375 C 0.84375 -10.65625 1.0625 -11.390625 1.5 -12.046875 C 1.9375 -12.710938 2.597656 -13.238281 3.484375 -13.625 C 4.367188 -14.007812 5.445312 -14.203125 6.71875 -14.203125 C 7.613281 -14.203125 8.484375 -14.09375 9.328125 -13.875 C 10.179688 -13.664062 10.925781 -13.359375 11.5625 -12.953125 L 10.5625 -10.5 C 9.28125 -11.238281 7.992188 -11.609375 6.703125 -11.609375 C 5.796875 -11.609375 5.125 -11.457031 4.6875 -11.15625 C 4.257812 -10.863281 4.046875 -10.484375 4.046875 -10.015625 C 4.046875 -9.535156 4.296875 -9.175781 4.796875 -8.9375 C 5.296875 -8.707031 6.054688 -8.476562 7.078125 -8.25 C 8.140625 -8 9.007812 -7.75 9.6875 -7.5 C 10.363281 -7.25 10.941406 -6.847656 11.421875 -6.296875 C 11.910156 -5.753906 12.15625 -5.019531 12.15625 -4.09375 C 12.15625 -3.289062 11.929688 -2.5625 11.484375 -1.90625 C 11.046875 -1.25 10.378906 -0.726562 9.484375 -0.34375 C 8.597656 0.0390625 7.515625 0.234375 6.234375 0.234375 Z M 6.234375 0.234375 "/></g></g></g><g fill="#000000" fill-opacity="1"><g transform="translate(108.637867, 48.808298)"><g><path d="M 5.765625 -10.890625 C 7.421875 -10.890625 8.691406 -10.492188 9.578125 -9.703125 C 10.472656 -8.910156 10.921875 -7.71875 10.921875 -6.125 L 10.921875 0 L 8.015625 0 L 8.015625 -1.328125 C 7.429688 -0.335938 6.34375 0.15625 4.75 0.15625 C 3.925781 0.15625 3.207031 0.0195312 2.59375 -0.25 C 1.988281 -0.53125 1.523438 -0.914062 1.203125 -1.40625 C 0.890625 -1.90625 0.734375 -2.46875 0.734375 -3.09375 C 0.734375 -4.082031 1.109375 -4.863281 1.859375 -5.4375 C 2.609375 -6.007812 3.769531 -6.296875 5.34375 -6.296875 L 7.8125 -6.296875 C 7.8125 -6.972656 7.601562 -7.492188 7.1875 -7.859375 C 6.78125 -8.222656 6.164062 -8.40625 5.34375 -8.40625 C 4.769531 -8.40625 4.207031 -8.316406 3.65625 -8.140625 C 3.101562 -7.960938 2.632812 -7.722656 2.25 -7.421875 L 1.140625 -9.59375 C 1.722656 -10 2.421875 -10.316406 3.234375 -10.546875 C 4.054688 -10.773438 4.898438 -10.890625 5.765625 -10.890625 Z M 5.515625 -1.9375 C 6.046875 -1.9375 6.519531 -2.054688 6.9375 -2.296875 C 7.351562 -2.546875 7.644531 -2.910156 7.8125 -3.390625 L 7.8125 -4.484375 L 5.6875 -4.484375 C 4.40625 -4.484375 3.765625 -4.066406 3.765625 -3.234375 C 3.765625 -2.828125 3.921875 -2.507812 4.234375 -2.28125 C 4.546875 -2.050781 4.972656 -1.9375 5.515625 -1.9375 Z M 5.515625 -1.9375 "/></g></g></g><g fill="#000000" fill-opacity="1"><g transform="translate(120.938254, 48.808298)"><g><path d="M 7.953125 -10.890625 C 9.285156 -10.890625 10.359375 -10.488281 11.171875 -9.6875 C 11.992188 -8.894531 12.40625 -7.710938 12.40625 -6.140625 L 12.40625 0 L 9.296875 0 L 9.296875 -5.65625 C 9.296875 -6.507812 9.109375 -7.144531 8.734375 -7.5625 C 8.359375 -7.976562 7.820312 -8.1875 7.125 -8.1875 C 6.332031 -8.1875 5.703125 -7.941406 5.234375 -7.453125 C 4.773438 -6.972656 4.546875 -6.253906 4.546875 -5.296875 L 4.546875 0 L 1.4375 0 L 1.4375 -10.71875 L 4.40625 -10.71875 L 4.40625 -9.46875 C 4.820312 -9.914062 5.332031 -10.265625 5.9375 -10.515625 C 6.550781 -10.765625 7.222656 -10.890625 7.953125 -10.890625 Z M 7.953125 -10.890625 "/></g></g></g><g fill="#000000" fill-opacity="1"><g transform="translate(134.713888, 48.808298)"><g><path d="M 8.359375 -0.515625 C 8.046875 -0.285156 7.664062 -0.113281 7.21875 0 C 6.78125 0.101562 6.316406 0.15625 5.828125 0.15625 C 4.546875 0.15625 3.554688 -0.164062 2.859375 -0.8125 C 2.160156 -1.46875 1.8125 -2.425781 1.8125 -3.6875 L 1.8125 -8.09375 L 0.15625 -8.09375 L 0.15625 -10.484375 L 1.8125 -10.484375 L 1.8125 -13.09375 L 4.921875 -13.09375 L 4.921875 -10.484375 L 7.59375 -10.484375 L 7.59375 -8.09375 L 4.921875 -8.09375 L 4.921875 -3.734375 C 4.921875 -3.273438 5.035156 -2.921875 5.265625 -2.671875 C 5.503906 -2.429688 5.835938 -2.3125 6.265625 -2.3125 C 6.753906 -2.3125 7.171875 -2.445312 7.515625 -2.71875 Z M 8.359375 -0.515625 "/></g></g></g><g fill="#000000" fill-opacity="1"><g transform="translate(143.38596, 48.808298)"><g><path d="M 5.765625 -10.890625 C 7.421875 -10.890625 8.691406 -10.492188 9.578125 -9.703125 C 10.472656 -8.910156 10.921875 -7.71875 10.921875 -6.125 L 10.921875 0 L 8.015625 0 L 8.015625 -1.328125 C 7.429688 -0.335938 6.34375 0.15625 4.75 0.15625 C 3.925781 0.15625 3.207031 0.0195312 2.59375 -0.25 C 1.988281 -0.53125 1.523438 -0.914062 1.203125 -1.40625 C 0.890625 -1.90625 0.734375 -2.46875 0.734375 -3.09375 C 0.734375 -4.082031 1.109375 -4.863281 1.859375 -5.4375 C 2.609375 -6.007812 3.769531 -6.296875 5.34375 -6.296875 L 7.8125 -6.296875 C 7.8125 -6.972656 7.601562 -7.492188 7.1875 -7.859375 C 6.78125 -8.222656 6.164062 -8.40625 5.34375 -8.40625 C 4.769531 -8.40625 4.207031 -8.316406 3.65625 -8.140625 C 3.101562 -7.960938 2.632812 -7.722656 2.25 -7.421875 L 1.140625 -9.59375 C 1.722656 -10 2.421875 -10.316406 3.234375 -10.546875 C 4.054688 -10.773438 4.898438 -10.890625 5.765625 -10.890625 Z M 5.515625 -1.9375 C 6.046875 -1.9375 6.519531 -2.054688 6.9375 -2.296875 C 7.351562 -2.546875 7.644531 -2.910156 7.8125 -3.390625 L 7.8125 -4.484375 L 5.6875 -4.484375 C 4.40625 -4.484375 3.765625 -4.066406 3.765625 -3.234375 C 3.765625 -2.828125 3.921875 -2.507812 4.234375 -2.28125 C 4.546875 -2.050781 4.972656 -1.9375 5.515625 -1.9375 Z M 5.515625 -1.9375 "/></g></g></g><g fill="#000000" fill-opacity="1"><g transform="translate(155.686348, 48.808298)"><g><path d="M 7.953125 -10.890625 C 9.285156 -10.890625 10.359375 -10.488281 11.171875 -9.6875 C 11.992188 -8.894531 12.40625 -7.710938 12.40625 -6.140625 L 12.40625 0 L 9.296875 0 L 9.296875 -5.65625 C 9.296875 -6.507812 9.109375 -7.144531 8.734375 -7.5625 C 8.359375 -7.976562 7.820312 -8.1875 7.125 -8.1875 C 6.332031 -8.1875 5.703125 -7.941406 5.234375 -7.453125 C 4.773438 -6.972656 4.546875 -6.253906 4.546875 -5.296875 L 4.546875 0 L 1.4375 0 L 1.4375 -10.71875 L 4.40625 -10.71875 L 4.40625 -9.46875 C 4.820312 -9.914062 5.332031 -10.265625 5.9375 -10.515625 C 6.550781 -10.765625 7.222656 -10.890625 7.953125 -10.890625 Z M 7.953125 -10.890625 "/></g></g></g><g fill="#000000" fill-opacity="1"><g transform="translate(169.461982, 48.808298)"><g><path d="M 5.765625 -10.890625 C 7.421875 -10.890625 8.691406 -10.492188 9.578125 -9.703125 C 10.472656 -8.910156 10.921875 -7.71875 10.921875 -6.125 L 10.921875 0 L 8.015625 0 L 8.015625 -1.328125 C 7.429688 -0.335938 6.34375 0.15625 4.75 0.15625 C 3.925781 0.15625 3.207031 0.0195312 2.59375 -0.25 C 1.988281 -0.53125 1.523438 -0.914062 1.203125 -1.40625 C 0.890625 -1.90625 0.734375 -2.46875 0.734375 -3.09375 C 0.734375 -4.082031 1.109375 -4.863281 1.859375 -5.4375 C 2.609375 -6.007812 3.769531 -6.296875 5.34375 -6.296875 L 7.8125 -6.296875 C 7.8125 -6.972656 7.601562 -7.492188 7.1875 -7.859375 C 6.78125 -8.222656 6.164062 -8.40625 5.34375 -8.40625 C 4.769531 -8.40625 4.207031 -8.316406 3.65625 -8.140625 C 3.101562 -7.960938 2.632812 -7.722656 2.25 -7.421875 L 1.140625 -9.59375 C 1.722656 -10 2.421875 -10.316406 3.234375 -10.546875 C 4.054688 -10.773438 4.898438 -10.890625 5.765625 -10.890625 Z M 5.515625 -1.9375 C 6.046875 -1.9375 6.519531 -2.054688 6.9375 -2.296875 C 7.351562 -2.546875 7.644531 -2.910156 7.8125 -3.390625 L 7.8125 -4.484375 L 5.6875 -4.484375 C 4.40625 -4.484375 3.765625 -4.066406 3.765625 -3.234375 C 3.765625 -2.828125 3.921875 -2.507812 4.234375 -2.28125 C 4.546875 -2.050781 4.972656 -1.9375 5.515625 -1.9375 Z M 5.515625 -1.9375 "/></g></g></g><g fill="#000000" fill-opacity="1"><g transform="translate(188.967416, 47.65888)"><g><path d="M 8.375 -6.96875 L 8.375 0 L 7.65625 0 L 7.65625 -5.578125 L 4.921875 -0.890625 L 4.578125 -0.890625 L 1.84375 -5.546875 L 1.84375 0 L 1.140625 0 L 1.140625 -6.96875 L 1.734375 -6.96875 L 4.765625 -1.796875 L 7.765625 -6.96875 Z M 8.375 -6.96875 "/></g></g></g><g fill="#000000" fill-opacity="1"><g transform="translate(198.464948, 47.65888)"><g><path d="M 3.125 0.046875 C 2.625 0.046875 2.171875 -0.0664062 1.765625 -0.296875 C 1.359375 -0.523438 1.035156 -0.835938 0.796875 -1.234375 C 0.566406 -1.640625 0.453125 -2.101562 0.453125 -2.625 C 0.453125 -3.132812 0.566406 -3.585938 0.796875 -3.984375 C 1.035156 -4.390625 1.359375 -4.707031 1.765625 -4.9375 C 2.171875 -5.164062 2.625 -5.28125 3.125 -5.28125 C 3.625 -5.28125 4.078125 -5.164062 4.484375 -4.9375 C 4.890625 -4.707031 5.207031 -4.390625 5.4375 -3.984375 C 5.664062 -3.585938 5.78125 -3.132812 5.78125 -2.625 C 5.78125 -2.101562 5.664062 -1.640625 5.4375 -1.234375 C 5.207031 -0.835938 4.890625 -0.523438 4.484375 -0.296875 C 4.078125 -0.0664062 3.625 0.046875 3.125 0.046875 Z M 3.125 -0.578125 C 3.5 -0.578125 3.832031 -0.660156 4.125 -0.828125 C 4.414062 -0.992188 4.644531 -1.234375 4.8125 -1.546875 C 4.976562 -1.859375 5.0625 -2.21875 5.0625 -2.625 C 5.0625 -3.019531 4.976562 -3.375 4.8125 -3.6875 C 4.644531 -4 4.414062 -4.238281 4.125 -4.40625 C 3.832031 -4.570312 3.5 -4.65625 3.125 -4.65625 C 2.75 -4.65625 2.414062 -4.570312 2.125 -4.40625 C 1.832031 -4.238281 1.597656 -4 1.421875 -3.6875 C 1.253906 -3.375 1.171875 -3.019531 1.171875 -2.625 C 1.171875 -2.21875 1.253906 -1.859375 1.421875 -1.546875 C 1.597656 -1.234375 1.832031 -0.992188 2.125 -0.828125 C 2.414062 -0.660156 2.75 -0.578125 3.125 -0.578125 Z M 3.828125 -7.296875 L 4.765625 -7.296875 L 3.15625 -6.0625 L 2.453125 -6.0625 Z M 3.828125 -7.296875 "/></g></g></g><g fill="#000000" fill-opacity="1"><g transform="translate(204.700499, 47.65888)"><g><path d="M 5.390625 -5.234375 L 3.0625 0 L 2.328125 0 L 0.015625 -5.234375 L 0.75 -5.234375 L 2.703125 -0.78125 L 4.6875 -5.234375 Z M 5.390625 -5.234375 "/></g></g></g><g fill="#000000" fill-opacity="1"><g transform="translate(210.090718, 47.65888)"><g><path d="M 5.546875 -2.40625 L 1.171875 -2.40625 C 1.203125 -1.851562 1.40625 -1.410156 1.78125 -1.078125 C 2.164062 -0.742188 2.644531 -0.578125 3.21875 -0.578125 C 3.550781 -0.578125 3.851562 -0.632812 4.125 -0.75 C 4.394531 -0.863281 4.628906 -1.035156 4.828125 -1.265625 L 5.21875 -0.8125 C 4.988281 -0.53125 4.695312 -0.316406 4.34375 -0.171875 C 4 -0.0234375 3.617188 0.046875 3.203125 0.046875 C 2.671875 0.046875 2.195312 -0.0664062 1.78125 -0.296875 C 1.363281 -0.523438 1.035156 -0.835938 0.796875 -1.234375 C 0.566406 -1.640625 0.453125 -2.101562 0.453125 -2.625 C 0.453125 -3.132812 0.5625 -3.585938 0.78125 -3.984375 C 1.007812 -4.390625 1.316406 -4.707031 1.703125 -4.9375 C 2.097656 -5.164062 2.535156 -5.28125 3.015625 -5.28125 C 3.503906 -5.28125 3.9375 -5.164062 4.3125 -4.9375 C 4.695312 -4.707031 5 -4.390625 5.21875 -3.984375 C 5.4375 -3.585938 5.546875 -3.132812 5.546875 -2.625 Z M 3.015625 -4.671875 C 2.515625 -4.671875 2.09375 -4.507812 1.75 -4.1875 C 1.40625 -3.863281 1.210938 -3.441406 1.171875 -2.921875 L 4.875 -2.921875 C 4.832031 -3.441406 4.640625 -3.863281 4.296875 -4.1875 C 3.953125 -4.507812 3.523438 -4.671875 3.015625 -4.671875 Z M 3.015625 -4.671875 "/></g></g></g><g fill="#000000" fill-opacity="1"><g transform="translate(216.097531, 47.65888)"><g><path d="M 0.984375 -5.234375 L 1.6875 -5.234375 L 1.6875 0 L 0.984375 0 Z M 1.34375 -6.375 C 1.195312 -6.375 1.070312 -6.421875 0.96875 -6.515625 C 0.875 -6.617188 0.828125 -6.742188 0.828125 -6.890625 C 0.828125 -7.023438 0.875 -7.140625 0.96875 -7.234375 C 1.070312 -7.335938 1.195312 -7.390625 1.34375 -7.390625 C 1.488281 -7.390625 1.609375 -7.335938 1.703125 -7.234375 C 1.804688 -7.140625 1.859375 -7.023438 1.859375 -6.890625 C 1.859375 -6.742188 1.804688 -6.617188 1.703125 -6.515625 C 1.609375 -6.421875 1.488281 -6.375 1.34375 -6.375 Z M 1.34375 -6.375 "/></g></g></g><g fill="#000000" fill-opacity="1"><g transform="translate(218.77275, 47.65888)"><g><path d="M 2.390625 0.046875 C 1.960938 0.046875 1.554688 -0.0078125 1.171875 -0.125 C 0.785156 -0.25 0.484375 -0.40625 0.265625 -0.59375 L 0.578125 -1.15625 C 0.796875 -0.976562 1.070312 -0.832031 1.40625 -0.71875 C 1.738281 -0.613281 2.082031 -0.5625 2.4375 -0.5625 C 2.914062 -0.5625 3.269531 -0.632812 3.5 -0.78125 C 3.726562 -0.9375 3.84375 -1.148438 3.84375 -1.421875 C 3.84375 -1.617188 3.78125 -1.769531 3.65625 -1.875 C 3.53125 -1.988281 3.367188 -2.070312 3.171875 -2.125 C 2.984375 -2.175781 2.726562 -2.234375 2.40625 -2.296875 C 1.976562 -2.367188 1.632812 -2.445312 1.375 -2.53125 C 1.125 -2.613281 0.90625 -2.753906 0.71875 -2.953125 C 0.539062 -3.148438 0.453125 -3.425781 0.453125 -3.78125 C 0.453125 -4.21875 0.632812 -4.578125 1 -4.859375 C 1.363281 -5.140625 1.867188 -5.28125 2.515625 -5.28125 C 2.859375 -5.28125 3.195312 -5.234375 3.53125 -5.140625 C 3.875 -5.046875 4.15625 -4.925781 4.375 -4.78125 L 4.0625 -4.21875 C 3.625 -4.519531 3.109375 -4.671875 2.515625 -4.671875 C 2.066406 -4.671875 1.726562 -4.585938 1.5 -4.421875 C 1.269531 -4.265625 1.15625 -4.054688 1.15625 -3.796875 C 1.15625 -3.597656 1.21875 -3.4375 1.34375 -3.3125 C 1.476562 -3.195312 1.640625 -3.109375 1.828125 -3.046875 C 2.023438 -2.992188 2.289062 -2.941406 2.625 -2.890625 C 3.039062 -2.804688 3.375 -2.722656 3.625 -2.640625 C 3.882812 -2.566406 4.101562 -2.429688 4.28125 -2.234375 C 4.457031 -2.046875 4.546875 -1.78125 4.546875 -1.4375 C 4.546875 -0.976562 4.351562 -0.613281 3.96875 -0.34375 C 3.59375 -0.0820312 3.066406 0.046875 2.390625 0.046875 Z M 2.390625 0.046875 "/></g></g></g><g fill="#000000" fill-opacity="1"><g transform="translate(223.635879, 47.65888)"><g/></g></g><g fill="#000000" fill-opacity="1"><g transform="translate(226.241486, 47.65888)"><g><path d="M 3.75 -6.96875 C 4.632812 -6.96875 5.328125 -6.753906 5.828125 -6.328125 C 6.335938 -5.898438 6.59375 -5.316406 6.59375 -4.578125 C 6.59375 -3.835938 6.335938 -3.253906 5.828125 -2.828125 C 5.328125 -2.410156 4.632812 -2.203125 3.75 -2.203125 L 1.875 -2.203125 L 1.875 0 L 1.140625 0 L 1.140625 -6.96875 Z M 3.71875 -2.84375 C 4.40625 -2.84375 4.929688 -2.992188 5.296875 -3.296875 C 5.671875 -3.597656 5.859375 -4.023438 5.859375 -4.578125 C 5.859375 -5.140625 5.671875 -5.570312 5.296875 -5.875 C 4.929688 -6.175781 4.40625 -6.328125 3.71875 -6.328125 L 1.875 -6.328125 L 1.875 -2.84375 Z M 3.71875 -2.84375 "/></g></g></g><g fill="#000000" fill-opacity="1"><g transform="translate(233.382041, 47.65888)"><g><path d="M 0.984375 -7.390625 L 1.6875 -7.390625 L 1.6875 0 L 0.984375 0 Z M 0.984375 -7.390625 "/></g></g></g><g fill="#000000" fill-opacity="1"><g transform="translate(236.05726, 47.65888)"><g><path d="M 2.8125 -5.28125 C 3.5 -5.28125 4.023438 -5.109375 4.390625 -4.765625 C 4.753906 -4.421875 4.9375 -3.914062 4.9375 -3.25 L 4.9375 0 L 4.265625 0 L 4.265625 -0.8125 C 4.097656 -0.539062 3.859375 -0.328125 3.546875 -0.171875 C 3.242188 -0.0234375 2.878906 0.046875 2.453125 0.046875 C 1.867188 0.046875 1.40625 -0.0859375 1.0625 -0.359375 C 0.71875 -0.640625 0.546875 -1.007812 0.546875 -1.46875 C 0.546875 -1.914062 0.707031 -2.273438 1.03125 -2.546875 C 1.351562 -2.816406 1.863281 -2.953125 2.5625 -2.953125 L 4.234375 -2.953125 L 4.234375 -3.28125 C 4.234375 -3.726562 4.101562 -4.066406 3.84375 -4.296875 C 3.59375 -4.535156 3.226562 -4.65625 2.75 -4.65625 C 2.414062 -4.65625 2.09375 -4.597656 1.78125 -4.484375 C 1.476562 -4.378906 1.21875 -4.234375 1 -4.046875 L 0.6875 -4.5625 C 0.945312 -4.789062 1.265625 -4.96875 1.640625 -5.09375 C 2.015625 -5.21875 2.40625 -5.28125 2.8125 -5.28125 Z M 2.5625 -0.5 C 2.96875 -0.5 3.3125 -0.59375 3.59375 -0.78125 C 3.875 -0.96875 4.085938 -1.234375 4.234375 -1.578125 L 4.234375 -2.421875 L 2.59375 -2.421875 C 1.695312 -2.421875 1.25 -2.113281 1.25 -1.5 C 1.25 -1.1875 1.363281 -0.941406 1.59375 -0.765625 C 1.820312 -0.585938 2.144531 -0.5 2.5625 -0.5 Z M 2.5625 -0.5 "/></g></g></g><g fill="#000000" fill-opacity="1"><g transform="translate(241.924848, 47.65888)"><g><path d="M 3.65625 -5.28125 C 4.3125 -5.28125 4.832031 -5.085938 5.21875 -4.703125 C 5.601562 -4.316406 5.796875 -3.757812 5.796875 -3.03125 L 5.796875 0 L 5.09375 0 L 5.09375 -2.96875 C 5.09375 -3.507812 4.957031 -3.921875 4.6875 -4.203125 C 4.414062 -4.492188 4.023438 -4.640625 3.515625 -4.640625 C 2.953125 -4.640625 2.503906 -4.472656 2.171875 -4.140625 C 1.847656 -3.804688 1.6875 -3.34375 1.6875 -2.75 L 1.6875 0 L 0.984375 0 L 0.984375 -5.234375 L 1.65625 -5.234375 L 1.65625 -4.265625 C 1.851562 -4.585938 2.117188 -4.835938 2.453125 -5.015625 C 2.796875 -5.191406 3.195312 -5.28125 3.65625 -5.28125 Z M 3.65625 -5.28125 "/></g></g></g><g fill="#000000" fill-opacity="1"><g transform="translate(248.657647, 47.65888)"><g><path d="M 5.546875 -2.40625 L 1.171875 -2.40625 C 1.203125 -1.851562 1.40625 -1.410156 1.78125 -1.078125 C 2.164062 -0.742188 2.644531 -0.578125 3.21875 -0.578125 C 3.550781 -0.578125 3.851562 -0.632812 4.125 -0.75 C 4.394531 -0.863281 4.628906 -1.035156 4.828125 -1.265625 L 5.21875 -0.8125 C 4.988281 -0.53125 4.695312 -0.316406 4.34375 -0.171875 C 4 -0.0234375 3.617188 0.046875 3.203125 0.046875 C 2.671875 0.046875 2.195312 -0.0664062 1.78125 -0.296875 C 1.363281 -0.523438 1.035156 -0.835938 0.796875 -1.234375 C 0.566406 -1.640625 0.453125 -2.101562 0.453125 -2.625 C 0.453125 -3.132812 0.5625 -3.585938 0.78125 -3.984375 C 1.007812 -4.390625 1.316406 -4.707031 1.703125 -4.9375 C 2.097656 -5.164062 2.535156 -5.28125 3.015625 -5.28125 C 3.503906 -5.28125 3.9375 -5.164062 4.3125 -4.9375 C 4.695312 -4.707031 5 -4.390625 5.21875 -3.984375 C 5.4375 -3.585938 5.546875 -3.132812 5.546875 -2.625 Z M 3.015625 -4.671875 C 2.515625 -4.671875 2.09375 -4.507812 1.75 -4.1875 C 1.40625 -3.863281 1.210938 -3.441406 1.171875 -2.921875 L 4.875 -2.921875 C 4.832031 -3.441406 4.640625 -3.863281 4.296875 -4.1875 C 3.953125 -4.507812 3.523438 -4.671875 3.015625 -4.671875 Z M 3.015625 -4.671875 "/></g></g></g><g fill="#000000" fill-opacity="1"><g transform="translate(254.664459, 47.65888)"><g><path d="M 0.203125 1.984375 C -0.015625 1.984375 -0.21875 1.953125 -0.40625 1.890625 C -0.601562 1.835938 -0.765625 1.753906 -0.890625 1.640625 L -0.640625 1.109375 C -0.441406 1.285156 -0.171875 1.375 0.171875 1.375 C 0.453125 1.375 0.664062 1.289062 0.8125 1.125 C 0.957031 0.957031 1.03125 0.710938 1.03125 0.390625 L 1.03125 -5.234375 L 1.734375 -5.234375 L 1.734375 0.390625 C 1.734375 0.878906 1.601562 1.265625 1.34375 1.546875 C 1.082031 1.835938 0.703125 1.984375 0.203125 1.984375 Z M 1.390625 -6.390625 C 1.242188 -6.390625 1.117188 -6.4375 1.015625 -6.53125 C 0.921875 -6.632812 0.875 -6.757812 0.875 -6.90625 C 0.875 -7.039062 0.921875 -7.15625 1.015625 -7.25 C 1.117188 -7.351562 1.242188 -7.40625 1.390625 -7.40625 C 1.535156 -7.40625 1.65625 -7.351562 1.75 -7.25 C 1.851562 -7.15625 1.90625 -7.039062 1.90625 -6.90625 C 1.90625 -6.757812 1.851562 -6.632812 1.75 -6.53125 C 1.65625 -6.4375 1.535156 -6.390625 1.390625 -6.390625 Z M 1.390625 -6.390625 "/></g></g></g><g fill="#000000" fill-opacity="1"><g transform="translate(257.3894, 47.65888)"><g><path d="M 2.8125 -5.28125 C 3.5 -5.28125 4.023438 -5.109375 4.390625 -4.765625 C 4.753906 -4.421875 4.9375 -3.914062 4.9375 -3.25 L 4.9375 0 L 4.265625 0 L 4.265625 -0.8125 C 4.097656 -0.539062 3.859375 -0.328125 3.546875 -0.171875 C 3.242188 -0.0234375 2.878906 0.046875 2.453125 0.046875 C 1.867188 0.046875 1.40625 -0.0859375 1.0625 -0.359375 C 0.71875 -0.640625 0.546875 -1.007812 0.546875 -1.46875 C 0.546875 -1.914062 0.707031 -2.273438 1.03125 -2.546875 C 1.351562 -2.816406 1.863281 -2.953125 2.5625 -2.953125 L 4.234375 -2.953125 L 4.234375 -3.28125 C 4.234375 -3.726562 4.101562 -4.066406 3.84375 -4.296875 C 3.59375 -4.535156 3.226562 -4.65625 2.75 -4.65625 C 2.414062 -4.65625 2.09375 -4.597656 1.78125 -4.484375 C 1.476562 -4.378906 1.21875 -4.234375 1 -4.046875 L 0.6875 -4.5625 C 0.945312 -4.789062 1.265625 -4.96875 1.640625 -5.09375 C 2.015625 -5.21875 2.40625 -5.28125 2.8125 -5.28125 Z M 2.5625 -0.5 C 2.96875 -0.5 3.3125 -0.59375 3.59375 -0.78125 C 3.875 -0.96875 4.085938 -1.234375 4.234375 -1.578125 L 4.234375 -2.421875 L 2.59375 -2.421875 C 1.695312 -2.421875 1.25 -2.113281 1.25 -1.5 C 1.25 -1.1875 1.363281 -0.941406 1.59375 -0.765625 C 1.820312 -0.585938 2.144531 -0.5 2.5625 -0.5 Z M 2.5625 -0.5 "/></g></g></g><g fill="#000000" fill-opacity="1"><g transform="translate(263.256988, 47.65888)"><g><path d="M 5.765625 -7.390625 L 5.765625 0 L 5.09375 0 L 5.09375 -1.03125 C 4.875 -0.675781 4.585938 -0.40625 4.234375 -0.21875 C 3.890625 -0.0390625 3.5 0.046875 3.0625 0.046875 C 2.570312 0.046875 2.128906 -0.0625 1.734375 -0.28125 C 1.335938 -0.507812 1.023438 -0.828125 0.796875 -1.234375 C 0.566406 -1.640625 0.453125 -2.101562 0.453125 -2.625 C 0.453125 -3.132812 0.566406 -3.59375 0.796875 -4 C 1.023438 -4.40625 1.335938 -4.71875 1.734375 -4.9375 C 2.128906 -5.164062 2.570312 -5.28125 3.0625 -5.28125 C 3.488281 -5.28125 3.875 -5.191406 4.21875 -5.015625 C 4.5625 -4.835938 4.84375 -4.578125 5.0625 -4.234375 L 5.0625 -7.390625 Z M 3.125 -0.578125 C 3.488281 -0.578125 3.816406 -0.660156 4.109375 -0.828125 C 4.410156 -0.992188 4.644531 -1.234375 4.8125 -1.546875 C 4.976562 -1.859375 5.0625 -2.21875 5.0625 -2.625 C 5.0625 -3.019531 4.976562 -3.375 4.8125 -3.6875 C 4.644531 -4 4.410156 -4.238281 4.109375 -4.40625 C 3.816406 -4.570312 3.488281 -4.65625 3.125 -4.65625 C 2.75 -4.65625 2.414062 -4.570312 2.125 -4.40625 C 1.832031 -4.238281 1.597656 -4 1.421875 -3.6875 C 1.253906 -3.375 1.171875 -3.019531 1.171875 -2.625 C 1.171875 -2.21875 1.253906 -1.859375 1.421875 -1.546875 C 1.597656 -1.234375 1.832031 -0.992188 2.125 -0.828125 C 2.414062 -0.660156 2.75 -0.578125 3.125 -0.578125 Z M 3.125 -0.578125 "/></g></g></g><g fill="#000000" fill-opacity="1"><g transform="translate(269.999738, 47.65888)"><g><path d="M 3.125 0.046875 C 2.625 0.046875 2.171875 -0.0664062 1.765625 -0.296875 C 1.359375 -0.523438 1.035156 -0.835938 0.796875 -1.234375 C 0.566406 -1.640625 0.453125 -2.101562 0.453125 -2.625 C 0.453125 -3.132812 0.566406 -3.585938 0.796875 -3.984375 C 1.035156 -4.390625 1.359375 -4.707031 1.765625 -4.9375 C 2.171875 -5.164062 2.625 -5.28125 3.125 -5.28125 C 3.625 -5.28125 4.078125 -5.164062 4.484375 -4.9375 C 4.890625 -4.707031 5.207031 -4.390625 5.4375 -3.984375 C 5.664062 -3.585938 5.78125 -3.132812 5.78125 -2.625 C 5.78125 -2.101562 5.664062 -1.640625 5.4375 -1.234375 C 5.207031 -0.835938 4.890625 -0.523438 4.484375 -0.296875 C 4.078125 -0.0664062 3.625 0.046875 3.125 0.046875 Z M 3.125 -0.578125 C 3.5 -0.578125 3.832031 -0.660156 4.125 -0.828125 C 4.414062 -0.992188 4.644531 -1.234375 4.8125 -1.546875 C 4.976562 -1.859375 5.0625 -2.21875 5.0625 -2.625 C 5.0625 -3.019531 4.976562 -3.375 4.8125 -3.6875 C 4.644531 -4 4.414062 -4.238281 4.125 -4.40625 C 3.832031 -4.570312 3.5 -4.65625 3.125 -4.65625 C 2.75 -4.65625 2.414062 -4.570312 2.125 -4.40625 C 1.832031 -4.238281 1.597656 -4 1.421875 -3.6875 C 1.253906 -3.375 1.171875 -3.019531 1.171875 -2.625 C 1.171875 -2.21875 1.253906 -1.859375 1.421875 -1.546875 C 1.597656 -1.234375 1.832031 -0.992188 2.125 -0.828125 C 2.414062 -0.660156 2.75 -0.578125 3.125 -0.578125 Z M 3.125 -0.578125 "/></g></g></g><g fill="#000000" fill-opacity="1"><g transform="translate(276.235289, 47.65888)"><g><path d="M 2.390625 0.046875 C 1.960938 0.046875 1.554688 -0.0078125 1.171875 -0.125 C 0.785156 -0.25 0.484375 -0.40625 0.265625 -0.59375 L 0.578125 -1.15625 C 0.796875 -0.976562 1.070312 -0.832031 1.40625 -0.71875 C 1.738281 -0.613281 2.082031 -0.5625 2.4375 -0.5625 C 2.914062 -0.5625 3.269531 -0.632812 3.5 -0.78125 C 3.726562 -0.9375 3.84375 -1.148438 3.84375 -1.421875 C 3.84375 -1.617188 3.78125 -1.769531 3.65625 -1.875 C 3.53125 -1.988281 3.367188 -2.070312 3.171875 -2.125 C 2.984375 -2.175781 2.726562 -2.234375 2.40625 -2.296875 C 1.976562 -2.367188 1.632812 -2.445312 1.375 -2.53125 C 1.125 -2.613281 0.90625 -2.753906 0.71875 -2.953125 C 0.539062 -3.148438 0.453125 -3.425781 0.453125 -3.78125 C 0.453125 -4.21875 0.632812 -4.578125 1 -4.859375 C 1.363281 -5.140625 1.867188 -5.28125 2.515625 -5.28125 C 2.859375 -5.28125 3.195312 -5.234375 3.53125 -5.140625 C 3.875 -5.046875 4.15625 -4.925781 4.375 -4.78125 L 4.0625 -4.21875 C 3.625 -4.519531 3.109375 -4.671875 2.515625 -4.671875 C 2.066406 -4.671875 1.726562 -4.585938 1.5 -4.421875 C 1.269531 -4.265625 1.15625 -4.054688 1.15625 -3.796875 C 1.15625 -3.597656 1.21875 -3.4375 1.34375 -3.3125 C 1.476562 -3.195312 1.640625 -3.109375 1.828125 -3.046875 C 2.023438 -2.992188 2.289062 -2.941406 2.625 -2.890625 C 3.039062 -2.804688 3.375 -2.722656 3.625 -2.640625 C 3.882812 -2.566406 4.101562 -2.429688 4.28125 -2.234375 C 4.457031 -2.046875 4.546875 -1.78125 4.546875 -1.4375 C 4.546875 -0.976562 4.351562 -0.613281 3.96875 -0.34375 C 3.59375 -0.0820312 3.066406 0.046875 2.390625 0.046875 Z M 2.390625 0.046875 "/></g></g></g><g fill="#000000" fill-opacity="1"><g transform="translate(95.918895, 59.521602)"><g><path d="M 5.1875 -3.984375 C 5.03125 -3.984375 4.914062 -3.929688 4.84375 -3.828125 C 4.769531 -3.734375 4.734375 -3.566406 4.734375 -3.328125 L 4.75 -0.609375 C 4.75 -0.503906 4.75 -0.378906 4.75 -0.234375 L 5.1875 -0.265625 L 5.171875 0 L 3.859375 0 L 3.875 -0.203125 L 3.921875 -0.203125 C 4.066406 -0.210938 4.160156 -0.269531 4.203125 -0.375 C 4.253906 -0.488281 4.28125 -0.664062 4.28125 -0.90625 L 4.28125 -2.953125 C 4.28125 -3.171875 4.285156 -3.34375 4.296875 -3.46875 L 4.28125 -3.46875 L 4.078125 -3 L 2.65625 0.0625 L 2.484375 0.0625 C 2.328125 -0.332031 2.101562 -0.929688 1.8125 -1.734375 C 1.726562 -1.960938 1.601562 -2.300781 1.4375 -2.75 L 1.40625 -2.875 C 1.332031 -3.082031 1.257812 -3.304688 1.1875 -3.546875 L 1.171875 -3.546875 C 1.148438 -3.191406 1.125 -2.796875 1.09375 -2.359375 L 0.9375 -0.75 C 0.914062 -0.507812 0.894531 -0.335938 0.875 -0.234375 L 1.328125 -0.265625 L 1.3125 0 L 0.171875 0 L 0.1875 -0.203125 C 0.300781 -0.203125 0.390625 -0.222656 0.453125 -0.265625 C 0.515625 -0.316406 0.554688 -0.378906 0.578125 -0.453125 C 0.597656 -0.523438 0.613281 -0.625 0.625 -0.75 L 0.953125 -3.9375 L 0.515625 -3.921875 L 0.53125 -4.171875 L 1.421875 -4.171875 C 1.523438 -3.910156 1.75 -3.304688 2.09375 -2.359375 C 2.40625 -1.535156 2.613281 -0.992188 2.71875 -0.734375 L 2.734375 -0.734375 C 2.804688 -0.890625 2.898438 -1.097656 3.015625 -1.359375 L 3.078125 -1.5 C 3.179688 -1.726562 3.390625 -2.175781 3.703125 -2.84375 C 3.921875 -3.289062 4.128906 -3.734375 4.328125 -4.171875 L 5.1875 -4.171875 Z M 5.1875 -3.984375 "/></g></g></g><g fill="#000000" fill-opacity="1"><g transform="translate(101.392847, 59.521602)"><g><path d="M 1.703125 -3.046875 C 1.921875 -3.046875 2.113281 -2.992188 2.28125 -2.890625 C 2.457031 -2.785156 2.59375 -2.632812 2.6875 -2.4375 C 2.789062 -2.25 2.84375 -2.019531 2.84375 -1.75 C 2.84375 -1.414062 2.78125 -1.113281 2.65625 -0.84375 C 2.539062 -0.570312 2.375 -0.351562 2.15625 -0.1875 C 1.9375 -0.0195312 1.675781 0.0625 1.375 0.0625 C 1 0.0625 0.710938 -0.0625 0.515625 -0.3125 C 0.328125 -0.5625 0.234375 -0.878906 0.234375 -1.265625 C 0.234375 -1.597656 0.289062 -1.898438 0.40625 -2.171875 C 0.53125 -2.441406 0.703125 -2.65625 0.921875 -2.8125 C 1.148438 -2.96875 1.410156 -3.046875 1.703125 -3.046875 Z M 1.609375 -2.828125 C 1.429688 -2.828125 1.28125 -2.765625 1.15625 -2.640625 C 1.03125 -2.515625 0.929688 -2.34375 0.859375 -2.125 C 0.796875 -1.90625 0.765625 -1.664062 0.765625 -1.40625 C 0.765625 -1.070312 0.816406 -0.78125 0.921875 -0.53125 C 1.023438 -0.28125 1.195312 -0.15625 1.4375 -0.15625 C 1.644531 -0.15625 1.8125 -0.234375 1.9375 -0.390625 C 2.070312 -0.546875 2.164062 -0.738281 2.21875 -0.96875 C 2.28125 -1.195312 2.3125 -1.414062 2.3125 -1.625 C 2.3125 -1.957031 2.257812 -2.238281 2.15625 -2.46875 C 2.050781 -2.707031 1.867188 -2.828125 1.609375 -2.828125 Z M 1.359375 -3.578125 L 1.828125 -4.359375 C 1.898438 -4.484375 1.984375 -4.546875 2.078125 -4.546875 C 2.128906 -4.546875 2.171875 -4.53125 2.203125 -4.5 C 2.234375 -4.46875 2.25 -4.421875 2.25 -4.359375 C 2.25 -4.273438 2.207031 -4.1875 2.125 -4.09375 L 1.5 -3.453125 Z M 1.359375 -3.578125 "/></g></g></g><g fill="#000000" fill-opacity="1"><g transform="translate(104.502912, 59.521602)"><g><path d="M 2.171875 -3.046875 C 2.398438 -3.046875 2.578125 -2.945312 2.703125 -2.75 C 2.828125 -2.550781 2.890625 -2.300781 2.890625 -2 C 2.890625 -1.738281 2.84375 -1.472656 2.75 -1.203125 C 2.664062 -0.984375 2.546875 -0.773438 2.390625 -0.578125 C 2.242188 -0.390625 2.078125 -0.234375 1.890625 -0.109375 C 1.703125 0.00390625 1.507812 0.0625 1.3125 0.0625 C 1.070312 0.0625 0.898438 -0.015625 0.796875 -0.171875 C 0.691406 -0.328125 0.640625 -0.53125 0.640625 -0.78125 C 0.640625 -1 0.648438 -1.226562 0.671875 -1.46875 C 0.691406 -1.707031 0.707031 -1.847656 0.71875 -1.890625 C 0.75 -2.148438 0.765625 -2.347656 0.765625 -2.484375 C 0.765625 -2.566406 0.75 -2.628906 0.71875 -2.671875 C 0.695312 -2.722656 0.65625 -2.75 0.59375 -2.75 C 0.519531 -2.75 0.445312 -2.695312 0.375 -2.59375 C 0.300781 -2.5 0.238281 -2.351562 0.1875 -2.15625 L 0.03125 -2.203125 C 0.0390625 -2.316406 0.078125 -2.4375 0.140625 -2.5625 C 0.203125 -2.695312 0.285156 -2.8125 0.390625 -2.90625 C 0.503906 -3 0.632812 -3.046875 0.78125 -3.046875 C 0.9375 -3.046875 1.054688 -2.992188 1.140625 -2.890625 C 1.222656 -2.785156 1.265625 -2.632812 1.265625 -2.4375 C 1.265625 -2.269531 1.238281 -1.921875 1.1875 -1.390625 C 1.15625 -0.984375 1.140625 -0.734375 1.140625 -0.640625 C 1.140625 -0.523438 1.15625 -0.429688 1.1875 -0.359375 C 1.226562 -0.285156 1.304688 -0.25 1.421875 -0.25 C 1.554688 -0.25 1.695312 -0.300781 1.84375 -0.40625 C 1.988281 -0.507812 2.117188 -0.644531 2.234375 -0.8125 C 2.359375 -0.976562 2.453125 -1.15625 2.515625 -1.34375 C 2.535156 -1.40625 2.554688 -1.492188 2.578125 -1.609375 C 2.597656 -1.722656 2.609375 -1.835938 2.609375 -1.953125 C 2.609375 -2.117188 2.582031 -2.265625 2.53125 -2.390625 C 2.488281 -2.515625 2.414062 -2.601562 2.3125 -2.65625 C 2.269531 -2.550781 2.191406 -2.5 2.078125 -2.5 C 2.015625 -2.5 1.957031 -2.519531 1.90625 -2.5625 C 1.851562 -2.601562 1.828125 -2.664062 1.828125 -2.75 C 1.828125 -2.820312 1.851562 -2.890625 1.90625 -2.953125 C 1.96875 -3.015625 2.054688 -3.046875 2.171875 -3.046875 Z M 2.171875 -3.046875 "/></g></g></g><g fill="#000000" fill-opacity="1"><g transform="translate(107.642823, 59.521602)"><g><path d="M 1.6875 -3.046875 C 1.925781 -3.046875 2.125 -2.988281 2.28125 -2.875 C 2.4375 -2.769531 2.515625 -2.597656 2.515625 -2.359375 C 2.515625 -2.066406 2.335938 -1.835938 1.984375 -1.671875 C 1.628906 -1.515625 1.222656 -1.410156 0.765625 -1.359375 C 0.765625 -0.984375 0.816406 -0.703125 0.921875 -0.515625 C 1.035156 -0.328125 1.207031 -0.234375 1.4375 -0.234375 C 1.625 -0.234375 1.800781 -0.289062 1.96875 -0.40625 C 2.132812 -0.53125 2.285156 -0.710938 2.421875 -0.953125 L 2.609375 -0.84375 C 2.441406 -0.53125 2.253906 -0.300781 2.046875 -0.15625 C 1.847656 -0.0078125 1.613281 0.0625 1.34375 0.0625 C 0.96875 0.0625 0.6875 -0.0507812 0.5 -0.28125 C 0.320312 -0.507812 0.234375 -0.820312 0.234375 -1.21875 C 0.234375 -1.539062 0.285156 -1.835938 0.390625 -2.109375 C 0.503906 -2.390625 0.671875 -2.613281 0.890625 -2.78125 C 1.109375 -2.957031 1.375 -3.046875 1.6875 -3.046875 Z M 1.59375 -2.84375 C 1.34375 -2.84375 1.144531 -2.71875 1 -2.46875 C 0.863281 -2.226562 0.785156 -1.925781 0.765625 -1.5625 C 1.109375 -1.613281 1.398438 -1.710938 1.640625 -1.859375 C 1.890625 -2.003906 2.015625 -2.179688 2.015625 -2.390625 C 2.015625 -2.523438 1.976562 -2.632812 1.90625 -2.71875 C 1.832031 -2.800781 1.726562 -2.84375 1.59375 -2.84375 Z M 1.59375 -2.84375 "/></g></g></g><g fill="#000000" fill-opacity="1"><g transform="translate(110.490236, 59.521602)"><g><path d="M 1.140625 -4.34375 C 1.222656 -4.34375 1.296875 -4.304688 1.359375 -4.234375 C 1.421875 -4.171875 1.453125 -4.09375 1.453125 -4 C 1.453125 -3.894531 1.421875 -3.8125 1.359375 -3.75 C 1.296875 -3.695312 1.21875 -3.671875 1.125 -3.671875 C 1.039062 -3.671875 0.96875 -3.695312 0.90625 -3.75 C 0.84375 -3.8125 0.8125 -3.894531 0.8125 -4 C 0.8125 -4.09375 0.84375 -4.171875 0.90625 -4.234375 C 0.96875 -4.304688 1.046875 -4.34375 1.140625 -4.34375 Z M 0.796875 -3.046875 C 0.953125 -3.046875 1.070312 -2.988281 1.15625 -2.875 C 1.25 -2.769531 1.296875 -2.617188 1.296875 -2.421875 C 1.296875 -2.273438 1.257812 -2.003906 1.1875 -1.609375 C 1.15625 -1.359375 1.125 -1.148438 1.09375 -0.984375 C 1.070312 -0.816406 1.0625 -0.648438 1.0625 -0.484375 C 1.0625 -0.316406 1.125 -0.234375 1.25 -0.234375 C 1.320312 -0.234375 1.398438 -0.28125 1.484375 -0.375 C 1.566406 -0.46875 1.632812 -0.613281 1.6875 -0.8125 L 1.859375 -0.78125 C 1.804688 -0.5625 1.71875 -0.363281 1.59375 -0.1875 C 1.476562 -0.0195312 1.316406 0.0625 1.109375 0.0625 C 0.753906 0.0625 0.578125 -0.125 0.578125 -0.5 C 0.578125 -0.65625 0.585938 -0.804688 0.609375 -0.953125 C 0.628906 -1.097656 0.660156 -1.28125 0.703125 -1.5 C 0.742188 -1.738281 0.769531 -1.925781 0.78125 -2.0625 C 0.800781 -2.195312 0.8125 -2.335938 0.8125 -2.484375 C 0.8125 -2.546875 0.796875 -2.601562 0.765625 -2.65625 C 0.742188 -2.71875 0.703125 -2.75 0.640625 -2.75 C 0.566406 -2.75 0.488281 -2.703125 0.40625 -2.609375 C 0.332031 -2.515625 0.265625 -2.367188 0.203125 -2.171875 L 0.046875 -2.203125 C 0.078125 -2.398438 0.15625 -2.585938 0.28125 -2.765625 C 0.414062 -2.953125 0.585938 -3.046875 0.796875 -3.046875 Z M 0.796875 -3.046875 "/></g></g></g><g fill="#000000" fill-opacity="1"><g transform="translate(112.424329, 59.521602)"><g><path d="M 1.359375 -3.046875 C 1.585938 -3.046875 1.789062 -2.988281 1.96875 -2.875 C 2.144531 -2.769531 2.234375 -2.632812 2.234375 -2.46875 C 2.234375 -2.382812 2.207031 -2.316406 2.15625 -2.265625 C 2.113281 -2.210938 2.054688 -2.1875 1.984375 -2.1875 C 1.921875 -2.1875 1.863281 -2.207031 1.8125 -2.25 C 1.769531 -2.300781 1.75 -2.359375 1.75 -2.421875 C 1.75 -2.492188 1.765625 -2.554688 1.796875 -2.609375 C 1.773438 -2.679688 1.722656 -2.738281 1.640625 -2.78125 C 1.566406 -2.832031 1.46875 -2.859375 1.34375 -2.859375 C 1.195312 -2.859375 1.066406 -2.8125 0.953125 -2.71875 C 0.835938 -2.625 0.78125 -2.507812 0.78125 -2.375 C 0.78125 -2.257812 0.832031 -2.15625 0.9375 -2.0625 C 1.039062 -1.976562 1.203125 -1.875 1.421875 -1.75 C 1.597656 -1.644531 1.738281 -1.550781 1.84375 -1.46875 C 1.957031 -1.382812 2.050781 -1.285156 2.125 -1.171875 C 2.207031 -1.066406 2.25 -0.945312 2.25 -0.8125 C 2.25 -0.644531 2.203125 -0.492188 2.109375 -0.359375 C 2.015625 -0.222656 1.882812 -0.117188 1.71875 -0.046875 C 1.550781 0.0234375 1.359375 0.0625 1.140625 0.0625 C 0.878906 0.0625 0.648438 0.00390625 0.453125 -0.109375 C 0.265625 -0.222656 0.171875 -0.378906 0.171875 -0.578125 C 0.171875 -0.660156 0.195312 -0.726562 0.25 -0.78125 C 0.300781 -0.832031 0.363281 -0.859375 0.4375 -0.859375 C 0.507812 -0.859375 0.566406 -0.832031 0.609375 -0.78125 C 0.660156 -0.738281 0.6875 -0.679688 0.6875 -0.609375 C 0.6875 -0.546875 0.664062 -0.488281 0.625 -0.4375 C 0.65625 -0.34375 0.71875 -0.269531 0.8125 -0.21875 C 0.90625 -0.175781 1.007812 -0.15625 1.125 -0.15625 C 1.332031 -0.15625 1.488281 -0.203125 1.59375 -0.296875 C 1.707031 -0.398438 1.765625 -0.539062 1.765625 -0.71875 C 1.765625 -0.851562 1.707031 -0.96875 1.59375 -1.0625 C 1.488281 -1.164062 1.320312 -1.285156 1.09375 -1.421875 C 0.832031 -1.566406 0.640625 -1.695312 0.515625 -1.8125 C 0.390625 -1.9375 0.328125 -2.082031 0.328125 -2.25 C 0.328125 -2.382812 0.367188 -2.515625 0.453125 -2.640625 C 0.535156 -2.765625 0.65625 -2.863281 0.8125 -2.9375 C 0.976562 -3.007812 1.160156 -3.046875 1.359375 -3.046875 Z M 1.359375 -3.046875 "/></g></g></g><g fill="#000000" fill-opacity="1"><g transform="translate(114.979236, 59.521602)"><g/></g></g><g fill="#000000" fill-opacity="1"><g transform="translate(116.549192, 59.521602)"><g><path d="M 1.96875 -3.046875 C 2.082031 -3.046875 2.21875 -3.039062 2.375 -3.03125 C 2.539062 -3.019531 2.664062 -3.003906 2.75 -2.984375 C 2.71875 -2.523438 2.671875 -1.976562 2.609375 -1.34375 C 2.492188 -0.21875 2.425781 0.492188 2.40625 0.796875 C 2.382812 1.046875 2.367188 1.210938 2.359375 1.296875 L 2.734375 1.28125 L 2.734375 1.515625 L 1.59375 1.515625 L 1.59375 1.34375 C 1.695312 1.34375 1.769531 1.3125 1.8125 1.25 C 1.863281 1.1875 1.894531 1.109375 1.90625 1.015625 C 1.925781 0.929688 1.941406 0.800781 1.953125 0.625 C 1.953125 0.570312 1.957031 0.53125 1.96875 0.5 C 2.007812 -0.0820312 2.070312 -0.660156 2.15625 -1.234375 L 2.125 -1.234375 C 1.976562 -0.734375 1.8125 -0.390625 1.625 -0.203125 C 1.445312 -0.0234375 1.25 0.0625 1.03125 0.0625 C 0.757812 0.0625 0.554688 -0.0390625 0.421875 -0.25 C 0.296875 -0.457031 0.234375 -0.726562 0.234375 -1.0625 C 0.234375 -1.445312 0.296875 -1.785156 0.421875 -2.078125 C 0.554688 -2.378906 0.753906 -2.613281 1.015625 -2.78125 C 1.285156 -2.957031 1.601562 -3.046875 1.96875 -3.046875 Z M 1.875 -2.84375 C 1.613281 -2.84375 1.394531 -2.753906 1.21875 -2.578125 C 1.050781 -2.410156 0.925781 -2.195312 0.84375 -1.9375 C 0.769531 -1.6875 0.734375 -1.429688 0.734375 -1.171875 C 0.734375 -0.867188 0.765625 -0.632812 0.828125 -0.46875 C 0.898438 -0.300781 1.015625 -0.21875 1.171875 -0.21875 C 1.347656 -0.21875 1.519531 -0.351562 1.6875 -0.625 C 1.851562 -0.894531 1.992188 -1.234375 2.109375 -1.640625 C 2.222656 -2.046875 2.285156 -2.429688 2.296875 -2.796875 C 2.179688 -2.828125 2.039062 -2.84375 1.875 -2.84375 Z M 1.875 -2.84375 "/></g></g></g><g fill="#000000" fill-opacity="1"><g transform="translate(119.641351, 59.521602)"><g><path d="M 0.796875 -3.046875 C 0.953125 -3.046875 1.070312 -2.992188 1.15625 -2.890625 C 1.238281 -2.796875 1.28125 -2.65625 1.28125 -2.46875 C 1.28125 -2.320312 1.25 -2.023438 1.1875 -1.578125 C 1.175781 -1.535156 1.15625 -1.398438 1.125 -1.171875 C 1.09375 -0.941406 1.078125 -0.75 1.078125 -0.59375 C 1.078125 -0.5 1.097656 -0.410156 1.140625 -0.328125 C 1.179688 -0.253906 1.253906 -0.21875 1.359375 -0.21875 C 1.535156 -0.21875 1.710938 -0.347656 1.890625 -0.609375 C 2.066406 -0.878906 2.207031 -1.207031 2.3125 -1.59375 C 2.425781 -1.976562 2.484375 -2.335938 2.484375 -2.671875 C 2.484375 -2.742188 2.484375 -2.847656 2.484375 -2.984375 L 2.984375 -2.984375 C 2.984375 -2.953125 2.984375 -2.898438 2.984375 -2.828125 C 2.984375 -2.734375 2.972656 -2.585938 2.953125 -2.390625 C 2.929688 -2.191406 2.898438 -1.929688 2.859375 -1.609375 L 2.8125 -1.109375 C 2.800781 -1.054688 2.785156 -0.960938 2.765625 -0.828125 C 2.753906 -0.691406 2.75 -0.582031 2.75 -0.5 C 2.75 -0.320312 2.800781 -0.234375 2.90625 -0.234375 C 2.988281 -0.234375 3.066406 -0.28125 3.140625 -0.375 C 3.222656 -0.46875 3.289062 -0.613281 3.34375 -0.8125 L 3.515625 -0.78125 C 3.492188 -0.664062 3.445312 -0.539062 3.375 -0.40625 C 3.3125 -0.28125 3.222656 -0.171875 3.109375 -0.078125 C 3.003906 0.015625 2.878906 0.0625 2.734375 0.0625 C 2.578125 0.0625 2.460938 0.015625 2.390625 -0.078125 C 2.316406 -0.171875 2.28125 -0.300781 2.28125 -0.46875 C 2.28125 -0.644531 2.316406 -0.910156 2.390625 -1.265625 L 2.375 -1.265625 C 2.175781 -0.753906 1.988281 -0.40625 1.8125 -0.21875 C 1.644531 -0.03125 1.453125 0.0625 1.234375 0.0625 C 1.015625 0.0625 0.851562 -0.0078125 0.75 -0.15625 C 0.644531 -0.300781 0.59375 -0.484375 0.59375 -0.703125 C 0.59375 -0.878906 0.601562 -1.054688 0.625 -1.234375 C 0.644531 -1.410156 0.671875 -1.617188 0.703125 -1.859375 C 0.710938 -1.898438 0.726562 -1.992188 0.75 -2.140625 C 0.769531 -2.285156 0.78125 -2.394531 0.78125 -2.46875 C 0.78125 -2.5625 0.769531 -2.628906 0.75 -2.671875 C 0.726562 -2.722656 0.6875 -2.75 0.625 -2.75 C 0.550781 -2.75 0.472656 -2.703125 0.390625 -2.609375 C 0.316406 -2.515625 0.253906 -2.367188 0.203125 -2.171875 L 0.03125 -2.203125 C 0.0703125 -2.398438 0.15625 -2.585938 0.28125 -2.765625 C 0.414062 -2.953125 0.585938 -3.046875 0.796875 -3.046875 Z M 0.796875 -3.046875 "/></g></g></g><g fill="#000000" fill-opacity="1"><g transform="translate(123.181211, 59.521602)"><g><path d="M 1.6875 -3.046875 C 1.925781 -3.046875 2.125 -2.988281 2.28125 -2.875 C 2.4375 -2.769531 2.515625 -2.597656 2.515625 -2.359375 C 2.515625 -2.066406 2.335938 -1.835938 1.984375 -1.671875 C 1.628906 -1.515625 1.222656 -1.410156 0.765625 -1.359375 C 0.765625 -0.984375 0.816406 -0.703125 0.921875 -0.515625 C 1.035156 -0.328125 1.207031 -0.234375 1.4375 -0.234375 C 1.625 -0.234375 1.800781 -0.289062 1.96875 -0.40625 C 2.132812 -0.53125 2.285156 -0.710938 2.421875 -0.953125 L 2.609375 -0.84375 C 2.441406 -0.53125 2.253906 -0.300781 2.046875 -0.15625 C 1.847656 -0.0078125 1.613281 0.0625 1.34375 0.0625 C 0.96875 0.0625 0.6875 -0.0507812 0.5 -0.28125 C 0.320312 -0.507812 0.234375 -0.820312 0.234375 -1.21875 C 0.234375 -1.539062 0.285156 -1.835938 0.390625 -2.109375 C 0.503906 -2.390625 0.671875 -2.613281 0.890625 -2.78125 C 1.109375 -2.957031 1.375 -3.046875 1.6875 -3.046875 Z M 1.59375 -2.84375 C 1.34375 -2.84375 1.144531 -2.71875 1 -2.46875 C 0.863281 -2.226562 0.785156 -1.925781 0.765625 -1.5625 C 1.109375 -1.613281 1.398438 -1.710938 1.640625 -1.859375 C 1.890625 -2.003906 2.015625 -2.179688 2.015625 -2.390625 C 2.015625 -2.523438 1.976562 -2.632812 1.90625 -2.71875 C 1.832031 -2.800781 1.726562 -2.84375 1.59375 -2.84375 Z M 1.59375 -2.84375 "/></g></g></g><g fill="#000000" fill-opacity="1"><g transform="translate(126.028624, 59.521602)"><g/></g></g><g fill="#000000" fill-opacity="1"><g transform="translate(127.598579, 59.521602)"><g><path d="M 1.65625 -3.046875 C 1.820312 -3.046875 1.972656 -3.015625 2.109375 -2.953125 C 2.253906 -2.890625 2.363281 -2.804688 2.4375 -2.703125 C 2.507812 -2.597656 2.546875 -2.484375 2.546875 -2.359375 C 2.546875 -2.265625 2.519531 -2.191406 2.46875 -2.140625 C 2.425781 -2.085938 2.367188 -2.0625 2.296875 -2.0625 C 2.210938 -2.0625 2.148438 -2.085938 2.109375 -2.140625 C 2.066406 -2.191406 2.046875 -2.242188 2.046875 -2.296875 C 2.046875 -2.390625 2.070312 -2.46875 2.125 -2.53125 C 2.101562 -2.632812 2.050781 -2.710938 1.96875 -2.765625 C 1.882812 -2.816406 1.78125 -2.84375 1.65625 -2.84375 C 1.34375 -2.84375 1.113281 -2.691406 0.96875 -2.390625 C 0.832031 -2.097656 0.765625 -1.757812 0.765625 -1.375 C 0.765625 -0.976562 0.828125 -0.6875 0.953125 -0.5 C 1.078125 -0.320312 1.253906 -0.234375 1.484375 -0.234375 C 1.660156 -0.234375 1.828125 -0.289062 1.984375 -0.40625 C 2.148438 -0.519531 2.289062 -0.710938 2.40625 -0.984375 L 2.609375 -0.875 C 2.460938 -0.539062 2.285156 -0.300781 2.078125 -0.15625 C 1.867188 -0.0078125 1.640625 0.0625 1.390625 0.0625 C 1.023438 0.0625 0.738281 -0.0390625 0.53125 -0.25 C 0.332031 -0.46875 0.234375 -0.796875 0.234375 -1.234375 C 0.234375 -1.515625 0.285156 -1.796875 0.390625 -2.078125 C 0.492188 -2.359375 0.648438 -2.585938 0.859375 -2.765625 C 1.078125 -2.953125 1.34375 -3.046875 1.65625 -3.046875 Z M 1.65625 -3.046875 "/></g></g></g><g fill="#000000" fill-opacity="1"><g transform="translate(130.422113, 59.521602)"><g><path d="M 1.703125 -3.046875 C 1.921875 -3.046875 2.113281 -2.992188 2.28125 -2.890625 C 2.457031 -2.785156 2.59375 -2.632812 2.6875 -2.4375 C 2.789062 -2.25 2.84375 -2.019531 2.84375 -1.75 C 2.84375 -1.414062 2.78125 -1.113281 2.65625 -0.84375 C 2.539062 -0.570312 2.375 -0.351562 2.15625 -0.1875 C 1.9375 -0.0195312 1.675781 0.0625 1.375 0.0625 C 1 0.0625 0.710938 -0.0625 0.515625 -0.3125 C 0.328125 -0.5625 0.234375 -0.878906 0.234375 -1.265625 C 0.234375 -1.597656 0.289062 -1.898438 0.40625 -2.171875 C 0.53125 -2.441406 0.703125 -2.65625 0.921875 -2.8125 C 1.148438 -2.96875 1.410156 -3.046875 1.703125 -3.046875 Z M 1.609375 -2.828125 C 1.429688 -2.828125 1.28125 -2.765625 1.15625 -2.640625 C 1.03125 -2.515625 0.929688 -2.34375 0.859375 -2.125 C 0.796875 -1.90625 0.765625 -1.664062 0.765625 -1.40625 C 0.765625 -1.070312 0.816406 -0.78125 0.921875 -0.53125 C 1.023438 -0.28125 1.195312 -0.15625 1.4375 -0.15625 C 1.644531 -0.15625 1.8125 -0.234375 1.9375 -0.390625 C 2.070312 -0.546875 2.164062 -0.738281 2.21875 -0.96875 C 2.28125 -1.195312 2.3125 -1.414062 2.3125 -1.625 C 2.3125 -1.957031 2.257812 -2.238281 2.15625 -2.46875 C 2.050781 -2.707031 1.867188 -2.828125 1.609375 -2.828125 Z M 1.609375 -2.828125 "/></g></g></g><g fill="#000000" fill-opacity="1"><g transform="translate(133.532178, 59.521602)"><g><path d="M 2.359375 -3.046875 C 2.585938 -3.046875 2.753906 -2.972656 2.859375 -2.828125 C 2.960938 -2.691406 3.015625 -2.507812 3.015625 -2.28125 C 3.015625 -2.007812 2.976562 -1.625 2.90625 -1.125 C 2.851562 -0.8125 2.828125 -0.601562 2.828125 -0.5 C 2.828125 -0.414062 2.835938 -0.347656 2.859375 -0.296875 C 2.890625 -0.253906 2.9375 -0.234375 3 -0.234375 C 3.070312 -0.234375 3.144531 -0.28125 3.21875 -0.375 C 3.300781 -0.46875 3.375 -0.613281 3.4375 -0.8125 L 3.59375 -0.765625 C 3.570312 -0.660156 3.53125 -0.539062 3.46875 -0.40625 C 3.40625 -0.28125 3.316406 -0.171875 3.203125 -0.078125 C 3.097656 0.015625 2.972656 0.0625 2.828125 0.0625 C 2.640625 0.0625 2.507812 0.015625 2.4375 -0.078125 C 2.375 -0.171875 2.34375 -0.3125 2.34375 -0.5 C 2.34375 -0.65625 2.367188 -0.921875 2.421875 -1.296875 C 2.492188 -1.773438 2.53125 -2.144531 2.53125 -2.40625 C 2.53125 -2.5 2.507812 -2.582031 2.46875 -2.65625 C 2.425781 -2.726562 2.351562 -2.765625 2.25 -2.765625 C 2.070312 -2.765625 1.890625 -2.628906 1.703125 -2.359375 C 1.523438 -2.097656 1.375 -1.773438 1.25 -1.390625 C 1.125 -1.003906 1.0625 -0.644531 1.0625 -0.3125 C 1.0625 -0.238281 1.066406 -0.132812 1.078125 0 L 0.578125 0 C 0.578125 -0.03125 0.578125 -0.0820312 0.578125 -0.15625 C 0.578125 -0.25 0.582031 -0.378906 0.59375 -0.546875 C 0.613281 -0.722656 0.644531 -0.953125 0.6875 -1.234375 C 0.6875 -1.253906 0.6875 -1.289062 0.6875 -1.34375 C 0.695312 -1.394531 0.703125 -1.445312 0.703125 -1.5 C 0.710938 -1.5625 0.722656 -1.617188 0.734375 -1.671875 C 0.753906 -1.921875 0.769531 -2.097656 0.78125 -2.203125 C 0.800781 -2.316406 0.8125 -2.410156 0.8125 -2.484375 C 0.8125 -2.566406 0.796875 -2.628906 0.765625 -2.671875 C 0.742188 -2.722656 0.703125 -2.75 0.640625 -2.75 C 0.566406 -2.75 0.488281 -2.703125 0.40625 -2.609375 C 0.332031 -2.515625 0.265625 -2.367188 0.203125 -2.171875 L 0.046875 -2.203125 C 0.0664062 -2.316406 0.109375 -2.4375 0.171875 -2.5625 C 0.234375 -2.695312 0.316406 -2.8125 0.421875 -2.90625 C 0.535156 -3 0.664062 -3.046875 0.8125 -3.046875 C 1.113281 -3.046875 1.265625 -2.84375 1.265625 -2.4375 C 1.265625 -2.320312 1.253906 -2.191406 1.234375 -2.046875 C 1.210938 -1.910156 1.191406 -1.789062 1.171875 -1.6875 L 1.1875 -1.6875 C 1.375 -2.195312 1.5625 -2.550781 1.75 -2.75 C 1.945312 -2.945312 2.148438 -3.046875 2.359375 -3.046875 Z M 2.359375 -3.046875 "/></g></g></g><g fill="#000000" fill-opacity="1"><g transform="translate(137.203368, 59.521602)"><g><path d="M 1.1875 -2.984375 L 2.140625 -2.984375 L 2.125 -2.75 L 1.15625 -2.75 L 1.125 -2.359375 C 1.03125 -1.609375 0.984375 -1.078125 0.984375 -0.765625 C 0.984375 -0.609375 1 -0.476562 1.03125 -0.375 C 1.070312 -0.28125 1.148438 -0.234375 1.265625 -0.234375 C 1.472656 -0.234375 1.660156 -0.375 1.828125 -0.65625 L 1.984375 -0.5625 C 1.859375 -0.34375 1.726562 -0.179688 1.59375 -0.078125 C 1.46875 0.015625 1.3125 0.0625 1.125 0.0625 C 0.90625 0.0625 0.742188 0 0.640625 -0.125 C 0.546875 -0.257812 0.5 -0.429688 0.5 -0.640625 C 0.5 -0.867188 0.515625 -1.171875 0.546875 -1.546875 C 0.578125 -1.921875 0.613281 -2.316406 0.65625 -2.734375 L 0.125 -2.734375 L 0.15625 -2.984375 C 0.382812 -2.984375 0.570312 -3.050781 0.71875 -3.1875 C 0.875 -3.332031 0.988281 -3.546875 1.0625 -3.828125 L 1.296875 -3.828125 Z M 1.1875 -2.984375 "/></g></g></g><g fill="#000000" fill-opacity="1"><g transform="translate(139.376233, 59.521602)"><g><path d="M 1.96875 -3.046875 C 2.238281 -3.046875 2.503906 -3.015625 2.765625 -2.953125 C 2.585938 -1.648438 2.5 -0.851562 2.5 -0.5625 C 2.5 -0.457031 2.507812 -0.375 2.53125 -0.3125 C 2.550781 -0.257812 2.597656 -0.234375 2.671875 -0.234375 C 2.742188 -0.234375 2.816406 -0.28125 2.890625 -0.375 C 2.972656 -0.46875 3.046875 -0.613281 3.109375 -0.8125 L 3.265625 -0.78125 C 3.242188 -0.664062 3.203125 -0.539062 3.140625 -0.40625 C 3.078125 -0.28125 2.988281 -0.171875 2.875 -0.078125 C 2.769531 0.015625 2.644531 0.0625 2.5 0.0625 C 2.195312 0.0625 2.046875 -0.113281 2.046875 -0.46875 C 2.046875 -0.644531 2.082031 -0.910156 2.15625 -1.265625 L 2.140625 -1.265625 C 1.972656 -0.742188 1.789062 -0.390625 1.59375 -0.203125 C 1.394531 -0.0234375 1.191406 0.0625 0.984375 0.0625 C 0.742188 0.0625 0.554688 -0.0195312 0.421875 -0.1875 C 0.285156 -0.351562 0.21875 -0.613281 0.21875 -0.96875 C 0.21875 -1.351562 0.28125 -1.703125 0.40625 -2.015625 C 0.539062 -2.328125 0.738281 -2.578125 1 -2.765625 C 1.269531 -2.953125 1.59375 -3.046875 1.96875 -3.046875 Z M 1.78125 -2.828125 C 1.550781 -2.828125 1.351562 -2.742188 1.1875 -2.578125 C 1.03125 -2.421875 0.910156 -2.207031 0.828125 -1.9375 C 0.753906 -1.664062 0.71875 -1.378906 0.71875 -1.078125 C 0.71875 -0.492188 0.847656 -0.203125 1.109375 -0.203125 C 1.285156 -0.203125 1.457031 -0.335938 1.625 -0.609375 C 1.800781 -0.878906 1.945312 -1.21875 2.0625 -1.625 C 2.1875 -2.03125 2.25 -2.410156 2.25 -2.765625 C 2.125 -2.804688 1.96875 -2.828125 1.78125 -2.828125 Z M 1.78125 -2.828125 "/></g></g></g><g fill="#000000" fill-opacity="1"><g transform="translate(142.647474, 59.521602)"><g><path d="M 3.953125 -3.046875 C 4.179688 -3.046875 4.34375 -2.972656 4.4375 -2.828125 C 4.53125 -2.691406 4.578125 -2.507812 4.578125 -2.28125 C 4.578125 -2.101562 4.566406 -1.929688 4.546875 -1.765625 C 4.535156 -1.597656 4.507812 -1.382812 4.46875 -1.125 C 4.414062 -0.8125 4.390625 -0.601562 4.390625 -0.5 C 4.390625 -0.414062 4.398438 -0.347656 4.421875 -0.296875 C 4.441406 -0.253906 4.484375 -0.234375 4.546875 -0.234375 C 4.617188 -0.234375 4.695312 -0.28125 4.78125 -0.375 C 4.863281 -0.46875 4.929688 -0.613281 4.984375 -0.8125 L 5.15625 -0.765625 C 5.132812 -0.660156 5.09375 -0.539062 5.03125 -0.40625 C 4.96875 -0.28125 4.878906 -0.171875 4.765625 -0.078125 C 4.648438 0.015625 4.519531 0.0625 4.375 0.0625 C 4.195312 0.0625 4.070312 0.015625 4 -0.078125 C 3.925781 -0.171875 3.890625 -0.3125 3.890625 -0.5 C 3.890625 -0.664062 3.925781 -0.929688 4 -1.296875 C 4 -1.328125 4.007812 -1.421875 4.03125 -1.578125 C 4.0625 -1.742188 4.082031 -1.894531 4.09375 -2.03125 C 4.101562 -2.175781 4.109375 -2.300781 4.109375 -2.40625 C 4.109375 -2.5 4.085938 -2.582031 4.046875 -2.65625 C 4.003906 -2.726562 3.929688 -2.765625 3.828125 -2.765625 C 3.648438 -2.765625 3.472656 -2.632812 3.296875 -2.375 C 3.128906 -2.113281 2.992188 -1.789062 2.890625 -1.40625 C 2.785156 -1.019531 2.734375 -0.65625 2.734375 -0.3125 C 2.734375 -0.238281 2.738281 -0.132812 2.75 0 L 2.25 0 C 2.238281 -0.03125 2.234375 -0.0820312 2.234375 -0.15625 C 2.234375 -0.289062 2.242188 -0.46875 2.265625 -0.6875 C 2.296875 -0.90625 2.328125 -1.117188 2.359375 -1.328125 C 2.421875 -1.847656 2.453125 -2.203125 2.453125 -2.390625 C 2.453125 -2.640625 2.359375 -2.765625 2.171875 -2.765625 C 1.992188 -2.765625 1.816406 -2.632812 1.640625 -2.375 C 1.472656 -2.113281 1.335938 -1.785156 1.234375 -1.390625 C 1.128906 -1.003906 1.078125 -0.644531 1.078125 -0.3125 C 1.078125 -0.238281 1.082031 -0.132812 1.09375 0 L 0.578125 0 C 0.578125 -0.03125 0.578125 -0.0820312 0.578125 -0.15625 C 0.578125 -0.25 0.582031 -0.390625 0.59375 -0.578125 C 0.613281 -0.773438 0.644531 -1.03125 0.6875 -1.34375 L 0.765625 -1.96875 C 0.773438 -2.101562 0.785156 -2.207031 0.796875 -2.28125 C 0.804688 -2.363281 0.8125 -2.429688 0.8125 -2.484375 C 0.8125 -2.566406 0.800781 -2.628906 0.78125 -2.671875 C 0.757812 -2.722656 0.71875 -2.75 0.65625 -2.75 C 0.570312 -2.75 0.488281 -2.703125 0.40625 -2.609375 C 0.332031 -2.515625 0.269531 -2.367188 0.21875 -2.171875 L 0.046875 -2.203125 C 0.0664062 -2.316406 0.109375 -2.4375 0.171875 -2.5625 C 0.242188 -2.695312 0.332031 -2.8125 0.4375 -2.90625 C 0.550781 -3 0.679688 -3.046875 0.828125 -3.046875 C 1.117188 -3.046875 1.265625 -2.847656 1.265625 -2.453125 C 1.265625 -2.335938 1.253906 -2.210938 1.234375 -2.078125 C 1.210938 -1.941406 1.191406 -1.820312 1.171875 -1.71875 L 1.1875 -1.71875 C 1.363281 -2.21875 1.539062 -2.5625 1.71875 -2.75 C 1.90625 -2.945312 2.09375 -3.046875 2.28125 -3.046875 C 2.5 -3.046875 2.660156 -2.972656 2.765625 -2.828125 C 2.867188 -2.691406 2.921875 -2.539062 2.921875 -2.375 C 2.921875 -2.269531 2.914062 -2.179688 2.90625 -2.109375 C 2.894531 -2.035156 2.867188 -1.910156 2.828125 -1.734375 L 2.84375 -1.734375 C 3.019531 -2.234375 3.203125 -2.578125 3.390625 -2.765625 C 3.578125 -2.953125 3.765625 -3.046875 3.953125 -3.046875 Z M 3.953125 -3.046875 "/></g></g></g><g fill="#000000" fill-opacity="1"><g transform="translate(147.876679, 59.521602)"><g/></g></g><g fill="#000000" fill-opacity="1"><g transform="translate(149.446635, 59.521602)"><g><path d="M 1.359375 -3.046875 C 1.585938 -3.046875 1.789062 -2.988281 1.96875 -2.875 C 2.144531 -2.769531 2.234375 -2.632812 2.234375 -2.46875 C 2.234375 -2.382812 2.207031 -2.316406 2.15625 -2.265625 C 2.113281 -2.210938 2.054688 -2.1875 1.984375 -2.1875 C 1.921875 -2.1875 1.863281 -2.207031 1.8125 -2.25 C 1.769531 -2.300781 1.75 -2.359375 1.75 -2.421875 C 1.75 -2.492188 1.765625 -2.554688 1.796875 -2.609375 C 1.773438 -2.679688 1.722656 -2.738281 1.640625 -2.78125 C 1.566406 -2.832031 1.46875 -2.859375 1.34375 -2.859375 C 1.195312 -2.859375 1.066406 -2.8125 0.953125 -2.71875 C 0.835938 -2.625 0.78125 -2.507812 0.78125 -2.375 C 0.78125 -2.257812 0.832031 -2.15625 0.9375 -2.0625 C 1.039062 -1.976562 1.203125 -1.875 1.421875 -1.75 C 1.597656 -1.644531 1.738281 -1.550781 1.84375 -1.46875 C 1.957031 -1.382812 2.050781 -1.285156 2.125 -1.171875 C 2.207031 -1.066406 2.25 -0.945312 2.25 -0.8125 C 2.25 -0.644531 2.203125 -0.492188 2.109375 -0.359375 C 2.015625 -0.222656 1.882812 -0.117188 1.71875 -0.046875 C 1.550781 0.0234375 1.359375 0.0625 1.140625 0.0625 C 0.878906 0.0625 0.648438 0.00390625 0.453125 -0.109375 C 0.265625 -0.222656 0.171875 -0.378906 0.171875 -0.578125 C 0.171875 -0.660156 0.195312 -0.726562 0.25 -0.78125 C 0.300781 -0.832031 0.363281 -0.859375 0.4375 -0.859375 C 0.507812 -0.859375 0.566406 -0.832031 0.609375 -0.78125 C 0.660156 -0.738281 0.6875 -0.679688 0.6875 -0.609375 C 0.6875 -0.546875 0.664062 -0.488281 0.625 -0.4375 C 0.65625 -0.34375 0.71875 -0.269531 0.8125 -0.21875 C 0.90625 -0.175781 1.007812 -0.15625 1.125 -0.15625 C 1.332031 -0.15625 1.488281 -0.203125 1.59375 -0.296875 C 1.707031 -0.398438 1.765625 -0.539062 1.765625 -0.71875 C 1.765625 -0.851562 1.707031 -0.96875 1.59375 -1.0625 C 1.488281 -1.164062 1.320312 -1.285156 1.09375 -1.421875 C 0.832031 -1.566406 0.640625 -1.695312 0.515625 -1.8125 C 0.390625 -1.9375 0.328125 -2.082031 0.328125 -2.25 C 0.328125 -2.382812 0.367188 -2.515625 0.453125 -2.640625 C 0.535156 -2.765625 0.65625 -2.863281 0.8125 -2.9375 C 0.976562 -3.007812 1.160156 -3.046875 1.359375 -3.046875 Z M 1.359375 -3.046875 "/></g></g></g><g fill="#000000" fill-opacity="1"><g transform="translate(152.001542, 59.521602)"><g><path d="M 0.796875 -3.046875 C 0.953125 -3.046875 1.070312 -2.992188 1.15625 -2.890625 C 1.238281 -2.796875 1.28125 -2.65625 1.28125 -2.46875 C 1.28125 -2.320312 1.25 -2.023438 1.1875 -1.578125 C 1.175781 -1.535156 1.15625 -1.398438 1.125 -1.171875 C 1.09375 -0.941406 1.078125 -0.75 1.078125 -0.59375 C 1.078125 -0.5 1.097656 -0.410156 1.140625 -0.328125 C 1.179688 -0.253906 1.253906 -0.21875 1.359375 -0.21875 C 1.535156 -0.21875 1.710938 -0.347656 1.890625 -0.609375 C 2.066406 -0.878906 2.207031 -1.207031 2.3125 -1.59375 C 2.425781 -1.976562 2.484375 -2.335938 2.484375 -2.671875 C 2.484375 -2.742188 2.484375 -2.847656 2.484375 -2.984375 L 2.984375 -2.984375 C 2.984375 -2.953125 2.984375 -2.898438 2.984375 -2.828125 C 2.984375 -2.734375 2.972656 -2.585938 2.953125 -2.390625 C 2.929688 -2.191406 2.898438 -1.929688 2.859375 -1.609375 L 2.8125 -1.109375 C 2.800781 -1.054688 2.785156 -0.960938 2.765625 -0.828125 C 2.753906 -0.691406 2.75 -0.582031 2.75 -0.5 C 2.75 -0.320312 2.800781 -0.234375 2.90625 -0.234375 C 2.988281 -0.234375 3.066406 -0.28125 3.140625 -0.375 C 3.222656 -0.46875 3.289062 -0.613281 3.34375 -0.8125 L 3.515625 -0.78125 C 3.492188 -0.664062 3.445312 -0.539062 3.375 -0.40625 C 3.3125 -0.28125 3.222656 -0.171875 3.109375 -0.078125 C 3.003906 0.015625 2.878906 0.0625 2.734375 0.0625 C 2.578125 0.0625 2.460938 0.015625 2.390625 -0.078125 C 2.316406 -0.171875 2.28125 -0.300781 2.28125 -0.46875 C 2.28125 -0.644531 2.316406 -0.910156 2.390625 -1.265625 L 2.375 -1.265625 C 2.175781 -0.753906 1.988281 -0.40625 1.8125 -0.21875 C 1.644531 -0.03125 1.453125 0.0625 1.234375 0.0625 C 1.015625 0.0625 0.851562 -0.0078125 0.75 -0.15625 C 0.644531 -0.300781 0.59375 -0.484375 0.59375 -0.703125 C 0.59375 -0.878906 0.601562 -1.054688 0.625 -1.234375 C 0.644531 -1.410156 0.671875 -1.617188 0.703125 -1.859375 C 0.710938 -1.898438 0.726562 -1.992188 0.75 -2.140625 C 0.769531 -2.285156 0.78125 -2.394531 0.78125 -2.46875 C 0.78125 -2.5625 0.769531 -2.628906 0.75 -2.671875 C 0.726562 -2.722656 0.6875 -2.75 0.625 -2.75 C 0.550781 -2.75 0.472656 -2.703125 0.390625 -2.609375 C 0.316406 -2.515625 0.253906 -2.367188 0.203125 -2.171875 L 0.03125 -2.203125 C 0.0703125 -2.398438 0.15625 -2.585938 0.28125 -2.765625 C 0.414062 -2.953125 0.585938 -3.046875 0.796875 -3.046875 Z M 0.796875 -3.046875 "/></g></g></g><g fill="#000000" fill-opacity="1"><g transform="translate(155.541402, 59.521602)"><g><path d="M 1.96875 -3.046875 C 2.238281 -3.046875 2.503906 -3.015625 2.765625 -2.953125 C 2.585938 -1.648438 2.5 -0.851562 2.5 -0.5625 C 2.5 -0.457031 2.507812 -0.375 2.53125 -0.3125 C 2.550781 -0.257812 2.597656 -0.234375 2.671875 -0.234375 C 2.742188 -0.234375 2.816406 -0.28125 2.890625 -0.375 C 2.972656 -0.46875 3.046875 -0.613281 3.109375 -0.8125 L 3.265625 -0.78125 C 3.242188 -0.664062 3.203125 -0.539062 3.140625 -0.40625 C 3.078125 -0.28125 2.988281 -0.171875 2.875 -0.078125 C 2.769531 0.015625 2.644531 0.0625 2.5 0.0625 C 2.195312 0.0625 2.046875 -0.113281 2.046875 -0.46875 C 2.046875 -0.644531 2.082031 -0.910156 2.15625 -1.265625 L 2.140625 -1.265625 C 1.972656 -0.742188 1.789062 -0.390625 1.59375 -0.203125 C 1.394531 -0.0234375 1.191406 0.0625 0.984375 0.0625 C 0.742188 0.0625 0.554688 -0.0195312 0.421875 -0.1875 C 0.285156 -0.351562 0.21875 -0.613281 0.21875 -0.96875 C 0.21875 -1.351562 0.28125 -1.703125 0.40625 -2.015625 C 0.539062 -2.328125 0.738281 -2.578125 1 -2.765625 C 1.269531 -2.953125 1.59375 -3.046875 1.96875 -3.046875 Z M 1.78125 -2.828125 C 1.550781 -2.828125 1.351562 -2.742188 1.1875 -2.578125 C 1.03125 -2.421875 0.910156 -2.207031 0.828125 -1.9375 C 0.753906 -1.664062 0.71875 -1.378906 0.71875 -1.078125 C 0.71875 -0.492188 0.847656 -0.203125 1.109375 -0.203125 C 1.285156 -0.203125 1.457031 -0.335938 1.625 -0.609375 C 1.800781 -0.878906 1.945312 -1.21875 2.0625 -1.625 C 2.1875 -2.03125 2.25 -2.410156 2.25 -2.765625 C 2.125 -2.804688 1.96875 -2.828125 1.78125 -2.828125 Z M 1.78125 -2.828125 "/></g></g></g><g fill="#000000" fill-opacity="1"><g transform="translate(158.812643, 59.521602)"><g/></g></g><g fill="#000000" fill-opacity="1"><g transform="translate(160.382598, 59.521602)"><g><path d="M 1.203125 -4.203125 C 1.140625 -3.828125 1.101562 -3.585938 1.09375 -3.484375 C 1.0625 -3.285156 1.023438 -2.992188 0.984375 -2.609375 C 0.953125 -2.222656 0.925781 -1.925781 0.90625 -1.71875 L 0.921875 -1.71875 C 1.109375 -2.226562 1.296875 -2.578125 1.484375 -2.765625 C 1.671875 -2.953125 1.875 -3.046875 2.09375 -3.046875 C 2.320312 -3.046875 2.488281 -2.972656 2.59375 -2.828125 C 2.695312 -2.679688 2.75 -2.5 2.75 -2.28125 C 2.75 -2.007812 2.71875 -1.625 2.65625 -1.125 C 2.613281 -0.8125 2.59375 -0.601562 2.59375 -0.5 C 2.59375 -0.414062 2.601562 -0.347656 2.625 -0.296875 C 2.644531 -0.253906 2.6875 -0.234375 2.75 -0.234375 C 2.820312 -0.234375 2.898438 -0.28125 2.984375 -0.375 C 3.066406 -0.46875 3.132812 -0.613281 3.1875 -0.8125 L 3.34375 -0.765625 C 3.300781 -0.578125 3.210938 -0.390625 3.078125 -0.203125 C 2.953125 -0.0234375 2.785156 0.0625 2.578125 0.0625 C 2.398438 0.0625 2.273438 0.015625 2.203125 -0.078125 C 2.128906 -0.171875 2.09375 -0.3125 2.09375 -0.5 C 2.09375 -0.65625 2.117188 -0.921875 2.171875 -1.296875 C 2.179688 -1.347656 2.195312 -1.492188 2.21875 -1.734375 C 2.25 -1.984375 2.265625 -2.207031 2.265625 -2.40625 C 2.265625 -2.5 2.242188 -2.582031 2.203125 -2.65625 C 2.160156 -2.726562 2.085938 -2.765625 1.984375 -2.765625 C 1.804688 -2.765625 1.628906 -2.632812 1.453125 -2.375 C 1.273438 -2.125 1.128906 -1.804688 1.015625 -1.421875 C 0.898438 -1.046875 0.84375 -0.675781 0.84375 -0.3125 C 0.84375 -0.238281 0.847656 -0.132812 0.859375 0 L 0.359375 0 C 0.359375 -0.03125 0.359375 -0.0820312 0.359375 -0.15625 C 0.359375 -0.445312 0.390625 -1.019531 0.453125 -1.875 C 0.523438 -2.726562 0.59375 -3.375 0.65625 -3.8125 C 0.664062 -3.863281 0.679688 -3.96875 0.703125 -4.125 L 0.296875 -4.109375 L 0.3125 -4.34375 C 0.550781 -4.34375 0.722656 -4.351562 0.828125 -4.375 C 0.929688 -4.40625 1.015625 -4.445312 1.078125 -4.5 L 1.25 -4.5 Z M 1.203125 -4.203125 "/></g></g></g><g fill="#000000" fill-opacity="1"><g transform="translate(163.797102, 59.521602)"><g><path d="M 1.140625 -4.34375 C 1.222656 -4.34375 1.296875 -4.304688 1.359375 -4.234375 C 1.421875 -4.171875 1.453125 -4.09375 1.453125 -4 C 1.453125 -3.894531 1.421875 -3.8125 1.359375 -3.75 C 1.296875 -3.695312 1.21875 -3.671875 1.125 -3.671875 C 1.039062 -3.671875 0.96875 -3.695312 0.90625 -3.75 C 0.84375 -3.8125 0.8125 -3.894531 0.8125 -4 C 0.8125 -4.09375 0.84375 -4.171875 0.90625 -4.234375 C 0.96875 -4.304688 1.046875 -4.34375 1.140625 -4.34375 Z M 0.796875 -3.046875 C 0.953125 -3.046875 1.070312 -2.988281 1.15625 -2.875 C 1.25 -2.769531 1.296875 -2.617188 1.296875 -2.421875 C 1.296875 -2.273438 1.257812 -2.003906 1.1875 -1.609375 C 1.15625 -1.359375 1.125 -1.148438 1.09375 -0.984375 C 1.070312 -0.816406 1.0625 -0.648438 1.0625 -0.484375 C 1.0625 -0.316406 1.125 -0.234375 1.25 -0.234375 C 1.320312 -0.234375 1.398438 -0.28125 1.484375 -0.375 C 1.566406 -0.46875 1.632812 -0.613281 1.6875 -0.8125 L 1.859375 -0.78125 C 1.804688 -0.5625 1.71875 -0.363281 1.59375 -0.1875 C 1.476562 -0.0195312 1.316406 0.0625 1.109375 0.0625 C 0.753906 0.0625 0.578125 -0.125 0.578125 -0.5 C 0.578125 -0.65625 0.585938 -0.804688 0.609375 -0.953125 C 0.628906 -1.097656 0.660156 -1.28125 0.703125 -1.5 C 0.742188 -1.738281 0.769531 -1.925781 0.78125 -2.0625 C 0.800781 -2.195312 0.8125 -2.335938 0.8125 -2.484375 C 0.8125 -2.546875 0.796875 -2.601562 0.765625 -2.65625 C 0.742188 -2.71875 0.703125 -2.75 0.640625 -2.75 C 0.566406 -2.75 0.488281 -2.703125 0.40625 -2.609375 C 0.332031 -2.515625 0.265625 -2.367188 0.203125 -2.171875 L 0.046875 -2.203125 C 0.078125 -2.398438 0.15625 -2.585938 0.28125 -2.765625 C 0.414062 -2.953125 0.585938 -3.046875 0.796875 -3.046875 Z M 0.796875 -3.046875 "/></g></g></g><g fill="#000000" fill-opacity="1"><g transform="translate(165.731194, 59.521602)"><g><path d="M 1.359375 -3.046875 C 1.585938 -3.046875 1.789062 -2.988281 1.96875 -2.875 C 2.144531 -2.769531 2.234375 -2.632812 2.234375 -2.46875 C 2.234375 -2.382812 2.207031 -2.316406 2.15625 -2.265625 C 2.113281 -2.210938 2.054688 -2.1875 1.984375 -2.1875 C 1.921875 -2.1875 1.863281 -2.207031 1.8125 -2.25 C 1.769531 -2.300781 1.75 -2.359375 1.75 -2.421875 C 1.75 -2.492188 1.765625 -2.554688 1.796875 -2.609375 C 1.773438 -2.679688 1.722656 -2.738281 1.640625 -2.78125 C 1.566406 -2.832031 1.46875 -2.859375 1.34375 -2.859375 C 1.195312 -2.859375 1.066406 -2.8125 0.953125 -2.71875 C 0.835938 -2.625 0.78125 -2.507812 0.78125 -2.375 C 0.78125 -2.257812 0.832031 -2.15625 0.9375 -2.0625 C 1.039062 -1.976562 1.203125 -1.875 1.421875 -1.75 C 1.597656 -1.644531 1.738281 -1.550781 1.84375 -1.46875 C 1.957031 -1.382812 2.050781 -1.285156 2.125 -1.171875 C 2.207031 -1.066406 2.25 -0.945312 2.25 -0.8125 C 2.25 -0.644531 2.203125 -0.492188 2.109375 -0.359375 C 2.015625 -0.222656 1.882812 -0.117188 1.71875 -0.046875 C 1.550781 0.0234375 1.359375 0.0625 1.140625 0.0625 C 0.878906 0.0625 0.648438 0.00390625 0.453125 -0.109375 C 0.265625 -0.222656 0.171875 -0.378906 0.171875 -0.578125 C 0.171875 -0.660156 0.195312 -0.726562 0.25 -0.78125 C 0.300781 -0.832031 0.363281 -0.859375 0.4375 -0.859375 C 0.507812 -0.859375 0.566406 -0.832031 0.609375 -0.78125 C 0.660156 -0.738281 0.6875 -0.679688 0.6875 -0.609375 C 0.6875 -0.546875 0.664062 -0.488281 0.625 -0.4375 C 0.65625 -0.34375 0.71875 -0.269531 0.8125 -0.21875 C 0.90625 -0.175781 1.007812 -0.15625 1.125 -0.15625 C 1.332031 -0.15625 1.488281 -0.203125 1.59375 -0.296875 C 1.707031 -0.398438 1.765625 -0.539062 1.765625 -0.71875 C 1.765625 -0.851562 1.707031 -0.96875 1.59375 -1.0625 C 1.488281 -1.164062 1.320312 -1.285156 1.09375 -1.421875 C 0.832031 -1.566406 0.640625 -1.695312 0.515625 -1.8125 C 0.390625 -1.9375 0.328125 -2.082031 0.328125 -2.25 C 0.328125 -2.382812 0.367188 -2.515625 0.453125 -2.640625 C 0.535156 -2.765625 0.65625 -2.863281 0.8125 -2.9375 C 0.976562 -3.007812 1.160156 -3.046875 1.359375 -3.046875 Z M 1.359375 -3.046875 "/></g></g></g><g fill="#000000" fill-opacity="1"><g transform="translate(168.286101, 59.521602)"><g><path d="M 1.1875 -2.984375 L 2.140625 -2.984375 L 2.125 -2.75 L 1.15625 -2.75 L 1.125 -2.359375 C 1.03125 -1.609375 0.984375 -1.078125 0.984375 -0.765625 C 0.984375 -0.609375 1 -0.476562 1.03125 -0.375 C 1.070312 -0.28125 1.148438 -0.234375 1.265625 -0.234375 C 1.472656 -0.234375 1.660156 -0.375 1.828125 -0.65625 L 1.984375 -0.5625 C 1.859375 -0.34375 1.726562 -0.179688 1.59375 -0.078125 C 1.46875 0.015625 1.3125 0.0625 1.125 0.0625 C 0.90625 0.0625 0.742188 0 0.640625 -0.125 C 0.546875 -0.257812 0.5 -0.429688 0.5 -0.640625 C 0.5 -0.867188 0.515625 -1.171875 0.546875 -1.546875 C 0.578125 -1.921875 0.613281 -2.316406 0.65625 -2.734375 L 0.125 -2.734375 L 0.15625 -2.984375 C 0.382812 -2.984375 0.570312 -3.050781 0.71875 -3.1875 C 0.875 -3.332031 0.988281 -3.546875 1.0625 -3.828125 L 1.296875 -3.828125 Z M 1.1875 -2.984375 "/></g></g></g><g fill="#000000" fill-opacity="1"><g transform="translate(170.458966, 59.521602)"><g><path d="M 1.703125 -3.046875 C 1.921875 -3.046875 2.113281 -2.992188 2.28125 -2.890625 C 2.457031 -2.785156 2.59375 -2.632812 2.6875 -2.4375 C 2.789062 -2.25 2.84375 -2.019531 2.84375 -1.75 C 2.84375 -1.414062 2.78125 -1.113281 2.65625 -0.84375 C 2.539062 -0.570312 2.375 -0.351562 2.15625 -0.1875 C 1.9375 -0.0195312 1.675781 0.0625 1.375 0.0625 C 1 0.0625 0.710938 -0.0625 0.515625 -0.3125 C 0.328125 -0.5625 0.234375 -0.878906 0.234375 -1.265625 C 0.234375 -1.597656 0.289062 -1.898438 0.40625 -2.171875 C 0.53125 -2.441406 0.703125 -2.65625 0.921875 -2.8125 C 1.148438 -2.96875 1.410156 -3.046875 1.703125 -3.046875 Z M 1.609375 -2.828125 C 1.429688 -2.828125 1.28125 -2.765625 1.15625 -2.640625 C 1.03125 -2.515625 0.929688 -2.34375 0.859375 -2.125 C 0.796875 -1.90625 0.765625 -1.664062 0.765625 -1.40625 C 0.765625 -1.070312 0.816406 -0.78125 0.921875 -0.53125 C 1.023438 -0.28125 1.195312 -0.15625 1.4375 -0.15625 C 1.644531 -0.15625 1.8125 -0.234375 1.9375 -0.390625 C 2.070312 -0.546875 2.164062 -0.738281 2.21875 -0.96875 C 2.28125 -1.195312 2.3125 -1.414062 2.3125 -1.625 C 2.3125 -1.957031 2.257812 -2.238281 2.15625 -2.46875 C 2.050781 -2.707031 1.867188 -2.828125 1.609375 -2.828125 Z M 1.359375 -3.578125 L 1.828125 -4.359375 C 1.898438 -4.484375 1.984375 -4.546875 2.078125 -4.546875 C 2.128906 -4.546875 2.171875 -4.53125 2.203125 -4.5 C 2.234375 -4.46875 2.25 -4.421875 2.25 -4.359375 C 2.25 -4.273438 2.207031 -4.1875 2.125 -4.09375 L 1.5 -3.453125 Z M 1.359375 -3.578125 "/></g></g></g><g fill="#000000" fill-opacity="1"><g transform="translate(173.569032, 59.521602)"><g><path d="M 2.3125 -3.046875 C 2.4375 -3.046875 2.535156 -3.015625 2.609375 -2.953125 C 2.691406 -2.890625 2.734375 -2.804688 2.734375 -2.703125 C 2.734375 -2.628906 2.707031 -2.5625 2.65625 -2.5 C 2.601562 -2.445312 2.535156 -2.421875 2.453125 -2.421875 C 2.378906 -2.421875 2.316406 -2.441406 2.265625 -2.484375 C 2.210938 -2.523438 2.179688 -2.585938 2.171875 -2.671875 C 2.160156 -2.671875 2.140625 -2.671875 2.109375 -2.671875 C 1.941406 -2.671875 1.78125 -2.535156 1.625 -2.265625 C 1.46875 -2.003906 1.335938 -1.679688 1.234375 -1.296875 C 1.140625 -0.921875 1.09375 -0.570312 1.09375 -0.25 C 1.09375 -0.21875 1.09375 -0.132812 1.09375 0 L 0.609375 0 C 0.597656 -0.03125 0.59375 -0.0820312 0.59375 -0.15625 C 0.59375 -0.394531 0.625 -0.800781 0.6875 -1.375 L 0.765625 -2.078125 C 0.796875 -2.273438 0.8125 -2.410156 0.8125 -2.484375 C 0.8125 -2.566406 0.796875 -2.628906 0.765625 -2.671875 C 0.742188 -2.722656 0.703125 -2.75 0.640625 -2.75 C 0.566406 -2.75 0.488281 -2.703125 0.40625 -2.609375 C 0.332031 -2.515625 0.265625 -2.367188 0.203125 -2.171875 L 0.046875 -2.203125 C 0.0664062 -2.316406 0.109375 -2.4375 0.171875 -2.5625 C 0.234375 -2.695312 0.316406 -2.8125 0.421875 -2.90625 C 0.535156 -3 0.664062 -3.046875 0.8125 -3.046875 C 0.96875 -3.046875 1.078125 -2.992188 1.140625 -2.890625 C 1.210938 -2.796875 1.25 -2.65625 1.25 -2.46875 C 1.25 -2.289062 1.21875 -2.050781 1.15625 -1.75 L 1.1875 -1.75 C 1.34375 -2.226562 1.515625 -2.5625 1.703125 -2.75 C 1.890625 -2.945312 2.09375 -3.046875 2.3125 -3.046875 Z M 2.3125 -3.046875 "/></g></g></g><g fill="#000000" fill-opacity="1"><g transform="translate(176.285115, 59.521602)"><g><path d="M 1.140625 -4.34375 C 1.222656 -4.34375 1.296875 -4.304688 1.359375 -4.234375 C 1.421875 -4.171875 1.453125 -4.09375 1.453125 -4 C 1.453125 -3.894531 1.421875 -3.8125 1.359375 -3.75 C 1.296875 -3.695312 1.21875 -3.671875 1.125 -3.671875 C 1.039062 -3.671875 0.96875 -3.695312 0.90625 -3.75 C 0.84375 -3.8125 0.8125 -3.894531 0.8125 -4 C 0.8125 -4.09375 0.84375 -4.171875 0.90625 -4.234375 C 0.96875 -4.304688 1.046875 -4.34375 1.140625 -4.34375 Z M 0.796875 -3.046875 C 0.953125 -3.046875 1.070312 -2.988281 1.15625 -2.875 C 1.25 -2.769531 1.296875 -2.617188 1.296875 -2.421875 C 1.296875 -2.273438 1.257812 -2.003906 1.1875 -1.609375 C 1.15625 -1.359375 1.125 -1.148438 1.09375 -0.984375 C 1.070312 -0.816406 1.0625 -0.648438 1.0625 -0.484375 C 1.0625 -0.316406 1.125 -0.234375 1.25 -0.234375 C 1.320312 -0.234375 1.398438 -0.28125 1.484375 -0.375 C 1.566406 -0.46875 1.632812 -0.613281 1.6875 -0.8125 L 1.859375 -0.78125 C 1.804688 -0.5625 1.71875 -0.363281 1.59375 -0.1875 C 1.476562 -0.0195312 1.316406 0.0625 1.109375 0.0625 C 0.753906 0.0625 0.578125 -0.125 0.578125 -0.5 C 0.578125 -0.65625 0.585938 -0.804688 0.609375 -0.953125 C 0.628906 -1.097656 0.660156 -1.28125 0.703125 -1.5 C 0.742188 -1.738281 0.769531 -1.925781 0.78125 -2.0625 C 0.800781 -2.195312 0.8125 -2.335938 0.8125 -2.484375 C 0.8125 -2.546875 0.796875 -2.601562 0.765625 -2.65625 C 0.742188 -2.71875 0.703125 -2.75 0.640625 -2.75 C 0.566406 -2.75 0.488281 -2.703125 0.40625 -2.609375 C 0.332031 -2.515625 0.265625 -2.367188 0.203125 -2.171875 L 0.046875 -2.203125 C 0.078125 -2.398438 0.15625 -2.585938 0.28125 -2.765625 C 0.414062 -2.953125 0.585938 -3.046875 0.796875 -3.046875 Z M 0.796875 -3.046875 "/></g></g></g><g fill="#000000" fill-opacity="1"><g transform="translate(178.219207, 59.521602)"><g><path d="M 1.96875 -3.046875 C 2.238281 -3.046875 2.503906 -3.015625 2.765625 -2.953125 C 2.585938 -1.648438 2.5 -0.851562 2.5 -0.5625 C 2.5 -0.457031 2.507812 -0.375 2.53125 -0.3125 C 2.550781 -0.257812 2.597656 -0.234375 2.671875 -0.234375 C 2.742188 -0.234375 2.816406 -0.28125 2.890625 -0.375 C 2.972656 -0.46875 3.046875 -0.613281 3.109375 -0.8125 L 3.265625 -0.78125 C 3.242188 -0.664062 3.203125 -0.539062 3.140625 -0.40625 C 3.078125 -0.28125 2.988281 -0.171875 2.875 -0.078125 C 2.769531 0.015625 2.644531 0.0625 2.5 0.0625 C 2.195312 0.0625 2.046875 -0.113281 2.046875 -0.46875 C 2.046875 -0.644531 2.082031 -0.910156 2.15625 -1.265625 L 2.140625 -1.265625 C 1.972656 -0.742188 1.789062 -0.390625 1.59375 -0.203125 C 1.394531 -0.0234375 1.191406 0.0625 0.984375 0.0625 C 0.742188 0.0625 0.554688 -0.0195312 0.421875 -0.1875 C 0.285156 -0.351562 0.21875 -0.613281 0.21875 -0.96875 C 0.21875 -1.351562 0.28125 -1.703125 0.40625 -2.015625 C 0.539062 -2.328125 0.738281 -2.578125 1 -2.765625 C 1.269531 -2.953125 1.59375 -3.046875 1.96875 -3.046875 Z M 1.78125 -2.828125 C 1.550781 -2.828125 1.351562 -2.742188 1.1875 -2.578125 C 1.03125 -2.421875 0.910156 -2.207031 0.828125 -1.9375 C 0.753906 -1.664062 0.71875 -1.378906 0.71875 -1.078125 C 0.71875 -0.492188 0.847656 -0.203125 1.109375 -0.203125 C 1.285156 -0.203125 1.457031 -0.335938 1.625 -0.609375 C 1.800781 -0.878906 1.945312 -1.21875 2.0625 -1.625 C 2.1875 -2.03125 2.25 -2.410156 2.25 -2.765625 C 2.125 -2.804688 1.96875 -2.828125 1.78125 -2.828125 Z M 1.78125 -2.828125 "/></g></g></g><g fill="#000000" fill-opacity="1"><g transform="translate(181.490448, 59.521602)"><g><path d="M 0.625 -0.65625 C 0.71875 -0.65625 0.789062 -0.617188 0.84375 -0.546875 C 0.90625 -0.484375 0.9375 -0.398438 0.9375 -0.296875 C 0.9375 -0.191406 0.898438 -0.0976562 0.828125 -0.015625 C 0.753906 0.0546875 0.671875 0.09375 0.578125 0.09375 C 0.484375 0.09375 0.40625 0.0625 0.34375 0 C 0.28125 -0.0703125 0.25 -0.160156 0.25 -0.265625 C 0.25 -0.378906 0.285156 -0.472656 0.359375 -0.546875 C 0.441406 -0.617188 0.53125 -0.65625 0.625 -0.65625 Z M 0.625 -0.65625 "/></g></g></g><g fill="#000000" fill-opacity="1"><g transform="translate(181.769217, 47.543289)"><g><path d="M 3.421875 -10.796875 L 4.40625 -10.796875 L 4.40625 3.4375 L 3.421875 3.4375 Z M 3.421875 -10.796875 "/></g></g></g></svg>