<svg xmlns="http://www.w3.org/2000/svg" xmlns:xlink="http://www.w3.org/1999/xlink" width="100" zoomAndPan="magnify" viewBox="0 0 75 74.999997" height="100" preserveAspectRatio="xMidYMid meet" version="1.0"><defs><g/><clipPath id="6e0199b0ca"><path d="M 0 0.09375 L 75 0.09375 L 75 75 L 0 75 Z M 0 0.09375 " clip-rule="nonzero"/></clipPath></defs><g clip-path="url(#6e0199b0ca)"><path fill="#bbaa91" d="M 74.734375 32.90625 C 74.371094 31.796875 73.347656 31.050781 72.179688 31.050781 C 72.175781 31.050781 72.175781 31.050781 72.171875 31.050781 L 66.5 31.0625 C 66.5 31.0625 66.496094 31.0625 66.496094 31.0625 C 66.367188 31.0625 66.28125 30.996094 66.242188 30.875 L 64.496094 25.472656 C 64.136719 24.359375 63.109375 23.613281 61.941406 23.613281 C 61.488281 23.613281 61.058594 23.726562 60.679688 23.925781 C 58.671875 20.847656 56.046875 18.175781 53.007812 16.105469 L 53.007812 13.742188 C 53.007812 13.242188 52.699219 12.792969 52.230469 12.613281 L 50.429688 11.921875 C 50.152344 10.960938 49.769531 10.035156 49.285156 9.160156 L 50.070312 7.394531 C 50.273438 6.9375 50.171875 6.402344 49.820312 6.050781 L 47.070312 3.300781 C 46.71875 2.945312 46.183594 2.847656 45.726562 3.050781 L 43.957031 3.835938 C 43.082031 3.351562 42.160156 2.96875 41.199219 2.691406 L 40.503906 0.886719 C 40.324219 0.421875 39.878906 0.113281 39.378906 0.113281 L 35.488281 0.113281 C 34.988281 0.113281 34.542969 0.421875 34.363281 0.886719 L 33.667969 2.691406 C 32.707031 2.96875 31.785156 3.351562 30.910156 3.835938 L 29.140625 3.050781 C 28.683594 2.847656 28.148438 2.945312 27.796875 3.300781 L 25.046875 6.050781 C 24.695312 6.402344 24.59375 6.9375 24.796875 7.394531 L 25.582031 9.160156 C 25.101562 10.035156 24.714844 10.960938 24.4375 11.921875 L 22.636719 12.613281 C 22.167969 12.792969 21.859375 13.242188 21.859375 13.742188 L 21.859375 16.105469 C 19.578125 17.65625 17.554688 19.523438 15.824219 21.675781 C 14.441406 21.070312 12.914062 20.734375 11.3125 20.734375 C 5.074219 20.734375 0 25.808594 0 32.042969 C 0 34.980469 0.925781 36.558594 1.816406 38.085938 C 2.804688 39.773438 3.824219 41.515625 4.070312 45.632812 L 4.070312 47.234375 C 4.070312 48.371094 4.746094 49.355469 5.710938 49.8125 L 5.710938 50.515625 C 5.710938 51.671875 6.40625 52.667969 7.394531 53.113281 L 7.394531 53.800781 C 7.394531 55.371094 8.675781 56.652344 10.246094 56.652344 L 12.375 56.652344 C 13.445312 56.652344 14.378906 56.058594 14.867188 55.183594 C 17.660156 59.089844 21.421875 62.210938 25.789062 64.234375 C 23.410156 66.71875 21.816406 69.980469 21.421875 73.644531 C 21.386719 73.984375 21.496094 74.324219 21.726562 74.578125 C 21.953125 74.835938 22.28125 74.980469 22.625 74.980469 L 52.242188 74.980469 C 52.585938 74.980469 52.914062 74.835938 53.140625 74.578125 C 53.371094 74.324219 53.480469 73.984375 53.445312 73.644531 C 53.050781 69.980469 51.457031 66.71875 49.078125 64.230469 C 52.730469 62.539062 56 60.050781 58.617188 56.957031 C 61.273438 53.816406 63.199219 50.113281 64.246094 46.160156 L 66.683594 47.941406 C 67.628906 48.628906 68.902344 48.632812 69.847656 47.945312 C 70.792969 47.257812 71.183594 46.046875 70.820312 44.9375 L 69.058594 39.542969 C 69.015625 39.417969 69.050781 39.316406 69.15625 39.238281 L 73.753906 35.914062 C 74.699219 35.226562 75.09375 34.019531 74.734375 32.90625 Z M 24.277344 14.570312 L 25.882812 13.953125 C 26.253906 13.808594 26.53125 13.492188 26.625 13.105469 C 26.894531 11.960938 27.347656 10.871094 27.964844 9.867188 C 28.175781 9.53125 28.203125 9.109375 28.039062 8.746094 L 27.339844 7.171875 L 28.917969 5.59375 L 30.492188 6.292969 C 30.855469 6.453125 31.277344 6.425781 31.617188 6.21875 C 32.621094 5.597656 33.710938 5.148438 34.851562 4.875 C 35.238281 4.785156 35.558594 4.507812 35.699219 4.136719 L 36.320312 2.527344 L 38.546875 2.527344 L 39.167969 4.136719 C 39.308594 4.507812 39.628906 4.785156 40.015625 4.875 C 41.15625 5.148438 42.246094 5.597656 43.25 6.21875 C 43.589844 6.425781 44.011719 6.453125 44.375 6.292969 L 45.949219 5.59375 L 47.527344 7.171875 L 46.828125 8.746094 C 46.664062 9.109375 46.691406 9.527344 46.902344 9.867188 C 47.519531 10.871094 47.972656 11.960938 48.242188 13.105469 C 48.335938 13.492188 48.613281 13.808594 48.984375 13.953125 L 50.589844 14.570312 L 50.589844 16.800781 L 48.984375 17.417969 C 48.613281 17.5625 48.335938 17.878906 48.242188 18.265625 C 47.972656 19.410156 47.519531 20.5 46.902344 21.503906 C 46.691406 21.84375 46.664062 22.261719 46.828125 22.625 L 47.527344 24.199219 L 45.949219 25.777344 L 44.375 25.078125 C 44.011719 24.917969 43.589844 24.945312 43.25 25.152344 C 42.246094 25.773438 41.160156 26.222656 40.015625 26.496094 C 39.628906 26.589844 39.308594 26.867188 39.167969 27.238281 L 38.546875 28.84375 L 36.320312 28.84375 L 35.699219 27.234375 C 35.558594 26.863281 35.238281 26.585938 34.851562 26.496094 C 33.710938 26.222656 32.621094 25.773438 31.617188 25.152344 C 31.277344 24.945312 30.855469 24.917969 30.492188 25.078125 L 28.917969 25.777344 L 27.339844 24.199219 L 28.039062 22.625 C 28.203125 22.261719 28.175781 21.84375 27.964844 21.503906 C 27.347656 20.5 26.894531 19.410156 26.625 18.265625 C 26.53125 17.878906 26.253906 17.5625 25.882812 17.417969 L 24.277344 16.800781 Z M 2.414062 32.042969 C 2.414062 27.140625 6.40625 23.148438 11.3125 23.148438 C 16.214844 23.148438 20.207031 27.140625 20.207031 32.042969 C 20.207031 34.324219 19.550781 35.445312 18.71875 36.867188 C 17.78125 38.472656 16.628906 40.441406 16.230469 44.382812 L 14.261719 44.382812 L 14.261719 35.675781 L 15.402344 35.675781 C 17.363281 35.675781 18.960938 34.078125 18.960938 32.117188 C 18.960938 30.160156 17.363281 28.5625 15.402344 28.5625 C 13.445312 28.5625 11.847656 30.160156 11.847656 32.117188 L 11.847656 33.257812 L 10.773438 33.257812 L 10.773438 32.117188 C 10.773438 30.160156 9.179688 28.5625 7.21875 28.5625 C 5.257812 28.5625 3.664062 30.160156 3.664062 32.117188 C 3.664062 34.078125 5.257812 35.675781 7.21875 35.675781 L 8.359375 35.675781 L 8.359375 44.382812 L 6.394531 44.382812 C 5.992188 40.441406 4.84375 38.472656 3.902344 36.867188 C 3.070312 35.445312 2.414062 34.324219 2.414062 32.042969 Z M 8.5625 50.953125 C 8.328125 50.953125 8.128906 50.753906 8.128906 50.519531 L 8.128906 50.082031 L 14.496094 50.082031 L 14.496094 50.519531 C 14.496094 50.753906 14.296875 50.953125 14.0625 50.953125 Z M 16.136719 47.234375 C 16.136719 47.46875 15.9375 47.667969 15.703125 47.667969 L 6.921875 47.667969 C 6.683594 47.667969 6.484375 47.46875 6.484375 47.234375 L 6.484375 46.800781 L 16.136719 46.800781 Z M 8.359375 33.257812 L 7.21875 33.257812 C 6.589844 33.257812 6.078125 32.746094 6.078125 32.117188 C 6.078125 31.488281 6.589844 30.976562 7.21875 30.976562 C 7.847656 30.976562 8.359375 31.488281 8.359375 32.117188 Z M 11.847656 44.382812 L 10.773438 44.382812 L 10.773438 35.675781 L 11.847656 35.675781 Z M 14.261719 33.257812 L 14.261719 32.117188 C 14.261719 31.488281 14.773438 30.976562 15.402344 30.976562 C 16.03125 30.976562 16.542969 31.488281 16.542969 32.117188 C 16.542969 32.746094 16.03125 33.257812 15.402344 33.257812 Z M 12.375 54.234375 L 10.246094 54.234375 C 10.011719 54.234375 9.8125 54.035156 9.8125 53.800781 L 9.8125 53.367188 L 12.8125 53.367188 L 12.8125 53.800781 C 12.8125 54.035156 12.613281 54.234375 12.375 54.234375 Z M 24.035156 72.566406 C 25.335938 66.277344 30.875 61.6875 37.433594 61.6875 C 43.992188 61.6875 49.53125 66.277344 50.832031 72.566406 Z M 31.109375 52.949219 C 31.109375 49.460938 33.945312 46.625 37.433594 46.625 C 40.921875 46.625 43.757812 49.460938 43.757812 52.949219 C 43.757812 56.4375 40.921875 59.273438 37.433594 59.273438 C 33.945312 59.273438 31.109375 56.4375 31.109375 52.949219 Z M 47.085938 62.46875 C 45.703125 61.4375 44.152344 60.625 42.480469 60.078125 C 44.710938 58.492188 46.171875 55.886719 46.171875 52.949219 C 46.171875 48.128906 42.253906 44.210938 37.433594 44.210938 C 32.617188 44.210938 28.695312 48.128906 28.695312 52.949219 C 28.695312 55.886719 30.15625 58.492188 32.386719 60.074219 C 30.714844 60.625 29.164062 61.4375 27.78125 62.46875 C 22.929688 60.46875 18.824219 57.007812 16.023438 52.578125 C 16.566406 52.058594 16.910156 51.328125 16.910156 50.515625 L 16.910156 49.8125 C 17.878906 49.355469 18.550781 48.371094 18.550781 47.234375 L 18.550781 45.632812 C 18.796875 41.515625 19.816406 39.773438 20.804688 38.085938 C 21.699219 36.558594 22.621094 34.980469 22.621094 32.042969 C 22.621094 28.285156 20.777344 24.949219 17.945312 22.890625 C 19.269531 21.300781 20.769531 19.882812 22.4375 18.65625 C 22.5 18.695312 22.5625 18.730469 22.632812 18.757812 L 24.4375 19.453125 C 24.714844 20.410156 25.097656 21.335938 25.582031 22.210938 L 24.796875 23.980469 C 24.59375 24.433594 24.695312 24.96875 25.046875 25.324219 L 27.796875 28.070312 C 28.148438 28.425781 28.683594 28.523438 29.140625 28.320312 L 30.910156 27.535156 C 31.785156 28.019531 32.707031 28.402344 33.667969 28.679688 L 34.363281 30.484375 C 34.542969 30.949219 34.988281 31.257812 35.488281 31.257812 L 39.378906 31.257812 C 39.878906 31.257812 40.324219 30.949219 40.503906 30.484375 L 41.199219 28.679688 C 42.160156 28.402344 43.082031 28.019531 43.957031 27.535156 L 45.726562 28.320312 C 46.183594 28.523438 46.71875 28.425781 47.070312 28.070312 L 49.820312 25.324219 C 50.171875 24.96875 50.273438 24.433594 50.070312 23.980469 L 49.285156 22.210938 C 49.765625 21.335938 50.152344 20.410156 50.429688 19.453125 L 52.230469 18.757812 C 52.300781 18.730469 52.367188 18.695312 52.429688 18.65625 C 55.144531 20.65625 57.457031 23.199219 59.183594 26.09375 L 57.640625 30.875 C 57.601562 30.996094 57.511719 31.0625 57.382812 31.0625 L 51.707031 31.050781 C 51.707031 31.050781 51.707031 31.050781 51.703125 31.050781 C 50.535156 31.050781 49.511719 31.796875 49.148438 32.90625 C 48.789062 34.019531 49.179688 35.226562 50.128906 35.914062 L 54.726562 39.238281 C 54.832031 39.316406 54.863281 39.421875 54.824219 39.542969 L 53.0625 44.9375 C 52.699219 46.046875 53.089844 47.257812 54.035156 47.945312 C 54.507812 48.289062 55.0625 48.460938 55.613281 48.460938 C 56.167969 48.460938 56.722656 48.285156 57.195312 47.941406 L 61.78125 44.597656 C 61.886719 44.519531 61.996094 44.519531 62.101562 44.597656 L 62.136719 44.625 C 60.34375 52.601562 54.660156 59.339844 47.085938 62.46875 Z M 72.335938 33.957031 L 67.738281 37.28125 C 66.789062 37.96875 66.398438 39.179688 66.761719 40.292969 L 68.527344 45.6875 C 68.566406 45.808594 68.53125 45.914062 68.425781 45.992188 C 68.324219 46.066406 68.210938 46.066406 68.109375 45.988281 L 63.523438 42.644531 C 62.578125 41.957031 61.304688 41.953125 60.359375 42.644531 L 55.773438 45.988281 C 55.667969 46.066406 55.558594 46.066406 55.457031 45.992188 C 55.351562 45.914062 55.316406 45.808594 55.355469 45.6875 L 57.121094 40.292969 C 57.484375 39.179688 57.09375 37.96875 56.144531 37.28125 L 51.546875 33.957031 C 51.441406 33.878906 51.40625 33.777344 51.445312 33.652344 C 51.488281 33.53125 51.574219 33.464844 51.703125 33.464844 L 57.378906 33.476562 C 57.382812 33.476562 57.382812 33.476562 57.386719 33.476562 C 58.554688 33.476562 59.582031 32.730469 59.941406 31.617188 L 61.683594 26.214844 C 61.722656 26.09375 61.8125 26.027344 61.941406 26.027344 C 62.070312 26.027344 62.160156 26.09375 62.199219 26.214844 L 63.941406 31.617188 C 64.300781 32.730469 65.328125 33.476562 66.5 33.476562 C 66.5 33.476562 66.503906 33.476562 66.503906 33.476562 L 72.179688 33.464844 C 72.308594 33.464844 72.398438 33.53125 72.4375 33.652344 C 72.476562 33.777344 72.441406 33.878906 72.335938 33.957031 Z M 37.433594 24.710938 C 42.410156 24.710938 46.460938 20.664062 46.460938 15.6875 C 46.460938 10.710938 42.410156 6.660156 37.433594 6.660156 C 32.457031 6.660156 28.40625 10.710938 28.40625 15.6875 C 28.40625 20.664062 32.457031 24.710938 37.433594 24.710938 Z M 37.433594 9.074219 C 41.078125 9.074219 44.042969 12.039062 44.042969 15.6875 C 44.042969 19.332031 41.078125 22.296875 37.433594 22.296875 C 33.789062 22.296875 30.824219 19.332031 30.824219 15.6875 C 30.824219 12.039062 33.789062 9.074219 37.433594 9.074219 Z M 32.90625 16.757812 C 32.433594 16.285156 32.433594 15.523438 32.902344 15.050781 C 33.375 14.578125 34.140625 14.578125 34.613281 15.050781 L 35.941406 16.382812 L 40.296875 12.429688 C 40.792969 11.980469 41.554688 12.015625 42.003906 12.511719 C 42.453125 13.003906 42.414062 13.769531 41.921875 14.21875 L 36.714844 18.941406 C 36.484375 19.152344 36.191406 19.257812 35.902344 19.257812 C 35.59375 19.257812 35.285156 19.136719 35.046875 18.902344 Z M 32.90625 16.757812 " fill-opacity="1" fill-rule="nonzero"/></g><g fill="#000000" fill-opacity="1"><g transform="translate(72.773045, 7.266665)"><g><path d="M 0.171875 0 L 0.09375 0 L 0.09375 -0.765625 L 0.171875 -0.765625 Z M 0.171875 0 "/></g></g></g></svg>