<svg xmlns="http://www.w3.org/2000/svg" xmlns:xlink="http://www.w3.org/1999/xlink" width="80" zoomAndPan="magnify" viewBox="0 0 60 52.499999" height="70" preserveAspectRatio="xMidYMid meet" version="1.0"><defs><g/><clipPath id="4224435a4c"><path d="M 2.519531 0 L 57.496094 0 L 57.496094 52 L 2.519531 52 Z M 2.519531 0 " clip-rule="nonzero"/></clipPath></defs><g clip-path="url(#4224435a4c)"><path fill="#000000" d="M 23.453125 14.621094 L 29.503906 14.621094 C 29.835938 14.621094 30.105469 14.351562 30.105469 14.019531 C 30.105469 12.226562 28.792969 10.746094 27.074219 10.453125 L 27.074219 0.871094 C 27.074219 0.539062 26.804688 0.269531 26.472656 0.269531 C 26.140625 0.269531 25.871094 0.539062 25.871094 0.871094 L 25.871094 10.453125 C 24.152344 10.746094 22.839844 12.226562 22.839844 14.019531 C 22.851562 14.351562 23.121094 14.621094 23.453125 14.621094 Z M 26.472656 11.601562 C 27.601562 11.601562 28.546875 12.375 28.816406 13.417969 L 24.121094 13.417969 C 24.398438 12.375 25.34375 11.601562 26.472656 11.601562 Z M 57.398438 51.230469 L 55.550781 43.472656 C 55.917969 43.152344 56.144531 42.679688 56.144531 42.171875 L 56.144531 23.117188 C 56.144531 22.300781 55.671875 21.605469 54.917969 21.292969 C 54.164062 20.980469 53.339844 21.140625 52.757812 21.710938 C 50.929688 23.539062 50.050781 26.148438 50.394531 28.714844 L 51.683594 38.210938 C 51.683594 38.210938 51.683594 38.273438 51.683594 38.273438 C 51.726562 38.800781 51.273438 39.285156 50.75 39.273438 C 50.75 39.273438 45.71875 39.273438 45.71875 39.273438 L 44.6875 34.976562 L 48.984375 34.976562 C 49.320312 34.976562 49.589844 34.707031 49.589844 34.375 L 49.589844 31.023438 C 49.589844 30.691406 49.320312 30.421875 48.984375 30.421875 L 44.546875 30.421875 C 45.535156 29.550781 46.160156 28.285156 46.160156 26.867188 C 46.160156 26.535156 45.890625 26.265625 45.558594 26.265625 L 35.210938 26.265625 C 34.875 26.265625 34.609375 26.535156 34.609375 26.867188 C 34.609375 28.285156 35.230469 29.550781 36.21875 30.421875 L 25.324219 30.421875 C 26.3125 29.550781 26.933594 28.285156 26.933594 26.867188 C 26.933594 26.535156 26.667969 26.265625 26.332031 26.265625 L 15.984375 26.265625 C 15.652344 26.265625 15.382812 26.535156 15.382812 26.867188 C 15.382812 28.285156 16.007812 29.550781 16.996094 30.421875 L 11.03125 30.421875 C 10.699219 30.421875 10.429688 30.691406 10.429688 31.023438 L 10.429688 34.375 C 10.429688 34.707031 10.699219 34.976562 11.03125 34.976562 L 15.328125 34.976562 L 14.296875 39.273438 L 9.28125 39.273438 C 8.722656 39.285156 8.269531 38.757812 8.34375 38.210938 C 8.34375 38.210938 9.632812 28.714844 9.632812 28.714844 C 9.976562 26.15625 9.097656 23.539062 7.269531 21.710938 C 6.109375 20.464844 3.820312 21.410156 3.894531 23.117188 C 3.894531 23.117188 3.894531 42.171875 3.894531 42.171875 C 3.894531 42.679688 4.109375 43.152344 4.476562 43.472656 L 2.617188 51.230469 C 2.519531 51.59375 2.820312 51.980469 3.207031 51.96875 L 5.21875 51.96875 C 5.464844 51.96875 5.691406 51.820312 5.777344 51.582031 L 8.773438 43.902344 L 13.203125 43.902344 L 11.449219 51.21875 C 11.40625 51.402344 11.449219 51.582031 11.570312 51.734375 C 11.6875 51.875 11.859375 51.960938 12.042969 51.960938 L 14.640625 51.960938 C 14.890625 51.960938 15.113281 51.808594 15.199219 51.574219 L 16.242188 48.886719 L 17.285156 51.574219 C 17.371094 51.808594 17.597656 51.960938 17.84375 51.960938 L 19.855469 51.960938 C 20.035156 51.960938 20.207031 51.875 20.328125 51.734375 C 20.445312 51.59375 20.488281 51.402344 20.445312 51.21875 L 18.691406 43.902344 L 19.273438 43.902344 C 20.464844 43.761719 19.628906 41.785156 19.253906 41.164062 L 21.660156 34.976562 L 38.359375 34.976562 L 40.765625 41.164062 C 40.390625 41.765625 39.539062 43.773438 40.742188 43.902344 C 40.742188 43.902344 41.324219 43.902344 41.324219 43.902344 L 39.574219 51.230469 C 39.53125 51.410156 39.574219 51.59375 39.691406 51.746094 C 39.808594 51.882812 39.980469 51.96875 40.164062 51.96875 L 42.171875 51.96875 C 42.421875 51.96875 42.644531 51.820312 42.730469 51.582031 L 43.773438 48.898438 L 44.816406 51.582031 C 44.902344 51.820312 45.128906 51.96875 45.375 51.96875 L 47.976562 51.96875 C 48.160156 51.96875 48.332031 51.882812 48.449219 51.746094 C 48.566406 51.605469 48.609375 51.410156 48.566406 51.230469 L 46.816406 43.914062 L 51.242188 43.914062 L 54.242188 51.59375 C 54.328125 51.832031 54.550781 51.980469 54.800781 51.980469 L 56.808594 51.980469 C 57.183594 51.980469 57.496094 51.59375 57.398438 51.230469 Z M 35.855469 27.480469 L 44.890625 27.480469 C 44.601562 29.15625 43.140625 30.433594 41.390625 30.433594 L 39.367188 30.433594 C 37.605469 30.433594 36.144531 29.15625 35.855469 27.480469 Z M 16.640625 27.480469 L 25.679688 27.480469 C 25.386719 29.15625 23.925781 30.433594 22.175781 30.433594 L 20.15625 30.433594 C 18.390625 30.433594 16.929688 29.15625 16.640625 27.480469 Z M 4.796875 50.765625 L 3.972656 50.765625 L 5.605469 43.914062 L 7.472656 43.914062 Z M 5.625 42.710938 C 5.550781 42.710938 5.476562 42.6875 5.402344 42.65625 C 5.207031 42.570312 5.089844 42.378906 5.089844 42.171875 L 5.089844 23.117188 C 5.132812 22.335938 5.96875 22.128906 6.410156 22.558594 C 7.980469 24.128906 8.730469 26.363281 8.441406 28.554688 L 7.152344 38.039062 C 7.066406 38.683594 7.269531 39.335938 7.710938 39.808594 C 8.109375 40.238281 8.6875 40.488281 9.269531 40.488281 L 14.007812 40.488281 L 13.472656 42.710938 Z M 19.101562 50.765625 L 18.261719 50.765625 L 16.886719 47.242188 C 16.984375 46.984375 17.617188 45.363281 17.738281 45.074219 Z M 14.222656 50.765625 L 12.792969 50.765625 C 13.867188 46.296875 15.511719 39.414062 16.566406 34.976562 L 20.371094 34.976562 C 18.488281 39.808594 16.09375 45.964844 14.222656 50.765625 Z M 11.632812 33.785156 L 11.632812 31.636719 L 48.382812 31.636719 L 48.382812 33.785156 Z M 41.765625 50.765625 L 40.925781 50.765625 L 42.292969 45.074219 L 43.128906 47.242188 Z M 47.222656 50.765625 L 45.792969 50.765625 C 44.117188 46.449219 41.335938 39.316406 39.648438 34.976562 L 43.441406 34.976562 L 44.644531 40.003906 C 45.117188 42 46.71875 48.671875 47.222656 50.765625 Z M 46.535156 42.710938 L 46 40.488281 L 50.75 40.488281 C 52.015625 40.53125 53.082031 39.273438 52.875 38.050781 C 52.875 38.050781 51.585938 28.554688 51.585938 28.554688 C 51.296875 26.363281 52.046875 24.128906 53.605469 22.570312 C 53.949219 22.238281 54.335938 22.355469 54.457031 22.410156 C 54.5625 22.453125 54.941406 22.644531 54.941406 23.128906 L 54.941406 42.183594 C 54.949219 42.472656 54.679688 42.722656 54.402344 42.722656 L 46.535156 42.722656 Z M 55.21875 50.765625 L 52.542969 43.914062 L 54.414062 43.914062 L 56.046875 50.765625 Z M 30.824219 18.175781 L 36.875 18.175781 C 37.207031 18.175781 37.476562 17.910156 37.476562 17.574219 C 37.476562 15.78125 36.167969 14.300781 34.445312 14.007812 L 34.445312 0.625 C 34.445312 0.292969 34.179688 0.0234375 33.84375 0.0234375 C 33.511719 0.0234375 33.242188 0.292969 33.242188 0.625 L 33.242188 14.007812 C 31.535156 14.300781 30.214844 15.78125 30.214844 17.574219 C 30.222656 17.910156 30.492188 18.175781 30.824219 18.175781 Z M 33.855469 15.160156 C 34.984375 15.160156 35.929688 15.933594 36.199219 16.972656 L 31.503906 16.972656 C 31.769531 15.933594 32.726562 15.160156 33.855469 15.160156 Z M 33.855469 15.160156 " fill-opacity="1" fill-rule="nonzero"/></g><g fill="#000000" fill-opacity="1"><g transform="translate(43.871704, 35.297136)"><g><path d="M 0.140625 0 L 0.140625 -1.0625 L 0.265625 -1.0625 L 0.265625 0 Z M 0.140625 0 "/></g></g></g></svg>