<svg xmlns="http://www.w3.org/2000/svg" xmlns:xlink="http://www.w3.org/1999/xlink" width="47" zoomAndPan="magnify" viewBox="0 0 35.25 74.999998" height="100" preserveAspectRatio="xMidYMid meet" version="1.0"><defs><g/><clipPath id="6505d97759"><path d="M 0 0.78125 L 34.191406 0.78125 L 34.191406 74.21875 L 0 74.21875 Z M 0 0.78125 " clip-rule="nonzero"/></clipPath><clipPath id="e73b3775fe"><path d="M 34 18 L 34.515625 18 L 34.515625 19 L 34 19 Z M 34 18 " clip-rule="nonzero"/></clipPath></defs><g clip-path="url(#6505d97759)"><path fill="#bbaa91" d="M 26.351562 12.976562 L 34.351562 12.976562 L 34.351562 0.917969 L 24.136719 0.917969 L 24.136719 0.960938 C 10.707031 1.453125 7.9375 8.976562 7.707031 16.929688 L 7.675781 16.929688 L 7.675781 25.300781 L -0.324219 25.300781 L -0.324219 37.375 L 7.675781 37.375 L 7.675781 74.082031 L 22.03125 74.082031 L 22.03125 37.375 L 32.320312 37.375 L 34.351562 25.300781 L 22.03125 25.300781 L 22.03125 17.808594 C 22.03125 15.148438 23.8125 12.976562 26.351562 12.976562 Z M 26.351562 12.976562 " fill-opacity="1" fill-rule="nonzero"/></g><g clip-path="url(#e73b3775fe)"><g fill="#000000" fill-opacity="1"><g transform="translate(34.358203, 18.755593)"><g><path d="M 0.109375 0 L 0.0625 0 L 0.0625 -0.46875 L 0.109375 -0.46875 Z M 0.109375 0 "/></g></g></g></g></svg>