<svg xmlns="http://www.w3.org/2000/svg" xmlns:xlink="http://www.w3.org/1999/xlink" width="100" zoomAndPan="magnify" viewBox="0 0 75 74.999997" height="100" preserveAspectRatio="xMidYMid meet" version="1.0"><defs><g/></defs><g fill="#000000" fill-opacity="1"><g transform="translate(72.773045, 7.266665)"><g><path d="M 0.171875 0 L 0.09375 0 L 0.09375 -0.765625 L 0.171875 -0.765625 Z M 0.171875 0 "/></g></g></g><path fill="#bbaa91" d="M 21.96875 0.261719 C 17.980469 0.449219 15.253906 1.085938 12.871094 2.023438 C 10.40625 2.984375 8.316406 4.273438 6.238281 6.359375 C 4.160156 8.445312 2.878906 10.539062 1.925781 13.007812 C 1.003906 15.394531 0.375 18.121094 0.199219 22.113281 C 0.0234375 26.105469 -0.015625 27.386719 0.00390625 37.570312 C 0.0234375 47.753906 0.0703125 49.03125 0.261719 53.03125 C 0.453125 57.023438 1.085938 59.746094 2.023438 62.128906 C 2.984375 64.59375 4.273438 66.683594 6.359375 68.761719 C 8.449219 70.84375 10.539062 72.121094 13.011719 73.074219 C 15.398438 73.996094 18.125 74.625 22.117188 74.800781 C 26.109375 74.972656 27.394531 75.015625 37.574219 74.996094 C 47.753906 74.976562 49.035156 74.929688 53.035156 74.742188 C 57.035156 74.550781 59.746094 73.914062 62.128906 72.980469 C 64.59375 72.015625 66.683594 70.730469 68.761719 68.644531 C 70.839844 66.554688 72.121094 64.460938 73.074219 61.992188 C 73.996094 59.605469 74.625 56.878906 74.796875 52.890625 C 74.972656 48.886719 75.015625 47.609375 74.996094 37.429688 C 74.976562 27.246094 74.929688 25.96875 74.738281 21.96875 C 74.550781 17.972656 73.914062 15.253906 72.980469 12.871094 C 72.015625 10.40625 70.730469 8.320312 68.644531 6.238281 C 66.554688 4.15625 64.460938 2.878906 61.992188 1.925781 C 59.605469 1.003906 56.878906 0.375 52.886719 0.203125 C 48.898438 0.0273438 47.613281 -0.015625 37.429688 0.00390625 C 27.242188 0.0234375 25.96875 0.0664062 21.96875 0.261719 M 22.40625 68.054688 C 18.75 67.894531 16.765625 67.285156 15.441406 66.777344 C 13.691406 66.101562 12.441406 65.289062 11.125 63.980469 C 9.804688 62.675781 8.996094 61.421875 8.3125 59.675781 C 7.796875 58.351562 7.179688 56.371094 7.007812 52.714844 C 6.820312 48.761719 6.78125 47.574219 6.761719 37.5625 C 6.738281 27.550781 6.777344 26.367188 6.949219 22.414062 C 7.105469 18.757812 7.71875 16.773438 8.226562 15.449219 C 8.902344 13.695312 9.714844 12.449219 11.023438 11.132812 C 12.332031 9.816406 13.582031 9.003906 15.328125 8.320312 C 16.652344 7.804688 18.632812 7.191406 22.289062 7.015625 C 26.242188 6.828125 27.429688 6.789062 37.4375 6.769531 C 47.449219 6.746094 48.636719 6.785156 52.59375 6.957031 C 56.246094 7.117188 58.234375 7.722656 59.554688 8.234375 C 61.308594 8.910156 62.554688 9.71875 63.875 11.03125 C 65.191406 12.339844 66.003906 13.585938 66.6875 15.339844 C 67.203125 16.65625 67.816406 18.640625 67.992188 22.296875 C 68.179688 26.25 68.222656 27.4375 68.238281 37.445312 C 68.257812 47.457031 68.222656 48.644531 68.050781 52.597656 C 67.890625 56.253906 67.285156 58.238281 66.773438 59.5625 C 66.097656 61.3125 65.285156 62.5625 63.976562 63.878906 C 62.667969 65.195312 61.417969 66.007812 59.667969 66.691406 C 58.347656 67.207031 56.363281 67.824219 52.710938 67.996094 C 48.757812 68.183594 47.570312 68.222656 37.558594 68.242188 C 27.542969 68.265625 26.363281 68.222656 22.40625 68.054688 M 52.976562 17.457031 C 52.976562 17.753906 53.007812 18.046875 53.066406 18.335938 C 53.125 18.625 53.210938 18.90625 53.324219 19.179688 C 53.4375 19.453125 53.574219 19.710938 53.742188 19.957031 C 53.90625 20.203125 54.09375 20.429688 54.300781 20.636719 C 54.511719 20.847656 54.738281 21.03125 54.984375 21.195312 C 55.230469 21.359375 55.488281 21.5 55.761719 21.609375 C 56.035156 21.722656 56.316406 21.808594 56.609375 21.867188 C 56.898438 21.921875 57.191406 21.949219 57.484375 21.949219 C 57.78125 21.949219 58.074219 21.921875 58.363281 21.863281 C 58.652344 21.804688 58.933594 21.71875 59.207031 21.605469 C 59.480469 21.492188 59.738281 21.351562 59.984375 21.1875 C 60.230469 21.023438 60.457031 20.835938 60.664062 20.625 C 60.875 20.417969 61.058594 20.1875 61.222656 19.945312 C 61.386719 19.699219 61.527344 19.4375 61.636719 19.164062 C 61.75 18.890625 61.835938 18.609375 61.894531 18.320312 C 61.949219 18.03125 61.976562 17.738281 61.976562 17.441406 C 61.976562 17.144531 61.949219 16.855469 61.890625 16.5625 C 61.832031 16.273438 61.746094 15.992188 61.632812 15.71875 C 61.519531 15.449219 61.378906 15.1875 61.214844 14.941406 C 61.050781 14.699219 60.863281 14.46875 60.652344 14.261719 C 60.445312 14.054688 60.214844 13.867188 59.96875 13.703125 C 59.722656 13.539062 59.464844 13.402344 59.191406 13.289062 C 58.917969 13.175781 58.636719 13.09375 58.347656 13.035156 C 58.058594 12.976562 57.765625 12.949219 57.46875 12.949219 C 57.171875 12.949219 56.878906 12.980469 56.589844 13.039062 C 56.300781 13.097656 56.019531 13.183594 55.746094 13.296875 C 55.476562 13.410156 55.214844 13.546875 54.96875 13.714844 C 54.726562 13.878906 54.5 14.066406 54.289062 14.273438 C 54.082031 14.484375 53.894531 14.710938 53.730469 14.957031 C 53.566406 15.203125 53.429688 15.460938 53.316406 15.734375 C 53.203125 16.007812 53.121094 16.289062 53.0625 16.578125 C 53.003906 16.871094 52.976562 17.164062 52.976562 17.457031 M 18.246094 37.539062 C 18.265625 48.171875 26.902344 56.773438 37.535156 56.753906 C 48.167969 56.734375 56.777344 48.097656 56.757812 37.460938 C 56.734375 26.828125 48.097656 18.222656 37.460938 18.246094 C 26.828125 18.265625 18.226562 26.902344 18.246094 37.539062 M 25 37.523438 C 25 36.703125 25.078125 35.890625 25.234375 35.085938 C 25.394531 34.28125 25.628906 33.496094 25.941406 32.738281 C 26.253906 31.980469 26.636719 31.257812 27.09375 30.574219 C 27.546875 29.890625 28.0625 29.257812 28.644531 28.679688 C 29.222656 28.097656 29.851562 27.578125 30.535156 27.121094 C 31.214844 26.660156 31.9375 26.277344 32.695312 25.960938 C 33.449219 25.644531 34.230469 25.40625 35.035156 25.242188 C 35.839844 25.082031 36.65625 25 37.476562 25 C 38.296875 24.996094 39.109375 25.074219 39.914062 25.234375 C 40.71875 25.394531 41.5 25.628906 42.261719 25.941406 C 43.019531 26.253906 43.742188 26.636719 44.425781 27.09375 C 45.109375 27.546875 45.738281 28.0625 46.320312 28.644531 C 46.902344 29.222656 47.421875 29.851562 47.878906 30.535156 C 48.335938 31.214844 48.722656 31.933594 49.039062 32.691406 C 49.355469 33.449219 49.59375 34.230469 49.753906 35.035156 C 49.917969 35.839844 50 36.652344 50 37.472656 C 50 38.296875 49.921875 39.109375 49.765625 39.914062 C 49.605469 40.71875 49.371094 41.5 49.058594 42.261719 C 48.746094 43.019531 48.363281 43.738281 47.90625 44.421875 C 47.453125 45.105469 46.9375 45.738281 46.355469 46.320312 C 45.777344 46.902344 45.148438 47.421875 44.464844 47.878906 C 43.785156 48.335938 43.0625 48.722656 42.304688 49.039062 C 41.546875 49.355469 40.769531 49.59375 39.964844 49.753906 C 39.160156 49.917969 38.34375 49.996094 37.523438 50 C 36.703125 50 35.890625 49.921875 35.085938 49.765625 C 34.28125 49.605469 33.496094 49.371094 32.738281 49.058594 C 31.980469 48.746094 31.257812 48.363281 30.574219 47.90625 C 29.890625 47.453125 29.257812 46.933594 28.679688 46.355469 C 28.097656 45.777344 27.578125 45.148438 27.121094 44.464844 C 26.664062 43.785156 26.277344 43.0625 25.960938 42.304688 C 25.644531 41.546875 25.40625 40.765625 25.246094 39.960938 C 25.082031 39.15625 25 38.34375 25 37.523438 " fill-opacity="1" fill-rule="nonzero"/></svg>