<svg xmlns="http://www.w3.org/2000/svg" xmlns:xlink="http://www.w3.org/1999/xlink" width="80" zoomAndPan="magnify" viewBox="0 0 60 52.499999" height="70" preserveAspectRatio="xMidYMid meet" version="1.0"><defs><g/><clipPath id="d5c6c53dc6"><path d="M 0.28125 2.15625 L 59.714844 2.15625 L 59.714844 51.929688 L 0.28125 51.929688 Z M 0.28125 2.15625 " clip-rule="nonzero"/></clipPath></defs><g clip-path="url(#d5c6c53dc6)"><path fill="#000000" d="M 59.011719 22.15625 L 44.148438 22.15625 C 44.347656 20.714844 43.101562 19.332031 41.632812 19.367188 C 41.632812 19.367188 29.535156 19.367188 29.535156 19.367188 C 28.382812 19.367188 27.367188 20.144531 27.078125 21.273438 L 26.855469 22.15625 L 19.273438 22.15625 L 19.273438 18.984375 L 26.832031 18.984375 C 28.207031 18.984375 29.335938 17.867188 29.335938 16.492188 L 29.335938 4.644531 C 29.335938 3.269531 28.21875 2.15625 26.832031 2.15625 L 6.136719 2.15625 C 4.761719 2.15625 3.644531 3.269531 3.644531 4.644531 L 3.644531 16.484375 C 3.644531 17.855469 4.761719 18.972656 6.136719 18.972656 L 13.707031 18.972656 L 13.707031 22.15625 L 0.988281 22.15625 C 0.605469 22.15625 0.300781 22.460938 0.300781 22.84375 L 0.300781 51.246094 C 0.300781 51.628906 0.605469 51.929688 0.988281 51.929688 L 19.039062 51.929688 C 19.425781 51.929688 19.726562 51.628906 19.726562 51.246094 L 19.726562 40.578125 L 26.855469 40.578125 L 26.855469 47.464844 L 24.839844 47.464844 C 22.757812 47.464844 21.066406 49.152344 21.066406 51.234375 C 21.066406 51.617188 21.371094 51.917969 21.753906 51.917969 C 22.140625 51.917969 22.441406 51.617188 22.441406 51.234375 C 22.441406 49.90625 23.523438 48.835938 24.839844 48.835938 L 26.855469 48.835938 L 26.855469 51.234375 C 26.855469 51.617188 27.160156 51.917969 27.542969 51.917969 C 27.925781 51.917969 28.230469 51.617188 28.230469 51.234375 L 28.230469 48.835938 L 30.246094 48.835938 C 31.570312 48.835938 32.644531 49.917969 32.644531 51.234375 C 32.644531 51.617188 32.945312 51.917969 33.332031 51.917969 C 33.714844 51.917969 34.019531 51.617188 34.019531 51.234375 C 34.019531 49.152344 32.328125 47.464844 30.246094 47.464844 L 28.230469 47.464844 L 28.230469 40.578125 L 37.511719 40.578125 C 38.675781 40.578125 39.691406 39.800781 39.96875 38.671875 L 42.902344 27.171875 L 54.65625 27.171875 L 54.65625 51.234375 C 54.65625 51.617188 54.957031 51.917969 55.34375 51.917969 L 59 51.917969 C 59.382812 51.917969 59.6875 51.617188 59.6875 51.234375 L 59.6875 22.84375 C 59.699219 22.460938 59.394531 22.15625 59.011719 22.15625 Z M 5.019531 4.644531 C 5.019531 4.027344 5.519531 3.527344 6.136719 3.527344 L 26.832031 3.527344 C 27.449219 3.527344 27.960938 4.027344 27.960938 4.644531 L 27.960938 14.0625 L 5.019531 14.0625 Z M 6.136719 17.597656 C 5.519531 17.597656 5.019531 17.097656 5.019531 16.484375 L 5.019531 15.4375 L 27.960938 15.4375 L 27.960938 16.484375 C 27.960938 17.097656 27.460938 17.597656 26.832031 17.597656 Z M 17.898438 18.972656 L 17.898438 22.15625 L 15.082031 22.15625 L 15.082031 18.984375 L 17.898438 18.984375 Z M 1.675781 23.53125 L 13.882812 23.53125 C 14.011719 23.667969 14.183594 23.773438 14.394531 23.773438 L 18.585938 23.773438 C 18.796875 23.773438 18.972656 23.679688 19.097656 23.53125 L 26.507812 23.53125 L 25.925781 25.808594 L 1.675781 25.808594 Z M 20.054688 28.195312 C 19.949219 28.195312 19.84375 28.21875 19.726562 28.21875 L 19.726562 27.183594 L 25.574219 27.183594 L 25.316406 28.195312 Z M 24.96875 29.566406 L 23.605469 34.894531 L 19.726562 34.894531 L 19.726562 29.589844 C 19.832031 29.578125 19.9375 29.566406 20.054688 29.566406 Z M 1.675781 27.183594 L 18.355469 27.183594 L 18.355469 28.507812 C 16.863281 29.089844 15.699219 30.402344 15.382812 32.066406 L 14.605469 36.125 C 14.066406 36.671875 13.695312 37.40625 13.53125 38.183594 L 1.675781 38.183594 Z M 18.355469 30.03125 L 18.355469 34.894531 C 17.679688 34.882812 16.828125 34.859375 16.199219 35.113281 L 16.734375 32.335938 C 16.921875 31.332031 17.527344 30.507812 18.355469 30.03125 Z M 18.355469 50.558594 L 1.675781 50.558594 L 1.675781 39.554688 L 13.183594 39.554688 C 12.984375 40.019531 13.265625 40.589844 13.800781 40.578125 C 13.800781 40.578125 18.355469 40.578125 18.355469 40.578125 Z M 42.765625 22.191406 C 42.207031 24.378906 39.246094 35.925781 38.628906 38.347656 C 38.5 38.859375 38.035156 39.21875 37.5 39.21875 L 14.671875 39.21875 C 14.695312 39.171875 14.894531 38.335938 14.917969 38.253906 C 15.222656 37.089844 16.269531 36.277344 17.480469 36.277344 L 24.117188 36.277344 C 24.433594 36.277344 24.699219 36.066406 24.78125 35.765625 L 28.394531 21.632812 C 28.519531 21.121094 28.988281 20.75 29.523438 20.75 L 41.644531 20.75 C 42.378906 20.714844 42.972656 21.484375 42.765625 22.191406 Z M 58.324219 50.558594 L 56.039062 50.558594 L 56.039062 27.183594 L 58.324219 27.183594 Z M 58.324219 25.808594 L 43.265625 25.808594 L 43.847656 23.53125 L 58.335938 23.53125 L 58.335938 25.808594 Z M 58.324219 25.808594 " fill-opacity="1" fill-rule="nonzero"/></g><g fill="#000000" fill-opacity="1"><g transform="translate(40.900006, 31.433929)"><g><path d="M 0.140625 0 L 0.140625 -1.0625 L 0.265625 -1.0625 L 0.265625 0 Z M 0.140625 0 "/></g></g></g></svg>