<svg xmlns="http://www.w3.org/2000/svg" xmlns:xlink="http://www.w3.org/1999/xlink" width="100" zoomAndPan="magnify" viewBox="0 0 75 74.999997" height="100" preserveAspectRatio="xMidYMid meet" version="1.0"><defs><g/><clipPath id="4d13a0b7eb"><path d="M 0 0 L 74.25 0 L 74.25 75 L 0 75 Z M 0 0 " clip-rule="nonzero"/></clipPath></defs><g fill="#000000" fill-opacity="1"><g transform="translate(56.384001, 23.232144)"><g><path d="M 0.125 0 L 0.0625 0 L 0.0625 -0.53125 L 0.125 -0.53125 Z M 0.125 0 "/></g></g></g><g clip-path="url(#4d13a0b7eb)"><path fill="#ffffff" d="M 63.710938 10.894531 C 56.703125 3.875 47.378906 0.0078125 37.445312 0.00390625 C 16.976562 0.00390625 0.320312 16.660156 0.3125 37.132812 C 0.308594 43.679688 2.019531 50.066406 5.269531 55.699219 L 0 74.941406 L 19.683594 69.777344 C 25.109375 72.738281 31.214844 74.296875 37.429688 74.296875 L 37.445312 74.296875 C 57.910156 74.296875 74.570312 57.636719 74.578125 37.164062 C 74.582031 27.242188 70.722656 17.914062 63.710938 10.894531 Z M 37.445312 68.027344 L 37.433594 68.027344 C 31.894531 68.023438 26.464844 66.535156 21.722656 63.722656 L 20.597656 63.054688 L 8.914062 66.121094 L 12.03125 54.730469 L 11.300781 53.5625 C 8.210938 48.648438 6.578125 42.96875 6.582031 37.136719 C 6.585938 20.121094 20.433594 6.273438 37.457031 6.273438 C 45.703125 6.277344 53.449219 9.492188 59.277344 15.328125 C 65.105469 21.160156 68.3125 28.914062 68.308594 37.160156 C 68.300781 54.179688 54.457031 68.023438 37.445312 68.023438 Z M 54.375 44.910156 C 53.445312 44.445312 48.886719 42.203125 48.035156 41.894531 C 47.183594 41.582031 46.566406 41.429688 45.949219 42.359375 C 45.328125 43.289062 43.550781 45.378906 43.011719 45.996094 C 42.46875 46.617188 41.925781 46.691406 41 46.226562 C 40.070312 45.761719 37.082031 44.785156 33.539062 41.621094 C 30.78125 39.164062 28.917969 36.125 28.375 35.195312 C 27.835938 34.265625 28.320312 33.765625 28.78125 33.300781 C 29.199219 32.886719 29.710938 32.21875 30.175781 31.675781 C 30.640625 31.136719 30.792969 30.746094 31.101562 30.128906 C 31.410156 29.511719 31.257812 28.96875 31.023438 28.503906 C 30.792969 28.039062 28.9375 23.472656 28.164062 21.617188 C 27.410156 19.804688 26.644531 20.050781 26.078125 20.023438 C 25.535156 19.996094 24.917969 19.988281 24.296875 19.988281 C 23.679688 19.988281 22.675781 20.222656 21.824219 21.152344 C 20.972656 22.082031 18.574219 24.324219 18.574219 28.890625 C 18.574219 33.457031 21.898438 37.871094 22.363281 38.488281 C 22.828125 39.109375 28.90625 48.480469 38.214844 52.5 C 40.429688 53.457031 42.15625 54.027344 43.503906 54.457031 C 45.726562 55.160156 47.75 55.0625 49.347656 54.824219 C 51.128906 54.554688 54.835938 52.578125 55.609375 50.410156 C 56.382812 48.246094 56.382812 46.386719 56.152344 46 C 55.921875 45.613281 55.300781 45.378906 54.375 44.914062 Z M 54.375 44.910156 " fill-opacity="1" fill-rule="evenodd"/></g></svg>