<svg xmlns="http://www.w3.org/2000/svg" xmlns:xlink="http://www.w3.org/1999/xlink" width="80" zoomAndPan="magnify" viewBox="0 0 60 52.499999" height="70" preserveAspectRatio="xMidYMid meet" version="1.0"><defs><g/><clipPath id="e8ae273bcc"><path d="M 0.28125 30 L 59.714844 30 L 59.714844 52.003906 L 0.28125 52.003906 Z M 0.28125 30 " clip-rule="nonzero"/></clipPath><clipPath id="716010a894"><path d="M 39 4 L 59.714844 4 L 59.714844 32 L 39 32 Z M 39 4 " clip-rule="nonzero"/></clipPath><clipPath id="feb7faa5c9"><path d="M 20 30 L 22 30 L 22 52.003906 L 20 52.003906 Z M 20 30 " clip-rule="nonzero"/></clipPath><clipPath id="42c4d4a43d"><path d="M 39 30 L 41 30 L 41 52.003906 L 39 52.003906 Z M 39 30 " clip-rule="nonzero"/></clipPath><clipPath id="dd9683165c"><path d="M 0.28125 36 L 22 36 L 22 39 L 0.28125 39 Z M 0.28125 36 " clip-rule="nonzero"/></clipPath><clipPath id="1d41a00cba"><path d="M 10 36 L 12 36 L 12 52.003906 L 10 52.003906 Z M 10 36 " clip-rule="nonzero"/></clipPath><clipPath id="387c480cb6"><path d="M 39 17 L 59.714844 17 L 59.714844 19 L 39 19 Z M 39 17 " clip-rule="nonzero"/></clipPath><clipPath id="3d6caf9f4d"><path d="M 19 2.453125 L 38 2.453125 L 38 20 L 19 20 Z M 19 2.453125 " clip-rule="nonzero"/></clipPath></defs><g clip-path="url(#e8ae273bcc)"><path fill="#000000" d="M 39.933594 31.730469 C 40.320312 31.730469 40.628906 31.417969 40.628906 31.03125 C 40.628906 30.644531 40.320312 30.332031 39.933594 30.332031 L 0.984375 30.332031 C 0.601562 30.332031 0.289062 30.644531 0.289062 31.03125 L 0.289062 51.523438 C 0.289062 51.90625 0.601562 52.222656 0.984375 52.222656 L 59.011719 52.222656 C 59.398438 52.222656 59.710938 51.90625 59.710938 51.523438 L 59.710938 31.03125 C 59.710938 30.644531 59.398438 30.332031 59.011719 30.332031 C 58.628906 30.332031 58.316406 30.644531 58.316406 31.03125 L 58.316406 50.820312 L 1.683594 50.820312 L 1.683594 31.730469 Z M 39.933594 31.730469 " fill-opacity="1" fill-rule="nonzero"/></g><g clip-path="url(#716010a894)"><path fill="#000000" d="M 58.316406 31.023438 L 58.316406 5.6875 L 40.628906 5.6875 L 40.628906 31.03125 C 40.628906 31.417969 40.320312 31.730469 39.933594 31.730469 C 39.550781 31.730469 39.238281 31.417969 39.238281 31.03125 L 39.238281 4.988281 C 39.238281 4.601562 39.550781 4.289062 39.933594 4.289062 L 59.011719 4.289062 C 59.398438 4.289062 59.710938 4.601562 59.710938 4.988281 L 59.710938 31.03125 C 59.710938 31.953125 58.316406 31.953125 58.316406 31.03125 L 58.316406 31.023438 L 58.316406 31.03125 C 59.539062 29.800781 58.324219 30.472656 58.316406 31.023438 Z M 58.316406 31.023438 " fill-opacity="1" fill-rule="nonzero"/></g><g clip-path="url(#feb7faa5c9)"><path fill="#000000" d="M 21.683594 31.03125 C 21.683594 30.644531 21.371094 30.332031 20.988281 30.332031 C 20.601562 30.332031 20.289062 30.644531 20.289062 31.03125 L 20.289062 51.523438 C 20.289062 51.90625 20.601562 52.222656 20.988281 52.222656 C 21.371094 52.222656 21.683594 51.90625 21.683594 51.523438 Z M 21.683594 31.03125 " fill-opacity="1" fill-rule="nonzero"/></g><g clip-path="url(#42c4d4a43d)"><path fill="#000000" d="M 40.628906 31.03125 C 40.628906 30.644531 40.320312 30.332031 39.933594 30.332031 C 39.550781 30.332031 39.238281 30.644531 39.238281 31.03125 L 39.238281 51.523438 C 39.238281 51.90625 39.550781 52.222656 39.933594 52.222656 C 40.320312 52.222656 40.628906 51.90625 40.628906 51.523438 Z M 40.628906 31.03125 " fill-opacity="1" fill-rule="nonzero"/></g><path fill="#000000" d="M 24.265625 49.195312 L 36.558594 49.195312 C 36.65625 49.195312 36.746094 49.152344 36.8125 49.085938 C 36.878906 49.019531 36.917969 48.929688 36.917969 48.832031 L 36.917969 40.597656 C 36.917969 40.496094 36.878906 40.40625 36.8125 40.339844 C 36.746094 40.273438 36.65625 40.234375 36.558594 40.234375 L 24.265625 40.234375 C 24.164062 40.234375 24.074219 40.273438 24.007812 40.339844 C 23.945312 40.40625 23.902344 40.496094 23.902344 40.597656 L 23.902344 48.832031 C 23.902344 48.929688 23.945312 49.019531 24.007812 49.085938 C 24.074219 49.152344 24.164062 49.195312 24.265625 49.195312 Z M 36.558594 50.59375 L 24.265625 50.59375 C 23.78125 50.59375 23.34375 50.394531 23.023438 50.078125 C 22.707031 49.757812 22.511719 49.316406 22.511719 48.832031 L 22.511719 40.597656 C 22.511719 40.113281 22.707031 39.671875 23.023438 39.351562 C 23.34375 39.03125 23.78125 38.835938 24.265625 38.835938 L 36.558594 38.835938 C 37.042969 38.835938 37.480469 39.03125 37.796875 39.351562 C 38.113281 39.671875 38.3125 40.113281 38.3125 40.597656 L 38.3125 48.832031 C 38.3125 49.316406 38.113281 49.757812 37.796875 50.078125 C 37.480469 50.394531 37.042969 50.59375 36.558594 50.59375 Z M 36.558594 50.59375 " fill-opacity="1" fill-rule="nonzero"/><path fill="#000000" d="M 25.335938 32.316406 C 25.832031 32.316406 26.28125 32.519531 26.609375 32.847656 C 26.628906 32.863281 26.640625 32.878906 26.65625 32.898438 C 26.957031 33.222656 27.140625 33.65625 27.140625 34.128906 C 27.140625 34.628906 26.9375 35.082031 26.609375 35.410156 C 26.285156 35.738281 25.832031 35.9375 25.335938 35.9375 C 24.839844 35.9375 24.390625 35.738281 24.0625 35.410156 L 24.554688 34.914062 L 24.0625 35.410156 C 24.046875 35.394531 24.03125 35.378906 24.015625 35.359375 C 23.714844 35.035156 23.53125 34.601562 23.53125 34.128906 C 23.53125 33.628906 23.734375 33.175781 24.058594 32.847656 C 24.386719 32.519531 24.835938 32.316406 25.335938 32.316406 Z M 26.117188 33.339844 L 25.625 33.832031 C 25.554688 33.761719 25.449219 33.714844 25.335938 33.714844 C 25.222656 33.714844 25.121094 33.761719 25.046875 33.835938 C 24.972656 33.910156 24.925781 34.015625 24.925781 34.128906 C 24.925781 34.230469 24.960938 34.328125 25.023438 34.398438 L 25.046875 34.417969 L 25.042969 34.421875 C 25.117188 34.496094 25.222656 34.539062 25.335938 34.539062 C 25.449219 34.539062 25.550781 34.492188 25.625 34.417969 C 25.699219 34.34375 25.746094 34.242188 25.746094 34.128906 C 25.746094 34.023438 25.710938 33.929688 25.648438 33.859375 L 25.625 33.835938 Z M 26.117188 33.339844 " fill-opacity="1" fill-rule="nonzero"/><path fill="#000000" d="M 34.835938 32.578125 C 35.261719 32.578125 35.648438 32.753906 35.925781 33.03125 C 36.203125 33.3125 36.378906 33.699219 36.378906 34.128906 C 36.378906 34.554688 36.203125 34.941406 35.925781 35.222656 C 35.648438 35.503906 35.261719 35.675781 34.835938 35.675781 C 34.410156 35.675781 34.023438 35.503906 33.746094 35.222656 C 33.464844 34.941406 33.292969 34.554688 33.292969 34.128906 C 33.292969 33.699219 33.464844 33.3125 33.746094 33.03125 C 34.023438 32.753906 34.410156 32.578125 34.835938 32.578125 Z M 34.941406 34.023438 C 34.914062 33.996094 34.875 33.976562 34.835938 33.976562 C 34.792969 33.976562 34.757812 33.996094 34.730469 34.023438 C 34.703125 34.046875 34.6875 34.085938 34.6875 34.128906 C 34.6875 34.167969 34.703125 34.207031 34.730469 34.234375 C 34.757812 34.261719 34.792969 34.277344 34.835938 34.277344 C 34.875 34.277344 34.914062 34.261719 34.941406 34.234375 C 34.96875 34.207031 34.984375 34.167969 34.984375 34.128906 C 34.984375 34.085938 34.96875 34.046875 34.941406 34.023438 Z M 34.941406 34.023438 " fill-opacity="1" fill-rule="nonzero"/><path fill="#000000" d="M 20.988281 36.144531 C 20.601562 36.144531 20.289062 36.457031 20.289062 36.84375 C 20.289062 37.230469 20.601562 37.542969 20.988281 37.542969 L 39.933594 37.542969 C 40.320312 37.542969 40.628906 37.230469 40.628906 36.84375 C 40.628906 36.457031 40.320312 36.144531 39.933594 36.144531 Z M 20.988281 36.144531 " fill-opacity="1" fill-rule="nonzero"/><path fill="#000000" d="M 28.902344 31.976562 L 31.222656 31.976562 C 31.609375 31.976562 31.917969 32.292969 31.917969 32.675781 L 31.917969 35.007812 C 31.917969 35.394531 31.609375 35.710938 31.222656 35.710938 L 28.902344 35.710938 C 28.519531 35.710938 28.207031 35.394531 28.207031 35.007812 L 28.207031 32.675781 C 28.207031 32.292969 28.519531 31.976562 28.902344 31.976562 Z M 30.527344 33.378906 L 29.597656 33.378906 L 29.597656 34.308594 L 30.527344 34.308594 Z M 30.527344 33.378906 " fill-opacity="1" fill-rule="nonzero"/><g clip-path="url(#dd9683165c)"><path fill="#000000" d="M 0.984375 36.871094 C 0.601562 36.871094 0.289062 37.1875 0.289062 37.574219 C 0.289062 37.957031 0.601562 38.273438 0.984375 38.273438 L 20.988281 38.273438 C 21.371094 38.273438 21.683594 37.957031 21.683594 37.574219 C 21.683594 37.1875 21.371094 36.871094 20.988281 36.871094 Z M 0.984375 36.871094 " fill-opacity="1" fill-rule="nonzero"/></g><g clip-path="url(#1d41a00cba)"><path fill="#000000" d="M 10.058594 51.523438 C 10.058594 51.90625 10.371094 52.222656 10.753906 52.222656 C 11.140625 52.222656 11.449219 51.90625 11.449219 51.523438 L 11.449219 37.574219 C 11.449219 37.1875 11.140625 36.871094 10.753906 36.871094 C 10.371094 36.871094 10.058594 37.1875 10.058594 37.574219 Z M 10.058594 51.523438 " fill-opacity="1" fill-rule="nonzero"/></g><path fill="#000000" d="M 7.519531 24.136719 C 7.519531 24.523438 7.832031 24.835938 8.214844 24.835938 C 8.601562 24.835938 8.914062 24.523438 8.914062 24.136719 C 8.914062 23.039062 9.492188 22.34375 10.238281 22.042969 C 10.542969 21.917969 10.871094 21.859375 11.199219 21.859375 C 11.535156 21.859375 11.863281 21.921875 12.164062 22.042969 C 12.90625 22.34375 13.488281 23.039062 13.488281 24.136719 L 13.488281 31.078125 C 13.488281 31.464844 13.800781 31.777344 14.183594 31.777344 C 14.570312 31.777344 14.878906 31.464844 14.878906 31.078125 L 14.878906 24.136719 C 14.878906 22.375 13.914062 21.246094 12.679688 20.746094 C 12.207031 20.554688 11.703125 20.460938 11.199219 20.460938 L 11.199219 20.464844 C 10.695312 20.464844 10.1875 20.558594 9.722656 20.746094 C 8.484375 21.246094 7.519531 22.375 7.519531 24.136719 Z M 7.519531 24.136719 " fill-opacity="1" fill-rule="nonzero"/><path fill="#000000" d="M 8.828125 23.796875 L 10.417969 26.148438 C 10.5 26.269531 10.539062 26.40625 10.539062 26.539062 L 10.539062 27.378906 C 10.539062 27.765625 10.226562 28.078125 9.84375 28.078125 L 6.589844 28.078125 C 6.203125 28.078125 5.894531 27.765625 5.894531 27.378906 L 5.894531 26.515625 C 5.894531 26.339844 5.957031 26.183594 6.058594 26.0625 L 7.644531 23.742188 L 8.214844 24.136719 L 7.640625 23.738281 C 7.859375 23.421875 8.292969 23.339844 8.609375 23.558594 C 8.703125 23.621094 8.777344 23.707031 8.828125 23.796875 Z M 9.097656 26.679688 L 8.210938 25.371094 L 7.316406 26.679688 Z M 9.097656 26.679688 " fill-opacity="1" fill-rule="nonzero"/><g clip-path="url(#387c480cb6)"><path fill="#000000" d="M 39.933594 17.308594 C 39.550781 17.308594 39.238281 17.625 39.238281 18.007812 C 39.238281 18.394531 39.550781 18.710938 39.933594 18.710938 L 59.011719 18.710938 C 59.398438 18.710938 59.710938 18.394531 59.710938 18.007812 C 59.710938 17.625 59.398438 17.308594 59.011719 17.308594 Z M 39.933594 17.308594 " fill-opacity="1" fill-rule="nonzero"/></g><path fill="#000000" d="M 41.820312 32.035156 C 41.4375 32.035156 41.125 32.347656 41.125 32.734375 C 41.125 33.121094 41.4375 33.433594 41.820312 33.433594 C 42.597656 33.433594 43.210938 32.542969 43.566406 31.109375 C 43.855469 29.949219 44.035156 28.363281 44.035156 26.628906 C 44.035156 25.617188 44.046875 24.957031 44.054688 24.257812 C 44.070312 23.191406 44.089844 22.058594 44.082031 20.550781 C 44.078125 20.167969 43.765625 19.855469 43.382812 19.855469 C 43 19.859375 42.691406 20.171875 42.691406 20.558594 C 42.703125 22.046875 42.683594 23.179688 42.667969 24.242188 C 42.65625 25.125 42.640625 25.972656 42.640625 26.628906 C 42.640625 28.253906 42.480469 29.71875 42.21875 30.773438 C 42.023438 31.550781 41.875 32.035156 41.820312 32.035156 Z M 42.628906 16.351562 C 42.644531 16.734375 42.964844 17.035156 43.347656 17.023438 C 43.730469 17.007812 44.03125 16.6875 44.015625 16.300781 C 43.949219 14.558594 43.816406 12.988281 43.574219 11.84375 C 43.265625 10.398438 42.71875 9.507812 41.820312 9.507812 C 41.4375 9.507812 41.125 9.820312 41.125 10.207031 C 41.125 10.59375 41.4375 10.90625 41.820312 10.90625 C 41.914062 10.90625 42.050781 11.375 42.214844 12.132812 C 42.441406 13.203125 42.566406 14.691406 42.628906 16.351562 Z M 42.628906 16.351562 " fill-opacity="1" fill-rule="nonzero"/><path fill="#000000" d="M 13.648438 42.269531 C 13.648438 41.886719 13.335938 41.570312 12.953125 41.570312 C 12.566406 41.570312 12.253906 41.886719 12.253906 42.269531 L 12.253906 45.769531 C 12.253906 46.15625 12.566406 46.46875 12.953125 46.46875 C 13.335938 46.46875 13.648438 46.15625 13.648438 45.769531 Z M 13.648438 42.269531 " fill-opacity="1" fill-rule="nonzero"/><path fill="#000000" d="M 9.296875 42.269531 C 9.296875 41.886719 8.984375 41.570312 8.597656 41.570312 C 8.214844 41.570312 7.902344 41.886719 7.902344 42.269531 L 7.902344 45.769531 C 7.902344 46.15625 8.214844 46.46875 8.597656 46.46875 C 8.984375 46.46875 9.296875 46.15625 9.296875 45.769531 Z M 9.296875 42.269531 " fill-opacity="1" fill-rule="nonzero"/><path fill="#000000" d="M 7.292969 33.554688 C 6.910156 33.554688 6.597656 33.867188 6.597656 34.253906 C 6.597656 34.640625 6.910156 34.953125 7.292969 34.953125 L 15.5625 34.953125 C 15.945312 34.953125 16.257812 34.640625 16.257812 34.253906 C 16.257812 33.867188 15.945312 33.554688 15.5625 33.554688 Z M 7.292969 33.554688 " fill-opacity="1" fill-rule="nonzero"/><g clip-path="url(#3d6caf9f4d)"><path fill="#000000" d="M 31.609375 3.148438 C 31.609375 2.761719 31.296875 2.449219 30.914062 2.449219 C 30.527344 2.449219 30.214844 2.761719 30.214844 3.148438 L 30.214844 10 C 30.214844 10.191406 30.292969 10.367188 30.421875 10.496094 L 36.089844 16.191406 L 36.089844 18.191406 L 20.511719 18.191406 L 20.511719 16.191406 L 26.183594 10.496094 C 26.308594 10.367188 26.386719 10.191406 26.386719 10 L 26.386719 3.148438 C 26.386719 2.761719 26.074219 2.449219 25.691406 2.449219 C 25.304688 2.449219 24.992188 2.761719 24.992188 3.148438 L 24.992188 9.710938 L 19.320312 15.40625 C 19.1875 15.542969 19.117188 15.722656 19.117188 15.902344 L 19.117188 18.890625 C 19.117188 19.277344 19.429688 19.589844 19.8125 19.589844 L 36.789062 19.589844 C 37.171875 19.589844 37.484375 19.277344 37.484375 18.890625 L 37.484375 15.902344 C 37.484375 15.722656 37.414062 15.542969 37.28125 15.40625 L 31.609375 9.710938 Z M 31.609375 3.148438 " fill-opacity="1" fill-rule="nonzero"/></g><path fill="#000000" d="M 19.8125 15.203125 C 19.429688 15.203125 19.117188 15.515625 19.117188 15.902344 C 19.117188 16.289062 19.429688 16.601562 19.8125 16.601562 L 36.789062 16.601562 C 37.171875 16.601562 37.484375 16.289062 37.484375 15.902344 C 37.484375 15.515625 37.171875 15.203125 36.789062 15.203125 Z M 19.8125 15.203125 " fill-opacity="1" fill-rule="nonzero"/><g fill="#000000" fill-opacity="1"><g transform="translate(46.100477, 29.35374)"><g><path d="M 0.140625 0 L 0.140625 -1.0625 L 0.265625 -1.0625 L 0.265625 0 Z M 0.140625 0 "/></g></g></g></svg>