<svg xmlns="http://www.w3.org/2000/svg" xmlns:xlink="http://www.w3.org/1999/xlink" width="100" zoomAndPan="magnify" viewBox="0 0 75 74.999997" height="100" preserveAspectRatio="xMidYMid meet" version="1.0"><defs><g/><clipPath id="558845c880"><path d="M 4.75 0 L 70 0 L 70 75 L 4.75 75 Z M 4.75 0 " clip-rule="nonzero"/></clipPath></defs><g fill="#000000" fill-opacity="1"><g transform="translate(72.773045, 7.266665)"><g><path d="M 0.171875 0 L 0.09375 0 L 0.09375 -0.765625 L 0.171875 -0.765625 Z M 0.171875 0 "/></g></g></g><g clip-path="url(#558845c880)"><path fill="#bbaa91" d="M 60.429688 15.03125 C 56.390625 12.398438 53.476562 8.183594 52.566406 3.273438 C 52.371094 2.210938 52.261719 1.117188 52.261719 0 L 39.367188 0 L 39.347656 51.675781 C 39.128906 57.460938 34.367188 62.105469 28.527344 62.105469 C 26.714844 62.105469 25.003906 61.652344 23.5 60.859375 C 20.050781 59.046875 17.6875 55.429688 17.6875 51.269531 C 17.6875 45.292969 22.550781 40.429688 28.527344 40.429688 C 29.644531 40.429688 30.714844 40.613281 31.726562 40.929688 L 31.726562 27.765625 C 30.675781 27.621094 29.613281 27.535156 28.527344 27.535156 C 15.441406 27.535156 4.796875 38.179688 4.796875 51.269531 C 4.796875 59.296875 8.804688 66.402344 14.925781 70.699219 C 18.78125 73.40625 23.472656 75 28.527344 75 C 41.613281 75 52.261719 64.355469 52.261719 51.269531 L 52.261719 25.0625 C 57.316406 28.691406 63.515625 30.832031 70.199219 30.832031 L 70.199219 17.9375 C 66.601562 17.9375 63.246094 16.867188 60.429688 15.03125 Z M 60.429688 15.03125 " fill-opacity="1" fill-rule="nonzero"/></g></svg>