<svg xmlns="http://www.w3.org/2000/svg" xmlns:xlink="http://www.w3.org/1999/xlink" width="87" zoomAndPan="magnify" viewBox="0 0 65.25 74.999997" height="100" preserveAspectRatio="xMidYMid meet" version="1.0"><defs><g/><clipPath id="e9955614f5"><path d="M 0 0.566406 L 64.386719 0.566406 L 64.386719 74.574219 L 0 74.574219 Z M 0 0.566406 " clip-rule="nonzero"/></clipPath></defs><g fill="#000000" fill-opacity="1"><g transform="translate(49.054518, 21.094746)"><g><path d="M 0.109375 0 L 0.0625 0 L 0.0625 -0.46875 L 0.109375 -0.46875 Z M 0.109375 0 "/></g></g></g><g clip-path="url(#e9955614f5)"><path fill="#ffffff" d="M 54.816406 15.398438 C 50.828125 12.800781 47.953125 8.640625 47.054688 3.796875 C 46.863281 2.75 46.753906 1.671875 46.753906 0.566406 L 34.03125 0.566406 L 34.011719 51.550781 C 33.796875 57.261719 29.097656 61.84375 23.339844 61.84375 C 21.546875 61.84375 19.863281 61.394531 18.378906 60.613281 C 14.972656 58.824219 12.644531 55.253906 12.644531 51.148438 C 12.644531 45.253906 17.441406 40.457031 23.335938 40.457031 C 24.4375 40.457031 25.496094 40.636719 26.492188 40.949219 L 26.492188 27.960938 C 25.460938 27.820312 24.410156 27.734375 23.335938 27.734375 C 10.425781 27.734375 -0.078125 38.238281 -0.078125 51.148438 C -0.078125 59.070312 3.878906 66.082031 9.921875 70.320312 C 13.722656 72.992188 18.351562 74.566406 23.339844 74.566406 C 36.25 74.566406 46.753906 64.0625 46.753906 51.148438 L 46.753906 25.296875 C 51.742188 28.875 57.859375 30.988281 64.453125 30.988281 L 64.453125 18.265625 C 60.902344 18.265625 57.59375 17.210938 54.816406 15.398438 Z M 54.816406 15.398438 " fill-opacity="1" fill-rule="nonzero"/></g></svg>